G04*
G04 #@! TF.GenerationSoftware,Altium Limited,Altium Designer,21.2.0 (30)*
G04*
G04 Layer_Color=65535*
%FSLAX44Y44*%
%MOMM*%
G71*
G04*
G04 #@! TF.SameCoordinates,3F68380A-C471-43A9-BBDE-A44CCE961C07*
G04*
G04*
G04 #@! TF.FilePolarity,Positive*
G04*
G01*
G75*
%ADD10C,0.2000*%
%ADD11C,0.1270*%
%ADD12C,0.4000*%
%ADD13C,0.1000*%
%ADD14C,0.2540*%
%ADD15C,0.5000*%
D10*
X1387000Y613100D02*
G03*
X1387000Y613100I-1000J0D01*
G01*
X1996600D02*
G03*
X1996600Y613100I-1000J0D01*
G01*
X295910Y568250D02*
G03*
X295910Y568250I-1260J0D01*
G01*
X62950Y635500D02*
G03*
X62950Y635500I-1000J0D01*
G01*
X40725Y576400D02*
G03*
X40725Y576400I-1000J0D01*
G01*
X1270600Y985400D02*
G03*
X1270600Y983400I0J-1000D01*
G01*
D02*
G03*
X1270600Y985400I0J1000D01*
G01*
X351610Y365750D02*
G03*
X351610Y365750I-1260J0D01*
G01*
X1263300Y612600D02*
G03*
X1263300Y612600I-1000J0D01*
G01*
X653700D02*
G03*
X653700Y612600I-1000J0D01*
G01*
X1752000Y983400D02*
G03*
X1752000Y985400I0J1000D01*
G01*
D02*
G03*
X1752000Y983400I0J-1000D01*
G01*
X195700Y164600D02*
G03*
X195700Y166600I0J1000D01*
G01*
D02*
G03*
X195700Y164600I0J-1000D01*
G01*
X235540Y551200D02*
Y652800D01*
X156700D02*
X235540D01*
X156700Y551200D02*
X235540D01*
X409460Y382800D02*
X488300D01*
X409460Y281200D02*
X488300D01*
X409460D02*
Y382800D01*
X716000Y876750D02*
Y887250D01*
X1306500Y18000D02*
Y36000D01*
Y18000D02*
X1508000D01*
Y67000D01*
X1331000D02*
X1508000D01*
X891000D02*
X1068000D01*
Y18000D02*
Y67000D01*
X866500Y18000D02*
X1068000D01*
X866500D02*
Y36000D01*
X1771000Y67000D02*
X1948000D01*
Y18000D02*
Y67000D01*
X1746500Y18000D02*
X1948000D01*
X1746500D02*
Y36000D01*
X1551000Y67000D02*
X1728000D01*
Y18000D02*
Y67000D01*
X1526500Y18000D02*
X1728000D01*
X1526500D02*
Y36000D01*
X1111000Y67000D02*
X1288000D01*
Y18000D02*
Y67000D01*
X1086500Y18000D02*
X1288000D01*
X1086500D02*
Y36000D01*
X597000Y926000D02*
Y1028000D01*
X546000Y926000D02*
X597000D01*
X546000D02*
Y1052500D01*
X566000D01*
X329900Y17200D02*
Y30000D01*
Y17200D02*
X841900D01*
Y68200D01*
X344600D02*
X841900D01*
X252000Y926000D02*
Y1028000D01*
X201000Y926000D02*
X252000D01*
X201000D02*
Y1052500D01*
X221000D01*
X253000Y769500D02*
Y846000D01*
X204000Y769500D02*
X253000D01*
X204000D02*
Y870500D01*
X222000D01*
X317000Y926000D02*
Y1028000D01*
X266000Y926000D02*
X317000D01*
X266000D02*
Y1052500D01*
X286000D01*
X322000Y769500D02*
Y846000D01*
X273000Y769500D02*
X322000D01*
X273000D02*
Y870500D01*
X291000D01*
X393000Y926000D02*
Y1028000D01*
X342000Y926000D02*
X393000D01*
X342000D02*
Y1052500D01*
X362000D01*
X394000Y769500D02*
Y846000D01*
X345000Y769500D02*
X394000D01*
X345000D02*
Y870500D01*
X363000D01*
X463000Y769500D02*
Y846000D01*
X414000Y769500D02*
X463000D01*
X414000D02*
Y870500D01*
X432000D01*
X532000Y769500D02*
Y846000D01*
X483000Y769500D02*
X532000D01*
X483000D02*
Y870500D01*
X501000D01*
X457000Y926000D02*
Y1028000D01*
X406000Y926000D02*
X457000D01*
X406000D02*
Y1052500D01*
X426000D01*
X533000Y926000D02*
Y1028000D01*
X482000Y926000D02*
X533000D01*
X482000D02*
Y1052500D01*
X502000D01*
X553000Y870500D02*
X571000D01*
X553000Y769500D02*
Y870500D01*
Y769500D02*
X602000D01*
Y846000D01*
X240000Y202500D02*
Y437500D01*
X20000Y202500D02*
Y437500D01*
X282550Y307340D02*
Y366960D01*
X323050Y307340D02*
Y366960D01*
X308250Y199500D02*
X370500D01*
X275750Y282500D02*
X370500D01*
X303000Y448000D02*
X352500D01*
X303000Y382000D02*
X380750D01*
X295500Y488000D02*
X345000D01*
X267250Y554000D02*
X345000D01*
X320750Y571220D02*
Y630840D01*
X361250Y571220D02*
Y630840D01*
X609000Y501500D02*
Y736500D01*
X389000Y501500D02*
Y736500D01*
X277500Y656500D02*
X372250D01*
X277500Y739500D02*
X339750D01*
D11*
X1386000Y930500D02*
G03*
X1371000Y915500I0J-15000D01*
G01*
X2071000D02*
G03*
X2056000Y930500I-15000J0D01*
G01*
Y125500D02*
G03*
X2071000Y140500I0J15000D01*
G01*
X1371000D02*
G03*
X1386000Y125500I15000J0D01*
G01*
X637700Y140000D02*
G03*
X652700Y125000I15000J0D01*
G01*
X1322700D02*
G03*
X1337700Y140000I0J15000D01*
G01*
Y915000D02*
G03*
X1322700Y930000I-15000J0D01*
G01*
X652700D02*
G03*
X637700Y915000I0J-15000D01*
G01*
X1371000Y140500D02*
Y915500D01*
X1386000Y930500D02*
X2056000D01*
X2071000Y140500D02*
Y915500D01*
X1851000Y125500D02*
X2056000D01*
X1831000Y105500D02*
X1851000Y125500D01*
X1501000Y105500D02*
X1831000D01*
X1481000Y125500D02*
X1501000Y105500D01*
X1386000Y125500D02*
X1481000D01*
X2000800Y143200D02*
Y625800D01*
Y143200D02*
X2050800D01*
Y625800D01*
X2000800D02*
X2050800D01*
X1391200Y143200D02*
Y625800D01*
Y143200D02*
X1441200D01*
Y625800D01*
X1391200D02*
X1441200D01*
X21950Y628000D02*
X101950D01*
X21950Y474000D02*
Y628000D01*
Y474000D02*
X101950D01*
Y628000D01*
X657900Y625300D02*
X707900D01*
Y142700D02*
Y625300D01*
X657900Y142700D02*
X707900D01*
X657900D02*
Y625300D01*
X1267500D02*
X1317500D01*
Y142700D02*
Y625300D01*
X1267500Y142700D02*
X1317500D01*
X1267500D02*
Y625300D01*
X652700Y125000D02*
X747700D01*
X767700Y105000D01*
X1097700D01*
X1117700Y125000D01*
X1322700D01*
X1337700Y140000D02*
Y915000D01*
X652700Y930000D02*
X1322700D01*
X637700Y140000D02*
Y915000D01*
D12*
X326946Y376350D02*
G03*
X326946Y376350I-1636J0D01*
G01*
X320126Y561830D02*
G03*
X320126Y561830I-1636J0D01*
G01*
D13*
X1308800Y1070400D02*
Y1147800D01*
X1163800D02*
X1308800D01*
X1163800Y1070400D02*
Y1147800D01*
X1340000Y1033500D02*
Y1088500D01*
Y1033500D02*
X1614000D01*
Y1088500D01*
X1340000D02*
X1614000D01*
X1645200Y1070400D02*
Y1147800D01*
X1790200D01*
Y1070400D02*
Y1147800D01*
X157500Y2200D02*
Y79600D01*
Y2200D02*
X302500D01*
Y79600D01*
D14*
X193000Y918000D02*
Y1068000D01*
Y761000D02*
Y886000D01*
Y918000D02*
X323000D01*
X288000Y1068000D02*
X323000D01*
Y918000D02*
Y1068000D01*
X333000Y918000D02*
Y1068000D01*
X572000D02*
X603000D01*
Y918000D02*
Y1068000D01*
X433000D02*
X463000D01*
Y918000D02*
Y1068000D01*
X473000Y918000D02*
Y1068000D01*
X193000Y761000D02*
X609000D01*
X333000Y918000D02*
X463000D01*
X392000Y886000D02*
X609000D01*
X473000Y918000D02*
X603000D01*
X609000Y761000D02*
Y886000D01*
X1511450Y119220D02*
Y134455D01*
X1521607Y119220D01*
Y134455D01*
X1526685D02*
Y121759D01*
X1529224Y119220D01*
X1534303D01*
X1536842Y121759D01*
Y134455D01*
X1552077Y131916D02*
X1549538Y134455D01*
X1544459D01*
X1541920Y131916D01*
Y121759D01*
X1544459Y119220D01*
X1549538D01*
X1552077Y121759D01*
X1557155Y134455D02*
Y119220D01*
X1567312D01*
X1582547Y134455D02*
X1572390D01*
Y119220D01*
X1582547D01*
X1572390Y126838D02*
X1577469D01*
X1595243Y134455D02*
X1590165D01*
X1587625Y131916D01*
Y121759D01*
X1590165Y119220D01*
X1595243D01*
X1597782Y121759D01*
Y131916D01*
X1595243Y134455D01*
X1602860Y126838D02*
X1613017D01*
X1628252Y134455D02*
X1618096D01*
Y126838D01*
X1623174D01*
X1618096D01*
Y119220D01*
X1640948D02*
Y134455D01*
X1633331Y126838D01*
X1643487D01*
X1648566Y119220D02*
X1653644D01*
X1651105D01*
Y134455D01*
X1648566Y131916D01*
X1661261Y119220D02*
X1666340D01*
X1663801D01*
Y134455D01*
X1661261Y131916D01*
X1673957Y119220D02*
Y134455D01*
X1681575D01*
X1684114Y131916D01*
Y126838D01*
X1681575Y124298D01*
X1673957D01*
X1679036D02*
X1684114Y119220D01*
X1699349Y134455D02*
X1689193D01*
Y119220D01*
X1699349D01*
X1689193Y126838D02*
X1694271D01*
X1796540Y1138775D02*
Y1126079D01*
X1799079Y1123540D01*
X1804158D01*
X1806697Y1126079D01*
Y1138775D01*
X1821932Y1136236D02*
X1819393Y1138775D01*
X1814314D01*
X1811775Y1136236D01*
Y1133697D01*
X1814314Y1131158D01*
X1819393D01*
X1821932Y1128618D01*
Y1126079D01*
X1819393Y1123540D01*
X1814314D01*
X1811775Y1126079D01*
X1827010Y1138775D02*
Y1123540D01*
X1834628D01*
X1837167Y1126079D01*
Y1128618D01*
X1834628Y1131158D01*
X1827010D01*
X1834628D01*
X1837167Y1133697D01*
Y1136236D01*
X1834628Y1138775D01*
X1827010D01*
X1796540Y1101540D02*
Y1116775D01*
X1801618Y1111697D01*
X1806697Y1116775D01*
Y1101540D01*
X1821932Y1114236D02*
X1819393Y1116775D01*
X1814314D01*
X1811775Y1114236D01*
Y1104079D01*
X1814314Y1101540D01*
X1819393D01*
X1821932Y1104079D01*
X1827010Y1116775D02*
Y1104079D01*
X1829549Y1101540D01*
X1834628D01*
X1837167Y1104079D01*
Y1116775D01*
X1842245Y1101540D02*
X1847324D01*
X1844784D01*
Y1116775D01*
X1842245Y1114236D01*
X1102540Y1100540D02*
Y1115775D01*
X1107618Y1110697D01*
X1112697Y1115775D01*
Y1100540D01*
X1127932Y1113236D02*
X1125393Y1115775D01*
X1120314D01*
X1117775Y1113236D01*
Y1103079D01*
X1120314Y1100540D01*
X1125393D01*
X1127932Y1103079D01*
X1133010Y1115775D02*
Y1103079D01*
X1135549Y1100540D01*
X1140628D01*
X1143167Y1103079D01*
Y1115775D01*
X1158402Y1100540D02*
X1148245D01*
X1158402Y1110697D01*
Y1113236D01*
X1155863Y1115775D01*
X1150784D01*
X1148245Y1113236D01*
X1116540Y1139775D02*
Y1127079D01*
X1119079Y1124540D01*
X1124157D01*
X1126697Y1127079D01*
Y1139775D01*
X1141932Y1137236D02*
X1139393Y1139775D01*
X1134314D01*
X1131775Y1137236D01*
Y1134697D01*
X1134314Y1132158D01*
X1139393D01*
X1141932Y1129618D01*
Y1127079D01*
X1139393Y1124540D01*
X1134314D01*
X1131775Y1127079D01*
X1147010Y1139775D02*
Y1124540D01*
X1154628D01*
X1157167Y1127079D01*
Y1129618D01*
X1154628Y1132158D01*
X1147010D01*
X1154628D01*
X1157167Y1134697D01*
Y1137236D01*
X1154628Y1139775D01*
X1147010D01*
X778151Y118720D02*
Y133955D01*
X788308Y118720D01*
Y133955D01*
X793386D02*
Y121259D01*
X795925Y118720D01*
X801003D01*
X803543Y121259D01*
Y133955D01*
X818778Y131416D02*
X816239Y133955D01*
X811160D01*
X808621Y131416D01*
Y121259D01*
X811160Y118720D01*
X816239D01*
X818778Y121259D01*
X823856Y133955D02*
Y118720D01*
X834013D01*
X849248Y133955D02*
X839091D01*
Y118720D01*
X849248D01*
X839091Y126337D02*
X844170D01*
X861944Y133955D02*
X856865D01*
X854326Y131416D01*
Y121259D01*
X856865Y118720D01*
X861944D01*
X864483Y121259D01*
Y131416D01*
X861944Y133955D01*
X869561Y126337D02*
X879718D01*
X894953Y133955D02*
X884796D01*
Y126337D01*
X889875D01*
X884796D01*
Y118720D01*
X907649D02*
Y133955D01*
X900032Y126337D01*
X910188D01*
X915267Y118720D02*
X920345D01*
X917806D01*
Y133955D01*
X915267Y131416D01*
X927962Y118720D02*
X933041D01*
X930502D01*
Y133955D01*
X927962Y131416D01*
X940658Y118720D02*
Y133955D01*
X948276D01*
X950815Y131416D01*
Y126337D01*
X948276Y123798D01*
X940658D01*
X945737D02*
X950815Y118720D01*
X966050Y133955D02*
X955893D01*
Y118720D01*
X966050D01*
X955893Y126337D02*
X960972D01*
X1762697Y83236D02*
X1760157Y85775D01*
X1755079D01*
X1752540Y83236D01*
Y80697D01*
X1755079Y78158D01*
X1760157D01*
X1762697Y75618D01*
Y73079D01*
X1760157Y70540D01*
X1755079D01*
X1752540Y73079D01*
X1767775Y70540D02*
Y85775D01*
X1775393D01*
X1777932Y83236D01*
Y78158D01*
X1775393Y75618D01*
X1767775D01*
X1783010Y85775D02*
X1788089D01*
X1785549D01*
Y70540D01*
X1783010D01*
X1788089D01*
X1795706Y78158D02*
X1805863D01*
X1810941Y83236D02*
X1813480Y85775D01*
X1818559D01*
X1821098Y83236D01*
Y73079D01*
X1818559Y70540D01*
X1813480D01*
X1810941Y73079D01*
Y83236D01*
X1836333Y85775D02*
X1826176D01*
Y78158D01*
X1831254Y80697D01*
X1833794D01*
X1836333Y78158D01*
Y73079D01*
X1833794Y70540D01*
X1828715D01*
X1826176Y73079D01*
X1542697Y84236D02*
X1540157Y86775D01*
X1535079D01*
X1532540Y84236D01*
Y81697D01*
X1535079Y79158D01*
X1540157D01*
X1542697Y76618D01*
Y74079D01*
X1540157Y71540D01*
X1535079D01*
X1532540Y74079D01*
X1547775Y71540D02*
Y86775D01*
X1555393D01*
X1557932Y84236D01*
Y79158D01*
X1555393Y76618D01*
X1547775D01*
X1563010Y86775D02*
X1568089D01*
X1565549D01*
Y71540D01*
X1563010D01*
X1568089D01*
X1575706Y79158D02*
X1585863D01*
X1590941Y84236D02*
X1593480Y86775D01*
X1598559D01*
X1601098Y84236D01*
Y74079D01*
X1598559Y71540D01*
X1593480D01*
X1590941Y74079D01*
Y84236D01*
X1613794Y71540D02*
Y86775D01*
X1606176Y79158D01*
X1616333D01*
X1323697Y84236D02*
X1321158Y86775D01*
X1316079D01*
X1313540Y84236D01*
Y81697D01*
X1316079Y79158D01*
X1321158D01*
X1323697Y76618D01*
Y74079D01*
X1321158Y71540D01*
X1316079D01*
X1313540Y74079D01*
X1328775Y71540D02*
Y86775D01*
X1336393D01*
X1338932Y84236D01*
Y79158D01*
X1336393Y76618D01*
X1328775D01*
X1344010Y86775D02*
X1349088D01*
X1346549D01*
Y71540D01*
X1344010D01*
X1349088D01*
X1356706Y79158D02*
X1366863D01*
X1371941Y84236D02*
X1374480Y86775D01*
X1379559D01*
X1382098Y84236D01*
Y74079D01*
X1379559Y71540D01*
X1374480D01*
X1371941Y74079D01*
Y84236D01*
X1387176D02*
X1389715Y86775D01*
X1394794D01*
X1397333Y84236D01*
Y81697D01*
X1394794Y79158D01*
X1392254D01*
X1394794D01*
X1397333Y76618D01*
Y74079D01*
X1394794Y71540D01*
X1389715D01*
X1387176Y74079D01*
X1102697Y83236D02*
X1100157Y85775D01*
X1095079D01*
X1092540Y83236D01*
Y80697D01*
X1095079Y78158D01*
X1100157D01*
X1102697Y75618D01*
Y73079D01*
X1100157Y70540D01*
X1095079D01*
X1092540Y73079D01*
X1107775Y70540D02*
Y85775D01*
X1115393D01*
X1117932Y83236D01*
Y78158D01*
X1115393Y75618D01*
X1107775D01*
X1123010Y85775D02*
X1128089D01*
X1125549D01*
Y70540D01*
X1123010D01*
X1128089D01*
X1135706Y78158D02*
X1145863D01*
X1150941Y83236D02*
X1153480Y85775D01*
X1158559D01*
X1161098Y83236D01*
Y73079D01*
X1158559Y70540D01*
X1153480D01*
X1150941Y73079D01*
Y83236D01*
X1176333Y70540D02*
X1166176D01*
X1176333Y80697D01*
Y83236D01*
X1173794Y85775D01*
X1168715D01*
X1166176Y83236D01*
X882697Y84236D02*
X880157Y86775D01*
X875079D01*
X872540Y84236D01*
Y81697D01*
X875079Y79158D01*
X880157D01*
X882697Y76618D01*
Y74079D01*
X880157Y71540D01*
X875079D01*
X872540Y74079D01*
X887775Y71540D02*
Y86775D01*
X895393D01*
X897932Y84236D01*
Y79158D01*
X895393Y76618D01*
X887775D01*
X903010Y86775D02*
X908089D01*
X905549D01*
Y71540D01*
X903010D01*
X908089D01*
X915706Y79158D02*
X925863D01*
X930941Y84236D02*
X933480Y86775D01*
X938559D01*
X941098Y84236D01*
Y74079D01*
X938559Y71540D01*
X933480D01*
X930941Y74079D01*
Y84236D01*
X946176Y71540D02*
X951255D01*
X948715D01*
Y86775D01*
X946176Y84236D01*
X1341540Y1106775D02*
X1346618D01*
X1344079D01*
Y1091540D01*
X1341540D01*
X1346618D01*
X1354236D02*
Y1101697D01*
X1361853D01*
X1364393Y1099157D01*
Y1091540D01*
X1372010Y1104236D02*
Y1101697D01*
X1369471D01*
X1374549D01*
X1372010D01*
Y1094079D01*
X1374549Y1091540D01*
X1389784D02*
X1384706D01*
X1382167Y1094079D01*
Y1099157D01*
X1384706Y1101697D01*
X1389784D01*
X1392324Y1099157D01*
Y1096618D01*
X1382167D01*
X1397402Y1101697D02*
Y1091540D01*
Y1096618D01*
X1399941Y1099157D01*
X1402480Y1101697D01*
X1405019D01*
X1415176Y1091540D02*
Y1104236D01*
Y1099157D01*
X1412637D01*
X1417715D01*
X1415176D01*
Y1104236D01*
X1417715Y1106775D01*
X1427872Y1101697D02*
X1432950D01*
X1435490Y1099157D01*
Y1091540D01*
X1427872D01*
X1425333Y1094079D01*
X1427872Y1096618D01*
X1435490D01*
X1450725Y1101697D02*
X1443107D01*
X1440568Y1099157D01*
Y1094079D01*
X1443107Y1091540D01*
X1450725D01*
X1463421D02*
X1458342D01*
X1455803Y1094079D01*
Y1099157D01*
X1458342Y1101697D01*
X1463421D01*
X1465960Y1099157D01*
Y1096618D01*
X1455803D01*
X1481195Y1091540D02*
X1478656Y1094079D01*
X1476116Y1091540D01*
X1473577D01*
X1471038Y1094079D01*
Y1096618D01*
X1473577Y1099157D01*
X1471038Y1101697D01*
Y1104236D01*
X1473577Y1106775D01*
X1476116D01*
X1478656Y1104236D01*
Y1101697D01*
X1476116Y1099157D01*
X1478656Y1096618D01*
Y1094079D01*
X1481195Y1099157D02*
X1478656Y1096618D01*
X1473577Y1099157D02*
X1476116D01*
X1496430Y1104236D02*
X1493891Y1106775D01*
X1488812D01*
X1486273Y1104236D01*
Y1101697D01*
X1488812Y1099157D01*
X1493891D01*
X1496430Y1096618D01*
Y1094079D01*
X1493891Y1091540D01*
X1488812D01*
X1486273Y1094079D01*
X1504047Y1104236D02*
Y1101697D01*
X1501508D01*
X1506587D01*
X1504047D01*
Y1094079D01*
X1506587Y1091540D01*
X1516743Y1101697D02*
X1521822D01*
X1524361Y1099157D01*
Y1091540D01*
X1516743D01*
X1514204Y1094079D01*
X1516743Y1096618D01*
X1524361D01*
X1531978Y1104236D02*
Y1101697D01*
X1529439D01*
X1534518D01*
X1531978D01*
Y1094079D01*
X1534518Y1091540D01*
X1542135Y1101697D02*
Y1094079D01*
X1544674Y1091540D01*
X1552292D01*
Y1101697D01*
X1557370Y1091540D02*
X1564988D01*
X1567527Y1094079D01*
X1564988Y1096618D01*
X1559909D01*
X1557370Y1099157D01*
X1559909Y1101697D01*
X1567527D01*
X202540Y1075775D02*
X207618D01*
X205079D01*
Y1060540D01*
X202540D01*
X207618D01*
X225393D02*
X215236D01*
X225393Y1070697D01*
Y1073236D01*
X222853Y1075775D01*
X217775D01*
X215236Y1073236D01*
X240628D02*
X238088Y1075775D01*
X233010D01*
X230471Y1073236D01*
Y1063079D01*
X233010Y1060540D01*
X238088D01*
X240628Y1063079D01*
X245706Y1068158D02*
X255863D01*
X260941Y1073236D02*
X263480Y1075775D01*
X268559D01*
X271098Y1073236D01*
Y1063079D01*
X268559Y1060540D01*
X263480D01*
X260941Y1063079D01*
Y1073236D01*
X276176Y1060540D02*
X281255D01*
X278715D01*
Y1075775D01*
X276176Y1073236D01*
X198540Y895853D02*
Y880618D01*
X206157D01*
X208697Y883158D01*
Y893314D01*
X206157Y895853D01*
X198540D01*
X213775Y890775D02*
Y883158D01*
X216314Y880618D01*
X223932D01*
Y878079D01*
X221393Y875540D01*
X218853D01*
X223932Y880618D02*
Y890775D01*
X229010Y880618D02*
Y890775D01*
X236628D01*
X239167Y888236D01*
Y880618D01*
X246784Y890775D02*
X251863D01*
X254402Y888236D01*
Y880618D01*
X246784D01*
X244245Y883158D01*
X246784Y885697D01*
X254402D01*
X259480Y880618D02*
Y890775D01*
X262020D01*
X264559Y888236D01*
Y880618D01*
Y888236D01*
X267098Y890775D01*
X269637Y888236D01*
Y880618D01*
X274715D02*
X279794D01*
X277255D01*
Y890775D01*
X274715D01*
X287411D02*
X297568Y880618D01*
X292490Y885697D01*
X297568Y890775D01*
X287411Y880618D01*
X310264D02*
X305186D01*
X302646Y883158D01*
Y888236D01*
X305186Y890775D01*
X310264D01*
X312803Y888236D01*
Y885697D01*
X302646D01*
X317881Y880618D02*
X322960D01*
X320421D01*
Y895853D01*
X317881D01*
X345812D02*
X355969D01*
X350891D01*
Y880618D01*
X361047Y895853D02*
X371204D01*
X366126D01*
Y880618D01*
X376283Y895853D02*
Y880618D01*
X386439D01*
X342540Y1074775D02*
X347618D01*
X345079D01*
Y1059540D01*
X342540D01*
X347618D01*
X365393D02*
X355236D01*
X365393Y1069697D01*
Y1072236D01*
X362853Y1074775D01*
X357775D01*
X355236Y1072236D01*
X380628D02*
X378088Y1074775D01*
X373010D01*
X370471Y1072236D01*
Y1062079D01*
X373010Y1059540D01*
X378088D01*
X380628Y1062079D01*
X385706Y1067158D02*
X395863D01*
X400941Y1072236D02*
X403480Y1074775D01*
X408559D01*
X411098Y1072236D01*
Y1062079D01*
X408559Y1059540D01*
X403480D01*
X400941Y1062079D01*
Y1072236D01*
X426333Y1059540D02*
X416176D01*
X426333Y1069697D01*
Y1072236D01*
X423794Y1074775D01*
X418715D01*
X416176Y1072236D01*
X482540Y1074775D02*
X487618D01*
X485079D01*
Y1059540D01*
X482540D01*
X487618D01*
X505393D02*
X495236D01*
X505393Y1069697D01*
Y1072236D01*
X502853Y1074775D01*
X497775D01*
X495236Y1072236D01*
X520628D02*
X518088Y1074775D01*
X513010D01*
X510471Y1072236D01*
Y1062079D01*
X513010Y1059540D01*
X518088D01*
X520628Y1062079D01*
X525706Y1067158D02*
X535863D01*
X540941Y1072236D02*
X543480Y1074775D01*
X548559D01*
X551098Y1072236D01*
Y1062079D01*
X548559Y1059540D01*
X543480D01*
X540941Y1062079D01*
Y1072236D01*
X556176D02*
X558715Y1074775D01*
X563794D01*
X566333Y1072236D01*
Y1069697D01*
X563794Y1067158D01*
X561255D01*
X563794D01*
X566333Y1064618D01*
Y1062079D01*
X563794Y1059540D01*
X558715D01*
X556176Y1062079D01*
X333540Y76618D02*
Y91853D01*
X341157D01*
X343697Y89314D01*
Y84236D01*
X341157Y81697D01*
X333540D01*
X338618D02*
X343697Y76618D01*
X351314Y86775D02*
X356393D01*
X358932Y84236D01*
Y76618D01*
X351314D01*
X348775Y79158D01*
X351314Y81697D01*
X358932D01*
X364010Y76618D02*
X371628D01*
X374167Y79158D01*
X371628Y81697D01*
X366549D01*
X364010Y84236D01*
X366549Y86775D01*
X374167D01*
X379245Y71540D02*
Y86775D01*
X386863D01*
X389402Y84236D01*
Y79158D01*
X386863Y76618D01*
X379245D01*
X394480Y91853D02*
Y76618D01*
X402098D01*
X404637Y79158D01*
Y81697D01*
Y84236D01*
X402098Y86775D01*
X394480D01*
X417333Y76618D02*
X412254D01*
X409715Y79158D01*
Y84236D01*
X412254Y86775D01*
X417333D01*
X419872Y84236D01*
Y81697D01*
X409715D01*
X424950Y86775D02*
Y76618D01*
Y81697D01*
X427490Y84236D01*
X430029Y86775D01*
X432568D01*
X440186D02*
Y76618D01*
Y81697D01*
X442725Y84236D01*
X445264Y86775D01*
X447803D01*
X455421D02*
Y79158D01*
X457960Y76618D01*
X465577D01*
Y74079D01*
X463038Y71540D01*
X460499D01*
X465577Y76618D02*
Y86775D01*
X485891Y76618D02*
Y91853D01*
X493508D01*
X496047Y89314D01*
Y84236D01*
X493508Y81697D01*
X485891D01*
X501126Y76618D02*
X506204D01*
X503665D01*
Y86775D01*
X501126D01*
X112540Y5540D02*
Y20775D01*
X120157D01*
X122697Y18236D01*
Y13158D01*
X120157Y10618D01*
X112540D01*
X127775Y20775D02*
Y5540D01*
X132853Y10618D01*
X137932Y5540D01*
Y20775D01*
X143010Y5540D02*
Y20775D01*
X150628D01*
X153167Y18236D01*
Y13158D01*
X150628Y10618D01*
X143010D01*
X148089D02*
X153167Y5540D01*
X112540Y54158D02*
X122697D01*
X117618Y59236D02*
Y49079D01*
X137932Y61775D02*
X127775D01*
Y54158D01*
X132853Y56697D01*
X135393D01*
X137932Y54158D01*
Y49079D01*
X135393Y46540D01*
X130314D01*
X127775Y49079D01*
X143010Y61775D02*
Y51618D01*
X148089Y46540D01*
X153167Y51618D01*
Y61775D01*
X125540Y39236D02*
X128079Y41775D01*
X133158D01*
X135697Y39236D01*
Y36697D01*
X133158Y34158D01*
X130618D01*
X133158D01*
X135697Y31618D01*
Y29079D01*
X133158Y26540D01*
X128079D01*
X125540Y29079D01*
X140775Y26540D02*
Y36697D01*
X145853Y41775D01*
X150932Y36697D01*
Y26540D01*
Y34158D01*
X140775D01*
X407956Y275618D02*
X413035D01*
X410495D01*
Y260382D01*
X407956D01*
X413035D01*
X430809Y273078D02*
X428270Y275618D01*
X423191D01*
X420652Y273078D01*
Y262922D01*
X423191Y260382D01*
X428270D01*
X430809Y262922D01*
X446044Y260382D02*
X435887D01*
X446044Y270539D01*
Y273078D01*
X443505Y275618D01*
X438426D01*
X435887Y273078D01*
X689304Y920618D02*
Y907922D01*
X691843Y905383D01*
X696922D01*
X699461Y907922D01*
Y920618D01*
X704539Y918078D02*
X707078Y920618D01*
X712157D01*
X714696Y918078D01*
Y915539D01*
X712157Y913000D01*
X709617D01*
X712157D01*
X714696Y910461D01*
Y907922D01*
X712157Y905383D01*
X707078D01*
X704539Y907922D01*
X1919843Y86617D02*
X1914765D01*
X1917304D01*
Y73922D01*
X1914765Y71382D01*
X1912226D01*
X1909687Y73922D01*
X1935078Y71382D02*
X1924922D01*
X1935078Y81539D01*
Y84078D01*
X1932539Y86617D01*
X1927461D01*
X1924922Y84078D01*
X1950313Y86617D02*
X1945235Y84078D01*
X1940157Y79000D01*
Y73922D01*
X1942696Y71382D01*
X1947774D01*
X1950313Y73922D01*
Y76461D01*
X1947774Y79000D01*
X1940157D01*
X1697843Y86617D02*
X1692765D01*
X1695304D01*
Y73922D01*
X1692765Y71382D01*
X1690226D01*
X1687687Y73922D01*
X1713078Y71382D02*
X1702922D01*
X1713078Y81539D01*
Y84078D01*
X1710539Y86617D01*
X1705461D01*
X1702922Y84078D01*
X1728313Y86617D02*
X1718157D01*
Y79000D01*
X1723235Y81539D01*
X1725774D01*
X1728313Y79000D01*
Y73922D01*
X1725774Y71382D01*
X1720696D01*
X1718157Y73922D01*
X1480843Y86617D02*
X1475765D01*
X1478304D01*
Y73922D01*
X1475765Y71382D01*
X1473226D01*
X1470687Y73922D01*
X1496078Y71382D02*
X1485922D01*
X1496078Y81539D01*
Y84078D01*
X1493539Y86617D01*
X1488461D01*
X1485922Y84078D01*
X1508774Y71382D02*
Y86617D01*
X1501157Y79000D01*
X1511313D01*
X1259843Y86617D02*
X1254765D01*
X1257304D01*
Y73922D01*
X1254765Y71382D01*
X1252226D01*
X1249687Y73922D01*
X1275078Y71382D02*
X1264922D01*
X1275078Y81539D01*
Y84078D01*
X1272539Y86617D01*
X1267461D01*
X1264922Y84078D01*
X1280157D02*
X1282696Y86617D01*
X1287774D01*
X1290313Y84078D01*
Y81539D01*
X1287774Y79000D01*
X1285235D01*
X1287774D01*
X1290313Y76461D01*
Y73922D01*
X1287774Y71382D01*
X1282696D01*
X1280157Y73922D01*
X1037843Y86617D02*
X1032765D01*
X1035304D01*
Y73922D01*
X1032765Y71382D01*
X1030226D01*
X1027687Y73922D01*
X1053078Y71382D02*
X1042922D01*
X1053078Y81539D01*
Y84078D01*
X1050539Y86617D01*
X1045461D01*
X1042922Y84078D01*
X1068314Y71382D02*
X1058157D01*
X1068314Y81539D01*
Y84078D01*
X1065774Y86617D01*
X1060696D01*
X1058157Y84078D01*
X721643Y503170D02*
X719103Y505709D01*
X714025D01*
X711486Y503170D01*
Y493013D01*
X714025Y490474D01*
X719103D01*
X721643Y493013D01*
X736878Y505709D02*
X731799Y503170D01*
X726721Y498092D01*
Y493013D01*
X729260Y490474D01*
X734339D01*
X736878Y493013D01*
Y495552D01*
X734339Y498092D01*
X726721D01*
X1454433Y504186D02*
X1451893Y506725D01*
X1446815D01*
X1444276Y504186D01*
Y494029D01*
X1446815Y491490D01*
X1451893D01*
X1454433Y494029D01*
X1469668Y506725D02*
X1459511D01*
Y499108D01*
X1464589Y501647D01*
X1467129D01*
X1469668Y499108D01*
Y494029D01*
X1467129Y491490D01*
X1462050D01*
X1459511Y494029D01*
X328182Y307484D02*
X343418D01*
Y315102D01*
X340878Y317641D01*
X330722D01*
X328182Y315102D01*
Y307484D01*
X343418Y332876D02*
Y322719D01*
X333261Y332876D01*
X330722D01*
X328182Y330337D01*
Y325258D01*
X330722Y322719D01*
X298382Y611843D02*
X313617D01*
Y619461D01*
X311078Y622000D01*
X300922D01*
X298382Y619461D01*
Y611843D01*
X313617Y627078D02*
Y632157D01*
Y629618D01*
X298382D01*
X300922Y627078D01*
X1384304Y912617D02*
Y899922D01*
X1386843Y897383D01*
X1391922D01*
X1394461Y899922D01*
Y912617D01*
X1409696Y897383D02*
X1399539D01*
X1409696Y907539D01*
Y910078D01*
X1407157Y912617D01*
X1402078D01*
X1399539Y910078D01*
X706843Y853382D02*
Y868617D01*
X714461D01*
X717000Y866078D01*
Y861000D01*
X714461Y858461D01*
X706843D01*
X711922D02*
X717000Y853382D01*
X722078D02*
X727157D01*
X724617D01*
Y868617D01*
X722078Y866078D01*
X19304Y185618D02*
Y170382D01*
X29461D01*
X44696D02*
X34539D01*
X44696Y180539D01*
Y183078D01*
X42157Y185618D01*
X37078D01*
X34539Y183078D01*
X589843Y485617D02*
Y470382D01*
X600000D01*
X605078D02*
X610157D01*
X607618D01*
Y485617D01*
X605078Y483078D01*
X156813Y162617D02*
X151735D01*
X154274D01*
Y149922D01*
X151735Y147382D01*
X149195D01*
X146656Y149922D01*
X161891Y147382D02*
X166970D01*
X164430D01*
Y162617D01*
X161891Y160078D01*
X184744Y147382D02*
X174587D01*
X184744Y157539D01*
Y160078D01*
X182205Y162617D01*
X177126D01*
X174587Y160078D01*
X824461Y88617D02*
X819382D01*
X821922D01*
Y75922D01*
X819382Y73383D01*
X816843D01*
X814304Y75922D01*
X829539D02*
X832078Y73383D01*
X837157D01*
X839696Y75922D01*
Y86078D01*
X837157Y88617D01*
X832078D01*
X829539Y86078D01*
Y83539D01*
X832078Y81000D01*
X839696D01*
X133495Y543618D02*
X138574D01*
X136035D01*
Y528382D01*
X133495D01*
X138574D01*
X156348Y541078D02*
X153809Y543618D01*
X148730D01*
X146191Y541078D01*
Y530922D01*
X148730Y528382D01*
X153809D01*
X156348Y530922D01*
X161426Y528382D02*
X166505D01*
X163965D01*
Y543618D01*
X161426Y541078D01*
X404461Y210078D02*
X401922Y212617D01*
X396843D01*
X394304Y210078D01*
Y199922D01*
X396843Y197383D01*
X401922D01*
X404461Y199922D01*
X417157Y197383D02*
Y212617D01*
X409539Y205000D01*
X419696D01*
X406461Y409078D02*
X403922Y411618D01*
X398843D01*
X396304Y409078D01*
Y398922D01*
X398843Y396382D01*
X403922D01*
X406461Y398922D01*
X411539Y409078D02*
X414078Y411618D01*
X419157D01*
X421696Y409078D01*
Y406539D01*
X419157Y404000D01*
X416618D01*
X419157D01*
X421696Y401461D01*
Y398922D01*
X419157Y396382D01*
X414078D01*
X411539Y398922D01*
X241461Y682078D02*
X238922Y684617D01*
X233843D01*
X231304Y682078D01*
Y671922D01*
X233843Y669382D01*
X238922D01*
X241461Y671922D01*
X256696Y669382D02*
X246539D01*
X256696Y679539D01*
Y682078D01*
X254157Y684617D01*
X249078D01*
X246539Y682078D01*
X247000Y497078D02*
X244461Y499618D01*
X239382D01*
X236843Y497078D01*
Y486922D01*
X239382Y484383D01*
X244461D01*
X247000Y486922D01*
X252078Y484383D02*
X257157D01*
X254618D01*
Y499618D01*
X252078Y497078D01*
D15*
X128000Y619000D02*
X108006D01*
X119003Y480000D02*
Y499994D01*
X109007Y489997D02*
X129000D01*
M02*
