G04*
G04 #@! TF.GenerationSoftware,Altium Limited,Altium Designer,21.2.0 (30)*
G04*
G04 Layer_Physical_Order=2*
G04 Layer_Color=16711680*
%FSLAX44Y44*%
%MOMM*%
G71*
G04*
G04 #@! TF.SameCoordinates,3F68380A-C471-43A9-BBDE-A44CCE961C07*
G04*
G04*
G04 #@! TF.FilePolarity,Positive*
G04*
G01*
G75*
%ADD14C,0.2540*%
%ADD15C,0.5000*%
%ADD20R,1.1000X1.5700*%
%ADD61C,0.3000*%
%ADD62R,1.1300X1.1300*%
%ADD63C,1.1300*%
%ADD64R,1.5300X1.5300*%
%ADD65C,1.5300*%
%ADD66C,3.0000*%
%ADD67C,6.0000*%
%ADD68R,6.0000X6.0000*%
%ADD69C,3.5400*%
%ADD70C,1.4300*%
%ADD71R,1.4300X1.4300*%
%ADD72C,1.3500*%
%ADD73R,1.3500X1.3500*%
%ADD74R,1.3500X1.3500*%
%ADD75R,1.6500X1.6500*%
%ADD76C,1.6500*%
%ADD77R,1.2000X1.2000*%
%ADD78C,1.2000*%
%ADD79C,7.4000*%
%ADD80C,0.6000*%
G36*
X2037469Y1146289D02*
X2044844Y1145035D01*
X2052032Y1142965D01*
X2058943Y1140102D01*
X2065491Y1136483D01*
X2071592Y1132154D01*
X2077170Y1127170D01*
X2082154Y1121592D01*
X2086483Y1115491D01*
X2090102Y1108943D01*
X2092964Y1102032D01*
X2095035Y1094844D01*
X2096288Y1087469D01*
X2096699Y1080165D01*
X2096666Y1080000D01*
X2096666Y70000D01*
X2096699Y69835D01*
X2096288Y62531D01*
X2095035Y55156D01*
X2092964Y47968D01*
X2090102Y41056D01*
X2086483Y34509D01*
X2082154Y28408D01*
X2077170Y22830D01*
X2071592Y17846D01*
X2065491Y13517D01*
X2058943Y9898D01*
X2052032Y7035D01*
X2044844Y4965D01*
X2037469Y3711D01*
X2030165Y3301D01*
X2030000Y3334D01*
X1834896D01*
X1834526Y4330D01*
X1834473Y4604D01*
X1834884Y5220D01*
X1835039Y6000D01*
Y47000D01*
X1834884Y47780D01*
X1834442Y48442D01*
X1833780Y48884D01*
X1833000Y49039D01*
X1810000D01*
X1809220Y48884D01*
X1808558Y48442D01*
X1808116Y47780D01*
X1807961Y47000D01*
Y27039D01*
X1800519D01*
X1800179Y28309D01*
X1801373Y28998D01*
X1803002Y30627D01*
X1804154Y32623D01*
X1804750Y34848D01*
Y37152D01*
X1804154Y39377D01*
X1803002Y41373D01*
X1801373Y43002D01*
X1799377Y44154D01*
X1797152Y44750D01*
X1794848D01*
X1792623Y44154D01*
X1790627Y43002D01*
X1788998Y41373D01*
X1787846Y39377D01*
X1787250Y37152D01*
Y34848D01*
X1787846Y32623D01*
X1788998Y30627D01*
X1790627Y28998D01*
X1791821Y28309D01*
X1791481Y27039D01*
X1705519D01*
X1705179Y28309D01*
X1706373Y28998D01*
X1708002Y30627D01*
X1709154Y32623D01*
X1709750Y34848D01*
Y37152D01*
X1709154Y39377D01*
X1708002Y41373D01*
X1706373Y43002D01*
X1704377Y44154D01*
X1702152Y44750D01*
X1699848D01*
X1697623Y44154D01*
X1695627Y43002D01*
X1693998Y41373D01*
X1692846Y39377D01*
X1692250Y37152D01*
Y34848D01*
X1692846Y32623D01*
X1693998Y30627D01*
X1695627Y28998D01*
X1696821Y28309D01*
X1696481Y27039D01*
X1680519D01*
X1680179Y28309D01*
X1681373Y28998D01*
X1683002Y30627D01*
X1684154Y32623D01*
X1684750Y34848D01*
Y37152D01*
X1684154Y39377D01*
X1683002Y41373D01*
X1681373Y43002D01*
X1679377Y44154D01*
X1677152Y44750D01*
X1674848D01*
X1672623Y44154D01*
X1670627Y43002D01*
X1668998Y41373D01*
X1667846Y39377D01*
X1667250Y37152D01*
Y34848D01*
X1667846Y32623D01*
X1668998Y30627D01*
X1670627Y28998D01*
X1671821Y28309D01*
X1671481Y27039D01*
X1655519D01*
X1655179Y28309D01*
X1656373Y28998D01*
X1658002Y30627D01*
X1659154Y32623D01*
X1659750Y34848D01*
Y37152D01*
X1659154Y39377D01*
X1658002Y41373D01*
X1656373Y43002D01*
X1654377Y44154D01*
X1652152Y44750D01*
X1649848D01*
X1647623Y44154D01*
X1645627Y43002D01*
X1643998Y41373D01*
X1642846Y39377D01*
X1642250Y37152D01*
Y34848D01*
X1642846Y32623D01*
X1643998Y30627D01*
X1645627Y28998D01*
X1646821Y28309D01*
X1646481Y27039D01*
X1630519D01*
X1630179Y28309D01*
X1631373Y28998D01*
X1633002Y30627D01*
X1634154Y32623D01*
X1634750Y34848D01*
Y37152D01*
X1634154Y39377D01*
X1633002Y41373D01*
X1631373Y43002D01*
X1629377Y44154D01*
X1628106Y44494D01*
X1627842Y45821D01*
X1627068Y46978D01*
X1566789Y107258D01*
X1567275Y108431D01*
X1818522D01*
X1887789Y39164D01*
X1887250Y37152D01*
Y34848D01*
X1887846Y32623D01*
X1888998Y30627D01*
X1890627Y28998D01*
X1892623Y27846D01*
X1894848Y27250D01*
X1897152D01*
X1899377Y27846D01*
X1901373Y28998D01*
X1903002Y30627D01*
X1904154Y32623D01*
X1904750Y34848D01*
Y37152D01*
X1904154Y39377D01*
X1903002Y41373D01*
X1901373Y43002D01*
X1899377Y44154D01*
X1897152Y44750D01*
X1894848D01*
X1892836Y44211D01*
X1822523Y114523D01*
X1821366Y115297D01*
X1820338Y115501D01*
X1819919Y116749D01*
X1820737Y117295D01*
X1823105Y119663D01*
X1824965Y122448D01*
X1826247Y125541D01*
X1826900Y128826D01*
Y132174D01*
X1826247Y135459D01*
X1824965Y138553D01*
X1823105Y141337D01*
X1820737Y143705D01*
X1817953Y145565D01*
X1814859Y146847D01*
X1811574Y147500D01*
X1808226D01*
X1804941Y146847D01*
X1801848Y145565D01*
X1799063Y143705D01*
X1796695Y141337D01*
X1794835Y138553D01*
X1793553Y135459D01*
X1792900Y132174D01*
Y128826D01*
X1793553Y125541D01*
X1794835Y122448D01*
X1796695Y119663D01*
X1799063Y117295D01*
X1799828Y116784D01*
X1799460Y115569D01*
X1525078D01*
X1437811Y202835D01*
X1437892Y202975D01*
X1438550Y205429D01*
Y207971D01*
X1437892Y210425D01*
X1436622Y212625D01*
X1434825Y214422D01*
X1432625Y215692D01*
X1430170Y216350D01*
X1427630D01*
X1425175Y215692D01*
X1422975Y214422D01*
X1422492Y213939D01*
X1421319Y214425D01*
Y224375D01*
X1422492Y224861D01*
X1422975Y224378D01*
X1425175Y223108D01*
X1427630Y222450D01*
X1430170D01*
X1432625Y223108D01*
X1434825Y224378D01*
X1436622Y226175D01*
X1437892Y228375D01*
X1438550Y230830D01*
Y233370D01*
X1437892Y235825D01*
X1436622Y238025D01*
X1434825Y239822D01*
X1432625Y241092D01*
X1430170Y241750D01*
X1427630D01*
X1425175Y241092D01*
X1422975Y239822D01*
X1422492Y239339D01*
X1421319Y239825D01*
Y244872D01*
X1425035Y248589D01*
X1425175Y248508D01*
X1427630Y247850D01*
X1430170D01*
X1432625Y248508D01*
X1434825Y249778D01*
X1436622Y251575D01*
X1437892Y253775D01*
X1438550Y256229D01*
Y258771D01*
X1437892Y261225D01*
X1436622Y263425D01*
X1434825Y265222D01*
X1432625Y266492D01*
X1430170Y267150D01*
X1427630D01*
X1425175Y266492D01*
X1422975Y265222D01*
X1421178Y263425D01*
X1419908Y261225D01*
X1419250Y258771D01*
Y256229D01*
X1419908Y253775D01*
X1419989Y253635D01*
X1415227Y248873D01*
X1414453Y247716D01*
X1414181Y246350D01*
Y234428D01*
X1412911Y234261D01*
X1412492Y235825D01*
X1411222Y238025D01*
X1409425Y239822D01*
X1407225Y241092D01*
X1404771Y241750D01*
X1402230D01*
X1399775Y241092D01*
X1397575Y239822D01*
X1395778Y238025D01*
X1394839Y236398D01*
X1393569Y236738D01*
Y252862D01*
X1394839Y253202D01*
X1395778Y251575D01*
X1397575Y249778D01*
X1399775Y248508D01*
X1402230Y247850D01*
X1404771D01*
X1407225Y248508D01*
X1409425Y249778D01*
X1411222Y251575D01*
X1412492Y253775D01*
X1413150Y256229D01*
Y258771D01*
X1412492Y261225D01*
X1411222Y263425D01*
X1409425Y265222D01*
X1407225Y266492D01*
X1404771Y267150D01*
X1402230D01*
X1399775Y266492D01*
X1397575Y265222D01*
X1395778Y263425D01*
X1394839Y261798D01*
X1393569Y262138D01*
Y278262D01*
X1394839Y278602D01*
X1395778Y276975D01*
X1397575Y275178D01*
X1399775Y273908D01*
X1402230Y273250D01*
X1404771D01*
X1407225Y273908D01*
X1409425Y275178D01*
X1411222Y276975D01*
X1412492Y279175D01*
X1413150Y281630D01*
Y284170D01*
X1412492Y286625D01*
X1411222Y288825D01*
X1409425Y290622D01*
X1407225Y291892D01*
X1404771Y292550D01*
X1402230D01*
X1399775Y291892D01*
X1397575Y290622D01*
X1395778Y288825D01*
X1394839Y287198D01*
X1393569Y287538D01*
Y303662D01*
X1394839Y304002D01*
X1395778Y302375D01*
X1397575Y300578D01*
X1399775Y299308D01*
X1402230Y298650D01*
X1404771D01*
X1407225Y299308D01*
X1409425Y300578D01*
X1411222Y302375D01*
X1412492Y304575D01*
X1413150Y307029D01*
Y309571D01*
X1412492Y312025D01*
X1411222Y314225D01*
X1409425Y316022D01*
X1407225Y317292D01*
X1404771Y317950D01*
X1402230D01*
X1399775Y317292D01*
X1397575Y316022D01*
X1395778Y314225D01*
X1394839Y312598D01*
X1393569Y312938D01*
Y329062D01*
X1394839Y329402D01*
X1395778Y327775D01*
X1397575Y325978D01*
X1399775Y324708D01*
X1402230Y324050D01*
X1404771D01*
X1407225Y324708D01*
X1409425Y325978D01*
X1411222Y327775D01*
X1412492Y329975D01*
X1413150Y332430D01*
Y334971D01*
X1412492Y337425D01*
X1411222Y339625D01*
X1409425Y341422D01*
X1407225Y342692D01*
X1404771Y343350D01*
X1402230D01*
X1399775Y342692D01*
X1397575Y341422D01*
X1395778Y339625D01*
X1394839Y337998D01*
X1393569Y338338D01*
Y354462D01*
X1394839Y354802D01*
X1395778Y353175D01*
X1397575Y351378D01*
X1399775Y350108D01*
X1402230Y349450D01*
X1404771D01*
X1407225Y350108D01*
X1409425Y351378D01*
X1411222Y353175D01*
X1412492Y355375D01*
X1413150Y357830D01*
Y360370D01*
X1412492Y362825D01*
X1411222Y365025D01*
X1409425Y366822D01*
X1407225Y368092D01*
X1404771Y368750D01*
X1402230D01*
X1399775Y368092D01*
X1397575Y366822D01*
X1395778Y365025D01*
X1394839Y363398D01*
X1393569Y363738D01*
Y379862D01*
X1394839Y380202D01*
X1395778Y378575D01*
X1397575Y376778D01*
X1399775Y375508D01*
X1402230Y374850D01*
X1404771D01*
X1407225Y375508D01*
X1409425Y376778D01*
X1411222Y378575D01*
X1412492Y380775D01*
X1413150Y383229D01*
Y385770D01*
X1412492Y388225D01*
X1411222Y390425D01*
X1409425Y392222D01*
X1407225Y393492D01*
X1404771Y394150D01*
X1402230D01*
X1399775Y393492D01*
X1397575Y392222D01*
X1395778Y390425D01*
X1394839Y388798D01*
X1393569Y389138D01*
Y405262D01*
X1394839Y405602D01*
X1395778Y403975D01*
X1397575Y402178D01*
X1399775Y400908D01*
X1402230Y400250D01*
X1404771D01*
X1407225Y400908D01*
X1409425Y402178D01*
X1411222Y403975D01*
X1412492Y406175D01*
X1413150Y408629D01*
Y411171D01*
X1412492Y413625D01*
X1411222Y415825D01*
X1409425Y417622D01*
X1407225Y418892D01*
X1404771Y419550D01*
X1402230D01*
X1399775Y418892D01*
X1397575Y417622D01*
X1395778Y415825D01*
X1394839Y414198D01*
X1393569Y414538D01*
Y430662D01*
X1394839Y431002D01*
X1395778Y429375D01*
X1397575Y427578D01*
X1399775Y426308D01*
X1402230Y425650D01*
X1404771D01*
X1407225Y426308D01*
X1409425Y427578D01*
X1411222Y429375D01*
X1412492Y431575D01*
X1413150Y434030D01*
Y436571D01*
X1412492Y439025D01*
X1411222Y441225D01*
X1409425Y443022D01*
X1407225Y444292D01*
X1404771Y444950D01*
X1402230D01*
X1399775Y444292D01*
X1397575Y443022D01*
X1395778Y441225D01*
X1394839Y439598D01*
X1393569Y439938D01*
Y456062D01*
X1394839Y456402D01*
X1395778Y454775D01*
X1397575Y452978D01*
X1399775Y451708D01*
X1402230Y451050D01*
X1404771D01*
X1407225Y451708D01*
X1409425Y452978D01*
X1411222Y454775D01*
X1412492Y456975D01*
X1413150Y459430D01*
Y461970D01*
X1412492Y464425D01*
X1411222Y466625D01*
X1409425Y468422D01*
X1407225Y469692D01*
X1404771Y470350D01*
X1402230D01*
X1399775Y469692D01*
X1397575Y468422D01*
X1395778Y466625D01*
X1394839Y464998D01*
X1393569Y465338D01*
Y481462D01*
X1394839Y481802D01*
X1395778Y480175D01*
X1397575Y478378D01*
X1399775Y477108D01*
X1402230Y476450D01*
X1404771D01*
X1407225Y477108D01*
X1409425Y478378D01*
X1411222Y480175D01*
X1412492Y482375D01*
X1413150Y484829D01*
Y487370D01*
X1412492Y489825D01*
X1411222Y492025D01*
X1409425Y493822D01*
X1407225Y495092D01*
X1404771Y495750D01*
X1402230D01*
X1399775Y495092D01*
X1397575Y493822D01*
X1395778Y492025D01*
X1394839Y490398D01*
X1393569Y490738D01*
Y506862D01*
X1394839Y507202D01*
X1395778Y505575D01*
X1397575Y503778D01*
X1399775Y502508D01*
X1402230Y501850D01*
X1404771D01*
X1407225Y502508D01*
X1409425Y503778D01*
X1411222Y505575D01*
X1412492Y507775D01*
X1413150Y510229D01*
Y512771D01*
X1412492Y515225D01*
X1411222Y517425D01*
X1409425Y519222D01*
X1408397Y519816D01*
X1408376Y519873D01*
X1408441Y521256D01*
X1409135Y521720D01*
X1419228Y531813D01*
X1420711Y531785D01*
X1421178Y530975D01*
X1422975Y529178D01*
X1425175Y527908D01*
X1427630Y527250D01*
X1430170D01*
X1432625Y527908D01*
X1434825Y529178D01*
X1436622Y530975D01*
X1437892Y533175D01*
X1438550Y535630D01*
Y538171D01*
X1437892Y540625D01*
X1436622Y542825D01*
X1434825Y544622D01*
X1432625Y545892D01*
X1431061Y546311D01*
X1431228Y547581D01*
X1433519D01*
X1434884Y547853D01*
X1436042Y548627D01*
X1447573Y560158D01*
X1448347Y561316D01*
X1448619Y562682D01*
Y612719D01*
X1448347Y614084D01*
X1447573Y615242D01*
X1436042Y626773D01*
X1434884Y627547D01*
X1433519Y627819D01*
X1414650D01*
X1413284Y627547D01*
X1412127Y626773D01*
X1408103Y622750D01*
X1393850D01*
Y603450D01*
X1413150D01*
Y617703D01*
X1416128Y620681D01*
X1421175D01*
X1421661Y619508D01*
X1421178Y619025D01*
X1419908Y616825D01*
X1419250Y614370D01*
Y611829D01*
X1419908Y609375D01*
X1421178Y607175D01*
X1422975Y605378D01*
X1425175Y604108D01*
X1427630Y603450D01*
X1430170D01*
X1432625Y604108D01*
X1432765Y604188D01*
X1436481Y600472D01*
Y595425D01*
X1435308Y594939D01*
X1434825Y595422D01*
X1432625Y596692D01*
X1430170Y597350D01*
X1427630D01*
X1425175Y596692D01*
X1422975Y595422D01*
X1421178Y593625D01*
X1419908Y591425D01*
X1419250Y588970D01*
Y586429D01*
X1419908Y583975D01*
X1421178Y581775D01*
X1422975Y579978D01*
X1424454Y579124D01*
X1424233Y577785D01*
X1423885Y577716D01*
X1422727Y576942D01*
X1414064Y568279D01*
X1413291Y567122D01*
X1411961Y566946D01*
X1411222Y568225D01*
X1409425Y570022D01*
X1407225Y571292D01*
X1404771Y571950D01*
X1402230D01*
X1399775Y571292D01*
X1397575Y570022D01*
X1395778Y568225D01*
X1394508Y566025D01*
X1393850Y563571D01*
Y561030D01*
X1394508Y558575D01*
X1395778Y556375D01*
X1397575Y554578D01*
X1399074Y553713D01*
X1398853Y552374D01*
X1398466Y552297D01*
X1397308Y551523D01*
X1384742Y538957D01*
X1383569Y539443D01*
Y562722D01*
X1399635Y578788D01*
X1399775Y578708D01*
X1402230Y578050D01*
X1404771D01*
X1407225Y578708D01*
X1409425Y579978D01*
X1411222Y581775D01*
X1412492Y583975D01*
X1413150Y586429D01*
Y588970D01*
X1412492Y591425D01*
X1411222Y593625D01*
X1409425Y595422D01*
X1407225Y596692D01*
X1404771Y597350D01*
X1402230D01*
X1399775Y596692D01*
X1397575Y595422D01*
X1395778Y593625D01*
X1394508Y591425D01*
X1393850Y588970D01*
Y586429D01*
X1394508Y583975D01*
X1394588Y583835D01*
X1378761Y568008D01*
X1377588Y568494D01*
Y888100D01*
X1470244Y980756D01*
X1471239Y982244D01*
X1471588Y984000D01*
Y1043083D01*
X1472618Y1043678D01*
X1474322Y1045382D01*
X1475526Y1047468D01*
X1476150Y1049795D01*
Y1052205D01*
X1475526Y1054532D01*
X1474322Y1056618D01*
X1472618Y1058322D01*
X1470532Y1059526D01*
X1468205Y1060150D01*
X1465795D01*
X1463468Y1059526D01*
X1461382Y1058322D01*
X1459678Y1056618D01*
X1458474Y1054532D01*
X1457850Y1052205D01*
Y1049795D01*
X1458474Y1047468D01*
X1459678Y1045382D01*
X1461382Y1043678D01*
X1462412Y1043083D01*
Y985900D01*
X1369756Y893244D01*
X1368761Y891756D01*
X1368412Y890000D01*
Y700319D01*
X1367142Y699525D01*
X1365995Y700000D01*
X1364005D01*
X1362168Y699239D01*
X1360761Y697832D01*
X1360000Y695995D01*
Y694005D01*
X1360761Y692168D01*
X1361431Y691497D01*
Y577860D01*
X1360161Y577007D01*
X1360000Y577039D01*
X1310025D01*
X1309842Y577271D01*
X1310157Y578919D01*
X1311125Y579478D01*
X1312922Y581275D01*
X1314192Y583475D01*
X1314850Y585929D01*
Y588470D01*
X1314192Y590925D01*
X1312922Y593125D01*
X1311125Y594922D01*
X1308925Y596192D01*
X1306470Y596850D01*
X1303929D01*
X1301475Y596192D01*
X1299275Y594922D01*
X1297478Y593125D01*
X1296208Y590925D01*
X1295550Y588470D01*
Y585929D01*
X1296208Y583475D01*
X1297478Y581275D01*
X1299275Y579478D01*
X1300243Y578919D01*
X1300558Y577271D01*
X1300375Y577039D01*
X1284625D01*
X1284442Y577271D01*
X1284757Y578919D01*
X1285725Y579478D01*
X1287522Y581275D01*
X1288792Y583475D01*
X1289450Y585929D01*
Y588470D01*
X1288792Y590925D01*
X1287522Y593125D01*
X1285725Y594922D01*
X1283525Y596192D01*
X1281071Y596850D01*
X1278530D01*
X1276075Y596192D01*
X1273875Y594922D01*
X1272078Y593125D01*
X1270808Y590925D01*
X1270150Y588470D01*
Y585929D01*
X1270808Y583475D01*
X1272078Y581275D01*
X1273875Y579478D01*
X1274843Y578919D01*
X1275158Y577271D01*
X1274975Y577039D01*
X941187D01*
X940701Y578213D01*
X1032298Y669810D01*
X1033796Y669512D01*
X1034064Y668864D01*
X1035471Y667458D01*
X1037309Y666697D01*
X1039298D01*
X1041136Y667458D01*
X1042542Y668864D01*
X1043303Y670702D01*
Y672256D01*
X1082523Y711477D01*
X1083297Y712634D01*
X1083569Y714000D01*
Y1049037D01*
X1143963Y1109431D01*
X1383522D01*
X1418463Y1074491D01*
X1417850Y1072205D01*
Y1069795D01*
X1418474Y1067468D01*
X1419678Y1065382D01*
X1421382Y1063678D01*
X1423468Y1062474D01*
X1425795Y1061850D01*
X1428205D01*
X1430532Y1062474D01*
X1432618Y1063678D01*
X1434322Y1065382D01*
X1435526Y1067468D01*
X1436150Y1069795D01*
Y1072205D01*
X1435652Y1074063D01*
X1436791Y1074721D01*
X1438158Y1073354D01*
X1437850Y1072205D01*
Y1069795D01*
X1438474Y1067468D01*
X1439678Y1065382D01*
X1441382Y1063678D01*
X1443468Y1062474D01*
X1445795Y1061850D01*
X1448205D01*
X1450532Y1062474D01*
X1452618Y1063678D01*
X1454322Y1065382D01*
X1455526Y1067468D01*
X1456150Y1069795D01*
Y1072205D01*
X1455526Y1074532D01*
X1454322Y1076618D01*
X1452618Y1078322D01*
X1450532Y1079526D01*
X1448205Y1080150D01*
X1445795D01*
X1444646Y1079842D01*
X1402244Y1122244D01*
X1400756Y1123239D01*
X1399000Y1123588D01*
X1140000D01*
X1138244Y1123239D01*
X1136756Y1122244D01*
X1069756Y1055244D01*
X1068761Y1053756D01*
X1068412Y1052000D01*
Y718901D01*
X926551Y577039D01*
X700425D01*
X700242Y577271D01*
X700557Y578919D01*
X701525Y579478D01*
X703322Y581275D01*
X704592Y583475D01*
X705250Y585929D01*
Y588470D01*
X704592Y590925D01*
X703322Y593125D01*
X701525Y594922D01*
X699325Y596192D01*
X696870Y596850D01*
X694330D01*
X691875Y596192D01*
X689675Y594922D01*
X687878Y593125D01*
X686608Y590925D01*
X685950Y588470D01*
Y585929D01*
X686608Y583475D01*
X687878Y581275D01*
X689675Y579478D01*
X690643Y578919D01*
X690958Y577271D01*
X690775Y577039D01*
X683000D01*
X682220Y576884D01*
X681558Y576442D01*
X681116Y575780D01*
X680961Y575000D01*
Y563832D01*
X679691Y563665D01*
X679192Y565525D01*
X677922Y567725D01*
X676125Y569522D01*
X673925Y570792D01*
X671470Y571450D01*
X668930D01*
X666475Y570792D01*
X664275Y569522D01*
X662478Y567725D01*
X661208Y565525D01*
X660550Y563070D01*
Y560530D01*
X661208Y558075D01*
X662478Y555875D01*
X664275Y554078D01*
X666475Y552808D01*
X668930Y552150D01*
X671470D01*
X673925Y552808D01*
X676125Y554078D01*
X677922Y555875D01*
X679192Y558075D01*
X679691Y559935D01*
X680961Y559768D01*
Y548000D01*
X681116Y547220D01*
X681558Y546558D01*
X682220Y546116D01*
X683000Y545961D01*
X690320D01*
X690660Y544691D01*
X689675Y544122D01*
X687878Y542325D01*
X686608Y540125D01*
X685950Y537671D01*
Y535130D01*
X686608Y532675D01*
X687878Y530475D01*
X689675Y528678D01*
X691875Y527408D01*
X694330Y526750D01*
X696870D01*
X699325Y527408D01*
X701525Y528678D01*
X703322Y530475D01*
X704592Y532675D01*
X705250Y535130D01*
Y537671D01*
X704592Y540125D01*
X703322Y542325D01*
X701525Y544122D01*
X700540Y544691D01*
X700880Y545961D01*
X1274520D01*
X1274860Y544691D01*
X1273875Y544122D01*
X1272078Y542325D01*
X1270808Y540125D01*
X1270150Y537671D01*
Y535130D01*
X1270808Y532675D01*
X1272078Y530475D01*
X1273875Y528678D01*
X1276075Y527408D01*
X1278530Y526750D01*
X1281071D01*
X1283525Y527408D01*
X1285725Y528678D01*
X1287522Y530475D01*
X1288792Y532675D01*
X1289450Y535130D01*
Y537671D01*
X1288792Y540125D01*
X1287522Y542325D01*
X1285725Y544122D01*
X1284740Y544691D01*
X1285080Y545961D01*
X1299920D01*
X1300260Y544691D01*
X1299275Y544122D01*
X1297478Y542325D01*
X1296208Y540125D01*
X1295550Y537671D01*
Y535130D01*
X1296208Y532675D01*
X1297478Y530475D01*
X1299275Y528678D01*
X1301475Y527408D01*
X1303929Y526750D01*
X1306470D01*
X1308925Y527408D01*
X1311125Y528678D01*
X1312922Y530475D01*
X1314192Y532675D01*
X1314850Y535130D01*
Y537671D01*
X1314192Y540125D01*
X1312922Y542325D01*
X1311125Y544122D01*
X1310140Y544691D01*
X1310480Y545961D01*
X1360000D01*
X1360161Y545993D01*
X1361431Y545140D01*
Y527478D01*
X1336372Y502419D01*
X1312062D01*
X1311536Y503689D01*
X1312922Y505075D01*
X1314192Y507275D01*
X1314850Y509729D01*
Y512271D01*
X1314192Y514725D01*
X1312922Y516925D01*
X1311125Y518722D01*
X1308925Y519992D01*
X1306470Y520650D01*
X1303929D01*
X1301475Y519992D01*
X1299275Y518722D01*
X1297478Y516925D01*
X1296208Y514725D01*
X1295550Y512271D01*
Y509729D01*
X1296208Y507275D01*
X1297478Y505075D01*
X1298864Y503689D01*
X1298338Y502419D01*
X1293050D01*
X1291684Y502147D01*
X1290527Y501373D01*
X1283665Y494511D01*
X1283525Y494592D01*
X1281071Y495250D01*
X1278530D01*
X1276075Y494592D01*
X1273875Y493322D01*
X1272078Y491525D01*
X1270808Y489325D01*
X1270150Y486870D01*
Y484329D01*
X1270808Y481875D01*
X1272078Y479675D01*
X1273875Y477878D01*
X1276075Y476608D01*
X1278530Y475950D01*
X1281071D01*
X1283525Y476608D01*
X1285725Y477878D01*
X1287522Y479675D01*
X1288792Y481875D01*
X1289450Y484329D01*
Y486870D01*
X1288792Y489325D01*
X1288712Y489465D01*
X1294528Y495281D01*
X1300129D01*
X1300469Y494011D01*
X1299275Y493322D01*
X1297478Y491525D01*
X1296208Y489325D01*
X1295550Y486870D01*
Y484329D01*
X1296208Y481875D01*
X1297478Y479675D01*
X1299275Y477878D01*
X1301475Y476608D01*
X1303929Y475950D01*
X1306470D01*
X1308925Y476608D01*
X1311125Y477878D01*
X1312922Y479675D01*
X1314192Y481875D01*
X1314850Y484329D01*
Y486870D01*
X1314192Y489325D01*
X1312922Y491525D01*
X1311125Y493322D01*
X1309931Y494011D01*
X1310271Y495281D01*
X1337850D01*
X1339216Y495553D01*
X1340373Y496327D01*
X1348239Y504192D01*
X1349412Y503706D01*
Y416581D01*
X1348142Y415732D01*
X1347495Y416000D01*
X1345506D01*
X1343668Y415239D01*
X1342261Y413832D01*
X1341500Y411995D01*
Y410005D01*
X1342261Y408168D01*
X1343431Y406997D01*
Y390478D01*
X1326272Y373319D01*
X1307528D01*
X1307361Y374589D01*
X1308925Y375008D01*
X1311125Y376278D01*
X1312922Y378075D01*
X1314192Y380275D01*
X1314850Y382729D01*
Y385271D01*
X1314192Y387725D01*
X1312922Y389925D01*
X1311125Y391722D01*
X1308925Y392992D01*
X1306470Y393650D01*
X1303929D01*
X1301475Y392992D01*
X1299275Y391722D01*
X1297478Y389925D01*
X1296208Y387725D01*
X1295550Y385271D01*
Y382729D01*
X1296208Y380275D01*
X1297478Y378075D01*
X1299275Y376278D01*
X1301475Y375008D01*
X1303039Y374589D01*
X1302872Y373319D01*
X1300582D01*
X1299216Y373047D01*
X1298058Y372273D01*
X1290307Y364522D01*
X1287524D01*
X1287522Y364525D01*
X1285725Y366322D01*
X1283525Y367592D01*
X1281071Y368250D01*
X1278530D01*
X1276075Y367592D01*
X1273875Y366322D01*
X1272078Y364525D01*
X1270808Y362325D01*
X1270150Y359870D01*
Y357329D01*
X1270808Y354875D01*
X1270889Y354735D01*
X1257477Y341323D01*
X1256703Y340166D01*
X1256431Y338800D01*
Y278503D01*
X1255761Y277832D01*
X1255000Y275995D01*
Y274005D01*
X1255761Y272168D01*
X1257168Y270761D01*
X1259005Y270000D01*
X1260995D01*
X1262832Y270761D01*
X1264239Y272168D01*
X1265000Y274005D01*
Y275995D01*
X1264239Y277832D01*
X1263569Y278503D01*
Y337322D01*
X1275935Y349688D01*
X1276075Y349608D01*
X1278530Y348950D01*
X1281071D01*
X1283525Y349608D01*
X1285725Y350878D01*
X1287522Y352675D01*
X1288792Y354875D01*
X1289450Y357329D01*
Y357385D01*
X1291785D01*
X1293151Y357657D01*
X1294280Y358411D01*
X1294835Y358308D01*
X1295550Y358012D01*
Y357329D01*
X1296208Y354875D01*
X1297478Y352675D01*
X1299275Y350878D01*
X1301475Y349608D01*
X1303929Y348950D01*
X1306470D01*
X1308925Y349608D01*
X1311125Y350878D01*
X1312922Y352675D01*
X1314192Y354875D01*
X1314850Y357329D01*
Y359870D01*
X1314192Y362325D01*
X1312922Y364525D01*
X1312439Y365008D01*
X1312925Y366181D01*
X1327750D01*
X1329116Y366453D01*
X1330273Y367227D01*
X1348239Y385192D01*
X1349412Y384706D01*
Y162901D01*
X1316100Y129588D01*
X1135726D01*
X1134762Y130232D01*
X1133006Y130582D01*
X1100171D01*
X1098415Y130232D01*
X1096926Y129238D01*
X1094547Y126859D01*
X1093427Y127458D01*
X1093600Y128326D01*
Y131674D01*
X1092947Y134959D01*
X1091665Y138053D01*
X1089805Y140837D01*
X1087437Y143205D01*
X1084652Y145065D01*
X1081559Y146347D01*
X1078274Y147000D01*
X1074926D01*
X1071641Y146347D01*
X1068548Y145065D01*
X1065763Y143205D01*
X1063395Y140837D01*
X1061535Y138053D01*
X1060253Y134959D01*
X1059600Y131674D01*
Y128326D01*
X1060253Y125041D01*
X1061535Y121947D01*
X1062363Y120708D01*
X1061764Y119588D01*
X393900D01*
X355588Y157900D01*
Y171011D01*
X356000Y172005D01*
Y173995D01*
X355239Y175832D01*
X353832Y177239D01*
X351995Y178000D01*
X350005D01*
X348168Y177239D01*
X346761Y175832D01*
X346000Y173995D01*
Y172005D01*
X346412Y171011D01*
Y156000D01*
X346761Y154244D01*
X347756Y152756D01*
X388756Y111756D01*
X390244Y110761D01*
X392000Y110412D01*
X1062122D01*
X1065278Y107256D01*
X1066767Y106261D01*
X1068523Y105912D01*
X1084677D01*
X1086433Y106261D01*
X1087922Y107256D01*
X1102071Y121405D01*
X1131280D01*
X1132244Y120761D01*
X1134000Y120412D01*
X1318000D01*
X1319756Y120761D01*
X1321244Y121756D01*
X1341788Y142299D01*
X1342961Y141813D01*
Y27039D01*
X1265519D01*
X1265179Y28309D01*
X1266373Y28998D01*
X1268002Y30627D01*
X1269154Y32623D01*
X1269750Y34848D01*
Y37152D01*
X1269154Y39377D01*
X1268002Y41373D01*
X1266373Y43002D01*
X1264569Y44043D01*
Y82522D01*
X1286478Y104431D01*
X1303497D01*
X1303668Y104261D01*
X1305505Y103500D01*
X1307495D01*
X1309332Y104261D01*
X1310739Y105668D01*
X1311500Y107505D01*
Y109494D01*
X1310739Y111332D01*
X1309332Y112739D01*
X1307495Y113500D01*
X1305505D01*
X1303668Y112739D01*
X1302498Y111569D01*
X1285000D01*
X1283634Y111297D01*
X1282477Y110523D01*
X1258477Y86523D01*
X1257703Y85366D01*
X1257431Y84000D01*
Y44043D01*
X1255627Y43002D01*
X1253998Y41373D01*
X1252846Y39377D01*
X1252250Y37152D01*
Y34848D01*
X1252846Y32623D01*
X1253998Y30627D01*
X1255627Y28998D01*
X1256821Y28309D01*
X1256480Y27039D01*
X1240519D01*
X1240179Y28309D01*
X1241373Y28998D01*
X1243002Y30627D01*
X1244154Y32623D01*
X1244750Y34848D01*
Y37152D01*
X1244154Y39377D01*
X1243002Y41373D01*
X1241373Y43002D01*
X1239377Y44154D01*
X1237152Y44750D01*
X1234848D01*
X1232623Y44154D01*
X1230627Y43002D01*
X1228998Y41373D01*
X1227846Y39377D01*
X1227250Y37152D01*
Y34848D01*
X1227846Y32623D01*
X1228998Y30627D01*
X1230627Y28998D01*
X1231821Y28309D01*
X1231480Y27039D01*
X1215519D01*
X1215179Y28309D01*
X1216373Y28998D01*
X1218002Y30627D01*
X1219154Y32623D01*
X1219750Y34848D01*
Y37152D01*
X1219154Y39377D01*
X1218002Y41373D01*
X1216373Y43002D01*
X1214377Y44154D01*
X1212152Y44750D01*
X1209848D01*
X1207623Y44154D01*
X1205627Y43002D01*
X1203998Y41373D01*
X1202846Y39377D01*
X1202250Y37152D01*
Y34848D01*
X1202846Y32623D01*
X1203998Y30627D01*
X1205627Y28998D01*
X1206821Y28309D01*
X1206480Y27039D01*
X1190519D01*
X1190179Y28309D01*
X1191373Y28998D01*
X1193002Y30627D01*
X1194154Y32623D01*
X1194750Y34848D01*
Y37152D01*
X1194154Y39377D01*
X1193002Y41373D01*
X1191373Y43002D01*
X1189377Y44154D01*
X1187152Y44750D01*
X1184848D01*
X1182623Y44154D01*
X1180627Y43002D01*
X1178998Y41373D01*
X1177846Y39377D01*
X1177250Y37152D01*
Y34848D01*
X1177846Y32623D01*
X1178998Y30627D01*
X1180627Y28998D01*
X1181821Y28309D01*
X1181480Y27039D01*
X1174039D01*
Y48000D01*
X1173884Y48780D01*
X1173442Y49442D01*
X1172780Y49884D01*
X1172000Y50039D01*
X1148000D01*
X1147220Y49884D01*
X1146558Y49442D01*
X1146116Y48780D01*
X1145961Y48000D01*
Y37540D01*
X1144691Y37373D01*
X1144154Y39377D01*
X1143002Y41373D01*
X1141373Y43002D01*
X1139377Y44154D01*
X1137152Y44750D01*
X1134848D01*
X1132623Y44154D01*
X1130627Y43002D01*
X1128998Y41373D01*
X1127846Y39377D01*
X1127250Y37152D01*
Y34848D01*
X1127846Y32623D01*
X1128998Y30627D01*
X1130627Y28998D01*
X1131821Y28309D01*
X1131480Y27039D01*
X1045519D01*
X1045179Y28309D01*
X1046373Y28998D01*
X1048002Y30627D01*
X1049154Y32623D01*
X1049750Y34848D01*
Y37152D01*
X1049154Y39377D01*
X1048002Y41373D01*
X1046373Y43002D01*
X1044377Y44154D01*
X1042152Y44750D01*
X1039848D01*
X1037623Y44154D01*
X1035627Y43002D01*
X1033998Y41373D01*
X1032846Y39377D01*
X1032250Y37152D01*
Y34848D01*
X1032846Y32623D01*
X1033998Y30627D01*
X1035627Y28998D01*
X1036821Y28309D01*
X1036481Y27039D01*
X1020519D01*
X1020179Y28309D01*
X1021373Y28998D01*
X1023002Y30627D01*
X1024154Y32623D01*
X1024750Y34848D01*
Y37152D01*
X1024154Y39377D01*
X1023002Y41373D01*
X1021373Y43002D01*
X1019377Y44154D01*
X1017152Y44750D01*
X1014848D01*
X1012623Y44154D01*
X1010627Y43002D01*
X1008998Y41373D01*
X1007846Y39377D01*
X1007250Y37152D01*
Y34848D01*
X1007846Y32623D01*
X1008998Y30627D01*
X1010627Y28998D01*
X1011821Y28309D01*
X1011481Y27039D01*
X995519D01*
X995179Y28309D01*
X996373Y28998D01*
X998002Y30627D01*
X999154Y32623D01*
X999750Y34848D01*
Y37152D01*
X999154Y39377D01*
X998002Y41373D01*
X996373Y43002D01*
X994377Y44154D01*
X992152Y44750D01*
X989848D01*
X987623Y44154D01*
X985627Y43002D01*
X983998Y41373D01*
X982846Y39377D01*
X982250Y37152D01*
Y34848D01*
X982846Y32623D01*
X983998Y30627D01*
X985627Y28998D01*
X986821Y28309D01*
X986481Y27039D01*
X970519D01*
X970179Y28309D01*
X971373Y28998D01*
X973002Y30627D01*
X974154Y32623D01*
X974750Y34848D01*
Y37152D01*
X974154Y39377D01*
X973002Y41373D01*
X971373Y43002D01*
X969377Y44154D01*
X967152Y44750D01*
X964848D01*
X962623Y44154D01*
X960627Y43002D01*
X958998Y41373D01*
X957846Y39377D01*
X957250Y37152D01*
Y34848D01*
X957846Y32623D01*
X958998Y30627D01*
X960627Y28998D01*
X961821Y28309D01*
X961481Y27039D01*
X955039D01*
Y48000D01*
X954884Y48780D01*
X954442Y49442D01*
X953780Y49884D01*
X953000Y50039D01*
X929000D01*
X928220Y49884D01*
X927558Y49442D01*
X927116Y48780D01*
X926961Y48000D01*
Y6000D01*
X927116Y5220D01*
X927527Y4604D01*
X927474Y4330D01*
X927104Y3334D01*
X70000D01*
X69835Y3301D01*
X62531Y3711D01*
X55156Y4965D01*
X47968Y7035D01*
X41056Y9898D01*
X34509Y13517D01*
X28408Y17846D01*
X22830Y22830D01*
X17846Y28408D01*
X13517Y34509D01*
X9898Y41056D01*
X7035Y47968D01*
X4965Y55156D01*
X3711Y62531D01*
X3301Y69835D01*
X3334Y70000D01*
Y1080000D01*
X3301Y1080165D01*
X3711Y1087469D01*
X4965Y1094844D01*
X7035Y1102032D01*
X9898Y1108943D01*
X13517Y1115491D01*
X17846Y1121592D01*
X22830Y1127170D01*
X28408Y1132154D01*
X34509Y1136483D01*
X41056Y1140102D01*
X47968Y1142964D01*
X55156Y1145035D01*
X62531Y1146289D01*
X68742Y1146637D01*
X70000Y1146666D01*
X70000Y1146666D01*
X71257Y1146666D01*
X2030000D01*
X2030165Y1146699D01*
X2037469Y1146289D01*
D02*
G37*
G36*
X1360000Y548000D02*
X683000D01*
Y575000D01*
X1360000D01*
Y548000D01*
D02*
G37*
G36*
X1516445Y104477D02*
X1517603Y103703D01*
X1518968Y103431D01*
X1560522D01*
X1613773Y50180D01*
X1613147Y49010D01*
X1613000Y49039D01*
X1589000D01*
X1588220Y48884D01*
X1587558Y48442D01*
X1587116Y47780D01*
X1586961Y47000D01*
X1586961Y27039D01*
X1580519D01*
X1580179Y28309D01*
X1581373Y28998D01*
X1583002Y30627D01*
X1584154Y32623D01*
X1584750Y34848D01*
Y37152D01*
X1584154Y39377D01*
X1583002Y41373D01*
X1581373Y43002D01*
X1579377Y44154D01*
X1577152Y44750D01*
X1574848D01*
X1572623Y44154D01*
X1570627Y43002D01*
X1568998Y41373D01*
X1567846Y39377D01*
X1567250Y37152D01*
Y34848D01*
X1567846Y32623D01*
X1568998Y30627D01*
X1570627Y28998D01*
X1571821Y28309D01*
X1571481Y27039D01*
X1485520D01*
X1485179Y28309D01*
X1486373Y28998D01*
X1488002Y30627D01*
X1489154Y32623D01*
X1489750Y34848D01*
Y37152D01*
X1489154Y39377D01*
X1488002Y41373D01*
X1486373Y43002D01*
X1484377Y44154D01*
X1482152Y44750D01*
X1479848D01*
X1477623Y44154D01*
X1475627Y43002D01*
X1473998Y41373D01*
X1472846Y39377D01*
X1472250Y37152D01*
Y34848D01*
X1472789Y32836D01*
X1469272Y29319D01*
X1463352D01*
X1462866Y30492D01*
X1463002Y30627D01*
X1464154Y32623D01*
X1464750Y34848D01*
Y37152D01*
X1464154Y39377D01*
X1463002Y41373D01*
X1461373Y43002D01*
X1459569Y44043D01*
Y144568D01*
X1459297Y145934D01*
X1458523Y147092D01*
X1436042Y169573D01*
X1434884Y170347D01*
X1433519Y170619D01*
X1431228D01*
X1431061Y171889D01*
X1432625Y172308D01*
X1434825Y173578D01*
X1436622Y175375D01*
X1437892Y177575D01*
X1438550Y180030D01*
Y180712D01*
X1439723Y181198D01*
X1516445Y104477D01*
D02*
G37*
G36*
X1367000Y227247D02*
Y25000D01*
X1345000D01*
Y145511D01*
X1357244Y157756D01*
X1358239Y159244D01*
X1358588Y161000D01*
Y422000D01*
X1366075D01*
X1367000Y227247D01*
D02*
G37*
G36*
X1376431Y154000D02*
X1376703Y152634D01*
X1377477Y151477D01*
X1378000Y150953D01*
Y150000D01*
X1392000Y136000D01*
Y48000D01*
Y25000D01*
X1447458D01*
X1449231Y23227D01*
X1450389Y22453D01*
X1451754Y22181D01*
X1470750D01*
X1472116Y22453D01*
X1473273Y23227D01*
X1475047Y25000D01*
X1589000D01*
X1589000Y47000D01*
X1613000D01*
X1613000Y25000D01*
X1810000D01*
Y47000D01*
X1833000D01*
Y6000D01*
X929000D01*
Y48000D01*
X953000D01*
Y25000D01*
X1148000D01*
Y48000D01*
X1172000D01*
Y25000D01*
X1342961D01*
X1343116Y24220D01*
X1343558Y23558D01*
X1344220Y23116D01*
X1345000Y22961D01*
X1367000D01*
X1367780Y23116D01*
X1368442Y23558D01*
X1368884Y24220D01*
X1369039Y25000D01*
X1370000D01*
X1368000Y446000D01*
Y448000D01*
X1376431D01*
Y154000D01*
D02*
G37*
%LPC*%
G36*
X1568205Y1080150D02*
X1565795D01*
X1563468Y1079526D01*
X1561382Y1078322D01*
X1559678Y1076618D01*
X1558474Y1074532D01*
X1557850Y1072205D01*
Y1069795D01*
X1558474Y1067468D01*
X1559678Y1065382D01*
X1561382Y1063678D01*
X1563468Y1062474D01*
X1565795Y1061850D01*
X1568205D01*
X1570532Y1062474D01*
X1572618Y1063678D01*
X1574322Y1065382D01*
X1575526Y1067468D01*
X1576150Y1069795D01*
Y1072205D01*
X1575526Y1074532D01*
X1574322Y1076618D01*
X1572618Y1078322D01*
X1570532Y1079526D01*
X1568205Y1080150D01*
D02*
G37*
G36*
X1548205D02*
X1545795D01*
X1543468Y1079526D01*
X1541382Y1078322D01*
X1539678Y1076618D01*
X1538474Y1074532D01*
X1537850Y1072205D01*
Y1069795D01*
X1538474Y1067468D01*
X1539678Y1065382D01*
X1541382Y1063678D01*
X1543468Y1062474D01*
X1545795Y1061850D01*
X1548205D01*
X1550532Y1062474D01*
X1552618Y1063678D01*
X1554322Y1065382D01*
X1555526Y1067468D01*
X1556150Y1069795D01*
Y1072205D01*
X1555526Y1074532D01*
X1554322Y1076618D01*
X1552618Y1078322D01*
X1550532Y1079526D01*
X1548205Y1080150D01*
D02*
G37*
G36*
X1528205D02*
X1525795D01*
X1523468Y1079526D01*
X1521382Y1078322D01*
X1519678Y1076618D01*
X1518474Y1074532D01*
X1517850Y1072205D01*
Y1069795D01*
X1518474Y1067468D01*
X1519678Y1065382D01*
X1521382Y1063678D01*
X1523468Y1062474D01*
X1525795Y1061850D01*
X1528205D01*
X1530532Y1062474D01*
X1532618Y1063678D01*
X1534322Y1065382D01*
X1535526Y1067468D01*
X1536150Y1069795D01*
Y1072205D01*
X1535526Y1074532D01*
X1534322Y1076618D01*
X1532618Y1078322D01*
X1530532Y1079526D01*
X1528205Y1080150D01*
D02*
G37*
G36*
X1488205D02*
X1485795D01*
X1483468Y1079526D01*
X1481382Y1078322D01*
X1479678Y1076618D01*
X1478474Y1074532D01*
X1477850Y1072205D01*
Y1069795D01*
X1478474Y1067468D01*
X1479678Y1065382D01*
X1481382Y1063678D01*
X1483468Y1062474D01*
X1485795Y1061850D01*
X1488205D01*
X1490532Y1062474D01*
X1492618Y1063678D01*
X1494322Y1065382D01*
X1495526Y1067468D01*
X1496150Y1069795D01*
Y1072205D01*
X1495526Y1074532D01*
X1494322Y1076618D01*
X1492618Y1078322D01*
X1490532Y1079526D01*
X1488205Y1080150D01*
D02*
G37*
G36*
X1408205D02*
X1405795D01*
X1403468Y1079526D01*
X1401382Y1078322D01*
X1399678Y1076618D01*
X1398474Y1074532D01*
X1397850Y1072205D01*
Y1069795D01*
X1398474Y1067468D01*
X1399678Y1065382D01*
X1401382Y1063678D01*
X1403468Y1062474D01*
X1405795Y1061850D01*
X1408205D01*
X1410532Y1062474D01*
X1412618Y1063678D01*
X1414322Y1065382D01*
X1415526Y1067468D01*
X1416150Y1069795D01*
Y1072205D01*
X1415526Y1074532D01*
X1414322Y1076618D01*
X1412618Y1078322D01*
X1410532Y1079526D01*
X1408205Y1080150D01*
D02*
G37*
G36*
X1388205D02*
X1385795D01*
X1383468Y1079526D01*
X1381382Y1078322D01*
X1379678Y1076618D01*
X1378474Y1074532D01*
X1377850Y1072205D01*
Y1069795D01*
X1378474Y1067468D01*
X1379678Y1065382D01*
X1381382Y1063678D01*
X1383468Y1062474D01*
X1385795Y1061850D01*
X1388205D01*
X1390532Y1062474D01*
X1392618Y1063678D01*
X1394322Y1065382D01*
X1395526Y1067468D01*
X1396150Y1069795D01*
Y1072205D01*
X1395526Y1074532D01*
X1394322Y1076618D01*
X1392618Y1078322D01*
X1390532Y1079526D01*
X1388205Y1080150D01*
D02*
G37*
G36*
X1568205Y1060150D02*
X1565795D01*
X1563468Y1059526D01*
X1561382Y1058322D01*
X1559678Y1056618D01*
X1558474Y1054532D01*
X1557850Y1052205D01*
Y1049795D01*
X1558474Y1047468D01*
X1559678Y1045382D01*
X1561382Y1043678D01*
X1563468Y1042474D01*
X1565795Y1041850D01*
X1568205D01*
X1570532Y1042474D01*
X1572618Y1043678D01*
X1574322Y1045382D01*
X1575526Y1047468D01*
X1576150Y1049795D01*
Y1052205D01*
X1575526Y1054532D01*
X1574322Y1056618D01*
X1572618Y1058322D01*
X1570532Y1059526D01*
X1568205Y1060150D01*
D02*
G37*
G36*
X1548205D02*
X1545795D01*
X1543468Y1059526D01*
X1541382Y1058322D01*
X1539678Y1056618D01*
X1538474Y1054532D01*
X1537850Y1052205D01*
Y1049795D01*
X1538474Y1047468D01*
X1539678Y1045382D01*
X1541382Y1043678D01*
X1543468Y1042474D01*
X1545795Y1041850D01*
X1548205D01*
X1550532Y1042474D01*
X1552618Y1043678D01*
X1554322Y1045382D01*
X1555526Y1047468D01*
X1556150Y1049795D01*
Y1052205D01*
X1555526Y1054532D01*
X1554322Y1056618D01*
X1552618Y1058322D01*
X1550532Y1059526D01*
X1548205Y1060150D01*
D02*
G37*
G36*
X1528205D02*
X1525795D01*
X1523468Y1059526D01*
X1521382Y1058322D01*
X1519678Y1056618D01*
X1518474Y1054532D01*
X1517850Y1052205D01*
Y1049795D01*
X1518474Y1047468D01*
X1519678Y1045382D01*
X1521382Y1043678D01*
X1523468Y1042474D01*
X1525795Y1041850D01*
X1528205D01*
X1530532Y1042474D01*
X1532618Y1043678D01*
X1534322Y1045382D01*
X1535526Y1047468D01*
X1536150Y1049795D01*
Y1052205D01*
X1535526Y1054532D01*
X1534322Y1056618D01*
X1532618Y1058322D01*
X1530532Y1059526D01*
X1528205Y1060150D01*
D02*
G37*
G36*
X1508205D02*
X1505795D01*
X1503468Y1059526D01*
X1501382Y1058322D01*
X1499678Y1056618D01*
X1498474Y1054532D01*
X1497850Y1052205D01*
Y1049795D01*
X1498474Y1047468D01*
X1499678Y1045382D01*
X1501382Y1043678D01*
X1503468Y1042474D01*
X1505795Y1041850D01*
X1508205D01*
X1510532Y1042474D01*
X1512618Y1043678D01*
X1514322Y1045382D01*
X1515526Y1047468D01*
X1516150Y1049795D01*
Y1052205D01*
X1515526Y1054532D01*
X1514322Y1056618D01*
X1512618Y1058322D01*
X1510532Y1059526D01*
X1508205Y1060150D01*
D02*
G37*
G36*
X1448205D02*
X1445795D01*
X1443468Y1059526D01*
X1441382Y1058322D01*
X1439678Y1056618D01*
X1438474Y1054532D01*
X1437850Y1052205D01*
Y1049795D01*
X1438474Y1047468D01*
X1439678Y1045382D01*
X1441382Y1043678D01*
X1443468Y1042474D01*
X1445795Y1041850D01*
X1448205D01*
X1450532Y1042474D01*
X1452618Y1043678D01*
X1454322Y1045382D01*
X1455526Y1047468D01*
X1456150Y1049795D01*
Y1052205D01*
X1455526Y1054532D01*
X1454322Y1056618D01*
X1452618Y1058322D01*
X1450532Y1059526D01*
X1448205Y1060150D01*
D02*
G37*
G36*
X1408205D02*
X1405795D01*
X1403468Y1059526D01*
X1401382Y1058322D01*
X1399678Y1056618D01*
X1398474Y1054532D01*
X1397850Y1052205D01*
Y1049795D01*
X1398474Y1047468D01*
X1399678Y1045382D01*
X1401382Y1043678D01*
X1403468Y1042474D01*
X1405795Y1041850D01*
X1408205D01*
X1410532Y1042474D01*
X1412618Y1043678D01*
X1414322Y1045382D01*
X1415526Y1047468D01*
X1416150Y1049795D01*
Y1052205D01*
X1415526Y1054532D01*
X1414322Y1056618D01*
X1412618Y1058322D01*
X1410532Y1059526D01*
X1408205Y1060150D01*
D02*
G37*
G36*
X1396150D02*
X1377850D01*
Y1041850D01*
X1396150D01*
Y1060150D01*
D02*
G37*
G36*
X1785340Y1064700D02*
X1781460D01*
X1777654Y1063943D01*
X1774068Y1062458D01*
X1770842Y1060302D01*
X1768098Y1057558D01*
X1765942Y1054331D01*
X1764457Y1050746D01*
X1763700Y1046940D01*
Y1043060D01*
X1764457Y1039254D01*
X1765942Y1035668D01*
X1768098Y1032442D01*
X1770842Y1029698D01*
X1774068Y1027542D01*
X1777654Y1026057D01*
X1781460Y1025300D01*
X1785340D01*
X1789146Y1026057D01*
X1792731Y1027542D01*
X1795958Y1029698D01*
X1798702Y1032442D01*
X1800858Y1035668D01*
X1802343Y1039254D01*
X1803100Y1043060D01*
Y1046940D01*
X1802343Y1050746D01*
X1800858Y1054331D01*
X1798702Y1057558D01*
X1795958Y1060302D01*
X1792731Y1062458D01*
X1789146Y1063943D01*
X1785340Y1064700D01*
D02*
G37*
G36*
X1653940D02*
X1650060D01*
X1646254Y1063943D01*
X1642668Y1062458D01*
X1639442Y1060302D01*
X1636698Y1057558D01*
X1634542Y1054331D01*
X1633057Y1050746D01*
X1632300Y1046940D01*
Y1043060D01*
X1633057Y1039254D01*
X1634542Y1035668D01*
X1636698Y1032442D01*
X1639442Y1029698D01*
X1642668Y1027542D01*
X1646254Y1026057D01*
X1650060Y1025300D01*
X1653940D01*
X1657746Y1026057D01*
X1661331Y1027542D01*
X1664558Y1029698D01*
X1667302Y1032442D01*
X1669458Y1035668D01*
X1670943Y1039254D01*
X1671700Y1043060D01*
Y1046940D01*
X1670943Y1050746D01*
X1669458Y1054331D01*
X1667302Y1057558D01*
X1664558Y1060302D01*
X1661331Y1062458D01*
X1657746Y1063943D01*
X1653940Y1064700D01*
D02*
G37*
G36*
X1172540D02*
X1168660D01*
X1164854Y1063943D01*
X1161269Y1062458D01*
X1158042Y1060302D01*
X1155298Y1057558D01*
X1153142Y1054331D01*
X1151657Y1050746D01*
X1150900Y1046940D01*
Y1043060D01*
X1151657Y1039254D01*
X1153142Y1035668D01*
X1155298Y1032442D01*
X1158042Y1029698D01*
X1161269Y1027542D01*
X1164854Y1026057D01*
X1168660Y1025300D01*
X1172540D01*
X1176346Y1026057D01*
X1179931Y1027542D01*
X1183158Y1029698D01*
X1185902Y1032442D01*
X1188058Y1035668D01*
X1189543Y1039254D01*
X1190300Y1043060D01*
Y1046940D01*
X1189543Y1050746D01*
X1188058Y1054331D01*
X1185902Y1057558D01*
X1183158Y1060302D01*
X1179931Y1062458D01*
X1176346Y1063943D01*
X1172540Y1064700D01*
D02*
G37*
G36*
X1303940D02*
X1300060D01*
X1296254Y1063943D01*
X1292669Y1062458D01*
X1289442Y1060302D01*
X1286698Y1057558D01*
X1284542Y1054331D01*
X1283057Y1050746D01*
X1282300Y1046940D01*
Y1043060D01*
X1283057Y1039254D01*
X1284542Y1035668D01*
X1286698Y1032442D01*
X1289442Y1029698D01*
X1292669Y1027542D01*
X1296254Y1026057D01*
X1297962Y1025717D01*
Y1022850D01*
X1295600D01*
Y1003150D01*
X1310600D01*
Y1022850D01*
X1307138D01*
Y1025936D01*
X1307746Y1026057D01*
X1311331Y1027542D01*
X1314558Y1029698D01*
X1317302Y1032442D01*
X1319458Y1035668D01*
X1320943Y1039254D01*
X1321700Y1043060D01*
Y1046940D01*
X1320943Y1050746D01*
X1319458Y1054331D01*
X1317302Y1057558D01*
X1314558Y1060302D01*
X1311331Y1062458D01*
X1307746Y1063943D01*
X1303940Y1064700D01*
D02*
G37*
G36*
X567152Y1011750D02*
X564848D01*
X562623Y1011154D01*
X560627Y1010002D01*
X558998Y1008373D01*
X557846Y1006377D01*
X557250Y1004152D01*
Y1001848D01*
X557846Y999623D01*
X558998Y997627D01*
X560627Y995998D01*
X562623Y994846D01*
X564848Y994250D01*
X567152D01*
X569377Y994846D01*
X571373Y995998D01*
X573002Y997627D01*
X574154Y999623D01*
X574750Y1001848D01*
Y1004152D01*
X574154Y1006377D01*
X573002Y1008373D01*
X571373Y1010002D01*
X569377Y1011154D01*
X567152Y1011750D01*
D02*
G37*
G36*
X503152D02*
X500848D01*
X498623Y1011154D01*
X496627Y1010002D01*
X494998Y1008373D01*
X493846Y1006377D01*
X493250Y1004152D01*
Y1001848D01*
X493846Y999623D01*
X494998Y997627D01*
X496627Y995998D01*
X498623Y994846D01*
X500848Y994250D01*
X503152D01*
X505377Y994846D01*
X507373Y995998D01*
X509002Y997627D01*
X510154Y999623D01*
X510750Y1001848D01*
Y1004152D01*
X510154Y1006377D01*
X509002Y1008373D01*
X507373Y1010002D01*
X505377Y1011154D01*
X503152Y1011750D01*
D02*
G37*
G36*
X427152D02*
X424848D01*
X422623Y1011154D01*
X420627Y1010002D01*
X418998Y1008373D01*
X417846Y1006377D01*
X417250Y1004152D01*
Y1001848D01*
X417846Y999623D01*
X418998Y997627D01*
X420627Y995998D01*
X422623Y994846D01*
X424848Y994250D01*
X427152D01*
X429377Y994846D01*
X431373Y995998D01*
X433002Y997627D01*
X434154Y999623D01*
X434750Y1001848D01*
Y1004152D01*
X434154Y1006377D01*
X433002Y1008373D01*
X431373Y1010002D01*
X429377Y1011154D01*
X427152Y1011750D01*
D02*
G37*
G36*
X363152D02*
X360848D01*
X358623Y1011154D01*
X356627Y1010002D01*
X354998Y1008373D01*
X353846Y1006377D01*
X353250Y1004152D01*
Y1001848D01*
X353846Y999623D01*
X354998Y997627D01*
X356627Y995998D01*
X358623Y994846D01*
X360848Y994250D01*
X363152D01*
X365377Y994846D01*
X367373Y995998D01*
X369002Y997627D01*
X370154Y999623D01*
X370750Y1001848D01*
Y1004152D01*
X370154Y1006377D01*
X369002Y1008373D01*
X367373Y1010002D01*
X365377Y1011154D01*
X363152Y1011750D01*
D02*
G37*
G36*
X287152D02*
X284848D01*
X282623Y1011154D01*
X280627Y1010002D01*
X278998Y1008373D01*
X277846Y1006377D01*
X277250Y1004152D01*
Y1001848D01*
X277846Y999623D01*
X278998Y997627D01*
X280627Y995998D01*
X282623Y994846D01*
X284848Y994250D01*
X287152D01*
X289377Y994846D01*
X291373Y995998D01*
X293002Y997627D01*
X294154Y999623D01*
X294750Y1001848D01*
Y1004152D01*
X294154Y1006377D01*
X293002Y1008373D01*
X291373Y1010002D01*
X289377Y1011154D01*
X287152Y1011750D01*
D02*
G37*
G36*
X222152D02*
X219848D01*
X217623Y1011154D01*
X215627Y1010002D01*
X213998Y1008373D01*
X212846Y1006377D01*
X212250Y1004152D01*
Y1001848D01*
X212846Y999623D01*
X213998Y997627D01*
X215627Y995998D01*
X217623Y994846D01*
X219848Y994250D01*
X222152D01*
X224377Y994846D01*
X226373Y995998D01*
X228002Y997627D01*
X229154Y999623D01*
X229750Y1001848D01*
Y1004152D01*
X229154Y1006377D01*
X228002Y1008373D01*
X226373Y1010002D01*
X224377Y1011154D01*
X222152Y1011750D01*
D02*
G37*
G36*
X567152Y986750D02*
X564848D01*
X562623Y986154D01*
X560627Y985002D01*
X558998Y983373D01*
X557846Y981377D01*
X557250Y979152D01*
Y976848D01*
X557846Y974623D01*
X558998Y972627D01*
X560627Y970998D01*
X562623Y969846D01*
X564848Y969250D01*
X567152D01*
X569377Y969846D01*
X571373Y970998D01*
X573002Y972627D01*
X574154Y974623D01*
X574750Y976848D01*
Y979152D01*
X574154Y981377D01*
X573002Y983373D01*
X571373Y985002D01*
X569377Y986154D01*
X567152Y986750D01*
D02*
G37*
G36*
X503152D02*
X500848D01*
X498623Y986154D01*
X496627Y985002D01*
X494998Y983373D01*
X493846Y981377D01*
X493250Y979152D01*
Y976848D01*
X493846Y974623D01*
X494998Y972627D01*
X496627Y970998D01*
X498623Y969846D01*
X500848Y969250D01*
X503152D01*
X505377Y969846D01*
X507373Y970998D01*
X509002Y972627D01*
X510154Y974623D01*
X510750Y976848D01*
Y979152D01*
X510154Y981377D01*
X509002Y983373D01*
X507373Y985002D01*
X505377Y986154D01*
X503152Y986750D01*
D02*
G37*
G36*
X427152D02*
X424848D01*
X422623Y986154D01*
X420627Y985002D01*
X418998Y983373D01*
X417846Y981377D01*
X417250Y979152D01*
Y976848D01*
X417846Y974623D01*
X418998Y972627D01*
X420627Y970998D01*
X422623Y969846D01*
X424848Y969250D01*
X427152D01*
X429377Y969846D01*
X431373Y970998D01*
X433002Y972627D01*
X434154Y974623D01*
X434750Y976848D01*
Y979152D01*
X434154Y981377D01*
X433002Y983373D01*
X431373Y985002D01*
X429377Y986154D01*
X427152Y986750D01*
D02*
G37*
G36*
X363152D02*
X360848D01*
X358623Y986154D01*
X356627Y985002D01*
X354998Y983373D01*
X353846Y981377D01*
X353250Y979152D01*
Y976848D01*
X353846Y974623D01*
X354998Y972627D01*
X356627Y970998D01*
X358623Y969846D01*
X360848Y969250D01*
X363152D01*
X365377Y969846D01*
X367373Y970998D01*
X369002Y972627D01*
X370154Y974623D01*
X370750Y976848D01*
Y979152D01*
X370154Y981377D01*
X369002Y983373D01*
X367373Y985002D01*
X365377Y986154D01*
X363152Y986750D01*
D02*
G37*
G36*
X287152D02*
X284848D01*
X282623Y986154D01*
X280627Y985002D01*
X278998Y983373D01*
X277846Y981377D01*
X277250Y979152D01*
Y976848D01*
X277846Y974623D01*
X278998Y972627D01*
X280627Y970998D01*
X282623Y969846D01*
X284848Y969250D01*
X287152D01*
X289377Y969846D01*
X291373Y970998D01*
X293002Y972627D01*
X294154Y974623D01*
X294750Y976848D01*
Y979152D01*
X294154Y981377D01*
X293002Y983373D01*
X291373Y985002D01*
X289377Y986154D01*
X287152Y986750D01*
D02*
G37*
G36*
X222152D02*
X219848D01*
X217623Y986154D01*
X215627Y985002D01*
X213998Y983373D01*
X212846Y981377D01*
X212250Y979152D01*
Y976848D01*
X212846Y974623D01*
X213998Y972627D01*
X215627Y970998D01*
X217623Y969846D01*
X219848Y969250D01*
X222152D01*
X224377Y969846D01*
X226373Y970998D01*
X228002Y972627D01*
X229154Y974623D01*
X229750Y976848D01*
Y979152D01*
X229154Y981377D01*
X228002Y983373D01*
X226373Y985002D01*
X224377Y986154D01*
X222152Y986750D01*
D02*
G37*
G36*
X567152Y961750D02*
X564848D01*
X562623Y961154D01*
X560627Y960002D01*
X558998Y958373D01*
X557846Y956377D01*
X557250Y954152D01*
Y951848D01*
X557846Y949623D01*
X558998Y947627D01*
X560627Y945998D01*
X562623Y944846D01*
X564848Y944250D01*
X567152D01*
X569377Y944846D01*
X571373Y945998D01*
X573002Y947627D01*
X574154Y949623D01*
X574750Y951848D01*
Y954152D01*
X574154Y956377D01*
X573002Y958373D01*
X571373Y960002D01*
X569377Y961154D01*
X567152Y961750D01*
D02*
G37*
G36*
X503152D02*
X500848D01*
X498623Y961154D01*
X496627Y960002D01*
X494998Y958373D01*
X493846Y956377D01*
X493250Y954152D01*
Y951848D01*
X493846Y949623D01*
X494998Y947627D01*
X496627Y945998D01*
X498623Y944846D01*
X500848Y944250D01*
X503152D01*
X505377Y944846D01*
X507373Y945998D01*
X509002Y947627D01*
X510154Y949623D01*
X510750Y951848D01*
Y954152D01*
X510154Y956377D01*
X509002Y958373D01*
X507373Y960002D01*
X505377Y961154D01*
X503152Y961750D01*
D02*
G37*
G36*
X427152D02*
X424848D01*
X422623Y961154D01*
X420627Y960002D01*
X418998Y958373D01*
X417846Y956377D01*
X417250Y954152D01*
Y951848D01*
X417846Y949623D01*
X418998Y947627D01*
X420627Y945998D01*
X422623Y944846D01*
X424848Y944250D01*
X427152D01*
X429377Y944846D01*
X431373Y945998D01*
X433002Y947627D01*
X434154Y949623D01*
X434750Y951848D01*
Y954152D01*
X434154Y956377D01*
X433002Y958373D01*
X431373Y960002D01*
X429377Y961154D01*
X427152Y961750D01*
D02*
G37*
G36*
X363152D02*
X360848D01*
X358623Y961154D01*
X356627Y960002D01*
X354998Y958373D01*
X353846Y956377D01*
X353250Y954152D01*
Y951848D01*
X353846Y949623D01*
X354998Y947627D01*
X356627Y945998D01*
X358623Y944846D01*
X360848Y944250D01*
X363152D01*
X365377Y944846D01*
X367373Y945998D01*
X369002Y947627D01*
X370154Y949623D01*
X370750Y951848D01*
Y954152D01*
X370154Y956377D01*
X369002Y958373D01*
X367373Y960002D01*
X365377Y961154D01*
X363152Y961750D01*
D02*
G37*
G36*
X287152D02*
X284848D01*
X282623Y961154D01*
X280627Y960002D01*
X278998Y958373D01*
X277846Y956377D01*
X277250Y954152D01*
Y951848D01*
X277846Y949623D01*
X278998Y947627D01*
X280627Y945998D01*
X282623Y944846D01*
X284848Y944250D01*
X287152D01*
X289377Y944846D01*
X291373Y945998D01*
X293002Y947627D01*
X294154Y949623D01*
X294750Y951848D01*
Y954152D01*
X294154Y956377D01*
X293002Y958373D01*
X291373Y960002D01*
X289377Y961154D01*
X287152Y961750D01*
D02*
G37*
G36*
X222152D02*
X219848D01*
X217623Y961154D01*
X215627Y960002D01*
X213998Y958373D01*
X212846Y956377D01*
X212250Y954152D01*
Y951848D01*
X212846Y949623D01*
X213998Y947627D01*
X215627Y945998D01*
X217623Y944846D01*
X219848Y944250D01*
X222152D01*
X224377Y944846D01*
X226373Y945998D01*
X228002Y947627D01*
X229154Y949623D01*
X229750Y951848D01*
Y954152D01*
X229154Y956377D01*
X228002Y958373D01*
X226373Y960002D01*
X224377Y961154D01*
X222152Y961750D01*
D02*
G37*
G36*
X663607Y914850D02*
X661593D01*
X659647Y914329D01*
X657903Y913322D01*
X656479Y911897D01*
X655471Y910153D01*
X654950Y908207D01*
Y906193D01*
X655471Y904247D01*
X656479Y902503D01*
X657903Y901078D01*
X659647Y900071D01*
X661593Y899550D01*
X663607D01*
X665553Y900071D01*
X667297Y901078D01*
X668721Y902503D01*
X669729Y904247D01*
X670250Y906193D01*
Y908207D01*
X669729Y910153D01*
X668721Y911897D01*
X667297Y913322D01*
X665553Y914329D01*
X663607Y914850D01*
D02*
G37*
G36*
X749650D02*
X734350D01*
Y904597D01*
X715122Y885369D01*
X669373D01*
X668721Y886497D01*
X667297Y887922D01*
X665553Y888929D01*
X663607Y889450D01*
X661593D01*
X659647Y888929D01*
X657903Y887922D01*
X656479Y886497D01*
X655471Y884753D01*
X654950Y882807D01*
Y880793D01*
X655471Y878847D01*
X656479Y877103D01*
X657903Y875678D01*
X659647Y874671D01*
X661593Y874150D01*
X663607D01*
X665553Y874671D01*
X667297Y875678D01*
X668721Y877103D01*
X669373Y878231D01*
X716600D01*
X717966Y878503D01*
X719123Y879277D01*
X739397Y899550D01*
X749650D01*
Y914850D01*
D02*
G37*
G36*
X743007Y889450D02*
X740993D01*
X739047Y888929D01*
X737303Y887922D01*
X735879Y886497D01*
X734871Y884753D01*
X734350Y882807D01*
Y880793D01*
X734871Y878847D01*
X735879Y877103D01*
X737303Y875678D01*
X739047Y874671D01*
X740993Y874150D01*
X743007D01*
X744953Y874671D01*
X746697Y875678D01*
X748121Y877103D01*
X749129Y878847D01*
X749650Y880793D01*
Y882807D01*
X749129Y884753D01*
X748121Y886497D01*
X746697Y887922D01*
X744953Y888929D01*
X743007Y889450D01*
D02*
G37*
G36*
X1488205Y1060150D02*
X1485795D01*
X1483468Y1059526D01*
X1481382Y1058322D01*
X1479678Y1056618D01*
X1478474Y1054532D01*
X1477850Y1052205D01*
Y1049795D01*
X1478474Y1047468D01*
X1479678Y1045382D01*
X1481382Y1043678D01*
X1483468Y1042474D01*
X1485795Y1041850D01*
X1488205D01*
X1490491Y1042463D01*
X1510431Y1022522D01*
Y873503D01*
X1509761Y872832D01*
X1509000Y870995D01*
Y869006D01*
X1509761Y867168D01*
X1511168Y865761D01*
X1513005Y865000D01*
X1514995D01*
X1516832Y865761D01*
X1518239Y867168D01*
X1519000Y869006D01*
Y870995D01*
X1518239Y872832D01*
X1517569Y873503D01*
Y1024000D01*
X1517297Y1025366D01*
X1516523Y1026523D01*
X1495537Y1047509D01*
X1496150Y1049795D01*
Y1052205D01*
X1495526Y1054532D01*
X1494322Y1056618D01*
X1492618Y1058322D01*
X1490532Y1059526D01*
X1488205Y1060150D01*
D02*
G37*
G36*
X743007Y864050D02*
X740993D01*
X739047Y863529D01*
X737303Y862522D01*
X735879Y861097D01*
X734871Y859353D01*
X734350Y857407D01*
Y855393D01*
X734871Y853447D01*
X735879Y851703D01*
X737303Y850278D01*
X739047Y849271D01*
X740993Y848750D01*
X743007D01*
X744953Y849271D01*
X746697Y850278D01*
X748121Y851703D01*
X749129Y853447D01*
X749650Y855393D01*
Y857407D01*
X749129Y859353D01*
X748121Y861097D01*
X746697Y862522D01*
X744953Y863529D01*
X743007Y864050D01*
D02*
G37*
G36*
X663607D02*
X661593D01*
X659647Y863529D01*
X657903Y862522D01*
X656479Y861097D01*
X655471Y859353D01*
X654950Y857407D01*
Y855393D01*
X655471Y853447D01*
X656479Y851703D01*
X657903Y850278D01*
X659647Y849271D01*
X661593Y848750D01*
X663607D01*
X665553Y849271D01*
X667297Y850278D01*
X668721Y851703D01*
X669373Y852831D01*
X706245D01*
X718600Y840477D01*
X719757Y839703D01*
X721123Y839431D01*
X739002D01*
X739169Y838161D01*
X739047Y838129D01*
X737303Y837122D01*
X735879Y835697D01*
X734871Y833953D01*
X734350Y832007D01*
Y829993D01*
X734871Y828047D01*
X735879Y826303D01*
X737303Y824878D01*
X739047Y823871D01*
X740993Y823350D01*
X743007D01*
X744953Y823871D01*
X746697Y824878D01*
X748121Y826303D01*
X749129Y828047D01*
X749650Y829993D01*
Y832007D01*
X749129Y833953D01*
X748121Y835697D01*
X746697Y837122D01*
X744953Y838129D01*
X744830Y838161D01*
X744998Y839431D01*
X1004498D01*
X1005168Y838761D01*
X1005472Y838635D01*
Y837365D01*
X1005168Y837239D01*
X1003761Y835832D01*
X1003238Y834569D01*
X762000D01*
X760634Y834297D01*
X759477Y833523D01*
X747522Y821569D01*
X737478D01*
X725523Y833523D01*
X724366Y834297D01*
X723000Y834569D01*
X669373D01*
X668721Y835697D01*
X667297Y837122D01*
X665553Y838129D01*
X663607Y838650D01*
X661593D01*
X659647Y838129D01*
X657903Y837122D01*
X656479Y835697D01*
X655471Y833953D01*
X654950Y832007D01*
Y829993D01*
X655471Y828047D01*
X656479Y826303D01*
X657903Y824878D01*
X659647Y823871D01*
X661593Y823350D01*
X663607D01*
X665553Y823871D01*
X667297Y824878D01*
X668721Y826303D01*
X669373Y827431D01*
X682564D01*
X683090Y826161D01*
X682761Y825832D01*
X682000Y823995D01*
Y822005D01*
X682761Y820168D01*
X682857Y820071D01*
Y817964D01*
X671423Y806530D01*
X670135Y807038D01*
X669729Y808553D01*
X668721Y810297D01*
X667297Y811721D01*
X665553Y812729D01*
X663607Y813250D01*
X661593D01*
X659647Y812729D01*
X657903Y811721D01*
X656479Y810297D01*
X655471Y808553D01*
X654950Y806607D01*
Y804593D01*
X655471Y802647D01*
X656479Y800903D01*
X656639Y800742D01*
X656153Y799569D01*
X578177D01*
X577402Y800912D01*
X576623Y801691D01*
X577149Y802961D01*
X581000D01*
X581780Y803116D01*
X582442Y803558D01*
X582884Y804220D01*
X583039Y805000D01*
X583039Y834000D01*
X582884Y834780D01*
X582442Y835442D01*
X581780Y835884D01*
X581000Y836039D01*
X102000Y836039D01*
X101220Y835884D01*
X100558Y835442D01*
X100116Y834780D01*
X99961Y834000D01*
Y551039D01*
X31000D01*
X30220Y550884D01*
X29558Y550442D01*
X29116Y549780D01*
X28961Y549000D01*
Y482000D01*
X29116Y481220D01*
X29558Y480558D01*
X30220Y480116D01*
X31000Y479961D01*
X336961D01*
Y357000D01*
X337116Y356220D01*
X337558Y355558D01*
X338220Y355116D01*
X339000Y354961D01*
X391000D01*
X391780Y355116D01*
X392442Y355558D01*
X392884Y356220D01*
X393039Y357000D01*
Y508000D01*
X392884Y508780D01*
X392442Y509442D01*
X391780Y509884D01*
X391000Y510039D01*
X308039D01*
Y576000D01*
X307884Y576780D01*
X307442Y577442D01*
X306780Y577884D01*
X306000Y578039D01*
X259000D01*
X258220Y577884D01*
X257558Y577442D01*
X257116Y576780D01*
X256961Y576000D01*
Y551039D01*
X208039D01*
Y802961D01*
X215851D01*
X216377Y801691D01*
X215598Y800912D01*
X214545Y799088D01*
X214000Y797053D01*
Y794947D01*
X214545Y792912D01*
X215598Y791088D01*
X217088Y789598D01*
X218912Y788545D01*
X220947Y788000D01*
X223053D01*
X225088Y788545D01*
X226912Y789598D01*
X228402Y791088D01*
X229455Y792912D01*
X230000Y794947D01*
Y797053D01*
X229455Y799088D01*
X228402Y800912D01*
X227623Y801691D01*
X228149Y802961D01*
X284851D01*
X285377Y801691D01*
X284598Y800912D01*
X283545Y799088D01*
X283000Y797053D01*
Y794947D01*
X283545Y792912D01*
X284598Y791088D01*
X286088Y789598D01*
X287912Y788545D01*
X289947Y788000D01*
X292053D01*
X294088Y788545D01*
X295912Y789598D01*
X297402Y791088D01*
X298455Y792912D01*
X299000Y794947D01*
Y797053D01*
X298455Y799088D01*
X297402Y800912D01*
X296623Y801691D01*
X297149Y802961D01*
X356851D01*
X357377Y801691D01*
X356598Y800912D01*
X355545Y799088D01*
X355000Y797053D01*
Y794947D01*
X355545Y792912D01*
X356598Y791088D01*
X358088Y789598D01*
X359912Y788545D01*
X361947Y788000D01*
X364053D01*
X366088Y788545D01*
X367912Y789598D01*
X369402Y791088D01*
X370455Y792912D01*
X371000Y794947D01*
Y797053D01*
X370455Y799088D01*
X369402Y800912D01*
X368623Y801691D01*
X369149Y802961D01*
X425851D01*
X426377Y801691D01*
X425598Y800912D01*
X424545Y799088D01*
X424000Y797053D01*
Y794947D01*
X424545Y792912D01*
X425598Y791088D01*
X427088Y789598D01*
X428912Y788545D01*
X430947Y788000D01*
X433053D01*
X435088Y788545D01*
X436912Y789598D01*
X438402Y791088D01*
X439455Y792912D01*
X440000Y794947D01*
Y797053D01*
X439455Y799088D01*
X438402Y800912D01*
X437623Y801691D01*
X438149Y802961D01*
X494851D01*
X495377Y801691D01*
X494598Y800912D01*
X493545Y799088D01*
X493000Y797053D01*
Y794947D01*
X493545Y792912D01*
X494598Y791088D01*
X496088Y789598D01*
X497912Y788545D01*
X499947Y788000D01*
X502053D01*
X504088Y788545D01*
X505912Y789598D01*
X507402Y791088D01*
X508455Y792912D01*
X509000Y794947D01*
Y797053D01*
X508455Y799088D01*
X507402Y800912D01*
X506623Y801691D01*
X507149Y802961D01*
X564851D01*
X565377Y801691D01*
X564598Y800912D01*
X563545Y799088D01*
X563000Y797053D01*
Y794947D01*
X563545Y792912D01*
X564598Y791088D01*
X566088Y789598D01*
X567912Y788545D01*
X569947Y788000D01*
X572053D01*
X574088Y788545D01*
X575912Y789598D01*
X577402Y791088D01*
X578177Y792431D01*
X665940D01*
X667306Y792703D01*
X668463Y793477D01*
X688949Y813963D01*
X689723Y815120D01*
X689995Y816486D01*
Y818923D01*
X691239Y820168D01*
X692000Y822005D01*
Y823995D01*
X691239Y825832D01*
X690910Y826161D01*
X691436Y827431D01*
X721522D01*
X733477Y815477D01*
X734634Y814703D01*
X736000Y814431D01*
X740495D01*
X740662Y813161D01*
X739047Y812729D01*
X737303Y811721D01*
X735879Y810297D01*
X734871Y808553D01*
X734350Y806607D01*
Y804593D01*
X734871Y802647D01*
X735879Y800903D01*
X737303Y799479D01*
X739047Y798471D01*
X740993Y797950D01*
X743007D01*
X744953Y798471D01*
X746697Y799479D01*
X748121Y800903D01*
X749129Y802647D01*
X749650Y804593D01*
Y806607D01*
X749129Y808553D01*
X748121Y810297D01*
X746697Y811721D01*
X744953Y812729D01*
X743338Y813161D01*
X743505Y814431D01*
X749000D01*
X750366Y814703D01*
X751523Y815477D01*
X763478Y827431D01*
X1005188D01*
X1006554Y827703D01*
X1007001Y828002D01*
X1007005Y828000D01*
X1008995D01*
X1010832Y828761D01*
X1012239Y830168D01*
X1013000Y832005D01*
Y833995D01*
X1012239Y835832D01*
X1010832Y837239D01*
X1010528Y837365D01*
Y838635D01*
X1010832Y838761D01*
X1012239Y840168D01*
X1013000Y842005D01*
Y843995D01*
X1012239Y845832D01*
X1010832Y847239D01*
X1008995Y848000D01*
X1007005D01*
X1005168Y847239D01*
X1004498Y846569D01*
X722601D01*
X710246Y858923D01*
X709089Y859697D01*
X707723Y859969D01*
X669373D01*
X668721Y861097D01*
X667297Y862522D01*
X665553Y863529D01*
X663607Y864050D01*
D02*
G37*
G36*
X743007Y787850D02*
X740993D01*
X739047Y787329D01*
X737303Y786321D01*
X735879Y784897D01*
X734871Y783153D01*
X734350Y781207D01*
Y779193D01*
X734871Y777247D01*
X735879Y775503D01*
X737303Y774079D01*
X739047Y773071D01*
X740993Y772550D01*
X743007D01*
X744953Y773071D01*
X746697Y774079D01*
X748121Y775503D01*
X749129Y777247D01*
X749650Y779193D01*
Y781207D01*
X749129Y783153D01*
X748121Y784897D01*
X746697Y786321D01*
X744953Y787329D01*
X743007Y787850D01*
D02*
G37*
G36*
X663607D02*
X661593D01*
X659647Y787329D01*
X657903Y786321D01*
X656479Y784897D01*
X655471Y783153D01*
X654950Y781207D01*
Y779193D01*
X655471Y777247D01*
X656479Y775503D01*
X657903Y774079D01*
X659647Y773071D01*
X661593Y772550D01*
X663607D01*
X665553Y773071D01*
X667297Y774079D01*
X668721Y775503D01*
X669729Y777247D01*
X670250Y779193D01*
Y781207D01*
X669729Y783153D01*
X668721Y784897D01*
X667297Y786321D01*
X665553Y787329D01*
X663607Y787850D01*
D02*
G37*
G36*
X743007Y762450D02*
X740993D01*
X739047Y761929D01*
X737303Y760921D01*
X735879Y759497D01*
X734871Y757753D01*
X734350Y755807D01*
Y753793D01*
X734871Y751847D01*
X735879Y750103D01*
X737303Y748679D01*
X739047Y747671D01*
X740993Y747150D01*
X743007D01*
X744953Y747671D01*
X746697Y748679D01*
X748121Y750103D01*
X749129Y751847D01*
X749650Y753793D01*
Y755807D01*
X749129Y757753D01*
X748121Y759497D01*
X746697Y760921D01*
X744953Y761929D01*
X743007Y762450D01*
D02*
G37*
G36*
X663607D02*
X661593D01*
X659647Y761929D01*
X657903Y760921D01*
X656479Y759497D01*
X655471Y757753D01*
X654950Y755807D01*
Y753793D01*
X655471Y751847D01*
X656479Y750103D01*
X657903Y748679D01*
X659647Y747671D01*
X661593Y747150D01*
X663607D01*
X665553Y747671D01*
X667297Y748679D01*
X668721Y750103D01*
X669729Y751847D01*
X670250Y753793D01*
Y755807D01*
X669729Y757753D01*
X668721Y759497D01*
X667297Y760921D01*
X665553Y761929D01*
X663607Y762450D01*
D02*
G37*
G36*
X743007Y737050D02*
X740993D01*
X739047Y736529D01*
X737303Y735521D01*
X735879Y734097D01*
X734871Y732353D01*
X734350Y730407D01*
Y728393D01*
X734871Y726447D01*
X735879Y724703D01*
X737303Y723279D01*
X739047Y722271D01*
X740993Y721750D01*
X743007D01*
X744953Y722271D01*
X746697Y723279D01*
X748121Y724703D01*
X749129Y726447D01*
X749650Y728393D01*
Y730407D01*
X749129Y732353D01*
X748121Y734097D01*
X746697Y735521D01*
X744953Y736529D01*
X743007Y737050D01*
D02*
G37*
G36*
X663607D02*
X661593D01*
X659647Y736529D01*
X657903Y735521D01*
X656479Y734097D01*
X655471Y732353D01*
X654950Y730407D01*
Y728393D01*
X655471Y726447D01*
X656479Y724703D01*
X657903Y723279D01*
X659647Y722271D01*
X661593Y721750D01*
X663607D01*
X665553Y722271D01*
X667297Y723279D01*
X668721Y724703D01*
X669729Y726447D01*
X670250Y728393D01*
Y730407D01*
X669729Y732353D01*
X668721Y734097D01*
X667297Y735521D01*
X665553Y736529D01*
X663607Y737050D01*
D02*
G37*
G36*
X743007Y711650D02*
X740993D01*
X739047Y711129D01*
X737303Y710122D01*
X735879Y708697D01*
X734871Y706953D01*
X734350Y705007D01*
Y702993D01*
X734871Y701047D01*
X735879Y699303D01*
X737303Y697878D01*
X739047Y696871D01*
X740993Y696350D01*
X743007D01*
X744953Y696871D01*
X746697Y697878D01*
X748121Y699303D01*
X749129Y701047D01*
X749650Y702993D01*
Y705007D01*
X749129Y706953D01*
X748121Y708697D01*
X746697Y710122D01*
X744953Y711129D01*
X743007Y711650D01*
D02*
G37*
G36*
X663607D02*
X661593D01*
X659647Y711129D01*
X657903Y710122D01*
X656479Y708697D01*
X655471Y706953D01*
X654950Y705007D01*
Y702993D01*
X655471Y701047D01*
X656479Y699303D01*
X657903Y697878D01*
X659647Y696871D01*
X661593Y696350D01*
X663607D01*
X665553Y696871D01*
X667297Y697878D01*
X668721Y699303D01*
X669729Y701047D01*
X670250Y702993D01*
Y705007D01*
X669729Y706953D01*
X668721Y708697D01*
X667297Y710122D01*
X665553Y711129D01*
X663607Y711650D01*
D02*
G37*
G36*
X1428205Y1060150D02*
X1425795D01*
X1423468Y1059526D01*
X1421382Y1058322D01*
X1419678Y1056618D01*
X1418474Y1054532D01*
X1417850Y1052205D01*
Y1049795D01*
X1418474Y1047468D01*
X1419678Y1045382D01*
X1421382Y1043678D01*
X1423431Y1042495D01*
Y985478D01*
X1350477Y912523D01*
X1349703Y911366D01*
X1349431Y910000D01*
Y699502D01*
X1348761Y698832D01*
X1348000Y696995D01*
Y695005D01*
X1348761Y693168D01*
X1350168Y691761D01*
X1352005Y691000D01*
X1353995D01*
X1355832Y691761D01*
X1357239Y693168D01*
X1358000Y695005D01*
Y696995D01*
X1357239Y698832D01*
X1356569Y699502D01*
Y908522D01*
X1429523Y981477D01*
X1430297Y982634D01*
X1430569Y984000D01*
Y1042495D01*
X1432618Y1043678D01*
X1434322Y1045382D01*
X1435526Y1047468D01*
X1436150Y1049795D01*
Y1052205D01*
X1435526Y1054532D01*
X1434322Y1056618D01*
X1432618Y1058322D01*
X1430532Y1059526D01*
X1428205Y1060150D01*
D02*
G37*
G36*
X743007Y686250D02*
X740993D01*
X739047Y685729D01*
X737303Y684722D01*
X735879Y683297D01*
X734871Y681553D01*
X734350Y679607D01*
Y677593D01*
X734871Y675647D01*
X735879Y673903D01*
X737303Y672478D01*
X739047Y671471D01*
X740993Y670950D01*
X743007D01*
X744953Y671471D01*
X746697Y672478D01*
X748121Y673903D01*
X749129Y675647D01*
X749650Y677593D01*
Y679607D01*
X749129Y681553D01*
X748121Y683297D01*
X746697Y684722D01*
X744953Y685729D01*
X743007Y686250D01*
D02*
G37*
G36*
X663607D02*
X661593D01*
X659647Y685729D01*
X657903Y684722D01*
X656479Y683297D01*
X655471Y681553D01*
X654950Y679607D01*
Y677593D01*
X655471Y675647D01*
X656479Y673903D01*
X657903Y672478D01*
X659647Y671471D01*
X661593Y670950D01*
X663607D01*
X665553Y671471D01*
X667297Y672478D01*
X668721Y673903D01*
X669729Y675647D01*
X670250Y677593D01*
Y679607D01*
X669729Y681553D01*
X668721Y683297D01*
X667297Y684722D01*
X665553Y685729D01*
X663607Y686250D01*
D02*
G37*
G36*
X1481374Y668200D02*
X1478026D01*
X1474741Y667547D01*
X1471647Y666265D01*
X1468863Y664405D01*
X1466495Y662037D01*
X1464635Y659252D01*
X1463353Y656159D01*
X1462700Y652874D01*
Y649526D01*
X1463353Y646241D01*
X1464635Y643148D01*
X1466495Y640363D01*
X1468863Y637995D01*
X1471647Y636135D01*
X1474741Y634853D01*
X1478026Y634200D01*
X1481374D01*
X1484659Y634853D01*
X1487753Y636135D01*
X1490537Y637995D01*
X1492905Y640363D01*
X1494765Y643148D01*
X1496047Y646241D01*
X1496700Y649526D01*
Y652874D01*
X1496047Y656159D01*
X1494765Y659252D01*
X1492905Y662037D01*
X1490537Y664405D01*
X1487753Y666265D01*
X1484659Y667547D01*
X1481374Y668200D01*
D02*
G37*
G36*
X748074Y667700D02*
X744726D01*
X741441Y667047D01*
X738347Y665765D01*
X735563Y663905D01*
X733195Y661537D01*
X731335Y658753D01*
X730053Y655659D01*
X729400Y652374D01*
Y649026D01*
X730053Y645741D01*
X731335Y642647D01*
X733195Y639863D01*
X735563Y637495D01*
X738347Y635635D01*
X741441Y634353D01*
X744726Y633700D01*
X748074D01*
X751359Y634353D01*
X754453Y635635D01*
X757237Y637495D01*
X759605Y639863D01*
X761465Y642647D01*
X762747Y645741D01*
X763400Y649026D01*
Y652374D01*
X762747Y655659D01*
X761465Y658753D01*
X759605Y661537D01*
X757237Y663905D01*
X754453Y665765D01*
X751359Y667047D01*
X748074Y667700D01*
D02*
G37*
G36*
X1963974Y655500D02*
X1960626D01*
X1957341Y654847D01*
X1954247Y653565D01*
X1951463Y651705D01*
X1949095Y649337D01*
X1947235Y646553D01*
X1945953Y643459D01*
X1945300Y640174D01*
Y636826D01*
X1945953Y633541D01*
X1947235Y630448D01*
X1949095Y627663D01*
X1951463Y625295D01*
X1954247Y623435D01*
X1957341Y622153D01*
X1960626Y621500D01*
X1963974D01*
X1967259Y622153D01*
X1970352Y623435D01*
X1973137Y625295D01*
X1975505Y627663D01*
X1977365Y630448D01*
X1978647Y633541D01*
X1979300Y636826D01*
Y640174D01*
X1978647Y643459D01*
X1977365Y646553D01*
X1975505Y649337D01*
X1973137Y651705D01*
X1970352Y653565D01*
X1967259Y654847D01*
X1963974Y655500D01*
D02*
G37*
G36*
X1230674Y655000D02*
X1227326D01*
X1224041Y654347D01*
X1220947Y653065D01*
X1218163Y651205D01*
X1215795Y648837D01*
X1213935Y646052D01*
X1212653Y642959D01*
X1212000Y639674D01*
Y636326D01*
X1212653Y633041D01*
X1213935Y629948D01*
X1215795Y627163D01*
X1218163Y624795D01*
X1220947Y622935D01*
X1224041Y621653D01*
X1227326Y621000D01*
X1230674D01*
X1233959Y621653D01*
X1237053Y622935D01*
X1239837Y624795D01*
X1242205Y627163D01*
X1244065Y629948D01*
X1245347Y633041D01*
X1246000Y636326D01*
Y639674D01*
X1245347Y642959D01*
X1244065Y646052D01*
X1242205Y648837D01*
X1239837Y651205D01*
X1237053Y653065D01*
X1233959Y654347D01*
X1230674Y655000D01*
D02*
G37*
G36*
X2039771Y622750D02*
X2037230D01*
X2034775Y622092D01*
X2032575Y620822D01*
X2030778Y619025D01*
X2029508Y616825D01*
X2028850Y614370D01*
Y611829D01*
X2029508Y609375D01*
X2030778Y607175D01*
X2032575Y605378D01*
X2034775Y604108D01*
X2037230Y603450D01*
X2039771D01*
X2042225Y604108D01*
X2044425Y605378D01*
X2046222Y607175D01*
X2047492Y609375D01*
X2048150Y611829D01*
Y614370D01*
X2047492Y616825D01*
X2046222Y619025D01*
X2044425Y620822D01*
X2042225Y622092D01*
X2039771Y622750D01*
D02*
G37*
G36*
X2022750D02*
X2003450D01*
Y603450D01*
X2022750D01*
Y622750D01*
D02*
G37*
G36*
X1306470Y622250D02*
X1303929D01*
X1301475Y621592D01*
X1299275Y620322D01*
X1297478Y618525D01*
X1296208Y616325D01*
X1295550Y613871D01*
Y611329D01*
X1296208Y608875D01*
X1297478Y606675D01*
X1299275Y604878D01*
X1301475Y603608D01*
X1303929Y602950D01*
X1306470D01*
X1308925Y603608D01*
X1311125Y604878D01*
X1312922Y606675D01*
X1314192Y608875D01*
X1314850Y611329D01*
Y613871D01*
X1314192Y616325D01*
X1312922Y618525D01*
X1311125Y620322D01*
X1308925Y621592D01*
X1306470Y622250D01*
D02*
G37*
G36*
X1289450D02*
X1270150D01*
Y602950D01*
X1289450D01*
Y622250D01*
D02*
G37*
G36*
X696870D02*
X694330D01*
X691875Y621592D01*
X689675Y620322D01*
X687878Y618525D01*
X686608Y616325D01*
X685950Y613871D01*
Y611329D01*
X686608Y608875D01*
X687878Y606675D01*
X689675Y604878D01*
X691875Y603608D01*
X694330Y602950D01*
X696870D01*
X699325Y603608D01*
X701525Y604878D01*
X703322Y606675D01*
X704592Y608875D01*
X705250Y611329D01*
Y613871D01*
X704592Y616325D01*
X703322Y618525D01*
X701525Y620322D01*
X699325Y621592D01*
X696870Y622250D01*
D02*
G37*
G36*
X679850D02*
X660550D01*
Y602950D01*
X679850D01*
Y622250D01*
D02*
G37*
G36*
X2039771Y597350D02*
X2037230D01*
X2034775Y596692D01*
X2032575Y595422D01*
X2030778Y593625D01*
X2029508Y591425D01*
X2028850Y588970D01*
Y586429D01*
X2029508Y583975D01*
X2030778Y581775D01*
X2032575Y579978D01*
X2034775Y578708D01*
X2037230Y578050D01*
X2039771D01*
X2042225Y578708D01*
X2044425Y579978D01*
X2046222Y581775D01*
X2047492Y583975D01*
X2048150Y586429D01*
Y588970D01*
X2047492Y591425D01*
X2046222Y593625D01*
X2044425Y595422D01*
X2042225Y596692D01*
X2039771Y597350D01*
D02*
G37*
G36*
X2014371D02*
X2011830D01*
X2009375Y596692D01*
X2007175Y595422D01*
X2005378Y593625D01*
X2004108Y591425D01*
X2003450Y588970D01*
Y586429D01*
X2004108Y583975D01*
X2005378Y581775D01*
X2007175Y579978D01*
X2009375Y578708D01*
X2011830Y578050D01*
X2014371D01*
X2016825Y578708D01*
X2019025Y579978D01*
X2020822Y581775D01*
X2022092Y583975D01*
X2022750Y586429D01*
Y588970D01*
X2022092Y591425D01*
X2020822Y593625D01*
X2019025Y595422D01*
X2016825Y596692D01*
X2014371Y597350D01*
D02*
G37*
G36*
X671470Y596850D02*
X668930D01*
X666475Y596192D01*
X664275Y594922D01*
X662478Y593125D01*
X661208Y590925D01*
X660550Y588470D01*
Y585929D01*
X661208Y583475D01*
X662478Y581275D01*
X664275Y579478D01*
X666475Y578208D01*
X668930Y577550D01*
X671470D01*
X673925Y578208D01*
X676125Y579478D01*
X677922Y581275D01*
X679192Y583475D01*
X679850Y585929D01*
Y588470D01*
X679192Y590925D01*
X677922Y593125D01*
X676125Y594922D01*
X673925Y596192D01*
X671470Y596850D01*
D02*
G37*
G36*
X2039771Y571950D02*
X2037230D01*
X2034775Y571292D01*
X2032575Y570022D01*
X2030778Y568225D01*
X2029508Y566025D01*
X2028850Y563571D01*
Y561030D01*
X2029508Y558575D01*
X2030778Y556375D01*
X2032575Y554578D01*
X2034775Y553308D01*
X2037230Y552650D01*
X2039771D01*
X2042225Y553308D01*
X2044425Y554578D01*
X2046222Y556375D01*
X2047492Y558575D01*
X2048150Y561030D01*
Y563571D01*
X2047492Y566025D01*
X2046222Y568225D01*
X2044425Y570022D01*
X2042225Y571292D01*
X2039771Y571950D01*
D02*
G37*
G36*
X2014371D02*
X2011830D01*
X2009375Y571292D01*
X2007175Y570022D01*
X2005378Y568225D01*
X2004108Y566025D01*
X2003450Y563571D01*
Y561030D01*
X2004108Y558575D01*
X2005378Y556375D01*
X2007175Y554578D01*
X2009375Y553308D01*
X2011830Y552650D01*
X2014371D01*
X2016825Y553308D01*
X2019025Y554578D01*
X2020822Y556375D01*
X2022092Y558575D01*
X2022750Y561030D01*
Y563571D01*
X2022092Y566025D01*
X2020822Y568225D01*
X2019025Y570022D01*
X2016825Y571292D01*
X2014371Y571950D01*
D02*
G37*
G36*
X2039771Y546550D02*
X2037230D01*
X2034775Y545892D01*
X2032575Y544622D01*
X2030778Y542825D01*
X2029508Y540625D01*
X2028850Y538171D01*
Y535630D01*
X2029508Y533175D01*
X2030778Y530975D01*
X2032575Y529178D01*
X2034775Y527908D01*
X2037230Y527250D01*
X2039771D01*
X2042225Y527908D01*
X2044425Y529178D01*
X2046222Y530975D01*
X2047492Y533175D01*
X2048150Y535630D01*
Y538171D01*
X2047492Y540625D01*
X2046222Y542825D01*
X2044425Y544622D01*
X2042225Y545892D01*
X2039771Y546550D01*
D02*
G37*
G36*
X2014371D02*
X2011830D01*
X2009375Y545892D01*
X2007175Y544622D01*
X2005378Y542825D01*
X2004108Y540625D01*
X2003450Y538171D01*
Y535630D01*
X2004108Y533175D01*
X2005378Y530975D01*
X2007175Y529178D01*
X2009375Y527908D01*
X2011830Y527250D01*
X2014371D01*
X2016825Y527908D01*
X2019025Y529178D01*
X2020822Y530975D01*
X2022092Y533175D01*
X2022750Y535630D01*
Y538171D01*
X2022092Y540625D01*
X2020822Y542825D01*
X2019025Y544622D01*
X2016825Y545892D01*
X2014371Y546550D01*
D02*
G37*
G36*
X671470Y546050D02*
X668930D01*
X666475Y545392D01*
X664275Y544122D01*
X662478Y542325D01*
X661208Y540125D01*
X660550Y537671D01*
Y535130D01*
X661208Y532675D01*
X662478Y530475D01*
X664275Y528678D01*
X666475Y527408D01*
X668930Y526750D01*
X671470D01*
X673925Y527408D01*
X676125Y528678D01*
X677922Y530475D01*
X679192Y532675D01*
X679850Y535130D01*
Y537671D01*
X679192Y540125D01*
X677922Y542325D01*
X676125Y544122D01*
X673925Y545392D01*
X671470Y546050D01*
D02*
G37*
G36*
X2039771Y521150D02*
X2037230D01*
X2034775Y520492D01*
X2032575Y519222D01*
X2030778Y517425D01*
X2029508Y515225D01*
X2028850Y512771D01*
Y510229D01*
X2029508Y507775D01*
X2030778Y505575D01*
X2032575Y503778D01*
X2034775Y502508D01*
X2037230Y501850D01*
X2039771D01*
X2042225Y502508D01*
X2044425Y503778D01*
X2046222Y505575D01*
X2047492Y507775D01*
X2048150Y510229D01*
Y512771D01*
X2047492Y515225D01*
X2046222Y517425D01*
X2044425Y519222D01*
X2042225Y520492D01*
X2039771Y521150D01*
D02*
G37*
G36*
X2014371D02*
X2011830D01*
X2009375Y520492D01*
X2007175Y519222D01*
X2005378Y517425D01*
X2004108Y515225D01*
X2003450Y512771D01*
Y510229D01*
X2004108Y507775D01*
X2005378Y505575D01*
X2007175Y503778D01*
X2009375Y502508D01*
X2011830Y501850D01*
X2014371D01*
X2016825Y502508D01*
X2019025Y503778D01*
X2020822Y505575D01*
X2022092Y507775D01*
X2022750Y510229D01*
Y512771D01*
X2022092Y515225D01*
X2020822Y517425D01*
X2019025Y519222D01*
X2016825Y520492D01*
X2014371Y521150D01*
D02*
G37*
G36*
X1430170D02*
X1427630D01*
X1425175Y520492D01*
X1422975Y519222D01*
X1421178Y517425D01*
X1419908Y515225D01*
X1419250Y512771D01*
Y510229D01*
X1419908Y507775D01*
X1421178Y505575D01*
X1422975Y503778D01*
X1425175Y502508D01*
X1427630Y501850D01*
X1430170D01*
X1432625Y502508D01*
X1434825Y503778D01*
X1436622Y505575D01*
X1437892Y507775D01*
X1438550Y510229D01*
Y512771D01*
X1437892Y515225D01*
X1436622Y517425D01*
X1434825Y519222D01*
X1432625Y520492D01*
X1430170Y521150D01*
D02*
G37*
G36*
X1281071Y520650D02*
X1278530D01*
X1276075Y519992D01*
X1273875Y518722D01*
X1272078Y516925D01*
X1270808Y514725D01*
X1270150Y512271D01*
Y509729D01*
X1270808Y507275D01*
X1272078Y505075D01*
X1273875Y503278D01*
X1276075Y502008D01*
X1278530Y501350D01*
X1281071D01*
X1283525Y502008D01*
X1285725Y503278D01*
X1287522Y505075D01*
X1288792Y507275D01*
X1289450Y509729D01*
Y512271D01*
X1288792Y514725D01*
X1287522Y516925D01*
X1285725Y518722D01*
X1283525Y519992D01*
X1281071Y520650D01*
D02*
G37*
G36*
X696870D02*
X694330D01*
X691875Y519992D01*
X689675Y518722D01*
X687878Y516925D01*
X686608Y514725D01*
X685950Y512271D01*
Y509729D01*
X686608Y507275D01*
X687878Y505075D01*
X689675Y503278D01*
X691875Y502008D01*
X694330Y501350D01*
X696870D01*
X699325Y502008D01*
X701525Y503278D01*
X703322Y505075D01*
X704592Y507275D01*
X705250Y509729D01*
Y512271D01*
X704592Y514725D01*
X703322Y516925D01*
X701525Y518722D01*
X699325Y519992D01*
X696870Y520650D01*
D02*
G37*
G36*
X671470D02*
X668930D01*
X666475Y519992D01*
X664275Y518722D01*
X662478Y516925D01*
X661208Y514725D01*
X660550Y512271D01*
Y509729D01*
X661208Y507275D01*
X662478Y505075D01*
X664275Y503278D01*
X666475Y502008D01*
X668930Y501350D01*
X671470D01*
X673925Y502008D01*
X676125Y503278D01*
X677922Y505075D01*
X679192Y507275D01*
X679850Y509729D01*
Y512271D01*
X679192Y514725D01*
X677922Y516925D01*
X676125Y518722D01*
X673925Y519992D01*
X671470Y520650D01*
D02*
G37*
G36*
X2039771Y495750D02*
X2037230D01*
X2034775Y495092D01*
X2032575Y493822D01*
X2030778Y492025D01*
X2029508Y489825D01*
X2028850Y487370D01*
Y484829D01*
X2029508Y482375D01*
X2030778Y480175D01*
X2032575Y478378D01*
X2034775Y477108D01*
X2037230Y476450D01*
X2039771D01*
X2042225Y477108D01*
X2044425Y478378D01*
X2046222Y480175D01*
X2047492Y482375D01*
X2048150Y484829D01*
Y487370D01*
X2047492Y489825D01*
X2046222Y492025D01*
X2044425Y493822D01*
X2042225Y495092D01*
X2039771Y495750D01*
D02*
G37*
G36*
X2014371D02*
X2011830D01*
X2009375Y495092D01*
X2007175Y493822D01*
X2005378Y492025D01*
X2004108Y489825D01*
X2003450Y487370D01*
Y484829D01*
X2004108Y482375D01*
X2005378Y480175D01*
X2007175Y478378D01*
X2009375Y477108D01*
X2011830Y476450D01*
X2014371D01*
X2016825Y477108D01*
X2019025Y478378D01*
X2020822Y480175D01*
X2022092Y482375D01*
X2022750Y484829D01*
Y487370D01*
X2022092Y489825D01*
X2020822Y492025D01*
X2019025Y493822D01*
X2016825Y495092D01*
X2014371Y495750D01*
D02*
G37*
G36*
X1430170D02*
X1427630D01*
X1425175Y495092D01*
X1422975Y493822D01*
X1421178Y492025D01*
X1419908Y489825D01*
X1419250Y487370D01*
Y484829D01*
X1419908Y482375D01*
X1421178Y480175D01*
X1422975Y478378D01*
X1425175Y477108D01*
X1427630Y476450D01*
X1430170D01*
X1432625Y477108D01*
X1434825Y478378D01*
X1436622Y480175D01*
X1437892Y482375D01*
X1438550Y484829D01*
Y487370D01*
X1437892Y489825D01*
X1436622Y492025D01*
X1434825Y493822D01*
X1432625Y495092D01*
X1430170Y495750D01*
D02*
G37*
G36*
X696870Y495250D02*
X694330D01*
X691875Y494592D01*
X689675Y493322D01*
X687878Y491525D01*
X686608Y489325D01*
X685950Y486870D01*
Y484329D01*
X686608Y481875D01*
X687878Y479675D01*
X689675Y477878D01*
X691875Y476608D01*
X694330Y475950D01*
X696870D01*
X699325Y476608D01*
X701525Y477878D01*
X703322Y479675D01*
X704592Y481875D01*
X705250Y484329D01*
Y486870D01*
X704592Y489325D01*
X703322Y491525D01*
X701525Y493322D01*
X699325Y494592D01*
X696870Y495250D01*
D02*
G37*
G36*
X671470D02*
X668930D01*
X666475Y494592D01*
X664275Y493322D01*
X662478Y491525D01*
X661208Y489325D01*
X660550Y486870D01*
Y484329D01*
X661208Y481875D01*
X662478Y479675D01*
X664275Y477878D01*
X666475Y476608D01*
X668930Y475950D01*
X671470D01*
X673925Y476608D01*
X676125Y477878D01*
X677922Y479675D01*
X679192Y481875D01*
X679850Y484329D01*
Y486870D01*
X679192Y489325D01*
X677922Y491525D01*
X676125Y493322D01*
X673925Y494592D01*
X671470Y495250D01*
D02*
G37*
G36*
X2039771Y470350D02*
X2037230D01*
X2034775Y469692D01*
X2032575Y468422D01*
X2030778Y466625D01*
X2029508Y464425D01*
X2028850Y461970D01*
Y459430D01*
X2029508Y456975D01*
X2030778Y454775D01*
X2032575Y452978D01*
X2034775Y451708D01*
X2037230Y451050D01*
X2039771D01*
X2042225Y451708D01*
X2044425Y452978D01*
X2046222Y454775D01*
X2047492Y456975D01*
X2048150Y459430D01*
Y461970D01*
X2047492Y464425D01*
X2046222Y466625D01*
X2044425Y468422D01*
X2042225Y469692D01*
X2039771Y470350D01*
D02*
G37*
G36*
X2014371D02*
X2011830D01*
X2009375Y469692D01*
X2007175Y468422D01*
X2005378Y466625D01*
X2004108Y464425D01*
X2003450Y461970D01*
Y459430D01*
X2004108Y456975D01*
X2005378Y454775D01*
X2007175Y452978D01*
X2009375Y451708D01*
X2011830Y451050D01*
X2014371D01*
X2016825Y451708D01*
X2019025Y452978D01*
X2020822Y454775D01*
X2022092Y456975D01*
X2022750Y459430D01*
Y461970D01*
X2022092Y464425D01*
X2020822Y466625D01*
X2019025Y468422D01*
X2016825Y469692D01*
X2014371Y470350D01*
D02*
G37*
G36*
X1430170D02*
X1427630D01*
X1425175Y469692D01*
X1422975Y468422D01*
X1421178Y466625D01*
X1419908Y464425D01*
X1419250Y461970D01*
Y459430D01*
X1419908Y456975D01*
X1421178Y454775D01*
X1422975Y452978D01*
X1425175Y451708D01*
X1427630Y451050D01*
X1430170D01*
X1432625Y451708D01*
X1434825Y452978D01*
X1436622Y454775D01*
X1437892Y456975D01*
X1438550Y459430D01*
Y461970D01*
X1437892Y464425D01*
X1436622Y466625D01*
X1434825Y468422D01*
X1432625Y469692D01*
X1430170Y470350D01*
D02*
G37*
G36*
X1306470Y469850D02*
X1303929D01*
X1301475Y469192D01*
X1299275Y467922D01*
X1297478Y466125D01*
X1296208Y463925D01*
X1295550Y461470D01*
Y458929D01*
X1296208Y456475D01*
X1297478Y454275D01*
X1299275Y452478D01*
X1301475Y451208D01*
X1303929Y450550D01*
X1306470D01*
X1308925Y451208D01*
X1311125Y452478D01*
X1312922Y454275D01*
X1314192Y456475D01*
X1314850Y458929D01*
Y461470D01*
X1314192Y463925D01*
X1312922Y466125D01*
X1311125Y467922D01*
X1308925Y469192D01*
X1306470Y469850D01*
D02*
G37*
G36*
X1281071D02*
X1278530D01*
X1276075Y469192D01*
X1273875Y467922D01*
X1272078Y466125D01*
X1270808Y463925D01*
X1270150Y461470D01*
Y458929D01*
X1270808Y456475D01*
X1272078Y454275D01*
X1273875Y452478D01*
X1276075Y451208D01*
X1278530Y450550D01*
X1281071D01*
X1283525Y451208D01*
X1285725Y452478D01*
X1287522Y454275D01*
X1288792Y456475D01*
X1289450Y458929D01*
Y461470D01*
X1288792Y463925D01*
X1287522Y466125D01*
X1285725Y467922D01*
X1283525Y469192D01*
X1281071Y469850D01*
D02*
G37*
G36*
X696870D02*
X694330D01*
X691875Y469192D01*
X689675Y467922D01*
X687878Y466125D01*
X686608Y463925D01*
X685950Y461470D01*
Y458929D01*
X686608Y456475D01*
X687878Y454275D01*
X689675Y452478D01*
X691875Y451208D01*
X694330Y450550D01*
X696870D01*
X699325Y451208D01*
X701525Y452478D01*
X703322Y454275D01*
X704592Y456475D01*
X705250Y458929D01*
Y461470D01*
X704592Y463925D01*
X703322Y466125D01*
X701525Y467922D01*
X699325Y469192D01*
X696870Y469850D01*
D02*
G37*
G36*
X671470D02*
X668930D01*
X666475Y469192D01*
X664275Y467922D01*
X662478Y466125D01*
X661208Y463925D01*
X660550Y461470D01*
Y458929D01*
X661208Y456475D01*
X662478Y454275D01*
X664275Y452478D01*
X666475Y451208D01*
X668930Y450550D01*
X671470D01*
X673925Y451208D01*
X676125Y452478D01*
X677922Y454275D01*
X679192Y456475D01*
X679850Y458929D01*
Y461470D01*
X679192Y463925D01*
X677922Y466125D01*
X676125Y467922D01*
X673925Y469192D01*
X671470Y469850D01*
D02*
G37*
G36*
X2039771Y444950D02*
X2037230D01*
X2034775Y444292D01*
X2032575Y443022D01*
X2030778Y441225D01*
X2029508Y439025D01*
X2028850Y436571D01*
Y434030D01*
X2029508Y431575D01*
X2030778Y429375D01*
X2032575Y427578D01*
X2034775Y426308D01*
X2037230Y425650D01*
X2039771D01*
X2042225Y426308D01*
X2044425Y427578D01*
X2046222Y429375D01*
X2047492Y431575D01*
X2048150Y434030D01*
Y436571D01*
X2047492Y439025D01*
X2046222Y441225D01*
X2044425Y443022D01*
X2042225Y444292D01*
X2039771Y444950D01*
D02*
G37*
G36*
X2014371D02*
X2011830D01*
X2009375Y444292D01*
X2007175Y443022D01*
X2005378Y441225D01*
X2004108Y439025D01*
X2003450Y436571D01*
Y434030D01*
X2004108Y431575D01*
X2005378Y429375D01*
X2007175Y427578D01*
X2009375Y426308D01*
X2011830Y425650D01*
X2014371D01*
X2016825Y426308D01*
X2019025Y427578D01*
X2020822Y429375D01*
X2022092Y431575D01*
X2022750Y434030D01*
Y436571D01*
X2022092Y439025D01*
X2020822Y441225D01*
X2019025Y443022D01*
X2016825Y444292D01*
X2014371Y444950D01*
D02*
G37*
G36*
X1430170D02*
X1427630D01*
X1425175Y444292D01*
X1422975Y443022D01*
X1421178Y441225D01*
X1419908Y439025D01*
X1419250Y436571D01*
Y434030D01*
X1419908Y431575D01*
X1421178Y429375D01*
X1422975Y427578D01*
X1425175Y426308D01*
X1427630Y425650D01*
X1430170D01*
X1432625Y426308D01*
X1434825Y427578D01*
X1436622Y429375D01*
X1437892Y431575D01*
X1438550Y434030D01*
Y436571D01*
X1437892Y439025D01*
X1436622Y441225D01*
X1434825Y443022D01*
X1432625Y444292D01*
X1430170Y444950D01*
D02*
G37*
G36*
X1306470Y444450D02*
X1303929D01*
X1301475Y443792D01*
X1299275Y442522D01*
X1297478Y440725D01*
X1296208Y438525D01*
X1295550Y436071D01*
Y433530D01*
X1296208Y431075D01*
X1297478Y428875D01*
X1299275Y427078D01*
X1301475Y425808D01*
X1303929Y425150D01*
X1306470D01*
X1308925Y425808D01*
X1311125Y427078D01*
X1312922Y428875D01*
X1314192Y431075D01*
X1314850Y433530D01*
Y436071D01*
X1314192Y438525D01*
X1312922Y440725D01*
X1311125Y442522D01*
X1308925Y443792D01*
X1306470Y444450D01*
D02*
G37*
G36*
X1281071D02*
X1278530D01*
X1276075Y443792D01*
X1273875Y442522D01*
X1272078Y440725D01*
X1270808Y438525D01*
X1270150Y436071D01*
Y433530D01*
X1270808Y431075D01*
X1272078Y428875D01*
X1273875Y427078D01*
X1276075Y425808D01*
X1278530Y425150D01*
X1281071D01*
X1283525Y425808D01*
X1285725Y427078D01*
X1287522Y428875D01*
X1288792Y431075D01*
X1289450Y433530D01*
Y436071D01*
X1288792Y438525D01*
X1287522Y440725D01*
X1285725Y442522D01*
X1283525Y443792D01*
X1281071Y444450D01*
D02*
G37*
G36*
X696870D02*
X694330D01*
X691875Y443792D01*
X689675Y442522D01*
X687878Y440725D01*
X686608Y438525D01*
X685950Y436071D01*
Y433530D01*
X686608Y431075D01*
X687878Y428875D01*
X689675Y427078D01*
X691875Y425808D01*
X694330Y425150D01*
X696870D01*
X699325Y425808D01*
X701525Y427078D01*
X703322Y428875D01*
X704592Y431075D01*
X705250Y433530D01*
Y436071D01*
X704592Y438525D01*
X703322Y440725D01*
X701525Y442522D01*
X699325Y443792D01*
X696870Y444450D01*
D02*
G37*
G36*
X671470D02*
X668930D01*
X666475Y443792D01*
X664275Y442522D01*
X662478Y440725D01*
X661208Y438525D01*
X660550Y436071D01*
Y433530D01*
X661208Y431075D01*
X662478Y428875D01*
X664275Y427078D01*
X666475Y425808D01*
X668930Y425150D01*
X671470D01*
X673925Y425808D01*
X676125Y427078D01*
X677922Y428875D01*
X679192Y431075D01*
X679850Y433530D01*
Y436071D01*
X679192Y438525D01*
X677922Y440725D01*
X676125Y442522D01*
X673925Y443792D01*
X671470Y444450D01*
D02*
G37*
G36*
X2039771Y419550D02*
X2037230D01*
X2034775Y418892D01*
X2032575Y417622D01*
X2030778Y415825D01*
X2029508Y413625D01*
X2028850Y411171D01*
Y408629D01*
X2029508Y406175D01*
X2030778Y403975D01*
X2032575Y402178D01*
X2034775Y400908D01*
X2037230Y400250D01*
X2039771D01*
X2042225Y400908D01*
X2044425Y402178D01*
X2046222Y403975D01*
X2047492Y406175D01*
X2048150Y408629D01*
Y411171D01*
X2047492Y413625D01*
X2046222Y415825D01*
X2044425Y417622D01*
X2042225Y418892D01*
X2039771Y419550D01*
D02*
G37*
G36*
X2014371D02*
X2011830D01*
X2009375Y418892D01*
X2007175Y417622D01*
X2005378Y415825D01*
X2004108Y413625D01*
X2003450Y411171D01*
Y408629D01*
X2004108Y406175D01*
X2005378Y403975D01*
X2007175Y402178D01*
X2009375Y400908D01*
X2011830Y400250D01*
X2014371D01*
X2016825Y400908D01*
X2019025Y402178D01*
X2020822Y403975D01*
X2022092Y406175D01*
X2022750Y408629D01*
Y411171D01*
X2022092Y413625D01*
X2020822Y415825D01*
X2019025Y417622D01*
X2016825Y418892D01*
X2014371Y419550D01*
D02*
G37*
G36*
X1430170D02*
X1427630D01*
X1425175Y418892D01*
X1422975Y417622D01*
X1421178Y415825D01*
X1419908Y413625D01*
X1419250Y411171D01*
Y408629D01*
X1419908Y406175D01*
X1421178Y403975D01*
X1422975Y402178D01*
X1425175Y400908D01*
X1427630Y400250D01*
X1430170D01*
X1432625Y400908D01*
X1434825Y402178D01*
X1436622Y403975D01*
X1437892Y406175D01*
X1438550Y408629D01*
Y411171D01*
X1437892Y413625D01*
X1436622Y415825D01*
X1434825Y417622D01*
X1432625Y418892D01*
X1430170Y419550D01*
D02*
G37*
G36*
X1306470Y419050D02*
X1303929D01*
X1301475Y418392D01*
X1299275Y417122D01*
X1297478Y415325D01*
X1296208Y413125D01*
X1295550Y410671D01*
Y408130D01*
X1296208Y405675D01*
X1297478Y403475D01*
X1299275Y401678D01*
X1301475Y400408D01*
X1303929Y399750D01*
X1306470D01*
X1308925Y400408D01*
X1311125Y401678D01*
X1312922Y403475D01*
X1314192Y405675D01*
X1314850Y408130D01*
Y410671D01*
X1314192Y413125D01*
X1312922Y415325D01*
X1311125Y417122D01*
X1308925Y418392D01*
X1306470Y419050D01*
D02*
G37*
G36*
X1281071D02*
X1278530D01*
X1276075Y418392D01*
X1273875Y417122D01*
X1272078Y415325D01*
X1270808Y413125D01*
X1270150Y410671D01*
Y408130D01*
X1270808Y405675D01*
X1272078Y403475D01*
X1273875Y401678D01*
X1276075Y400408D01*
X1278530Y399750D01*
X1281071D01*
X1283525Y400408D01*
X1285725Y401678D01*
X1287522Y403475D01*
X1288792Y405675D01*
X1289450Y408130D01*
Y410671D01*
X1288792Y413125D01*
X1287522Y415325D01*
X1285725Y417122D01*
X1283525Y418392D01*
X1281071Y419050D01*
D02*
G37*
G36*
X696870D02*
X694330D01*
X691875Y418392D01*
X689675Y417122D01*
X687878Y415325D01*
X686608Y413125D01*
X685950Y410671D01*
Y408130D01*
X686608Y405675D01*
X687878Y403475D01*
X689675Y401678D01*
X691875Y400408D01*
X694330Y399750D01*
X696870D01*
X699325Y400408D01*
X701525Y401678D01*
X703322Y403475D01*
X704592Y405675D01*
X705250Y408130D01*
Y410671D01*
X704592Y413125D01*
X703322Y415325D01*
X701525Y417122D01*
X699325Y418392D01*
X696870Y419050D01*
D02*
G37*
G36*
X671470D02*
X668930D01*
X666475Y418392D01*
X664275Y417122D01*
X662478Y415325D01*
X661208Y413125D01*
X660550Y410671D01*
Y408130D01*
X661208Y405675D01*
X662478Y403475D01*
X664275Y401678D01*
X666475Y400408D01*
X668930Y399750D01*
X671470D01*
X673925Y400408D01*
X676125Y401678D01*
X677922Y403475D01*
X679192Y405675D01*
X679850Y408130D01*
Y410671D01*
X679192Y413125D01*
X677922Y415325D01*
X676125Y417122D01*
X673925Y418392D01*
X671470Y419050D01*
D02*
G37*
G36*
X2039771Y394150D02*
X2037230D01*
X2034775Y393492D01*
X2032575Y392222D01*
X2030778Y390425D01*
X2029508Y388225D01*
X2028850Y385770D01*
Y383229D01*
X2029508Y380775D01*
X2030778Y378575D01*
X2032575Y376778D01*
X2034775Y375508D01*
X2037230Y374850D01*
X2039771D01*
X2042225Y375508D01*
X2044425Y376778D01*
X2046222Y378575D01*
X2047492Y380775D01*
X2048150Y383229D01*
Y385770D01*
X2047492Y388225D01*
X2046222Y390425D01*
X2044425Y392222D01*
X2042225Y393492D01*
X2039771Y394150D01*
D02*
G37*
G36*
X2014371D02*
X2011830D01*
X2009375Y393492D01*
X2007175Y392222D01*
X2005378Y390425D01*
X2004108Y388225D01*
X2003450Y385770D01*
Y383229D01*
X2004108Y380775D01*
X2005378Y378575D01*
X2007175Y376778D01*
X2009375Y375508D01*
X2011830Y374850D01*
X2014371D01*
X2016825Y375508D01*
X2019025Y376778D01*
X2020822Y378575D01*
X2022092Y380775D01*
X2022750Y383229D01*
Y385770D01*
X2022092Y388225D01*
X2020822Y390425D01*
X2019025Y392222D01*
X2016825Y393492D01*
X2014371Y394150D01*
D02*
G37*
G36*
X1430170D02*
X1427630D01*
X1425175Y393492D01*
X1422975Y392222D01*
X1421178Y390425D01*
X1419908Y388225D01*
X1419250Y385770D01*
Y383229D01*
X1419908Y380775D01*
X1421178Y378575D01*
X1422975Y376778D01*
X1425175Y375508D01*
X1427630Y374850D01*
X1430170D01*
X1432625Y375508D01*
X1434825Y376778D01*
X1436622Y378575D01*
X1437892Y380775D01*
X1438550Y383229D01*
Y385770D01*
X1437892Y388225D01*
X1436622Y390425D01*
X1434825Y392222D01*
X1432625Y393492D01*
X1430170Y394150D01*
D02*
G37*
G36*
X1281071Y393650D02*
X1278530D01*
X1276075Y392992D01*
X1273875Y391722D01*
X1272078Y389925D01*
X1270808Y387725D01*
X1270150Y385271D01*
Y382729D01*
X1270808Y380275D01*
X1272078Y378075D01*
X1273875Y376278D01*
X1276075Y375008D01*
X1278530Y374350D01*
X1281071D01*
X1283525Y375008D01*
X1285725Y376278D01*
X1287522Y378075D01*
X1288792Y380275D01*
X1289450Y382729D01*
Y385271D01*
X1288792Y387725D01*
X1287522Y389925D01*
X1285725Y391722D01*
X1283525Y392992D01*
X1281071Y393650D01*
D02*
G37*
G36*
X671470D02*
X668930D01*
X666475Y392992D01*
X664275Y391722D01*
X662478Y389925D01*
X661208Y387725D01*
X660550Y385271D01*
Y382729D01*
X661208Y380275D01*
X662478Y378075D01*
X664275Y376278D01*
X666475Y375008D01*
X668930Y374350D01*
X671470D01*
X673925Y375008D01*
X676125Y376278D01*
X677922Y378075D01*
X679192Y380275D01*
X679850Y382729D01*
Y385271D01*
X679192Y387725D01*
X677922Y389925D01*
X676125Y391722D01*
X673925Y392992D01*
X671470Y393650D01*
D02*
G37*
G36*
X2039771Y368750D02*
X2037230D01*
X2034775Y368092D01*
X2032575Y366822D01*
X2030778Y365025D01*
X2029508Y362825D01*
X2028850Y360370D01*
Y357830D01*
X2029508Y355375D01*
X2030778Y353175D01*
X2032575Y351378D01*
X2034775Y350108D01*
X2037230Y349450D01*
X2039771D01*
X2042225Y350108D01*
X2044425Y351378D01*
X2046222Y353175D01*
X2047492Y355375D01*
X2048150Y357830D01*
Y360370D01*
X2047492Y362825D01*
X2046222Y365025D01*
X2044425Y366822D01*
X2042225Y368092D01*
X2039771Y368750D01*
D02*
G37*
G36*
X2014371D02*
X2011830D01*
X2009375Y368092D01*
X2007175Y366822D01*
X2005378Y365025D01*
X2004108Y362825D01*
X2003450Y360370D01*
Y357830D01*
X2004108Y355375D01*
X2005378Y353175D01*
X2007175Y351378D01*
X2009375Y350108D01*
X2011830Y349450D01*
X2014371D01*
X2016825Y350108D01*
X2019025Y351378D01*
X2020822Y353175D01*
X2022092Y355375D01*
X2022750Y357830D01*
Y360370D01*
X2022092Y362825D01*
X2020822Y365025D01*
X2019025Y366822D01*
X2016825Y368092D01*
X2014371Y368750D01*
D02*
G37*
G36*
X696870Y368250D02*
X694330D01*
X691875Y367592D01*
X689675Y366322D01*
X687878Y364525D01*
X686608Y362325D01*
X685950Y359870D01*
Y357329D01*
X686608Y354875D01*
X687878Y352675D01*
X689675Y350878D01*
X691875Y349608D01*
X694330Y348950D01*
X696870D01*
X699325Y349608D01*
X701525Y350878D01*
X703322Y352675D01*
X704592Y354875D01*
X705250Y357329D01*
Y359870D01*
X704592Y362325D01*
X703322Y364525D01*
X701525Y366322D01*
X699325Y367592D01*
X696870Y368250D01*
D02*
G37*
G36*
X671470D02*
X668930D01*
X666475Y367592D01*
X664275Y366322D01*
X662478Y364525D01*
X661208Y362325D01*
X660550Y359870D01*
Y357329D01*
X661208Y354875D01*
X662478Y352675D01*
X664275Y350878D01*
X666475Y349608D01*
X668930Y348950D01*
X671470D01*
X673925Y349608D01*
X676125Y350878D01*
X677922Y352675D01*
X679192Y354875D01*
X679850Y357329D01*
Y359870D01*
X679192Y362325D01*
X677922Y364525D01*
X676125Y366322D01*
X673925Y367592D01*
X671470Y368250D01*
D02*
G37*
G36*
X2039771Y343350D02*
X2037230D01*
X2034775Y342692D01*
X2032575Y341422D01*
X2030778Y339625D01*
X2029508Y337425D01*
X2028850Y334971D01*
Y332430D01*
X2029508Y329975D01*
X2030778Y327775D01*
X2032575Y325978D01*
X2034775Y324708D01*
X2037230Y324050D01*
X2039771D01*
X2042225Y324708D01*
X2044425Y325978D01*
X2046222Y327775D01*
X2047492Y329975D01*
X2048150Y332430D01*
Y334971D01*
X2047492Y337425D01*
X2046222Y339625D01*
X2044425Y341422D01*
X2042225Y342692D01*
X2039771Y343350D01*
D02*
G37*
G36*
X2014371D02*
X2011830D01*
X2009375Y342692D01*
X2007175Y341422D01*
X2005378Y339625D01*
X2004108Y337425D01*
X2003450Y334971D01*
Y332430D01*
X2004108Y329975D01*
X2005378Y327775D01*
X2007175Y325978D01*
X2009375Y324708D01*
X2011830Y324050D01*
X2014371D01*
X2016825Y324708D01*
X2019025Y325978D01*
X2020822Y327775D01*
X2022092Y329975D01*
X2022750Y332430D01*
Y334971D01*
X2022092Y337425D01*
X2020822Y339625D01*
X2019025Y341422D01*
X2016825Y342692D01*
X2014371Y343350D01*
D02*
G37*
G36*
X1430170D02*
X1427630D01*
X1425175Y342692D01*
X1422975Y341422D01*
X1421178Y339625D01*
X1419908Y337425D01*
X1419250Y334971D01*
Y332430D01*
X1419908Y329975D01*
X1421178Y327775D01*
X1422975Y325978D01*
X1425175Y324708D01*
X1427630Y324050D01*
X1430170D01*
X1432625Y324708D01*
X1434825Y325978D01*
X1436622Y327775D01*
X1437892Y329975D01*
X1438550Y332430D01*
Y334971D01*
X1437892Y337425D01*
X1436622Y339625D01*
X1434825Y341422D01*
X1432625Y342692D01*
X1430170Y343350D01*
D02*
G37*
G36*
X1306470Y342850D02*
X1303929D01*
X1301475Y342192D01*
X1299275Y340922D01*
X1297478Y339125D01*
X1296208Y336925D01*
X1295550Y334470D01*
Y331930D01*
X1296208Y329475D01*
X1297478Y327275D01*
X1299275Y325478D01*
X1301475Y324208D01*
X1303929Y323550D01*
X1306470D01*
X1308925Y324208D01*
X1311125Y325478D01*
X1312922Y327275D01*
X1314192Y329475D01*
X1314850Y331930D01*
Y334470D01*
X1314192Y336925D01*
X1312922Y339125D01*
X1311125Y340922D01*
X1308925Y342192D01*
X1306470Y342850D01*
D02*
G37*
G36*
X1281071D02*
X1278530D01*
X1276075Y342192D01*
X1273875Y340922D01*
X1272078Y339125D01*
X1270808Y336925D01*
X1270150Y334470D01*
Y331930D01*
X1270808Y329475D01*
X1272078Y327275D01*
X1273875Y325478D01*
X1276075Y324208D01*
X1278530Y323550D01*
X1281071D01*
X1283525Y324208D01*
X1285725Y325478D01*
X1287522Y327275D01*
X1288792Y329475D01*
X1289450Y331930D01*
Y334470D01*
X1288792Y336925D01*
X1287522Y339125D01*
X1285725Y340922D01*
X1283525Y342192D01*
X1281071Y342850D01*
D02*
G37*
G36*
X696870D02*
X694330D01*
X691875Y342192D01*
X689675Y340922D01*
X687878Y339125D01*
X686608Y336925D01*
X685950Y334470D01*
Y331930D01*
X686608Y329475D01*
X687878Y327275D01*
X689675Y325478D01*
X691875Y324208D01*
X694330Y323550D01*
X696870D01*
X699325Y324208D01*
X701525Y325478D01*
X703322Y327275D01*
X704592Y329475D01*
X705250Y331930D01*
Y334470D01*
X704592Y336925D01*
X703322Y339125D01*
X701525Y340922D01*
X699325Y342192D01*
X696870Y342850D01*
D02*
G37*
G36*
X671470D02*
X668930D01*
X666475Y342192D01*
X664275Y340922D01*
X662478Y339125D01*
X661208Y336925D01*
X660550Y334470D01*
Y331930D01*
X661208Y329475D01*
X662478Y327275D01*
X664275Y325478D01*
X666475Y324208D01*
X668930Y323550D01*
X671470D01*
X673925Y324208D01*
X676125Y325478D01*
X677922Y327275D01*
X679192Y329475D01*
X679850Y331930D01*
Y334470D01*
X679192Y336925D01*
X677922Y339125D01*
X676125Y340922D01*
X673925Y342192D01*
X671470Y342850D01*
D02*
G37*
G36*
X2039771Y317950D02*
X2037230D01*
X2034775Y317292D01*
X2032575Y316022D01*
X2030778Y314225D01*
X2029508Y312025D01*
X2028850Y309571D01*
Y307029D01*
X2029508Y304575D01*
X2030778Y302375D01*
X2032575Y300578D01*
X2034775Y299308D01*
X2037230Y298650D01*
X2039771D01*
X2042225Y299308D01*
X2044425Y300578D01*
X2046222Y302375D01*
X2047492Y304575D01*
X2048150Y307029D01*
Y309571D01*
X2047492Y312025D01*
X2046222Y314225D01*
X2044425Y316022D01*
X2042225Y317292D01*
X2039771Y317950D01*
D02*
G37*
G36*
X2014371D02*
X2011830D01*
X2009375Y317292D01*
X2007175Y316022D01*
X2005378Y314225D01*
X2004108Y312025D01*
X2003450Y309571D01*
Y307029D01*
X2004108Y304575D01*
X2005378Y302375D01*
X2007175Y300578D01*
X2009375Y299308D01*
X2011830Y298650D01*
X2014371D01*
X2016825Y299308D01*
X2019025Y300578D01*
X2020822Y302375D01*
X2022092Y304575D01*
X2022750Y307029D01*
Y309571D01*
X2022092Y312025D01*
X2020822Y314225D01*
X2019025Y316022D01*
X2016825Y317292D01*
X2014371Y317950D01*
D02*
G37*
G36*
X1430170D02*
X1427630D01*
X1425175Y317292D01*
X1422975Y316022D01*
X1421178Y314225D01*
X1419908Y312025D01*
X1419250Y309571D01*
Y307029D01*
X1419908Y304575D01*
X1421178Y302375D01*
X1422975Y300578D01*
X1425175Y299308D01*
X1427630Y298650D01*
X1430170D01*
X1432625Y299308D01*
X1434825Y300578D01*
X1436622Y302375D01*
X1437892Y304575D01*
X1438550Y307029D01*
Y309571D01*
X1437892Y312025D01*
X1436622Y314225D01*
X1434825Y316022D01*
X1432625Y317292D01*
X1430170Y317950D01*
D02*
G37*
G36*
X1306470Y317450D02*
X1303929D01*
X1301475Y316792D01*
X1299275Y315522D01*
X1297478Y313725D01*
X1296208Y311525D01*
X1295550Y309070D01*
Y306530D01*
X1296208Y304075D01*
X1297478Y301875D01*
X1299275Y300078D01*
X1301475Y298808D01*
X1303929Y298150D01*
X1306470D01*
X1308925Y298808D01*
X1311125Y300078D01*
X1312922Y301875D01*
X1314192Y304075D01*
X1314850Y306530D01*
Y309070D01*
X1314192Y311525D01*
X1312922Y313725D01*
X1311125Y315522D01*
X1308925Y316792D01*
X1306470Y317450D01*
D02*
G37*
G36*
X1281071D02*
X1278530D01*
X1276075Y316792D01*
X1273875Y315522D01*
X1272078Y313725D01*
X1270808Y311525D01*
X1270150Y309070D01*
Y306530D01*
X1270808Y304075D01*
X1272078Y301875D01*
X1273875Y300078D01*
X1276075Y298808D01*
X1278530Y298150D01*
X1281071D01*
X1283525Y298808D01*
X1285725Y300078D01*
X1287522Y301875D01*
X1288792Y304075D01*
X1289450Y306530D01*
Y309070D01*
X1288792Y311525D01*
X1287522Y313725D01*
X1285725Y315522D01*
X1283525Y316792D01*
X1281071Y317450D01*
D02*
G37*
G36*
X696870D02*
X694330D01*
X691875Y316792D01*
X689675Y315522D01*
X687878Y313725D01*
X686608Y311525D01*
X685950Y309070D01*
Y306530D01*
X686608Y304075D01*
X687878Y301875D01*
X689675Y300078D01*
X691875Y298808D01*
X694330Y298150D01*
X696870D01*
X699325Y298808D01*
X701525Y300078D01*
X703322Y301875D01*
X704592Y304075D01*
X705250Y306530D01*
Y309070D01*
X704592Y311525D01*
X703322Y313725D01*
X701525Y315522D01*
X699325Y316792D01*
X696870Y317450D01*
D02*
G37*
G36*
X671470D02*
X668930D01*
X666475Y316792D01*
X664275Y315522D01*
X662478Y313725D01*
X661208Y311525D01*
X660550Y309070D01*
Y306530D01*
X661208Y304075D01*
X662478Y301875D01*
X664275Y300078D01*
X666475Y298808D01*
X668930Y298150D01*
X671470D01*
X673925Y298808D01*
X676125Y300078D01*
X677922Y301875D01*
X679192Y304075D01*
X679850Y306530D01*
Y309070D01*
X679192Y311525D01*
X677922Y313725D01*
X676125Y315522D01*
X673925Y316792D01*
X671470Y317450D01*
D02*
G37*
G36*
X2014371Y292550D02*
X2011830D01*
X2009375Y291892D01*
X2007175Y290622D01*
X2005378Y288825D01*
X2004108Y286625D01*
X2003450Y284170D01*
Y281630D01*
X2004108Y279175D01*
X2005378Y276975D01*
X2007175Y275178D01*
X2009375Y273908D01*
X2011830Y273250D01*
X2014371D01*
X2016825Y273908D01*
X2019025Y275178D01*
X2020822Y276975D01*
X2022092Y279175D01*
X2022750Y281630D01*
Y284170D01*
X2022092Y286625D01*
X2020822Y288825D01*
X2019025Y290622D01*
X2016825Y291892D01*
X2014371Y292550D01*
D02*
G37*
G36*
X1430170D02*
X1427630D01*
X1425175Y291892D01*
X1422975Y290622D01*
X1421178Y288825D01*
X1419908Y286625D01*
X1419250Y284170D01*
Y281630D01*
X1419908Y279175D01*
X1421178Y276975D01*
X1422975Y275178D01*
X1425175Y273908D01*
X1427630Y273250D01*
X1430170D01*
X1432625Y273908D01*
X1434825Y275178D01*
X1436622Y276975D01*
X1437892Y279175D01*
X1438550Y281630D01*
Y284170D01*
X1437892Y286625D01*
X1436622Y288825D01*
X1434825Y290622D01*
X1432625Y291892D01*
X1430170Y292550D01*
D02*
G37*
G36*
X1306470Y292050D02*
X1303929D01*
X1301475Y291392D01*
X1299275Y290122D01*
X1297478Y288325D01*
X1296208Y286125D01*
X1295550Y283671D01*
Y281129D01*
X1296208Y278675D01*
X1297478Y276475D01*
X1299275Y274678D01*
X1301475Y273408D01*
X1303929Y272750D01*
X1306470D01*
X1308925Y273408D01*
X1311125Y274678D01*
X1312922Y276475D01*
X1314192Y278675D01*
X1314850Y281129D01*
Y283671D01*
X1314192Y286125D01*
X1312922Y288325D01*
X1311125Y290122D01*
X1308925Y291392D01*
X1306470Y292050D01*
D02*
G37*
G36*
X1281071D02*
X1278530D01*
X1276075Y291392D01*
X1273875Y290122D01*
X1272078Y288325D01*
X1270808Y286125D01*
X1270150Y283671D01*
Y281129D01*
X1270808Y278675D01*
X1272078Y276475D01*
X1273875Y274678D01*
X1276075Y273408D01*
X1278530Y272750D01*
X1281071D01*
X1283525Y273408D01*
X1285725Y274678D01*
X1287522Y276475D01*
X1288792Y278675D01*
X1289450Y281129D01*
Y283671D01*
X1288792Y286125D01*
X1287522Y288325D01*
X1285725Y290122D01*
X1283525Y291392D01*
X1281071Y292050D01*
D02*
G37*
G36*
X696870D02*
X694330D01*
X691875Y291392D01*
X689675Y290122D01*
X687878Y288325D01*
X686608Y286125D01*
X685950Y283671D01*
Y281129D01*
X686608Y278675D01*
X687878Y276475D01*
X689675Y274678D01*
X691875Y273408D01*
X694330Y272750D01*
X696870D01*
X699325Y273408D01*
X701525Y274678D01*
X703322Y276475D01*
X704592Y278675D01*
X705250Y281129D01*
Y283671D01*
X704592Y286125D01*
X703322Y288325D01*
X701525Y290122D01*
X699325Y291392D01*
X696870Y292050D01*
D02*
G37*
G36*
X671470D02*
X668930D01*
X666475Y291392D01*
X664275Y290122D01*
X662478Y288325D01*
X661208Y286125D01*
X660550Y283671D01*
Y281129D01*
X661208Y278675D01*
X662478Y276475D01*
X664275Y274678D01*
X666475Y273408D01*
X668930Y272750D01*
X671470D01*
X673925Y273408D01*
X676125Y274678D01*
X677922Y276475D01*
X679192Y278675D01*
X679850Y281129D01*
Y283671D01*
X679192Y286125D01*
X677922Y288325D01*
X676125Y290122D01*
X673925Y291392D01*
X671470Y292050D01*
D02*
G37*
G36*
X2014371Y267150D02*
X2011830D01*
X2009375Y266492D01*
X2007175Y265222D01*
X2005378Y263425D01*
X2004108Y261225D01*
X2003450Y258771D01*
Y256229D01*
X2004108Y253775D01*
X2005378Y251575D01*
X2007175Y249778D01*
X2009375Y248508D01*
X2011830Y247850D01*
X2014371D01*
X2016825Y248508D01*
X2019025Y249778D01*
X2020822Y251575D01*
X2022092Y253775D01*
X2022750Y256229D01*
Y258771D01*
X2022092Y261225D01*
X2020822Y263425D01*
X2019025Y265222D01*
X2016825Y266492D01*
X2014371Y267150D01*
D02*
G37*
G36*
X1306470Y266650D02*
X1303929D01*
X1301475Y265992D01*
X1299275Y264722D01*
X1297478Y262925D01*
X1296208Y260725D01*
X1295550Y258270D01*
Y255730D01*
X1296208Y253275D01*
X1297478Y251075D01*
X1299275Y249278D01*
X1301475Y248008D01*
X1303929Y247350D01*
X1306470D01*
X1308925Y248008D01*
X1311125Y249278D01*
X1312922Y251075D01*
X1314192Y253275D01*
X1314850Y255730D01*
Y258270D01*
X1314192Y260725D01*
X1312922Y262925D01*
X1311125Y264722D01*
X1308925Y265992D01*
X1306470Y266650D01*
D02*
G37*
G36*
X1281071D02*
X1278530D01*
X1276075Y265992D01*
X1273875Y264722D01*
X1272078Y262925D01*
X1270808Y260725D01*
X1270150Y258270D01*
Y255730D01*
X1270808Y253275D01*
X1272078Y251075D01*
X1273875Y249278D01*
X1276075Y248008D01*
X1278530Y247350D01*
X1281071D01*
X1283525Y248008D01*
X1285725Y249278D01*
X1287522Y251075D01*
X1288792Y253275D01*
X1289450Y255730D01*
Y258270D01*
X1288792Y260725D01*
X1287522Y262925D01*
X1285725Y264722D01*
X1283525Y265992D01*
X1281071Y266650D01*
D02*
G37*
G36*
X696870D02*
X694330D01*
X691875Y265992D01*
X689675Y264722D01*
X687878Y262925D01*
X686608Y260725D01*
X685950Y258270D01*
Y255730D01*
X686608Y253275D01*
X687878Y251075D01*
X689675Y249278D01*
X691875Y248008D01*
X694330Y247350D01*
X696870D01*
X699325Y248008D01*
X701525Y249278D01*
X703322Y251075D01*
X704592Y253275D01*
X705250Y255730D01*
Y258270D01*
X704592Y260725D01*
X703322Y262925D01*
X701525Y264722D01*
X699325Y265992D01*
X696870Y266650D01*
D02*
G37*
G36*
X671470D02*
X668930D01*
X666475Y265992D01*
X664275Y264722D01*
X662478Y262925D01*
X661208Y260725D01*
X660550Y258270D01*
Y255730D01*
X661208Y253275D01*
X662478Y251075D01*
X664275Y249278D01*
X666475Y248008D01*
X668930Y247350D01*
X671470D01*
X673925Y248008D01*
X676125Y249278D01*
X677922Y251075D01*
X679192Y253275D01*
X679850Y255730D01*
Y258270D01*
X679192Y260725D01*
X677922Y262925D01*
X676125Y264722D01*
X673925Y265992D01*
X671470Y266650D01*
D02*
G37*
G36*
X2039771Y292550D02*
X2037230D01*
X2034775Y291892D01*
X2032575Y290622D01*
X2030778Y288825D01*
X2029508Y286625D01*
X2028850Y284170D01*
Y281630D01*
X2029508Y279175D01*
X2030778Y276975D01*
X2032575Y275178D01*
X2034775Y273908D01*
X2037230Y273250D01*
X2039771D01*
X2042225Y273908D01*
X2042365Y273988D01*
X2053916Y262438D01*
Y255708D01*
X2054187Y254342D01*
X2054961Y253185D01*
X2058112Y250033D01*
Y249086D01*
X2058873Y247248D01*
X2060280Y245841D01*
X2062117Y245080D01*
X2064107D01*
X2065944Y245841D01*
X2067351Y247248D01*
X2068112Y249086D01*
Y251075D01*
X2067351Y252913D01*
X2065944Y254319D01*
X2064107Y255080D01*
X2063159D01*
X2061053Y257186D01*
Y263916D01*
X2060781Y265281D01*
X2060008Y266439D01*
X2047411Y279035D01*
X2047492Y279175D01*
X2048150Y281630D01*
Y284170D01*
X2047492Y286625D01*
X2046222Y288825D01*
X2044425Y290622D01*
X2042225Y291892D01*
X2039771Y292550D01*
D02*
G37*
G36*
Y241750D02*
X2037230D01*
X2034775Y241092D01*
X2032575Y239822D01*
X2030778Y238025D01*
X2029508Y235825D01*
X2028850Y233370D01*
Y230830D01*
X2029508Y228375D01*
X2030778Y226175D01*
X2032575Y224378D01*
X2034775Y223108D01*
X2037230Y222450D01*
X2039771D01*
X2042225Y223108D01*
X2044425Y224378D01*
X2046222Y226175D01*
X2047492Y228375D01*
X2048150Y230830D01*
Y233370D01*
X2047492Y235825D01*
X2046222Y238025D01*
X2044425Y239822D01*
X2042225Y241092D01*
X2039771Y241750D01*
D02*
G37*
G36*
X1861000Y1116569D02*
X1509000D01*
X1507634Y1116297D01*
X1506477Y1115523D01*
X1470491Y1079537D01*
X1468205Y1080150D01*
X1465795D01*
X1463468Y1079526D01*
X1461382Y1078322D01*
X1459678Y1076618D01*
X1458474Y1074532D01*
X1457850Y1072205D01*
Y1069795D01*
X1458474Y1067468D01*
X1459678Y1065382D01*
X1461382Y1063678D01*
X1463468Y1062474D01*
X1465795Y1061850D01*
X1468205D01*
X1470532Y1062474D01*
X1472618Y1063678D01*
X1474322Y1065382D01*
X1475526Y1067468D01*
X1476150Y1069795D01*
Y1072205D01*
X1475537Y1074491D01*
X1510478Y1109431D01*
X1859522D01*
X1925431Y1043522D01*
Y619906D01*
X1925703Y618540D01*
X1926477Y617383D01*
X1941431Y602428D01*
Y196502D01*
X1940761Y195832D01*
X1940000Y193995D01*
Y192005D01*
X1940761Y190168D01*
X1942168Y188761D01*
X1944005Y188000D01*
X1944953D01*
X1958477Y174477D01*
X1959634Y173703D01*
X1961000Y173431D01*
X1970000D01*
X1971366Y173703D01*
X1972523Y174477D01*
X2001178Y203131D01*
X2004066D01*
X2004108Y202975D01*
X2005378Y200775D01*
X2007175Y198978D01*
X2009375Y197708D01*
X2011830Y197050D01*
X2014371D01*
X2016825Y197708D01*
X2019025Y198978D01*
X2020822Y200775D01*
X2022092Y202975D01*
X2022750Y205429D01*
Y207971D01*
X2022092Y210425D01*
X2020822Y212625D01*
X2019025Y214422D01*
X2016825Y215692D01*
X2014371Y216350D01*
X2011830D01*
X2009375Y215692D01*
X2007175Y214422D01*
X2005378Y212625D01*
X2004108Y210425D01*
X2004066Y210269D01*
X1999700D01*
X1998334Y209997D01*
X1997177Y209223D01*
X1984962Y197008D01*
X1983885Y197728D01*
X1984000Y198005D01*
Y198953D01*
X2008601Y223554D01*
X2009375Y223108D01*
X2011830Y222450D01*
X2014371D01*
X2016825Y223108D01*
X2019025Y224378D01*
X2020822Y226175D01*
X2022092Y228375D01*
X2022750Y230830D01*
Y233370D01*
X2022092Y235825D01*
X2020822Y238025D01*
X2019025Y239822D01*
X2016825Y241092D01*
X2014371Y241750D01*
X2011830D01*
X2009375Y241092D01*
X2007175Y239822D01*
X2005378Y238025D01*
X2004108Y235825D01*
X2003450Y233370D01*
Y230830D01*
X2003943Y228990D01*
X1978953Y204000D01*
X1978005D01*
X1976168Y203239D01*
X1974761Y201832D01*
X1974000Y199995D01*
Y198005D01*
X1974761Y196168D01*
X1976168Y194761D01*
X1978005Y194000D01*
X1979995D01*
X1980272Y194115D01*
X1980992Y193038D01*
X1968522Y180569D01*
X1962478D01*
X1950000Y193047D01*
Y193995D01*
X1949239Y195832D01*
X1948569Y196502D01*
Y603906D01*
X1948297Y605271D01*
X1947523Y606429D01*
X1932569Y621384D01*
Y1045000D01*
X1932297Y1046366D01*
X1931523Y1047523D01*
X1863523Y1115523D01*
X1862366Y1116297D01*
X1861000Y1116569D01*
D02*
G37*
G36*
X1306470Y241250D02*
X1303929D01*
X1301475Y240592D01*
X1299275Y239322D01*
X1297478Y237525D01*
X1296208Y235325D01*
X1295550Y232871D01*
Y230329D01*
X1296208Y227875D01*
X1297478Y225675D01*
X1299275Y223878D01*
X1301475Y222608D01*
X1303929Y221950D01*
X1306470D01*
X1308925Y222608D01*
X1311125Y223878D01*
X1312922Y225675D01*
X1314192Y227875D01*
X1314850Y230329D01*
Y232871D01*
X1314192Y235325D01*
X1312922Y237525D01*
X1311125Y239322D01*
X1308925Y240592D01*
X1306470Y241250D01*
D02*
G37*
G36*
X1281071D02*
X1278530D01*
X1276075Y240592D01*
X1273875Y239322D01*
X1272078Y237525D01*
X1270808Y235325D01*
X1270150Y232871D01*
Y230329D01*
X1270808Y227875D01*
X1272078Y225675D01*
X1273875Y223878D01*
X1276075Y222608D01*
X1278530Y221950D01*
X1281071D01*
X1283525Y222608D01*
X1285725Y223878D01*
X1287522Y225675D01*
X1288792Y227875D01*
X1289450Y230329D01*
Y232871D01*
X1288792Y235325D01*
X1287522Y237525D01*
X1285725Y239322D01*
X1283525Y240592D01*
X1281071Y241250D01*
D02*
G37*
G36*
X696870D02*
X694330D01*
X691875Y240592D01*
X689675Y239322D01*
X687878Y237525D01*
X686608Y235325D01*
X685950Y232871D01*
Y230329D01*
X686608Y227875D01*
X687878Y225675D01*
X689675Y223878D01*
X691875Y222608D01*
X694330Y221950D01*
X696870D01*
X699325Y222608D01*
X701525Y223878D01*
X703322Y225675D01*
X704592Y227875D01*
X705250Y230329D01*
Y232871D01*
X704592Y235325D01*
X703322Y237525D01*
X701525Y239322D01*
X699325Y240592D01*
X696870Y241250D01*
D02*
G37*
G36*
X671470D02*
X668930D01*
X666475Y240592D01*
X664275Y239322D01*
X662478Y237525D01*
X661208Y235325D01*
X660550Y232871D01*
Y230329D01*
X661208Y227875D01*
X662478Y225675D01*
X664275Y223878D01*
X666475Y222608D01*
X668930Y221950D01*
X671470D01*
X673925Y222608D01*
X676125Y223878D01*
X677922Y225675D01*
X679192Y227875D01*
X679850Y230329D01*
Y232871D01*
X679192Y235325D01*
X677922Y237525D01*
X676125Y239322D01*
X673925Y240592D01*
X671470Y241250D01*
D02*
G37*
G36*
X2039771Y267150D02*
X2037230D01*
X2034775Y266492D01*
X2032575Y265222D01*
X2030778Y263425D01*
X2029508Y261225D01*
X2028850Y258771D01*
Y256229D01*
X2029508Y253775D01*
X2030778Y251575D01*
X2032575Y249778D01*
X2034775Y248508D01*
X2037230Y247850D01*
X2039771D01*
X2042225Y248508D01*
X2044386Y249755D01*
X2065457Y228685D01*
X2066615Y227911D01*
X2067980Y227640D01*
X2068623D01*
X2071112Y225151D01*
Y225005D01*
X2071873Y223168D01*
X2073280Y221761D01*
X2075117Y221000D01*
X2077107D01*
X2078944Y221761D01*
X2080351Y223168D01*
X2081112Y225005D01*
Y226995D01*
X2080351Y228832D01*
X2078944Y230239D01*
X2077107Y231000D01*
X2075356D01*
X2072625Y233731D01*
X2071467Y234505D01*
X2070101Y234777D01*
X2069458D01*
X2048119Y256115D01*
X2048150Y256229D01*
Y258771D01*
X2047492Y261225D01*
X2046222Y263425D01*
X2044425Y265222D01*
X2042225Y266492D01*
X2039771Y267150D01*
D02*
G37*
G36*
X1306470Y215850D02*
X1303929D01*
X1301475Y215192D01*
X1299275Y213922D01*
X1297478Y212125D01*
X1296208Y209925D01*
X1295550Y207470D01*
Y204930D01*
X1296208Y202475D01*
X1297478Y200275D01*
X1299275Y198478D01*
X1301475Y197208D01*
X1303929Y196550D01*
X1306470D01*
X1308925Y197208D01*
X1311125Y198478D01*
X1312922Y200275D01*
X1314192Y202475D01*
X1314850Y204930D01*
Y207470D01*
X1314192Y209925D01*
X1312922Y212125D01*
X1311125Y213922D01*
X1308925Y215192D01*
X1306470Y215850D01*
D02*
G37*
G36*
X1281071D02*
X1278530D01*
X1276075Y215192D01*
X1273875Y213922D01*
X1272078Y212125D01*
X1270808Y209925D01*
X1270150Y207470D01*
Y204930D01*
X1270808Y202475D01*
X1272078Y200275D01*
X1273875Y198478D01*
X1276075Y197208D01*
X1278530Y196550D01*
X1281071D01*
X1283525Y197208D01*
X1285725Y198478D01*
X1287522Y200275D01*
X1288792Y202475D01*
X1289450Y204930D01*
Y207470D01*
X1288792Y209925D01*
X1287522Y212125D01*
X1285725Y213922D01*
X1283525Y215192D01*
X1281071Y215850D01*
D02*
G37*
G36*
X696870D02*
X694330D01*
X691875Y215192D01*
X689675Y213922D01*
X687878Y212125D01*
X686608Y209925D01*
X685950Y207470D01*
Y204930D01*
X686608Y202475D01*
X687878Y200275D01*
X689675Y198478D01*
X691875Y197208D01*
X694330Y196550D01*
X696870D01*
X699325Y197208D01*
X701525Y198478D01*
X703322Y200275D01*
X704592Y202475D01*
X705250Y204930D01*
Y207470D01*
X704592Y209925D01*
X703322Y212125D01*
X701525Y213922D01*
X699325Y215192D01*
X696870Y215850D01*
D02*
G37*
G36*
X671470D02*
X668930D01*
X666475Y215192D01*
X664275Y213922D01*
X662478Y212125D01*
X661208Y209925D01*
X660550Y207470D01*
Y204930D01*
X661208Y202475D01*
X662478Y200275D01*
X664275Y198478D01*
X666475Y197208D01*
X668930Y196550D01*
X671470D01*
X673925Y197208D01*
X676125Y198478D01*
X677922Y200275D01*
X679192Y202475D01*
X679850Y204930D01*
Y207470D01*
X679192Y209925D01*
X677922Y212125D01*
X676125Y213922D01*
X673925Y215192D01*
X671470Y215850D01*
D02*
G37*
G36*
X2039771Y190950D02*
X2037230D01*
X2034775Y190292D01*
X2032575Y189022D01*
X2030778Y187225D01*
X2029508Y185025D01*
X2028850Y182570D01*
Y180030D01*
X2029508Y177575D01*
X2030778Y175375D01*
X2032575Y173578D01*
X2034775Y172308D01*
X2037230Y171650D01*
X2039771D01*
X2042225Y172308D01*
X2044425Y173578D01*
X2046222Y175375D01*
X2047492Y177575D01*
X2048150Y180030D01*
Y182570D01*
X2047492Y185025D01*
X2046222Y187225D01*
X2044425Y189022D01*
X2042225Y190292D01*
X2039771Y190950D01*
D02*
G37*
G36*
X2014371D02*
X2011830D01*
X2009375Y190292D01*
X2007175Y189022D01*
X2005378Y187225D01*
X2004108Y185025D01*
X2003450Y182570D01*
Y180030D01*
X2004108Y177575D01*
X2005378Y175375D01*
X2007175Y173578D01*
X2009375Y172308D01*
X2011830Y171650D01*
X2014371D01*
X2016825Y172308D01*
X2019025Y173578D01*
X2020822Y175375D01*
X2022092Y177575D01*
X2022750Y180030D01*
Y182570D01*
X2022092Y185025D01*
X2020822Y187225D01*
X2019025Y189022D01*
X2016825Y190292D01*
X2014371Y190950D01*
D02*
G37*
G36*
X1306470Y190450D02*
X1303929D01*
X1301475Y189792D01*
X1299275Y188522D01*
X1297478Y186725D01*
X1296208Y184525D01*
X1295550Y182071D01*
Y179529D01*
X1296208Y177075D01*
X1297478Y174875D01*
X1299275Y173078D01*
X1301475Y171808D01*
X1303929Y171150D01*
X1306470D01*
X1308925Y171808D01*
X1311125Y173078D01*
X1312922Y174875D01*
X1314192Y177075D01*
X1314850Y179529D01*
Y182071D01*
X1314192Y184525D01*
X1312922Y186725D01*
X1311125Y188522D01*
X1308925Y189792D01*
X1306470Y190450D01*
D02*
G37*
G36*
X1281071D02*
X1278530D01*
X1276075Y189792D01*
X1273875Y188522D01*
X1272078Y186725D01*
X1270808Y184525D01*
X1270150Y182071D01*
Y179529D01*
X1270808Y177075D01*
X1272078Y174875D01*
X1273875Y173078D01*
X1276075Y171808D01*
X1278530Y171150D01*
X1281071D01*
X1283525Y171808D01*
X1285725Y173078D01*
X1287522Y174875D01*
X1288792Y177075D01*
X1289450Y179529D01*
Y182071D01*
X1288792Y184525D01*
X1287522Y186725D01*
X1285725Y188522D01*
X1283525Y189792D01*
X1281071Y190450D01*
D02*
G37*
G36*
X696870D02*
X694330D01*
X691875Y189792D01*
X689675Y188522D01*
X687878Y186725D01*
X686608Y184525D01*
X685950Y182071D01*
Y179529D01*
X686608Y177075D01*
X687878Y174875D01*
X689675Y173078D01*
X691875Y171808D01*
X694330Y171150D01*
X696870D01*
X699325Y171808D01*
X701525Y173078D01*
X703322Y174875D01*
X704592Y177075D01*
X705250Y179529D01*
Y182071D01*
X704592Y184525D01*
X703322Y186725D01*
X701525Y188522D01*
X699325Y189792D01*
X696870Y190450D01*
D02*
G37*
G36*
X671470D02*
X668930D01*
X666475Y189792D01*
X664275Y188522D01*
X662478Y186725D01*
X661208Y184525D01*
X660550Y182071D01*
Y179529D01*
X661208Y177075D01*
X662478Y174875D01*
X664275Y173078D01*
X666475Y171808D01*
X668930Y171150D01*
X671470D01*
X673925Y171808D01*
X676125Y173078D01*
X677922Y174875D01*
X679192Y177075D01*
X679850Y179529D01*
Y182071D01*
X679192Y184525D01*
X677922Y186725D01*
X676125Y188522D01*
X673925Y189792D01*
X671470Y190450D01*
D02*
G37*
G36*
X2039771Y216350D02*
X2037230D01*
X2034775Y215692D01*
X2032575Y214422D01*
X2030778Y212625D01*
X2029508Y210425D01*
X2028850Y207971D01*
Y205429D01*
X2029508Y202975D01*
X2030778Y200775D01*
X2032575Y198978D01*
X2034775Y197708D01*
X2037230Y197050D01*
X2039771D01*
X2042225Y197708D01*
X2042460Y197843D01*
X2067931Y172372D01*
Y159668D01*
X2067726Y159462D01*
X2066964Y157625D01*
Y155635D01*
X2067726Y153798D01*
X2069132Y152391D01*
X2070970Y151630D01*
X2072959D01*
X2074797Y152391D01*
X2076203Y153798D01*
X2076964Y155635D01*
Y157625D01*
X2076203Y159462D01*
X2075069Y160597D01*
Y173850D01*
X2074797Y175216D01*
X2074023Y176373D01*
X2047466Y202930D01*
X2047492Y202975D01*
X2048150Y205429D01*
Y207971D01*
X2047492Y210425D01*
X2046222Y212625D01*
X2044425Y214422D01*
X2042225Y215692D01*
X2039771Y216350D01*
D02*
G37*
G36*
Y165550D02*
X2037230D01*
X2034775Y164892D01*
X2032575Y163622D01*
X2030778Y161825D01*
X2029508Y159625D01*
X2028850Y157170D01*
Y154629D01*
X2029508Y152175D01*
X2030778Y149975D01*
X2032575Y148178D01*
X2034775Y146908D01*
X2037230Y146250D01*
X2039771D01*
X2042225Y146908D01*
X2044425Y148178D01*
X2046222Y149975D01*
X2047492Y152175D01*
X2048150Y154629D01*
Y157170D01*
X2047492Y159625D01*
X2046222Y161825D01*
X2044425Y163622D01*
X2042225Y164892D01*
X2039771Y165550D01*
D02*
G37*
G36*
X2014371D02*
X2011830D01*
X2009375Y164892D01*
X2007175Y163622D01*
X2005378Y161825D01*
X2004108Y159625D01*
X2003450Y157170D01*
Y154629D01*
X2004108Y152175D01*
X2005378Y149975D01*
X2007175Y148178D01*
X2009375Y146908D01*
X2011830Y146250D01*
X2014371D01*
X2016825Y146908D01*
X2019025Y148178D01*
X2020822Y149975D01*
X2022092Y152175D01*
X2022750Y154629D01*
Y157170D01*
X2022092Y159625D01*
X2020822Y161825D01*
X2019025Y163622D01*
X2016825Y164892D01*
X2014371Y165550D01*
D02*
G37*
G36*
X1306470Y165050D02*
X1303929D01*
X1301475Y164392D01*
X1299275Y163122D01*
X1297478Y161325D01*
X1296208Y159125D01*
X1295550Y156671D01*
Y154129D01*
X1296208Y151675D01*
X1297478Y149475D01*
X1299275Y147678D01*
X1301475Y146408D01*
X1303929Y145750D01*
X1306470D01*
X1308925Y146408D01*
X1311125Y147678D01*
X1312922Y149475D01*
X1314192Y151675D01*
X1314850Y154129D01*
Y156671D01*
X1314192Y159125D01*
X1312922Y161325D01*
X1311125Y163122D01*
X1308925Y164392D01*
X1306470Y165050D01*
D02*
G37*
G36*
X1281071D02*
X1278530D01*
X1276075Y164392D01*
X1273875Y163122D01*
X1272078Y161325D01*
X1270808Y159125D01*
X1270150Y156671D01*
Y154129D01*
X1270808Y151675D01*
X1272078Y149475D01*
X1273875Y147678D01*
X1276075Y146408D01*
X1278530Y145750D01*
X1281071D01*
X1283525Y146408D01*
X1285725Y147678D01*
X1287522Y149475D01*
X1288792Y151675D01*
X1289450Y154129D01*
Y156671D01*
X1288792Y159125D01*
X1287522Y161325D01*
X1285725Y163122D01*
X1283525Y164392D01*
X1281071Y165050D01*
D02*
G37*
G36*
X696870D02*
X694330D01*
X691875Y164392D01*
X689675Y163122D01*
X687878Y161325D01*
X686608Y159125D01*
X685950Y156671D01*
Y154129D01*
X686608Y151675D01*
X687878Y149475D01*
X689675Y147678D01*
X691875Y146408D01*
X694330Y145750D01*
X696870D01*
X699325Y146408D01*
X701525Y147678D01*
X703322Y149475D01*
X704592Y151675D01*
X705250Y154129D01*
Y156671D01*
X704592Y159125D01*
X703322Y161325D01*
X701525Y163122D01*
X699325Y164392D01*
X696870Y165050D01*
D02*
G37*
G36*
X671470D02*
X668930D01*
X666475Y164392D01*
X664275Y163122D01*
X662478Y161325D01*
X661208Y159125D01*
X660550Y156671D01*
Y154129D01*
X661208Y151675D01*
X662478Y149475D01*
X664275Y147678D01*
X666475Y146408D01*
X668930Y145750D01*
X671470D01*
X673925Y146408D01*
X676125Y147678D01*
X677922Y149475D01*
X679192Y151675D01*
X679850Y154129D01*
Y156671D01*
X679192Y159125D01*
X677922Y161325D01*
X676125Y163122D01*
X673925Y164392D01*
X671470Y165050D01*
D02*
G37*
G36*
X297640Y124700D02*
X293760D01*
X289954Y123943D01*
X286369Y122458D01*
X283142Y120302D01*
X280398Y117558D01*
X278242Y114331D01*
X276757Y110746D01*
X276000Y106940D01*
Y103060D01*
X276757Y99254D01*
X278242Y95668D01*
X280398Y92442D01*
X283142Y89698D01*
X286369Y87542D01*
X289954Y86057D01*
X293760Y85300D01*
X297640D01*
X301446Y86057D01*
X305031Y87542D01*
X308258Y89698D01*
X311002Y92442D01*
X313158Y95668D01*
X314643Y99254D01*
X315400Y103060D01*
Y106940D01*
X314643Y110746D01*
X313158Y114331D01*
X311002Y117558D01*
X308258Y120302D01*
X305031Y122458D01*
X301446Y123943D01*
X297640Y124700D01*
D02*
G37*
G36*
X166240D02*
X162360D01*
X158554Y123943D01*
X154969Y122458D01*
X151742Y120302D01*
X148998Y117558D01*
X146842Y114331D01*
X145357Y110746D01*
X144600Y106940D01*
Y103060D01*
X145357Y99254D01*
X146842Y95668D01*
X148998Y92442D01*
X151742Y89698D01*
X154969Y87542D01*
X158554Y86057D01*
X162360Y85300D01*
X166240D01*
X170046Y86057D01*
X173631Y87542D01*
X176858Y89698D01*
X179602Y92442D01*
X181758Y95668D01*
X183243Y99254D01*
X184000Y103060D01*
Y106940D01*
X183243Y110746D01*
X181758Y114331D01*
X179602Y117558D01*
X176858Y120302D01*
X173631Y122458D01*
X170046Y123943D01*
X166240Y124700D01*
D02*
G37*
G36*
X828549Y65650D02*
X825851D01*
X823244Y64952D01*
X820906Y63602D01*
X818998Y61694D01*
X817648Y59356D01*
X816950Y56749D01*
Y54051D01*
X817648Y51444D01*
X818998Y49106D01*
X820906Y47198D01*
X823244Y45848D01*
X825851Y45150D01*
X828549D01*
X831156Y45848D01*
X833494Y47198D01*
X835402Y49106D01*
X836751Y51444D01*
X837450Y54051D01*
Y56749D01*
X836751Y59356D01*
X835402Y61694D01*
X833494Y63602D01*
X831156Y64952D01*
X828549Y65650D01*
D02*
G37*
G36*
X803149D02*
X800451D01*
X797844Y64952D01*
X795506Y63602D01*
X793598Y61694D01*
X792249Y59356D01*
X791550Y56749D01*
Y54051D01*
X792249Y51444D01*
X793598Y49106D01*
X795506Y47198D01*
X797844Y45848D01*
X800451Y45150D01*
X803149D01*
X805756Y45848D01*
X808094Y47198D01*
X810002Y49106D01*
X811351Y51444D01*
X812050Y54051D01*
Y56749D01*
X811351Y59356D01*
X810002Y61694D01*
X808094Y63602D01*
X805756Y64952D01*
X803149Y65650D01*
D02*
G37*
G36*
X777749D02*
X775051D01*
X772444Y64952D01*
X770106Y63602D01*
X768198Y61694D01*
X766849Y59356D01*
X766150Y56749D01*
Y54051D01*
X766849Y51444D01*
X768198Y49106D01*
X770106Y47198D01*
X772444Y45848D01*
X775051Y45150D01*
X777749D01*
X780356Y45848D01*
X782694Y47198D01*
X784602Y49106D01*
X785952Y51444D01*
X786650Y54051D01*
Y56749D01*
X785952Y59356D01*
X784602Y61694D01*
X782694Y63602D01*
X780356Y64952D01*
X777749Y65650D01*
D02*
G37*
G36*
X752349D02*
X749651D01*
X747044Y64952D01*
X744706Y63602D01*
X742798Y61694D01*
X741449Y59356D01*
X740750Y56749D01*
Y54051D01*
X741449Y51444D01*
X742798Y49106D01*
X744706Y47198D01*
X747044Y45848D01*
X749651Y45150D01*
X752349D01*
X754956Y45848D01*
X757294Y47198D01*
X759202Y49106D01*
X760552Y51444D01*
X761250Y54051D01*
Y56749D01*
X760552Y59356D01*
X759202Y61694D01*
X757294Y63602D01*
X754956Y64952D01*
X752349Y65650D01*
D02*
G37*
G36*
X726949D02*
X724251D01*
X721644Y64952D01*
X719306Y63602D01*
X717398Y61694D01*
X716049Y59356D01*
X715350Y56749D01*
Y54051D01*
X716049Y51444D01*
X717398Y49106D01*
X719306Y47198D01*
X721644Y45848D01*
X724251Y45150D01*
X726949D01*
X729556Y45848D01*
X731894Y47198D01*
X733802Y49106D01*
X735152Y51444D01*
X735850Y54051D01*
Y56749D01*
X735152Y59356D01*
X733802Y61694D01*
X731894Y63602D01*
X729556Y64952D01*
X726949Y65650D01*
D02*
G37*
G36*
X701549D02*
X698851D01*
X696244Y64952D01*
X693906Y63602D01*
X691998Y61694D01*
X690648Y59356D01*
X689950Y56749D01*
Y54051D01*
X690648Y51444D01*
X691998Y49106D01*
X693906Y47198D01*
X696244Y45848D01*
X698851Y45150D01*
X701549D01*
X704156Y45848D01*
X706494Y47198D01*
X708402Y49106D01*
X709752Y51444D01*
X710450Y54051D01*
Y56749D01*
X709752Y59356D01*
X708402Y61694D01*
X706494Y63602D01*
X704156Y64952D01*
X701549Y65650D01*
D02*
G37*
G36*
X676149D02*
X673451D01*
X670844Y64952D01*
X668506Y63602D01*
X666598Y61694D01*
X665248Y59356D01*
X664550Y56749D01*
Y54051D01*
X665248Y51444D01*
X666598Y49106D01*
X668506Y47198D01*
X670844Y45848D01*
X673451Y45150D01*
X676149D01*
X678756Y45848D01*
X681094Y47198D01*
X683002Y49106D01*
X684352Y51444D01*
X685050Y54051D01*
Y56749D01*
X684352Y59356D01*
X683002Y61694D01*
X681094Y63602D01*
X678756Y64952D01*
X676149Y65650D01*
D02*
G37*
G36*
X650749D02*
X648051D01*
X645444Y64952D01*
X643106Y63602D01*
X641198Y61694D01*
X639849Y59356D01*
X639150Y56749D01*
Y54051D01*
X639849Y51444D01*
X641198Y49106D01*
X643106Y47198D01*
X645444Y45848D01*
X648051Y45150D01*
X650749D01*
X653356Y45848D01*
X655694Y47198D01*
X657602Y49106D01*
X658951Y51444D01*
X659650Y54051D01*
Y56749D01*
X658951Y59356D01*
X657602Y61694D01*
X655694Y63602D01*
X653356Y64952D01*
X650749Y65650D01*
D02*
G37*
G36*
X625349D02*
X622651D01*
X620044Y64952D01*
X617706Y63602D01*
X615798Y61694D01*
X614449Y59356D01*
X613750Y56749D01*
Y54051D01*
X614449Y51444D01*
X615798Y49106D01*
X617706Y47198D01*
X620044Y45848D01*
X622651Y45150D01*
X625349D01*
X627956Y45848D01*
X630294Y47198D01*
X632202Y49106D01*
X633551Y51444D01*
X634250Y54051D01*
Y56749D01*
X633551Y59356D01*
X632202Y61694D01*
X630294Y63602D01*
X627956Y64952D01*
X625349Y65650D01*
D02*
G37*
G36*
X599949D02*
X597251D01*
X594644Y64952D01*
X592306Y63602D01*
X590398Y61694D01*
X589049Y59356D01*
X588350Y56749D01*
Y54051D01*
X589049Y51444D01*
X590398Y49106D01*
X592306Y47198D01*
X594644Y45848D01*
X597251Y45150D01*
X599949D01*
X602556Y45848D01*
X604894Y47198D01*
X606802Y49106D01*
X608152Y51444D01*
X608850Y54051D01*
Y56749D01*
X608152Y59356D01*
X606802Y61694D01*
X604894Y63602D01*
X602556Y64952D01*
X599949Y65650D01*
D02*
G37*
G36*
X574549D02*
X571851D01*
X569244Y64952D01*
X566906Y63602D01*
X564998Y61694D01*
X563648Y59356D01*
X562950Y56749D01*
Y54051D01*
X563648Y51444D01*
X564998Y49106D01*
X566906Y47198D01*
X569244Y45848D01*
X571851Y45150D01*
X574549D01*
X577156Y45848D01*
X579494Y47198D01*
X581402Y49106D01*
X582752Y51444D01*
X583450Y54051D01*
Y56749D01*
X582752Y59356D01*
X581402Y61694D01*
X579494Y63602D01*
X577156Y64952D01*
X574549Y65650D01*
D02*
G37*
G36*
X549149D02*
X546451D01*
X543844Y64952D01*
X541506Y63602D01*
X539598Y61694D01*
X538248Y59356D01*
X537550Y56749D01*
Y54051D01*
X538248Y51444D01*
X539598Y49106D01*
X541506Y47198D01*
X543844Y45848D01*
X546451Y45150D01*
X549149D01*
X551756Y45848D01*
X554094Y47198D01*
X556002Y49106D01*
X557351Y51444D01*
X558050Y54051D01*
Y56749D01*
X557351Y59356D01*
X556002Y61694D01*
X554094Y63602D01*
X551756Y64952D01*
X549149Y65650D01*
D02*
G37*
G36*
X523749D02*
X521051D01*
X518444Y64952D01*
X516106Y63602D01*
X514198Y61694D01*
X512849Y59356D01*
X512150Y56749D01*
Y54051D01*
X512849Y51444D01*
X514198Y49106D01*
X516106Y47198D01*
X518444Y45848D01*
X521051Y45150D01*
X523749D01*
X526356Y45848D01*
X528694Y47198D01*
X530602Y49106D01*
X531951Y51444D01*
X532650Y54051D01*
Y56749D01*
X531951Y59356D01*
X530602Y61694D01*
X528694Y63602D01*
X526356Y64952D01*
X523749Y65650D01*
D02*
G37*
G36*
X498349D02*
X495651D01*
X493044Y64952D01*
X490706Y63602D01*
X488798Y61694D01*
X487449Y59356D01*
X486750Y56749D01*
Y54051D01*
X487449Y51444D01*
X488798Y49106D01*
X490706Y47198D01*
X493044Y45848D01*
X495651Y45150D01*
X498349D01*
X500956Y45848D01*
X503294Y47198D01*
X505202Y49106D01*
X506552Y51444D01*
X507250Y54051D01*
Y56749D01*
X506552Y59356D01*
X505202Y61694D01*
X503294Y63602D01*
X500956Y64952D01*
X498349Y65650D01*
D02*
G37*
G36*
X472949D02*
X470251D01*
X467644Y64952D01*
X465306Y63602D01*
X463398Y61694D01*
X462048Y59356D01*
X461350Y56749D01*
Y54051D01*
X462048Y51444D01*
X463398Y49106D01*
X465306Y47198D01*
X467644Y45848D01*
X470251Y45150D01*
X472949D01*
X475556Y45848D01*
X477894Y47198D01*
X479802Y49106D01*
X481152Y51444D01*
X481850Y54051D01*
Y56749D01*
X481152Y59356D01*
X479802Y61694D01*
X477894Y63602D01*
X475556Y64952D01*
X472949Y65650D01*
D02*
G37*
G36*
X447549D02*
X444851D01*
X442244Y64952D01*
X439906Y63602D01*
X437998Y61694D01*
X436648Y59356D01*
X435950Y56749D01*
Y54051D01*
X436648Y51444D01*
X437998Y49106D01*
X439906Y47198D01*
X442244Y45848D01*
X444851Y45150D01*
X447549D01*
X450156Y45848D01*
X452494Y47198D01*
X454402Y49106D01*
X455751Y51444D01*
X456450Y54051D01*
Y56749D01*
X455751Y59356D01*
X454402Y61694D01*
X452494Y63602D01*
X450156Y64952D01*
X447549Y65650D01*
D02*
G37*
G36*
X422149D02*
X419451D01*
X416844Y64952D01*
X414506Y63602D01*
X412598Y61694D01*
X411249Y59356D01*
X410550Y56749D01*
Y54051D01*
X411249Y51444D01*
X412598Y49106D01*
X414506Y47198D01*
X416844Y45848D01*
X419451Y45150D01*
X422149D01*
X424756Y45848D01*
X427094Y47198D01*
X429002Y49106D01*
X430351Y51444D01*
X431050Y54051D01*
Y56749D01*
X430351Y59356D01*
X429002Y61694D01*
X427094Y63602D01*
X424756Y64952D01*
X422149Y65650D01*
D02*
G37*
G36*
X371349D02*
X368651D01*
X366044Y64952D01*
X363706Y63602D01*
X361798Y61694D01*
X360448Y59356D01*
X359750Y56749D01*
Y54051D01*
X360448Y51444D01*
X361798Y49106D01*
X363706Y47198D01*
X366044Y45848D01*
X368651Y45150D01*
X371349D01*
X373956Y45848D01*
X376294Y47198D01*
X378202Y49106D01*
X379552Y51444D01*
X380250Y54051D01*
Y56749D01*
X379552Y59356D01*
X378202Y61694D01*
X376294Y63602D01*
X373956Y64952D01*
X371349Y65650D01*
D02*
G37*
G36*
X345949D02*
X343251D01*
X340644Y64952D01*
X338306Y63602D01*
X336398Y61694D01*
X335048Y59356D01*
X334350Y56749D01*
Y54051D01*
X335048Y51444D01*
X336398Y49106D01*
X338306Y47198D01*
X340644Y45848D01*
X343251Y45150D01*
X345949D01*
X348556Y45848D01*
X350894Y47198D01*
X352802Y49106D01*
X354151Y51444D01*
X354850Y54051D01*
Y56749D01*
X354151Y59356D01*
X352802Y61694D01*
X350894Y63602D01*
X348556Y64952D01*
X345949Y65650D01*
D02*
G37*
G36*
X1922152Y44750D02*
X1919848D01*
X1917623Y44154D01*
X1915627Y43002D01*
X1913998Y41373D01*
X1912846Y39377D01*
X1912250Y37152D01*
Y34848D01*
X1912846Y32623D01*
X1913998Y30627D01*
X1915627Y28998D01*
X1917623Y27846D01*
X1919848Y27250D01*
X1922152D01*
X1924377Y27846D01*
X1926373Y28998D01*
X1928002Y30627D01*
X1929154Y32623D01*
X1929750Y34848D01*
Y37152D01*
X1929154Y39377D01*
X1928002Y41373D01*
X1926373Y43002D01*
X1924377Y44154D01*
X1922152Y44750D01*
D02*
G37*
G36*
X1872152D02*
X1869848D01*
X1867623Y44154D01*
X1865627Y43002D01*
X1863998Y41373D01*
X1862846Y39377D01*
X1862250Y37152D01*
Y34848D01*
X1862846Y32623D01*
X1863998Y30627D01*
X1865627Y28998D01*
X1867623Y27846D01*
X1869848Y27250D01*
X1872152D01*
X1874377Y27846D01*
X1876373Y28998D01*
X1878002Y30627D01*
X1879154Y32623D01*
X1879750Y34848D01*
Y37152D01*
X1879154Y39377D01*
X1878002Y41373D01*
X1876373Y43002D01*
X1874377Y44154D01*
X1872152Y44750D01*
D02*
G37*
G36*
X1847152D02*
X1844848D01*
X1842623Y44154D01*
X1840627Y43002D01*
X1838998Y41373D01*
X1837846Y39377D01*
X1837250Y37152D01*
Y34848D01*
X1837846Y32623D01*
X1838998Y30627D01*
X1840627Y28998D01*
X1842623Y27846D01*
X1844848Y27250D01*
X1847152D01*
X1849377Y27846D01*
X1851373Y28998D01*
X1853002Y30627D01*
X1854154Y32623D01*
X1854750Y34848D01*
Y37152D01*
X1854154Y39377D01*
X1853002Y41373D01*
X1851373Y43002D01*
X1849377Y44154D01*
X1847152Y44750D01*
D02*
G37*
G36*
X917152D02*
X914848D01*
X912623Y44154D01*
X910627Y43002D01*
X908998Y41373D01*
X907846Y39377D01*
X907250Y37152D01*
Y34848D01*
X907846Y32623D01*
X908998Y30627D01*
X910627Y28998D01*
X912623Y27846D01*
X914848Y27250D01*
X917152D01*
X919377Y27846D01*
X921373Y28998D01*
X923002Y30627D01*
X924154Y32623D01*
X924750Y34848D01*
Y37152D01*
X924154Y39377D01*
X923002Y41373D01*
X921373Y43002D01*
X919377Y44154D01*
X917152Y44750D01*
D02*
G37*
G36*
X828549Y40250D02*
X825851D01*
X823244Y39551D01*
X820906Y38202D01*
X818998Y36294D01*
X817648Y33956D01*
X816950Y31349D01*
Y28651D01*
X817648Y26044D01*
X818998Y23706D01*
X820906Y21798D01*
X823244Y20449D01*
X825851Y19750D01*
X828549D01*
X831156Y20449D01*
X833494Y21798D01*
X835402Y23706D01*
X836751Y26044D01*
X837450Y28651D01*
Y31349D01*
X836751Y33956D01*
X835402Y36294D01*
X833494Y38202D01*
X831156Y39551D01*
X828549Y40250D01*
D02*
G37*
G36*
X803149D02*
X800451D01*
X797844Y39551D01*
X795506Y38202D01*
X793598Y36294D01*
X792249Y33956D01*
X791550Y31349D01*
Y28651D01*
X792249Y26044D01*
X793598Y23706D01*
X795506Y21798D01*
X797844Y20449D01*
X800451Y19750D01*
X803149D01*
X805756Y20449D01*
X808094Y21798D01*
X810002Y23706D01*
X811351Y26044D01*
X812050Y28651D01*
Y31349D01*
X811351Y33956D01*
X810002Y36294D01*
X808094Y38202D01*
X805756Y39551D01*
X803149Y40250D01*
D02*
G37*
G36*
X777749D02*
X775051D01*
X772444Y39551D01*
X770106Y38202D01*
X768198Y36294D01*
X766849Y33956D01*
X766150Y31349D01*
Y28651D01*
X766849Y26044D01*
X768198Y23706D01*
X770106Y21798D01*
X772444Y20449D01*
X775051Y19750D01*
X777749D01*
X780356Y20449D01*
X782694Y21798D01*
X784602Y23706D01*
X785952Y26044D01*
X786650Y28651D01*
Y31349D01*
X785952Y33956D01*
X784602Y36294D01*
X782694Y38202D01*
X780356Y39551D01*
X777749Y40250D01*
D02*
G37*
G36*
X752349D02*
X749651D01*
X747044Y39551D01*
X744706Y38202D01*
X742798Y36294D01*
X741449Y33956D01*
X740750Y31349D01*
Y28651D01*
X741449Y26044D01*
X742798Y23706D01*
X744706Y21798D01*
X747044Y20449D01*
X749651Y19750D01*
X752349D01*
X754956Y20449D01*
X757294Y21798D01*
X759202Y23706D01*
X760552Y26044D01*
X761250Y28651D01*
Y31349D01*
X760552Y33956D01*
X759202Y36294D01*
X757294Y38202D01*
X754956Y39551D01*
X752349Y40250D01*
D02*
G37*
G36*
X726949D02*
X724251D01*
X721644Y39551D01*
X719306Y38202D01*
X717398Y36294D01*
X716049Y33956D01*
X715350Y31349D01*
Y28651D01*
X716049Y26044D01*
X717398Y23706D01*
X719306Y21798D01*
X721644Y20449D01*
X724251Y19750D01*
X726949D01*
X729556Y20449D01*
X731894Y21798D01*
X733802Y23706D01*
X735152Y26044D01*
X735850Y28651D01*
Y31349D01*
X735152Y33956D01*
X733802Y36294D01*
X731894Y38202D01*
X729556Y39551D01*
X726949Y40250D01*
D02*
G37*
G36*
X701549D02*
X698851D01*
X696244Y39551D01*
X693906Y38202D01*
X691998Y36294D01*
X690648Y33956D01*
X689950Y31349D01*
Y28651D01*
X690648Y26044D01*
X691998Y23706D01*
X693906Y21798D01*
X696244Y20449D01*
X698851Y19750D01*
X701549D01*
X704156Y20449D01*
X706494Y21798D01*
X708402Y23706D01*
X709752Y26044D01*
X710450Y28651D01*
Y31349D01*
X709752Y33956D01*
X708402Y36294D01*
X706494Y38202D01*
X704156Y39551D01*
X701549Y40250D01*
D02*
G37*
G36*
X676149D02*
X673451D01*
X670844Y39551D01*
X668506Y38202D01*
X666598Y36294D01*
X665248Y33956D01*
X664550Y31349D01*
Y28651D01*
X665248Y26044D01*
X666598Y23706D01*
X668506Y21798D01*
X670844Y20449D01*
X673451Y19750D01*
X676149D01*
X678756Y20449D01*
X681094Y21798D01*
X683002Y23706D01*
X684352Y26044D01*
X685050Y28651D01*
Y31349D01*
X684352Y33956D01*
X683002Y36294D01*
X681094Y38202D01*
X678756Y39551D01*
X676149Y40250D01*
D02*
G37*
G36*
X650749D02*
X648051D01*
X645444Y39551D01*
X643106Y38202D01*
X641198Y36294D01*
X639849Y33956D01*
X639150Y31349D01*
Y28651D01*
X639849Y26044D01*
X641198Y23706D01*
X643106Y21798D01*
X645444Y20449D01*
X648051Y19750D01*
X650749D01*
X653356Y20449D01*
X655694Y21798D01*
X657602Y23706D01*
X658951Y26044D01*
X659650Y28651D01*
Y31349D01*
X658951Y33956D01*
X657602Y36294D01*
X655694Y38202D01*
X653356Y39551D01*
X650749Y40250D01*
D02*
G37*
G36*
X625349D02*
X622651D01*
X620044Y39551D01*
X617706Y38202D01*
X615798Y36294D01*
X614449Y33956D01*
X613750Y31349D01*
Y28651D01*
X614449Y26044D01*
X615798Y23706D01*
X617706Y21798D01*
X620044Y20449D01*
X622651Y19750D01*
X625349D01*
X627956Y20449D01*
X630294Y21798D01*
X632202Y23706D01*
X633551Y26044D01*
X634250Y28651D01*
Y31349D01*
X633551Y33956D01*
X632202Y36294D01*
X630294Y38202D01*
X627956Y39551D01*
X625349Y40250D01*
D02*
G37*
G36*
X599949D02*
X597251D01*
X594644Y39551D01*
X592306Y38202D01*
X590398Y36294D01*
X589049Y33956D01*
X588350Y31349D01*
Y28651D01*
X589049Y26044D01*
X590398Y23706D01*
X592306Y21798D01*
X594644Y20449D01*
X597251Y19750D01*
X599949D01*
X602556Y20449D01*
X604894Y21798D01*
X606802Y23706D01*
X608152Y26044D01*
X608850Y28651D01*
Y31349D01*
X608152Y33956D01*
X606802Y36294D01*
X604894Y38202D01*
X602556Y39551D01*
X599949Y40250D01*
D02*
G37*
G36*
X574549D02*
X571851D01*
X569244Y39551D01*
X566906Y38202D01*
X564998Y36294D01*
X563648Y33956D01*
X562950Y31349D01*
Y28651D01*
X563648Y26044D01*
X564998Y23706D01*
X566906Y21798D01*
X569244Y20449D01*
X571851Y19750D01*
X574549D01*
X577156Y20449D01*
X579494Y21798D01*
X581402Y23706D01*
X582752Y26044D01*
X583450Y28651D01*
Y31349D01*
X582752Y33956D01*
X581402Y36294D01*
X579494Y38202D01*
X577156Y39551D01*
X574549Y40250D01*
D02*
G37*
G36*
X549149D02*
X546451D01*
X543844Y39551D01*
X541506Y38202D01*
X539598Y36294D01*
X538248Y33956D01*
X537550Y31349D01*
Y28651D01*
X538248Y26044D01*
X539598Y23706D01*
X541506Y21798D01*
X543844Y20449D01*
X546451Y19750D01*
X549149D01*
X551756Y20449D01*
X554094Y21798D01*
X556002Y23706D01*
X557351Y26044D01*
X558050Y28651D01*
Y31349D01*
X557351Y33956D01*
X556002Y36294D01*
X554094Y38202D01*
X551756Y39551D01*
X549149Y40250D01*
D02*
G37*
G36*
X523749D02*
X521051D01*
X518444Y39551D01*
X516106Y38202D01*
X514198Y36294D01*
X512849Y33956D01*
X512150Y31349D01*
Y28651D01*
X512849Y26044D01*
X514198Y23706D01*
X516106Y21798D01*
X518444Y20449D01*
X521051Y19750D01*
X523749D01*
X526356Y20449D01*
X528694Y21798D01*
X530602Y23706D01*
X531951Y26044D01*
X532650Y28651D01*
Y31349D01*
X531951Y33956D01*
X530602Y36294D01*
X528694Y38202D01*
X526356Y39551D01*
X523749Y40250D01*
D02*
G37*
G36*
X498349D02*
X495651D01*
X493044Y39551D01*
X490706Y38202D01*
X488798Y36294D01*
X487449Y33956D01*
X486750Y31349D01*
Y28651D01*
X487449Y26044D01*
X488798Y23706D01*
X490706Y21798D01*
X493044Y20449D01*
X495651Y19750D01*
X498349D01*
X500956Y20449D01*
X503294Y21798D01*
X505202Y23706D01*
X506552Y26044D01*
X507250Y28651D01*
Y31349D01*
X506552Y33956D01*
X505202Y36294D01*
X503294Y38202D01*
X500956Y39551D01*
X498349Y40250D01*
D02*
G37*
G36*
X472949D02*
X470251D01*
X467644Y39551D01*
X465306Y38202D01*
X463398Y36294D01*
X462048Y33956D01*
X461350Y31349D01*
Y28651D01*
X462048Y26044D01*
X463398Y23706D01*
X465306Y21798D01*
X467644Y20449D01*
X470251Y19750D01*
X472949D01*
X475556Y20449D01*
X477894Y21798D01*
X479802Y23706D01*
X481152Y26044D01*
X481850Y28651D01*
Y31349D01*
X481152Y33956D01*
X479802Y36294D01*
X477894Y38202D01*
X475556Y39551D01*
X472949Y40250D01*
D02*
G37*
G36*
X447549D02*
X444851D01*
X442244Y39551D01*
X439906Y38202D01*
X437998Y36294D01*
X436648Y33956D01*
X435950Y31349D01*
Y28651D01*
X436648Y26044D01*
X437998Y23706D01*
X439906Y21798D01*
X442244Y20449D01*
X444851Y19750D01*
X447549D01*
X450156Y20449D01*
X452494Y21798D01*
X454402Y23706D01*
X455751Y26044D01*
X456450Y28651D01*
Y31349D01*
X455751Y33956D01*
X454402Y36294D01*
X452494Y38202D01*
X450156Y39551D01*
X447549Y40250D01*
D02*
G37*
G36*
X422149D02*
X419451D01*
X416844Y39551D01*
X414506Y38202D01*
X412598Y36294D01*
X411249Y33956D01*
X410550Y31349D01*
Y28651D01*
X411249Y26044D01*
X412598Y23706D01*
X414506Y21798D01*
X416844Y20449D01*
X419451Y19750D01*
X422149D01*
X424756Y20449D01*
X427094Y21798D01*
X429002Y23706D01*
X430351Y26044D01*
X431050Y28651D01*
Y31349D01*
X430351Y33956D01*
X429002Y36294D01*
X427094Y38202D01*
X424756Y39551D01*
X422149Y40250D01*
D02*
G37*
G36*
X396749D02*
X394051D01*
X391444Y39551D01*
X389106Y38202D01*
X387198Y36294D01*
X385849Y33956D01*
X385150Y31349D01*
Y28651D01*
X385849Y26044D01*
X387198Y23706D01*
X389106Y21798D01*
X391444Y20449D01*
X394051Y19750D01*
X396749D01*
X399356Y20449D01*
X401694Y21798D01*
X403602Y23706D01*
X404952Y26044D01*
X405650Y28651D01*
Y31349D01*
X404952Y33956D01*
X403602Y36294D01*
X401694Y38202D01*
X399356Y39551D01*
X396749Y40250D01*
D02*
G37*
G36*
X371349D02*
X368651D01*
X366044Y39551D01*
X363706Y38202D01*
X361798Y36294D01*
X360448Y33956D01*
X359750Y31349D01*
Y28651D01*
X360448Y26044D01*
X361798Y23706D01*
X363706Y21798D01*
X366044Y20449D01*
X368651Y19750D01*
X371349D01*
X373956Y20449D01*
X376294Y21798D01*
X378202Y23706D01*
X379552Y26044D01*
X380250Y28651D01*
Y31349D01*
X379552Y33956D01*
X378202Y36294D01*
X376294Y38202D01*
X373956Y39551D01*
X371349Y40250D01*
D02*
G37*
G36*
X354850D02*
X334350D01*
Y19750D01*
X354850D01*
Y40250D01*
D02*
G37*
%LPD*%
G36*
X581000Y805000D02*
X206000D01*
Y549000D01*
X259000D01*
Y576000D01*
X306000D01*
Y508000D01*
X391000D01*
Y357000D01*
X339000D01*
Y482000D01*
X31000D01*
Y549000D01*
X102000D01*
Y834000D01*
X581000Y834000D01*
X581000Y805000D01*
D02*
G37*
%LPC*%
G36*
X1306470Y571450D02*
X1303929D01*
X1301475Y570792D01*
X1299275Y569522D01*
X1297478Y567725D01*
X1296208Y565525D01*
X1295550Y563070D01*
Y560530D01*
X1296208Y558075D01*
X1297478Y555875D01*
X1299275Y554078D01*
X1301475Y552808D01*
X1303929Y552150D01*
X1306470D01*
X1308925Y552808D01*
X1311125Y554078D01*
X1312922Y555875D01*
X1314192Y558075D01*
X1314850Y560530D01*
Y563070D01*
X1314192Y565525D01*
X1312922Y567725D01*
X1311125Y569522D01*
X1308925Y570792D01*
X1306470Y571450D01*
D02*
G37*
G36*
X1281071D02*
X1278530D01*
X1276075Y570792D01*
X1273875Y569522D01*
X1272078Y567725D01*
X1270808Y565525D01*
X1270150Y563070D01*
Y560530D01*
X1270808Y558075D01*
X1272078Y555875D01*
X1273875Y554078D01*
X1276075Y552808D01*
X1278530Y552150D01*
X1281071D01*
X1283525Y552808D01*
X1285725Y554078D01*
X1287522Y555875D01*
X1288792Y558075D01*
X1289450Y560530D01*
Y563070D01*
X1288792Y565525D01*
X1287522Y567725D01*
X1285725Y569522D01*
X1283525Y570792D01*
X1281071Y571450D01*
D02*
G37*
%LPD*%
D14*
X2030000Y0D02*
G03*
X2100000Y70000I-0J70000D01*
G01*
Y1080000D02*
G03*
X2030000Y1150000I-70000J0D01*
G01*
X70000Y1150000D02*
G03*
X0Y1080000I0J-70000D01*
G01*
Y70000D02*
G03*
X70000Y0I70000J0D01*
G01*
X2100000Y70000D02*
X2100000Y1080000D01*
X70000Y0D02*
X2030000D01*
X0Y70000D02*
Y1080000D01*
X70000Y1150000D02*
X2030000D01*
D15*
X1354000Y161000D02*
Y506515D01*
X1373000Y525515D01*
X1318000Y125000D02*
X1354000Y161000D01*
X1068523Y110500D02*
X1084677D01*
X392000Y115000D02*
X1064023D01*
X1068523Y110500D01*
X1084677D02*
X1100171Y125994D01*
X351000Y156000D02*
X392000Y115000D01*
X351000Y156000D02*
Y173000D01*
X1100171Y125994D02*
X1133006D01*
X1373000Y890000D02*
X1467000Y984000D01*
X1373000Y525515D02*
Y890000D01*
X1467000Y984000D02*
Y1051000D01*
X1134000Y125000D02*
X1318000D01*
X1073000Y717000D02*
Y1052000D01*
X917800Y561800D02*
X1073000Y717000D01*
Y1052000D02*
X1140000Y1119000D01*
X1399000D02*
X1447000Y1071000D01*
X1140000Y1119000D02*
X1399000D01*
X1302550Y1013550D02*
Y1044450D01*
Y1013550D02*
X1303100Y1013000D01*
X1302000Y1045000D02*
X1302550Y1044450D01*
D20*
X1286900Y1013000D02*
D03*
X1303100D02*
D03*
D61*
X1406000Y36000D02*
Y128000D01*
X1380000Y154000D02*
X1406000Y128000D01*
X1518968Y107000D02*
X1562000D01*
X1624545Y37455D02*
X1626000Y36000D01*
X1624545Y37455D02*
Y44455D01*
X1562000Y107000D02*
X1624545Y44455D01*
X1346500Y411000D02*
X1347000Y410500D01*
Y389000D02*
Y410500D01*
X1365000Y526000D02*
Y695000D01*
X1337850Y498850D02*
X1365000Y526000D01*
X1302847Y589553D02*
X1305200Y587200D01*
X662600Y881800D02*
X716600D01*
X742000Y907200D01*
X665940Y796000D02*
X686426Y816486D01*
Y822426D02*
X687000Y823000D01*
X571000Y796000D02*
X665940D01*
X686426Y816486D02*
Y822426D01*
X736000Y818000D02*
X749000D01*
X762000Y831000D02*
X1005188D01*
X749000Y818000D02*
X762000Y831000D01*
X662600D02*
X723000D01*
X736000Y818000D01*
X1005188Y831000D02*
X1007188Y833000D01*
X1008000D01*
X721123Y843000D02*
X1008000D01*
X707723Y856400D02*
X721123Y843000D01*
X662600Y856400D02*
X707723D01*
X1380000Y564200D02*
X1403500Y587700D01*
X1385000Y158632D02*
Y534168D01*
X1399832Y549000D01*
X1385000Y158632D02*
X1431000Y112632D01*
X1380000Y154000D02*
Y564200D01*
X1399832Y549000D02*
X1406000D01*
X1416588Y565756D02*
X1425250Y574419D01*
X1406000Y549000D02*
X1416588Y559588D01*
X1425250Y574419D02*
X1431387D01*
X1416588Y559588D02*
Y565756D01*
X1427000Y984000D02*
Y1051000D01*
X1353000Y696000D02*
Y910000D01*
X1427000Y984000D01*
X1133006Y125994D02*
X1134000Y125000D01*
X1293050Y498850D02*
X1337850D01*
X1327750Y369750D02*
X1347000Y389000D01*
X1300582Y369750D02*
X1327750D01*
X1390000Y513768D02*
X1400475Y524244D01*
X1390000Y204432D02*
X1401207Y193225D01*
X1390000Y204432D02*
Y513768D01*
X1403500Y613100D02*
X1414650Y624250D01*
X1433519D01*
X1445050Y612719D01*
X1038303Y672303D02*
X1080000Y714000D01*
X1038303Y671697D02*
Y672303D01*
X1080000Y714000D02*
Y1050515D01*
X1142485Y1113000D01*
X1929000Y619906D02*
X1945000Y603906D01*
Y193000D02*
Y603906D01*
Y193000D02*
X1961000Y177000D01*
X1514000Y870000D02*
Y1024000D01*
X1487000Y1051000D02*
X1514000Y1024000D01*
X1279800Y358600D02*
X1282153Y360953D01*
X1291785D01*
X1300582Y369750D01*
X1961000Y177000D02*
X1970000D01*
X1467000Y1071000D02*
X1509000Y1113000D01*
X1861000D01*
X1929000Y1045000D01*
Y619906D02*
Y1045000D01*
X1433519Y551150D02*
X1445050Y562682D01*
X1417088Y540856D02*
X1427382Y551150D01*
X1433519D01*
X1445050Y562682D02*
Y612719D01*
X1431387Y574419D02*
X1440050Y583082D01*
X1417088Y534719D02*
Y540856D01*
X1406612Y524244D02*
X1417088Y534719D01*
X1400475Y524244D02*
X1406612D01*
X1279800Y485600D02*
X1293050Y498850D01*
X1385000Y1113000D02*
X1427000Y1071000D01*
X1142485Y1113000D02*
X1385000D01*
X1285000Y108000D02*
X1306000D01*
X1306500Y108500D01*
X1260000Y275000D02*
Y338800D01*
X1279800Y358600D01*
X1428900Y613100D02*
X1440050Y601950D01*
Y583082D02*
Y601950D01*
X1417750Y202082D02*
Y246350D01*
X1428900Y257500D01*
X1407343Y193225D02*
X1416200Y184368D01*
Y178232D02*
X1427382Y167050D01*
X1416200Y178232D02*
Y184368D01*
X1401207Y193225D02*
X1407343D01*
X1433519Y167050D02*
X1456000Y144568D01*
X1427382Y167050D02*
X1433519D01*
X1417750Y202082D02*
X1427382Y192450D01*
X1433519D01*
X1456000Y36000D02*
Y144568D01*
X1433519Y192450D02*
X1518968Y107000D01*
X1523600Y112000D02*
X1820000D01*
X1428900Y206700D02*
X1523600Y112000D01*
X1261000Y84000D02*
X1285000Y108000D01*
X1979000Y199000D02*
X2012100Y232100D01*
X1970000Y177000D02*
X1999700Y206700D01*
X2013100D01*
X2012100Y232100D02*
X2013100D01*
X1261000Y36000D02*
Y84000D01*
X1431000Y36000D02*
Y112632D01*
X1403500Y155900D02*
X1441250Y118150D01*
Y36254D02*
X1451754Y25750D01*
X1441250Y36254D02*
Y118150D01*
X1451754Y25750D02*
X1470750D01*
X1820000Y112000D02*
X1896000Y36000D01*
X2038500Y206700D02*
X2038650D01*
X2071500Y157094D02*
X2071964Y156630D01*
X2071500Y157094D02*
Y173850D01*
X2038650Y206700D02*
X2071500Y173850D01*
X2075310Y226000D02*
X2076112D01*
X2070101Y231208D02*
X2075310Y226000D01*
X2067980Y231208D02*
X2070101D01*
X2041688Y257500D02*
X2067980Y231208D01*
X2038500Y257500D02*
X2041688D01*
X2057484Y255708D02*
Y263916D01*
Y255708D02*
X2063112Y250080D01*
X2038500Y282900D02*
X2057484Y263916D01*
X1470750Y25750D02*
X1481000Y36000D01*
D62*
X742000Y907200D02*
D03*
D63*
Y881800D02*
D03*
Y856400D02*
D03*
Y831000D02*
D03*
Y805600D02*
D03*
Y780200D02*
D03*
Y754800D02*
D03*
Y729400D02*
D03*
Y704000D02*
D03*
Y678600D02*
D03*
X662600D02*
D03*
Y704000D02*
D03*
Y729400D02*
D03*
Y754800D02*
D03*
Y780200D02*
D03*
Y805600D02*
D03*
Y831000D02*
D03*
Y856400D02*
D03*
Y881800D02*
D03*
Y907200D02*
D03*
D64*
X1403500Y613100D02*
D03*
X2013100D02*
D03*
X1279800Y612600D02*
D03*
X670200D02*
D03*
D65*
X1403500Y155900D02*
D03*
X1428900Y613100D02*
D03*
X1403500Y587700D02*
D03*
X1428900D02*
D03*
X1403500Y562300D02*
D03*
X1428900D02*
D03*
X1403500Y536900D02*
D03*
X1428900D02*
D03*
X1403500Y511500D02*
D03*
X1428900D02*
D03*
X1403500Y486100D02*
D03*
X1428900D02*
D03*
X1403500Y460700D02*
D03*
X1428900D02*
D03*
X1403500Y435300D02*
D03*
X1428900D02*
D03*
X1403500Y409900D02*
D03*
X1428900D02*
D03*
X1403500Y384500D02*
D03*
X1428900D02*
D03*
X1403500Y359100D02*
D03*
X1428900D02*
D03*
X1403500Y333700D02*
D03*
X1428900D02*
D03*
X1403500Y308300D02*
D03*
X1428900D02*
D03*
X1403500Y282900D02*
D03*
X1428900D02*
D03*
X1403500Y257500D02*
D03*
X1428900D02*
D03*
X1403500Y232100D02*
D03*
X1428900D02*
D03*
X1403500Y206700D02*
D03*
X1428900D02*
D03*
X1403500Y181300D02*
D03*
X1428900D02*
D03*
Y155900D02*
D03*
X2013100D02*
D03*
X2038500Y613100D02*
D03*
X2013100Y587700D02*
D03*
X2038500D02*
D03*
X2013100Y562300D02*
D03*
X2038500D02*
D03*
X2013100Y536900D02*
D03*
X2038500D02*
D03*
X2013100Y511500D02*
D03*
X2038500D02*
D03*
X2013100Y486100D02*
D03*
X2038500D02*
D03*
X2013100Y460700D02*
D03*
X2038500D02*
D03*
X2013100Y435300D02*
D03*
X2038500D02*
D03*
X2013100Y409900D02*
D03*
X2038500D02*
D03*
X2013100Y384500D02*
D03*
X2038500D02*
D03*
X2013100Y359100D02*
D03*
X2038500D02*
D03*
X2013100Y333700D02*
D03*
X2038500D02*
D03*
X2013100Y308300D02*
D03*
X2038500D02*
D03*
X2013100Y282900D02*
D03*
X2038500D02*
D03*
X2013100Y257500D02*
D03*
X2038500D02*
D03*
X2013100Y232100D02*
D03*
X2038500D02*
D03*
X2013100Y206700D02*
D03*
X2038500D02*
D03*
X2013100Y181300D02*
D03*
X2038500D02*
D03*
Y155900D02*
D03*
X1305200Y155400D02*
D03*
Y180800D02*
D03*
X1279800D02*
D03*
X1305200Y206200D02*
D03*
X1279800D02*
D03*
X1305200Y231600D02*
D03*
X1279800D02*
D03*
X1305200Y257000D02*
D03*
X1279800D02*
D03*
X1305200Y282400D02*
D03*
X1279800D02*
D03*
X1305200Y307800D02*
D03*
X1279800D02*
D03*
X1305200Y333200D02*
D03*
X1279800D02*
D03*
X1305200Y358600D02*
D03*
X1279800D02*
D03*
X1305200Y384000D02*
D03*
X1279800D02*
D03*
X1305200Y409400D02*
D03*
X1279800D02*
D03*
X1305200Y434800D02*
D03*
X1279800D02*
D03*
X1305200Y460200D02*
D03*
X1279800D02*
D03*
X1305200Y485600D02*
D03*
X1279800D02*
D03*
X1305200Y511000D02*
D03*
X1279800D02*
D03*
X1305200Y536400D02*
D03*
X1279800D02*
D03*
X1305200Y561800D02*
D03*
X1279800D02*
D03*
X1305200Y587200D02*
D03*
X1279800D02*
D03*
X1305200Y612600D02*
D03*
X1279800Y155400D02*
D03*
X695600D02*
D03*
Y180800D02*
D03*
X670200D02*
D03*
X695600Y206200D02*
D03*
X670200D02*
D03*
X695600Y231600D02*
D03*
X670200D02*
D03*
X695600Y257000D02*
D03*
X670200D02*
D03*
X695600Y282400D02*
D03*
X670200D02*
D03*
X695600Y307800D02*
D03*
X670200D02*
D03*
X695600Y333200D02*
D03*
X670200D02*
D03*
X695600Y358600D02*
D03*
X670200D02*
D03*
X695600Y384000D02*
D03*
X670200D02*
D03*
X695600Y409400D02*
D03*
X670200D02*
D03*
X695600Y434800D02*
D03*
X670200D02*
D03*
X695600Y460200D02*
D03*
X670200D02*
D03*
X695600Y485600D02*
D03*
X670200D02*
D03*
X695600Y511000D02*
D03*
X670200D02*
D03*
X695600Y536400D02*
D03*
X670200D02*
D03*
X695600Y561800D02*
D03*
X670200D02*
D03*
X695600Y587200D02*
D03*
X670200D02*
D03*
X695600Y612600D02*
D03*
X670200Y155400D02*
D03*
D66*
X1809900Y130500D02*
D03*
X1962300Y638500D02*
D03*
X1479700Y651200D02*
D03*
X746400Y650700D02*
D03*
X1229000Y638000D02*
D03*
X1076600Y130000D02*
D03*
D67*
X65000Y515000D02*
D03*
D68*
X61950Y587000D02*
D03*
D69*
X1302000Y1045000D02*
D03*
X1170600D02*
D03*
X1652000D02*
D03*
X1783400D02*
D03*
X164300Y105000D02*
D03*
X295700D02*
D03*
D70*
X1567000Y1071000D02*
D03*
Y1051000D02*
D03*
X1547000Y1071000D02*
D03*
Y1051000D02*
D03*
X1527000Y1071000D02*
D03*
Y1051000D02*
D03*
X1507000Y1071000D02*
D03*
Y1051000D02*
D03*
X1487000Y1071000D02*
D03*
Y1051000D02*
D03*
X1467000Y1071000D02*
D03*
Y1051000D02*
D03*
X1447000Y1071000D02*
D03*
Y1051000D02*
D03*
X1427000Y1071000D02*
D03*
Y1051000D02*
D03*
X1407000Y1071000D02*
D03*
Y1051000D02*
D03*
X1387000Y1071000D02*
D03*
D71*
Y1051000D02*
D03*
D72*
X1481000Y36000D02*
D03*
X1456000D02*
D03*
X1431000D02*
D03*
X1406000D02*
D03*
X1381000D02*
D03*
X1356000D02*
D03*
X916000D02*
D03*
X941000D02*
D03*
X966000D02*
D03*
X991000D02*
D03*
X1016000D02*
D03*
X1041000D02*
D03*
X1796000D02*
D03*
X1821000D02*
D03*
X1846000D02*
D03*
X1871000D02*
D03*
X1896000D02*
D03*
X1921000D02*
D03*
X1576000D02*
D03*
X1601000D02*
D03*
X1626000D02*
D03*
X1651000D02*
D03*
X1676000D02*
D03*
X1701000D02*
D03*
X1136000D02*
D03*
X1161000D02*
D03*
X1186000D02*
D03*
X1211000D02*
D03*
X1236000D02*
D03*
X1261000D02*
D03*
X566000Y1003000D02*
D03*
Y978000D02*
D03*
Y953000D02*
D03*
X221000Y1003000D02*
D03*
Y978000D02*
D03*
Y953000D02*
D03*
X286000Y1003000D02*
D03*
Y978000D02*
D03*
Y953000D02*
D03*
X362000Y1003000D02*
D03*
Y978000D02*
D03*
Y953000D02*
D03*
X426000Y1003000D02*
D03*
Y978000D02*
D03*
Y953000D02*
D03*
X502000Y1003000D02*
D03*
Y978000D02*
D03*
Y953000D02*
D03*
D73*
X1331000Y36000D02*
D03*
X891000D02*
D03*
X1771000D02*
D03*
X1551000D02*
D03*
X1111000D02*
D03*
D74*
X566000Y1028000D02*
D03*
X221000D02*
D03*
X286000D02*
D03*
X362000D02*
D03*
X426000D02*
D03*
X502000D02*
D03*
D75*
X344600Y30000D02*
D03*
D76*
Y55400D02*
D03*
X370000Y30000D02*
D03*
Y55400D02*
D03*
X395400Y30000D02*
D03*
Y55400D02*
D03*
X420800Y30000D02*
D03*
Y55400D02*
D03*
X446200Y30000D02*
D03*
Y55400D02*
D03*
X471600Y30000D02*
D03*
Y55400D02*
D03*
X497000Y30000D02*
D03*
Y55400D02*
D03*
X522400Y30000D02*
D03*
Y55400D02*
D03*
X547800Y30000D02*
D03*
Y55400D02*
D03*
X573200Y30000D02*
D03*
Y55400D02*
D03*
X598600Y30000D02*
D03*
Y55400D02*
D03*
X624000Y30000D02*
D03*
Y55400D02*
D03*
X649400Y30000D02*
D03*
Y55400D02*
D03*
X674800Y30000D02*
D03*
Y55400D02*
D03*
X700200Y30000D02*
D03*
Y55400D02*
D03*
X725600Y30000D02*
D03*
Y55400D02*
D03*
X751000Y30000D02*
D03*
Y55400D02*
D03*
X776400Y30000D02*
D03*
Y55400D02*
D03*
X801800Y30000D02*
D03*
Y55400D02*
D03*
X827200Y30000D02*
D03*
Y55400D02*
D03*
D77*
X222000Y846000D02*
D03*
X291000Y846000D02*
D03*
X363000D02*
D03*
X432000D02*
D03*
X501000D02*
D03*
X571000D02*
D03*
D78*
X222000Y821000D02*
D03*
Y796000D02*
D03*
X291000Y821000D02*
D03*
Y796000D02*
D03*
X363000Y821000D02*
D03*
Y796000D02*
D03*
X432000Y821000D02*
D03*
Y796000D02*
D03*
X501000Y821000D02*
D03*
Y796000D02*
D03*
X571000D02*
D03*
Y821000D02*
D03*
D79*
X70000Y1080000D02*
D03*
Y70000D02*
D03*
X2030000D02*
D03*
Y1080000D02*
D03*
D80*
X253238Y406856D02*
D03*
X267970D02*
D03*
X268224Y422096D02*
D03*
X253492D02*
D03*
X380746Y514140D02*
D03*
X366746D02*
D03*
X365222Y418084D02*
D03*
X379222D02*
D03*
X351222D02*
D03*
Y433704D02*
D03*
X365222D02*
D03*
X379222D02*
D03*
X351222Y448436D02*
D03*
X365222D02*
D03*
X379222D02*
D03*
X295910Y524382D02*
D03*
X281910D02*
D03*
X267910D02*
D03*
X253238Y392490D02*
D03*
Y378490D02*
D03*
Y364490D02*
D03*
X367000Y529380D02*
D03*
X381000D02*
D03*
X295910Y509650D02*
D03*
X281910D02*
D03*
X267910D02*
D03*
X212600Y642620D02*
D03*
X1617000Y1033000D02*
D03*
X1610000D02*
D03*
X432816Y372618D02*
D03*
X416816Y356618D02*
D03*
X432816D02*
D03*
X416816Y372618D02*
D03*
Y340618D02*
D03*
X432816D02*
D03*
Y292618D02*
D03*
X416816D02*
D03*
Y324618D02*
D03*
X432816Y308618D02*
D03*
X416816D02*
D03*
X432816Y324618D02*
D03*
X228600Y594620D02*
D03*
X212600Y578620D02*
D03*
X228600D02*
D03*
X212600Y594620D02*
D03*
Y562620D02*
D03*
X228600D02*
D03*
Y610620D02*
D03*
X212600D02*
D03*
X228600Y626620D02*
D03*
X381000Y544000D02*
D03*
X367000D02*
D03*
Y558000D02*
D03*
X381000D02*
D03*
Y572000D02*
D03*
X367000D02*
D03*
X212600Y626620D02*
D03*
X267970Y392490D02*
D03*
Y378490D02*
D03*
Y364490D02*
D03*
X228600Y642620D02*
D03*
X1373000Y429000D02*
D03*
X1362000Y401000D02*
D03*
Y410000D02*
D03*
Y418000D02*
D03*
X1373000Y444000D02*
D03*
Y437000D02*
D03*
X1346500Y411000D02*
D03*
X1354000Y554000D02*
D03*
Y562000D02*
D03*
Y570000D02*
D03*
X351000Y173000D02*
D03*
X267910Y494030D02*
D03*
X295910D02*
D03*
X281910D02*
D03*
X687000Y823000D02*
D03*
X1008000Y833000D02*
D03*
Y843000D02*
D03*
X1365000Y695000D02*
D03*
X1353000Y696000D02*
D03*
X1038303Y671697D02*
D03*
X1514000Y870000D02*
D03*
X1945000Y193000D02*
D03*
X1306500Y108500D02*
D03*
X1260000Y275000D02*
D03*
X1979000Y199000D02*
D03*
X2071964Y156630D02*
D03*
X2076112Y226000D02*
D03*
X2063112Y250080D02*
D03*
M02*
