G04*
G04 #@! TF.GenerationSoftware,Altium Limited,Altium Designer,21.2.0 (30)*
G04*
G04 Layer_Physical_Order=1*
G04 Layer_Color=255*
%FSLAX44Y44*%
%MOMM*%
G71*
G04*
G04 #@! TF.SameCoordinates,3F68380A-C471-43A9-BBDE-A44CCE961C07*
G04*
G04*
G04 #@! TF.FilePolarity,Positive*
G04*
G01*
G75*
%ADD14C,0.2540*%
%ADD15C,0.5000*%
%ADD16R,2.1600X1.0200*%
%ADD17R,6.9900X8.3300*%
%ADD18R,1.9100X1.2350*%
%ADD19R,1.1200X2.8800*%
%ADD20R,1.1000X1.5700*%
%ADD21R,1.4700X1.0200*%
%ADD22R,0.9000X1.4500*%
%ADD23R,1.5700X1.1000*%
%ADD24R,19.2000X6.3000*%
%ADD25R,3.3600X4.8600*%
%ADD26R,1.3900X1.4000*%
%ADD27R,3.8500X2.1000*%
%ADD28R,3.5500X1.8500*%
%ADD61C,0.3000*%
%ADD62R,1.1300X1.1300*%
%ADD63C,1.1300*%
%ADD64R,1.5300X1.5300*%
%ADD65C,1.5300*%
%ADD66C,3.0000*%
%ADD67C,6.0000*%
%ADD68R,6.0000X6.0000*%
%ADD69C,3.5400*%
%ADD70C,1.4300*%
%ADD71R,1.4300X1.4300*%
%ADD72C,1.3500*%
%ADD73R,1.3500X1.3500*%
%ADD74R,1.3500X1.3500*%
%ADD75R,1.6500X1.6500*%
%ADD76C,1.6500*%
%ADD77R,1.2000X1.2000*%
%ADD78C,1.2000*%
%ADD79C,7.4000*%
%ADD80C,0.6000*%
G36*
X1623000Y1105039D02*
X1537000D01*
X1536803Y1105000D01*
X1535000D01*
Y1103197D01*
X1534961Y1103000D01*
Y1063270D01*
X1533691Y1062000D01*
X1517000Y1062000D01*
Y1121000D01*
X1623000D01*
X1623000Y1105039D01*
D02*
G37*
G36*
X1674961Y995000D02*
X1674869Y994888D01*
X1622686D01*
X1573368Y1044207D01*
Y1044428D01*
X1574322Y1045382D01*
X1575526Y1047468D01*
X1576150Y1049795D01*
Y1052205D01*
X1575526Y1054532D01*
X1574322Y1056618D01*
X1572618Y1058322D01*
X1570532Y1059526D01*
X1568205Y1060150D01*
X1565795D01*
X1563468Y1059526D01*
X1561382Y1058322D01*
X1559678Y1056618D01*
X1558474Y1054532D01*
X1557850Y1052205D01*
Y1049795D01*
X1558348Y1047937D01*
X1557209Y1047279D01*
X1555842Y1048646D01*
X1556150Y1049795D01*
Y1052205D01*
X1555526Y1054532D01*
X1554322Y1056618D01*
X1552618Y1058322D01*
X1551979Y1058691D01*
X1552319Y1059961D01*
X1557000D01*
X1557780Y1060116D01*
X1558442Y1060558D01*
X1558884Y1061220D01*
X1559039Y1062000D01*
Y1064225D01*
X1560309Y1064751D01*
X1561382Y1063678D01*
X1563468Y1062474D01*
X1565795Y1061850D01*
X1568205D01*
X1570532Y1062474D01*
X1572618Y1063678D01*
X1574322Y1065382D01*
X1575526Y1067468D01*
X1576150Y1069795D01*
Y1072205D01*
X1575526Y1074532D01*
X1574322Y1076618D01*
X1573249Y1077691D01*
X1573775Y1078961D01*
X1674961D01*
Y995000D01*
D02*
G37*
G36*
X1758000Y995000D02*
X1747000D01*
Y1025000D01*
X1735300D01*
Y1025600D01*
X1720100D01*
Y1025000D01*
X1715300D01*
Y1025600D01*
X1700100D01*
Y1025000D01*
X1690300D01*
Y1025600D01*
X1690039D01*
Y1103000D01*
X1690000Y1103197D01*
Y1105000D01*
X1688197D01*
X1688000Y1105039D01*
X1629000D01*
Y1121000D01*
X1758000D01*
Y995000D01*
D02*
G37*
G36*
X1688000D02*
X1677000D01*
Y1081000D01*
X1557000D01*
Y1062000D01*
X1537000D01*
Y1103000D01*
X1688000D01*
Y995000D01*
D02*
G37*
G36*
X2037469Y1146289D02*
X2044844Y1145035D01*
X2052032Y1142965D01*
X2058943Y1140102D01*
X2065491Y1136483D01*
X2071592Y1132154D01*
X2077170Y1127170D01*
X2082154Y1121592D01*
X2086483Y1115491D01*
X2090102Y1108943D01*
X2092964Y1102032D01*
X2095035Y1094844D01*
X2096288Y1087469D01*
X2096699Y1080165D01*
X2096666Y1080000D01*
X2096666Y526475D01*
X2095396Y526090D01*
X2095135Y526480D01*
X2043587Y578028D01*
X2043760Y579594D01*
X2044425Y579978D01*
X2046222Y581775D01*
X2047492Y583975D01*
X2048150Y586429D01*
Y588970D01*
X2047492Y591425D01*
X2046222Y593625D01*
X2044425Y595422D01*
X2042225Y596692D01*
X2039771Y597350D01*
X2037230D01*
X2034775Y596692D01*
X2032575Y595422D01*
X2030778Y593625D01*
X2029508Y591425D01*
X2028850Y588970D01*
Y586429D01*
X2029508Y583975D01*
X2030778Y581775D01*
X2031582Y580971D01*
X2031056Y579701D01*
X2026146D01*
X2022012Y583835D01*
X2022092Y583975D01*
X2022750Y586429D01*
Y588970D01*
X2022092Y591425D01*
X2020822Y593625D01*
X2019025Y595422D01*
X2016825Y596692D01*
X2014371Y597350D01*
X2011830D01*
X2009375Y596692D01*
X2007175Y595422D01*
X2005378Y593625D01*
X2004108Y591425D01*
X2003450Y588970D01*
Y586429D01*
X2004108Y583975D01*
X2005378Y581775D01*
X2007175Y579978D01*
X2009375Y578708D01*
X2011830Y578050D01*
X2014371D01*
X2016825Y578708D01*
X2016965Y578788D01*
X2022144Y573609D01*
X2023302Y572836D01*
X2024668Y572564D01*
X2034614D01*
X2034781Y571294D01*
X2034775Y571292D01*
X2032575Y570022D01*
X2030778Y568225D01*
X2029508Y566025D01*
X2028850Y563571D01*
Y561030D01*
X2029508Y558575D01*
X2030778Y556375D01*
X2032575Y554578D01*
X2034775Y553308D01*
X2037230Y552650D01*
X2039771D01*
X2042225Y553308D01*
X2042365Y553388D01*
X2084043Y511710D01*
Y447263D01*
X2082870Y446777D01*
X2047411Y482235D01*
X2047492Y482375D01*
X2048150Y484829D01*
Y487370D01*
X2047492Y489825D01*
X2046222Y492025D01*
X2044425Y493822D01*
X2042225Y495092D01*
X2039771Y495750D01*
X2037230D01*
X2034775Y495092D01*
X2032575Y493822D01*
X2030778Y492025D01*
X2029508Y489825D01*
X2028850Y487370D01*
Y484829D01*
X2029508Y482375D01*
X2030778Y480175D01*
X2032575Y478378D01*
X2034775Y477108D01*
X2037230Y476450D01*
X2039771D01*
X2042225Y477108D01*
X2042365Y477188D01*
X2079043Y440510D01*
Y231572D01*
X2077773Y230724D01*
X2077107Y231000D01*
X2075117D01*
X2074451Y230724D01*
X2073181Y231572D01*
Y429588D01*
X2072909Y430953D01*
X2072135Y432111D01*
X2047411Y456835D01*
X2047492Y456975D01*
X2048150Y459430D01*
Y461970D01*
X2047492Y464425D01*
X2046222Y466625D01*
X2044425Y468422D01*
X2042225Y469692D01*
X2039771Y470350D01*
X2037230D01*
X2034775Y469692D01*
X2032575Y468422D01*
X2030778Y466625D01*
X2029508Y464425D01*
X2028850Y461970D01*
Y459430D01*
X2029508Y456975D01*
X2030778Y454775D01*
X2032575Y452978D01*
X2034775Y451708D01*
X2037230Y451050D01*
X2039771D01*
X2042225Y451708D01*
X2042365Y451788D01*
X2066044Y428110D01*
Y255653D01*
X2064774Y254804D01*
X2064107Y255080D01*
X2062117D01*
X2060280Y254319D01*
X2059489Y253528D01*
X2058219Y254054D01*
Y289590D01*
X2057947Y290955D01*
X2057173Y292113D01*
X2053569Y295718D01*
Y366000D01*
X2053297Y367366D01*
X2052523Y368523D01*
X2047523Y373523D01*
X2046366Y374297D01*
X2045000Y374569D01*
X2043138D01*
X2042798Y375839D01*
X2044425Y376778D01*
X2046222Y378575D01*
X2047492Y380775D01*
X2048150Y383229D01*
Y385770D01*
X2047492Y388225D01*
X2046222Y390425D01*
X2044425Y392222D01*
X2042225Y393492D01*
X2039771Y394150D01*
X2037230D01*
X2034775Y393492D01*
X2032575Y392222D01*
X2030778Y390425D01*
X2029508Y388225D01*
X2028850Y385770D01*
Y383229D01*
X2029508Y380775D01*
X2030778Y378575D01*
X2032575Y376778D01*
X2034202Y375839D01*
X2033862Y374569D01*
X2028078D01*
X2022012Y380635D01*
X2022092Y380775D01*
X2022750Y383229D01*
Y385770D01*
X2022092Y388225D01*
X2020822Y390425D01*
X2019025Y392222D01*
X2016825Y393492D01*
X2014371Y394150D01*
X2011830D01*
X2009375Y393492D01*
X2007175Y392222D01*
X2005378Y390425D01*
X2004108Y388225D01*
X2003450Y385770D01*
Y383229D01*
X2004108Y380775D01*
X2005378Y378575D01*
X2007175Y376778D01*
X2009375Y375508D01*
X2011830Y374850D01*
X2014371D01*
X2016825Y375508D01*
X2016965Y375588D01*
X2024077Y368477D01*
X2025234Y367703D01*
X2026600Y367431D01*
X2031388D01*
X2031914Y366161D01*
X2030778Y365025D01*
X2029508Y362825D01*
X2028850Y360370D01*
Y357830D01*
X2029508Y355375D01*
X2030778Y353175D01*
X2032575Y351378D01*
X2034775Y350108D01*
X2037230Y349450D01*
X2039771D01*
X2042225Y350108D01*
X2044425Y351378D01*
X2045161Y352114D01*
X2046431Y351588D01*
Y341212D01*
X2045161Y340686D01*
X2044425Y341422D01*
X2042225Y342692D01*
X2039771Y343350D01*
X2037230D01*
X2034775Y342692D01*
X2032575Y341422D01*
X2030778Y339625D01*
X2029508Y337425D01*
X2028850Y334971D01*
Y332430D01*
X2029508Y329975D01*
X2030778Y327775D01*
X2032575Y325978D01*
X2034775Y324708D01*
X2037230Y324050D01*
X2039771D01*
X2042225Y324708D01*
X2044425Y325978D01*
X2045161Y326714D01*
X2046431Y326188D01*
Y315812D01*
X2045161Y315286D01*
X2044425Y316022D01*
X2042225Y317292D01*
X2039771Y317950D01*
X2037230D01*
X2034775Y317292D01*
X2032575Y316022D01*
X2030778Y314225D01*
X2029508Y312025D01*
X2028850Y309571D01*
Y307029D01*
X2029508Y304575D01*
X2030778Y302375D01*
X2032575Y300578D01*
X2034775Y299308D01*
X2037230Y298650D01*
X2037285D01*
Y296315D01*
X2037557Y294949D01*
X2038311Y293820D01*
X2038208Y293265D01*
X2037912Y292550D01*
X2037230D01*
X2034775Y291892D01*
X2032575Y290622D01*
X2030778Y288825D01*
X2029508Y286625D01*
X2028850Y284170D01*
Y281630D01*
X2029508Y279175D01*
X2030778Y276975D01*
X2032575Y275178D01*
X2034775Y273908D01*
X2037230Y273250D01*
X2039771D01*
X2042225Y273908D01*
X2044425Y275178D01*
X2044908Y275661D01*
X2046081Y275175D01*
Y265225D01*
X2044908Y264739D01*
X2044425Y265222D01*
X2042225Y266492D01*
X2039771Y267150D01*
X2037230D01*
X2034775Y266492D01*
X2032575Y265222D01*
X2030778Y263425D01*
X2029508Y261225D01*
X2028850Y258771D01*
Y256229D01*
X2029508Y253775D01*
X2030778Y251575D01*
X2032575Y249778D01*
X2034775Y248508D01*
X2037230Y247850D01*
X2039771D01*
X2042225Y248508D01*
X2044425Y249778D01*
X2044908Y250261D01*
X2046081Y249775D01*
Y239825D01*
X2044908Y239339D01*
X2044425Y239822D01*
X2042225Y241092D01*
X2039771Y241750D01*
X2037230D01*
X2034775Y241092D01*
X2032575Y239822D01*
X2030778Y238025D01*
X2029508Y235825D01*
X2028850Y233370D01*
Y230830D01*
X2029508Y228375D01*
X2030778Y226175D01*
X2032575Y224378D01*
X2034775Y223108D01*
X2037230Y222450D01*
X2039771D01*
X2042225Y223108D01*
X2044425Y224378D01*
X2044908Y224861D01*
X2046081Y224375D01*
Y214425D01*
X2044908Y213939D01*
X2044425Y214422D01*
X2042225Y215692D01*
X2039771Y216350D01*
X2037230D01*
X2034775Y215692D01*
X2032575Y214422D01*
X2030778Y212625D01*
X2029508Y210425D01*
X2028850Y207971D01*
Y205429D01*
X2029508Y202975D01*
X2030778Y200775D01*
X2032575Y198978D01*
X2034775Y197708D01*
X2036000Y197379D01*
X2035833Y196109D01*
X2015767D01*
X2015600Y197379D01*
X2016825Y197708D01*
X2019025Y198978D01*
X2020822Y200775D01*
X2022092Y202975D01*
X2022750Y205429D01*
Y207971D01*
X2022092Y210425D01*
X2020822Y212625D01*
X2019025Y214422D01*
X2016825Y215692D01*
X2014371Y216350D01*
X2011830D01*
X2009375Y215692D01*
X2007175Y214422D01*
X2005378Y212625D01*
X2004108Y210425D01*
X2003450Y207971D01*
Y205429D01*
X2004108Y202975D01*
X2005378Y200775D01*
X2007175Y198978D01*
X2009375Y197708D01*
X2010600Y197379D01*
X2010433Y196109D01*
X2004541D01*
X2003175Y195838D01*
X2002017Y195064D01*
X1995742Y188789D01*
X1994569Y189275D01*
Y233922D01*
X2009235Y248589D01*
X2009375Y248508D01*
X2011830Y247850D01*
X2014371D01*
X2016825Y248508D01*
X2019025Y249778D01*
X2020822Y251575D01*
X2022092Y253775D01*
X2022750Y256229D01*
Y258771D01*
X2022092Y261225D01*
X2020822Y263425D01*
X2019025Y265222D01*
X2016825Y266492D01*
X2014371Y267150D01*
X2011830D01*
X2009375Y266492D01*
X2007175Y265222D01*
X2005378Y263425D01*
X2004108Y261225D01*
X2003450Y258771D01*
Y256229D01*
X2004108Y253775D01*
X2004189Y253635D01*
X1990242Y239689D01*
X1989069Y240175D01*
Y253822D01*
X2009235Y273988D01*
X2009375Y273908D01*
X2011830Y273250D01*
X2014371D01*
X2016825Y273908D01*
X2019025Y275178D01*
X2020822Y276975D01*
X2022092Y279175D01*
X2022750Y281630D01*
Y284170D01*
X2022092Y286625D01*
X2020822Y288825D01*
X2019025Y290622D01*
X2016825Y291892D01*
X2014371Y292550D01*
X2011830D01*
X2009375Y291892D01*
X2007175Y290622D01*
X2005378Y288825D01*
X2004108Y286625D01*
X2003450Y284170D01*
Y281630D01*
X2004108Y279175D01*
X2004189Y279035D01*
X1982977Y257823D01*
X1982203Y256666D01*
X1981931Y255300D01*
Y204572D01*
X1980661Y203724D01*
X1979995Y204000D01*
X1978005D01*
X1977339Y203724D01*
X1976069Y204572D01*
Y317022D01*
X2009235Y350188D01*
X2009375Y350108D01*
X2011830Y349450D01*
X2014371D01*
X2016825Y350108D01*
X2019025Y351378D01*
X2020822Y353175D01*
X2022092Y355375D01*
X2022750Y357830D01*
Y360370D01*
X2022092Y362825D01*
X2020822Y365025D01*
X2019025Y366822D01*
X2016825Y368092D01*
X2014371Y368750D01*
X2011830D01*
X2009375Y368092D01*
X2007175Y366822D01*
X2005700Y365347D01*
X1939569Y431478D01*
Y780000D01*
X1939297Y781366D01*
X1938523Y782523D01*
X1897523Y823523D01*
X1896366Y824297D01*
X1895000Y824569D01*
X1553478D01*
X1517569Y860478D01*
Y866497D01*
X1518239Y867168D01*
X1519000Y869006D01*
Y870995D01*
X1518239Y872832D01*
X1516832Y874239D01*
X1514995Y875000D01*
X1513005D01*
X1512938Y874972D01*
X1512218Y876049D01*
X1516523Y880354D01*
X1517297Y881511D01*
X1517569Y882877D01*
Y1036522D01*
X1523509Y1042463D01*
X1525795Y1041850D01*
X1528205D01*
X1530491Y1042463D01*
X1534431Y1038522D01*
Y885000D01*
X1534703Y883634D01*
X1535477Y882477D01*
X1557477Y860477D01*
X1558634Y859703D01*
X1560000Y859431D01*
X1903522D01*
X1979431Y783522D01*
Y644883D01*
X1978161Y644630D01*
X1977365Y646553D01*
X1975505Y649337D01*
X1973137Y651705D01*
X1970352Y653565D01*
X1967259Y654847D01*
X1963974Y655500D01*
X1960626D01*
X1957341Y654847D01*
X1954247Y653565D01*
X1951463Y651705D01*
X1949095Y649337D01*
X1947235Y646553D01*
X1945953Y643459D01*
X1945300Y640174D01*
Y636826D01*
X1945953Y633541D01*
X1947235Y630448D01*
X1949095Y627663D01*
X1951463Y625295D01*
X1954247Y623435D01*
X1957341Y622153D01*
X1960626Y621500D01*
X1963974D01*
X1967259Y622153D01*
X1970352Y623435D01*
X1973137Y625295D01*
X1975505Y627663D01*
X1977365Y630448D01*
X1978161Y632370D01*
X1979431Y632117D01*
Y514000D01*
X1979703Y512634D01*
X1980477Y511477D01*
X2003689Y488264D01*
X2003450Y487370D01*
Y484829D01*
X2004108Y482375D01*
X2005378Y480175D01*
X2007175Y478378D01*
X2009375Y477108D01*
X2011830Y476450D01*
X2014371D01*
X2016825Y477108D01*
X2019025Y478378D01*
X2020822Y480175D01*
X2022092Y482375D01*
X2022750Y484829D01*
Y487370D01*
X2022092Y489825D01*
X2020822Y492025D01*
X2019025Y493822D01*
X2016825Y495092D01*
X2014371Y495750D01*
X2011830D01*
X2009375Y495092D01*
X2007841Y494206D01*
X1986569Y515478D01*
Y785000D01*
X1986297Y786366D01*
X1985523Y787523D01*
X1907523Y865523D01*
X1906366Y866297D01*
X1905000Y866569D01*
X1561478D01*
X1541569Y886478D01*
Y1040000D01*
X1541297Y1041366D01*
X1540523Y1042523D01*
X1535537Y1047509D01*
X1536150Y1049795D01*
Y1052205D01*
X1535526Y1054532D01*
X1534322Y1056618D01*
X1532618Y1058322D01*
X1531979Y1058691D01*
X1532319Y1059961D01*
X1533691D01*
X1534471Y1060116D01*
X1535345Y1060472D01*
X1536220Y1060116D01*
X1537000Y1059961D01*
X1541681D01*
X1542021Y1058691D01*
X1541382Y1058322D01*
X1539678Y1056618D01*
X1538474Y1054532D01*
X1537850Y1052205D01*
Y1049795D01*
X1538474Y1047468D01*
X1539678Y1045382D01*
X1541382Y1043678D01*
X1543468Y1042474D01*
X1545795Y1041850D01*
X1548205D01*
X1549353Y1042158D01*
X1611456Y980056D01*
X1612944Y979061D01*
X1614700Y978712D01*
X1710600D01*
X1712356Y979061D01*
X1713844Y980056D01*
X1726589Y992800D01*
X1735300D01*
Y1022961D01*
X1744961D01*
Y995000D01*
X1745100Y994300D01*
Y992800D01*
X1760300D01*
Y1025600D01*
X1760039D01*
Y1121000D01*
X1759884Y1121780D01*
X1759442Y1122442D01*
X1758780Y1122884D01*
X1758000Y1123039D01*
X1629000D01*
X1628220Y1122884D01*
X1628169Y1122850D01*
X1626600D01*
Y1122850D01*
X1625400D01*
Y1122850D01*
X1623831D01*
X1623780Y1122884D01*
X1623000Y1123039D01*
X1517000D01*
X1516220Y1122884D01*
X1515558Y1122442D01*
X1515116Y1121780D01*
X1514961Y1121000D01*
Y1062000D01*
X1515116Y1061220D01*
X1515558Y1060558D01*
X1516220Y1060116D01*
X1517000Y1059961D01*
X1521681D01*
X1522021Y1058691D01*
X1521382Y1058322D01*
X1519678Y1056618D01*
X1518474Y1054532D01*
X1517850Y1052205D01*
Y1049795D01*
X1518463Y1047509D01*
X1511839Y1040885D01*
X1510729Y1041332D01*
X1510702Y1042572D01*
X1512618Y1043678D01*
X1514322Y1045382D01*
X1515526Y1047468D01*
X1516150Y1049795D01*
Y1052205D01*
X1515526Y1054532D01*
X1514322Y1056618D01*
X1512618Y1058322D01*
X1510532Y1059526D01*
X1508205Y1060150D01*
X1505795D01*
X1503468Y1059526D01*
X1501382Y1058322D01*
X1499678Y1056618D01*
X1498474Y1054532D01*
X1497850Y1052205D01*
Y1049795D01*
X1498474Y1047468D01*
X1499678Y1045382D01*
X1501382Y1043678D01*
X1503431Y1042495D01*
Y888478D01*
X1344742Y729789D01*
X1343569Y730275D01*
Y872522D01*
X1449523Y978477D01*
X1450297Y979634D01*
X1450569Y981000D01*
Y1042495D01*
X1452618Y1043678D01*
X1454322Y1045382D01*
X1455526Y1047468D01*
X1456150Y1049795D01*
Y1052205D01*
X1455526Y1054532D01*
X1454322Y1056618D01*
X1452618Y1058322D01*
X1450532Y1059526D01*
X1448205Y1060150D01*
X1445795D01*
X1443468Y1059526D01*
X1441382Y1058322D01*
X1439678Y1056618D01*
X1438474Y1054532D01*
X1437850Y1052205D01*
Y1049795D01*
X1438474Y1047468D01*
X1439678Y1045382D01*
X1441382Y1043678D01*
X1443431Y1042495D01*
Y982478D01*
X1337477Y876523D01*
X1336703Y875366D01*
X1336431Y874000D01*
Y152478D01*
X1315522Y131569D01*
X1136478D01*
X1117023Y151023D01*
X1115866Y151797D01*
X1114500Y152069D01*
X1021714D01*
X1020349Y151797D01*
X1019191Y151023D01*
X985736Y117569D01*
X938133D01*
X937646Y118742D01*
X1021536Y202631D01*
X1270766D01*
X1270808Y202475D01*
X1272078Y200275D01*
X1273875Y198478D01*
X1276075Y197208D01*
X1278530Y196550D01*
X1281071D01*
X1283525Y197208D01*
X1285725Y198478D01*
X1287522Y200275D01*
X1288792Y202475D01*
X1289450Y204930D01*
Y207470D01*
X1288792Y209925D01*
X1288712Y210065D01*
X1292855Y214208D01*
X1297765D01*
X1298291Y212938D01*
X1297478Y212125D01*
X1296208Y209925D01*
X1295550Y207470D01*
Y204930D01*
X1296208Y202475D01*
X1297478Y200275D01*
X1299275Y198478D01*
X1301475Y197208D01*
X1303929Y196550D01*
X1306470D01*
X1308925Y197208D01*
X1311125Y198478D01*
X1312922Y200275D01*
X1314192Y202475D01*
X1314850Y204930D01*
Y207470D01*
X1314192Y209925D01*
X1312922Y212125D01*
X1311661Y213387D01*
X1311791Y214886D01*
X1311826Y214936D01*
X1312300Y215253D01*
X1332523Y235477D01*
X1333297Y236634D01*
X1333569Y238000D01*
Y629000D01*
X1333297Y630366D01*
X1332523Y631523D01*
X1092569Y871478D01*
Y1065522D01*
X1149478Y1122431D01*
X1430522D01*
X1478463Y1074491D01*
X1477850Y1072205D01*
Y1069795D01*
X1478474Y1067468D01*
X1479678Y1065382D01*
X1481382Y1063678D01*
X1483468Y1062474D01*
X1485795Y1061850D01*
X1488205D01*
X1490532Y1062474D01*
X1492618Y1063678D01*
X1494322Y1065382D01*
X1495526Y1067468D01*
X1496150Y1069795D01*
Y1072205D01*
X1495526Y1074532D01*
X1494322Y1076618D01*
X1492618Y1078322D01*
X1490532Y1079526D01*
X1488205Y1080150D01*
X1485795D01*
X1483509Y1079537D01*
X1434523Y1128523D01*
X1433366Y1129297D01*
X1432000Y1129569D01*
X1148000D01*
X1146634Y1129297D01*
X1145477Y1128523D01*
X1086477Y1069523D01*
X1085703Y1068366D01*
X1085431Y1067000D01*
Y870000D01*
X1085703Y868634D01*
X1086477Y867477D01*
X1106211Y847742D01*
X1105725Y846569D01*
X1011503D01*
X1010832Y847239D01*
X1008995Y848000D01*
X1007005D01*
X1005168Y847239D01*
X1003761Y845832D01*
X1003000Y843995D01*
Y842005D01*
X1003761Y840168D01*
X1005168Y838761D01*
X1005472Y838635D01*
Y837365D01*
X1005168Y837239D01*
X1003761Y835832D01*
X1003000Y833995D01*
Y832005D01*
X1003761Y830168D01*
X1005168Y828761D01*
X1007005Y828000D01*
X1008995D01*
X1010832Y828761D01*
X1011503Y829431D01*
X1109522D01*
X1315431Y623522D01*
Y616607D01*
X1314192Y616325D01*
X1312922Y618525D01*
X1311125Y620322D01*
X1308925Y621592D01*
X1306470Y622250D01*
X1303929D01*
X1301475Y621592D01*
X1299275Y620322D01*
X1297478Y618525D01*
X1296208Y616325D01*
X1295550Y613871D01*
Y611329D01*
X1296208Y608875D01*
X1297478Y606675D01*
X1299275Y604878D01*
X1301475Y603608D01*
X1303929Y602950D01*
X1306470D01*
X1308925Y603608D01*
X1311125Y604878D01*
X1312922Y606675D01*
X1314192Y608875D01*
X1315431Y608593D01*
Y602478D01*
X1309065Y596111D01*
X1308925Y596192D01*
X1306470Y596850D01*
X1303929D01*
X1301475Y596192D01*
X1299275Y594922D01*
X1297839Y593486D01*
X1296569Y593996D01*
Y599400D01*
X1296297Y600766D01*
X1295523Y601923D01*
X1289450Y607997D01*
Y622250D01*
X1270150D01*
Y602950D01*
X1284403D01*
X1289431Y597922D01*
Y592358D01*
X1288161Y592018D01*
X1287522Y593125D01*
X1285725Y594922D01*
X1283525Y596192D01*
X1281071Y596850D01*
X1278530D01*
X1276075Y596192D01*
X1273875Y594922D01*
X1272078Y593125D01*
X1270808Y590925D01*
X1270150Y588470D01*
Y585929D01*
X1270808Y583475D01*
X1272078Y581275D01*
X1273875Y579478D01*
X1276075Y578208D01*
X1278530Y577550D01*
X1281071D01*
X1283525Y578208D01*
X1285725Y579478D01*
X1287522Y581275D01*
X1288161Y582382D01*
X1289431Y582042D01*
Y566958D01*
X1288161Y566618D01*
X1287522Y567725D01*
X1285725Y569522D01*
X1283525Y570792D01*
X1281071Y571450D01*
X1278530D01*
X1276075Y570792D01*
X1273875Y569522D01*
X1272078Y567725D01*
X1270808Y565525D01*
X1270551Y564569D01*
X1224478D01*
X798273Y990773D01*
X797116Y991547D01*
X795750Y991819D01*
X582447D01*
X581796Y993089D01*
X581884Y993220D01*
X582039Y994000D01*
Y1015000D01*
X581884Y1015780D01*
X581442Y1016442D01*
X581039Y1016711D01*
Y1017000D01*
X580884Y1017780D01*
X580442Y1018442D01*
X579780Y1018884D01*
X579000Y1019039D01*
X104000D01*
X103220Y1018884D01*
X102558Y1018442D01*
X102116Y1017780D01*
X101961Y1017000D01*
Y714000D01*
X102116Y713220D01*
X102558Y712558D01*
X103220Y712116D01*
X104000Y711961D01*
X306961D01*
Y684039D01*
X290000D01*
X289220Y683884D01*
X288558Y683442D01*
X288116Y682780D01*
X287961Y682000D01*
Y629039D01*
X258000D01*
X257220Y628884D01*
X256558Y628442D01*
X256116Y627780D01*
X255961Y627000D01*
Y610000D01*
X256116Y609220D01*
X256558Y608558D01*
X257220Y608116D01*
X258000Y607961D01*
X316000D01*
X316691Y608098D01*
X316819Y608092D01*
X317961Y607377D01*
Y594039D01*
X259000D01*
X258220Y593884D01*
X257558Y593442D01*
X257116Y592780D01*
X256961Y592000D01*
Y579000D01*
X257116Y578220D01*
X257525Y577500D01*
X257116Y576780D01*
X256961Y576000D01*
Y488000D01*
X257116Y487220D01*
X257558Y486558D01*
X258220Y486116D01*
X259000Y485961D01*
X306000D01*
X306780Y486116D01*
X307442Y486558D01*
X307884Y487220D01*
X308039Y488000D01*
Y576000D01*
X309143Y576961D01*
X322850D01*
X323630Y577116D01*
X324292Y577558D01*
X324681Y578141D01*
X340750D01*
X340750Y578141D01*
X341250D01*
X341250Y578141D01*
X357319D01*
X357708Y577558D01*
X358370Y577116D01*
X359150Y576961D01*
X395961D01*
Y491000D01*
X396116Y490220D01*
X396558Y489558D01*
X397220Y489116D01*
X398000Y488961D01*
X599000D01*
X599780Y489116D01*
X600442Y489558D01*
X600884Y490220D01*
X601039Y491000D01*
Y545961D01*
X664920D01*
X665260Y544691D01*
X664275Y544122D01*
X662478Y542325D01*
X661208Y540125D01*
X660550Y537671D01*
Y535130D01*
X661208Y532675D01*
X662478Y530475D01*
X664275Y528678D01*
X666475Y527408D01*
X668930Y526750D01*
X671470D01*
X673925Y527408D01*
X676125Y528678D01*
X677922Y530475D01*
X679192Y532675D01*
X679850Y535130D01*
Y537671D01*
X679192Y540125D01*
X677922Y542325D01*
X676125Y544122D01*
X675140Y544691D01*
X675480Y545961D01*
X690320D01*
X690660Y544691D01*
X689675Y544122D01*
X687878Y542325D01*
X686608Y540125D01*
X685950Y537671D01*
Y535130D01*
X686608Y532675D01*
X687878Y530475D01*
X689675Y528678D01*
X690518Y528191D01*
X690567Y526696D01*
X690308Y526523D01*
X679872Y516087D01*
X678306Y516260D01*
X677922Y516925D01*
X676125Y518722D01*
X673925Y519992D01*
X671470Y520650D01*
X668930D01*
X666475Y519992D01*
X664275Y518722D01*
X662478Y516925D01*
X661208Y514725D01*
X660550Y512271D01*
Y509729D01*
X661208Y507275D01*
X662478Y505075D01*
X664275Y503278D01*
X666475Y502008D01*
X668930Y501350D01*
X671470D01*
X673925Y502008D01*
X676125Y503278D01*
X676929Y504082D01*
X678199Y503556D01*
Y493044D01*
X676929Y492518D01*
X676125Y493322D01*
X673925Y494592D01*
X671470Y495250D01*
X668930D01*
X666475Y494592D01*
X664275Y493322D01*
X662478Y491525D01*
X661208Y489325D01*
X660550Y486870D01*
Y484329D01*
X661208Y481875D01*
X662478Y479675D01*
X664275Y477878D01*
X666475Y476608D01*
X668930Y475950D01*
X671470D01*
X673925Y476608D01*
X676125Y477878D01*
X676929Y478682D01*
X678199Y478156D01*
Y467644D01*
X676929Y467118D01*
X676125Y467922D01*
X673925Y469192D01*
X671470Y469850D01*
X668930D01*
X666475Y469192D01*
X664275Y467922D01*
X662478Y466125D01*
X661208Y463925D01*
X660550Y461470D01*
Y458929D01*
X661208Y456475D01*
X662478Y454275D01*
X664275Y452478D01*
X666475Y451208D01*
X668930Y450550D01*
X671470D01*
X673925Y451208D01*
X676125Y452478D01*
X676929Y453282D01*
X678199Y452756D01*
Y442244D01*
X676929Y441718D01*
X676125Y442522D01*
X673925Y443792D01*
X671470Y444450D01*
X668930D01*
X666475Y443792D01*
X664275Y442522D01*
X662478Y440725D01*
X661208Y438525D01*
X660550Y436071D01*
Y433530D01*
X661208Y431075D01*
X662478Y428875D01*
X664275Y427078D01*
X666475Y425808D01*
X668930Y425150D01*
X671470D01*
X673925Y425808D01*
X676125Y427078D01*
X676929Y427882D01*
X678199Y427356D01*
Y416844D01*
X676929Y416318D01*
X676125Y417122D01*
X673925Y418392D01*
X671470Y419050D01*
X668930D01*
X666475Y418392D01*
X664275Y417122D01*
X662478Y415325D01*
X661208Y413125D01*
X660550Y410671D01*
Y408130D01*
X661208Y405675D01*
X662478Y403475D01*
X664275Y401678D01*
X666475Y400408D01*
X668930Y399750D01*
X671470D01*
X673925Y400408D01*
X676125Y401678D01*
X676929Y402482D01*
X678199Y401956D01*
Y391444D01*
X676929Y390918D01*
X676125Y391722D01*
X673925Y392992D01*
X671470Y393650D01*
X668930D01*
X666475Y392992D01*
X664275Y391722D01*
X662478Y389925D01*
X661208Y387725D01*
X660550Y385271D01*
Y382729D01*
X661208Y380275D01*
X662478Y378075D01*
X664275Y376278D01*
X666475Y375008D01*
X668930Y374350D01*
X671470D01*
X673925Y375008D01*
X676125Y376278D01*
X676929Y377082D01*
X678199Y376556D01*
Y371646D01*
X674065Y367511D01*
X673925Y367592D01*
X671470Y368250D01*
X668930D01*
X666475Y367592D01*
X664275Y366322D01*
X662478Y364525D01*
X661208Y362325D01*
X660550Y359870D01*
Y357329D01*
X661208Y354875D01*
X662478Y352675D01*
X664275Y350878D01*
X666475Y349608D01*
X668930Y348950D01*
X671470D01*
X673925Y349608D01*
X676125Y350878D01*
X677922Y352675D01*
X679192Y354875D01*
X679850Y357329D01*
Y359870D01*
X679192Y362325D01*
X679111Y362465D01*
X684291Y367644D01*
X685064Y368802D01*
X685336Y370168D01*
Y405514D01*
X686606Y405681D01*
X686608Y405675D01*
X687878Y403475D01*
X689675Y401678D01*
X691875Y400408D01*
X694330Y399750D01*
X696870D01*
X699325Y400408D01*
X701525Y401678D01*
X703322Y403475D01*
X704592Y405675D01*
X705250Y408130D01*
Y410671D01*
X704592Y413125D01*
X703322Y415325D01*
X701525Y417122D01*
X699325Y418392D01*
X696870Y419050D01*
X694330D01*
X691875Y418392D01*
X689675Y417122D01*
X687878Y415325D01*
X686608Y413125D01*
X686606Y413119D01*
X685336Y413286D01*
Y430914D01*
X686606Y431081D01*
X686608Y431075D01*
X687878Y428875D01*
X689675Y427078D01*
X691875Y425808D01*
X694330Y425150D01*
X696870D01*
X699325Y425808D01*
X701525Y427078D01*
X703322Y428875D01*
X704592Y431075D01*
X705250Y433530D01*
Y436071D01*
X704592Y438525D01*
X703322Y440725D01*
X701525Y442522D01*
X699325Y443792D01*
X696870Y444450D01*
X694330D01*
X691875Y443792D01*
X689675Y442522D01*
X687878Y440725D01*
X686608Y438525D01*
X686606Y438519D01*
X685336Y438686D01*
Y456314D01*
X686606Y456481D01*
X686608Y456475D01*
X687878Y454275D01*
X689675Y452478D01*
X691875Y451208D01*
X694330Y450550D01*
X696870D01*
X699325Y451208D01*
X701525Y452478D01*
X703322Y454275D01*
X704592Y456475D01*
X704634Y456631D01*
X708650D01*
Y452900D01*
X727350D01*
Y467100D01*
X708650D01*
Y463769D01*
X704634D01*
X704592Y463925D01*
X703322Y466125D01*
X701525Y467922D01*
X699325Y469192D01*
X696870Y469850D01*
X694330D01*
X691875Y469192D01*
X689675Y467922D01*
X687878Y466125D01*
X686608Y463925D01*
X686606Y463919D01*
X685336Y464086D01*
Y481714D01*
X686606Y481881D01*
X686608Y481875D01*
X687878Y479675D01*
X689675Y477878D01*
X691875Y476608D01*
X694330Y475950D01*
X696870D01*
X699325Y476608D01*
X701525Y477878D01*
X703322Y479675D01*
X704592Y481875D01*
X705250Y484329D01*
Y486870D01*
X704592Y489325D01*
X703322Y491525D01*
X701525Y493322D01*
X699325Y494592D01*
X696870Y495250D01*
X694330D01*
X691875Y494592D01*
X689675Y493322D01*
X687878Y491525D01*
X686608Y489325D01*
X686606Y489319D01*
X685336Y489486D01*
Y507114D01*
X686606Y507281D01*
X686608Y507275D01*
X687878Y505075D01*
X689675Y503278D01*
X691875Y502008D01*
X694330Y501350D01*
X696870D01*
X699325Y502008D01*
X701525Y503278D01*
X703322Y505075D01*
X704592Y507275D01*
X705250Y509729D01*
Y512271D01*
X704592Y514725D01*
X703322Y516925D01*
X701525Y518722D01*
X700764Y519161D01*
X701104Y520431D01*
X723000D01*
X724366Y520703D01*
X725523Y521477D01*
X792523Y588477D01*
X793297Y589634D01*
X793569Y591000D01*
Y895000D01*
X793297Y896366D01*
X792523Y897523D01*
X758523Y931523D01*
X757366Y932297D01*
X756000Y932569D01*
X228478D01*
X217476Y943571D01*
X218133Y944709D01*
X219848Y944250D01*
X222152D01*
X224377Y944846D01*
X226373Y945998D01*
X228002Y947627D01*
X229043Y949432D01*
X277957D01*
X278998Y947627D01*
X280627Y945998D01*
X282623Y944846D01*
X284848Y944250D01*
X287152D01*
X289377Y944846D01*
X291373Y945998D01*
X293002Y947627D01*
X294154Y949623D01*
X294750Y951848D01*
Y954152D01*
X294211Y956164D01*
X298478Y960431D01*
X355261D01*
X355787Y959161D01*
X354998Y958373D01*
X353846Y956377D01*
X353250Y954152D01*
Y951848D01*
X353846Y949623D01*
X354998Y947627D01*
X356627Y945998D01*
X358623Y944846D01*
X360848Y944250D01*
X363152D01*
X365377Y944846D01*
X367373Y945998D01*
X369002Y947627D01*
X370043Y949432D01*
X417957D01*
X418998Y947627D01*
X420627Y945998D01*
X422623Y944846D01*
X424848Y944250D01*
X427152D01*
X429164Y944789D01*
X435477Y938477D01*
X436634Y937703D01*
X438000Y937431D01*
X789522D01*
X1201431Y525522D01*
Y382600D01*
X1201703Y381234D01*
X1202477Y380077D01*
X1270889Y311665D01*
X1270808Y311525D01*
X1270150Y309070D01*
Y306530D01*
X1270808Y304075D01*
X1272078Y301875D01*
X1273875Y300078D01*
X1276075Y298808D01*
X1278530Y298150D01*
X1281071D01*
X1283525Y298808D01*
X1285725Y300078D01*
X1287522Y301875D01*
X1288792Y304075D01*
X1289450Y306530D01*
Y309070D01*
X1288792Y311525D01*
X1287522Y313725D01*
X1285725Y315522D01*
X1283525Y316792D01*
X1281071Y317450D01*
X1278530D01*
X1276075Y316792D01*
X1275935Y316712D01*
X1208569Y384078D01*
Y397725D01*
X1209742Y398211D01*
X1270889Y337065D01*
X1270808Y336925D01*
X1270150Y334470D01*
Y331930D01*
X1270808Y329475D01*
X1272078Y327275D01*
X1273875Y325478D01*
X1276075Y324208D01*
X1278530Y323550D01*
X1281071D01*
X1283525Y324208D01*
X1285725Y325478D01*
X1287522Y327275D01*
X1288792Y329475D01*
X1289450Y331930D01*
Y334470D01*
X1288792Y336925D01*
X1287522Y339125D01*
X1285725Y340922D01*
X1283525Y342192D01*
X1281071Y342850D01*
X1278530D01*
X1276075Y342192D01*
X1275935Y342112D01*
X1214569Y403478D01*
Y533000D01*
X1214297Y534366D01*
X1213523Y535523D01*
X793523Y955523D01*
X792366Y956297D01*
X791000Y956569D01*
X574043D01*
X573002Y958373D01*
X572213Y959161D01*
X572739Y960431D01*
X790522D01*
X1216247Y534706D01*
Y469384D01*
X1216519Y468019D01*
X1217292Y466861D01*
X1270889Y413265D01*
X1270808Y413125D01*
X1270150Y410671D01*
Y408130D01*
X1270808Y405675D01*
X1272078Y403475D01*
X1273875Y401678D01*
X1276075Y400408D01*
X1278530Y399750D01*
X1281071D01*
X1283525Y400408D01*
X1285725Y401678D01*
X1287522Y403475D01*
X1288792Y405675D01*
X1289450Y408130D01*
Y410671D01*
X1288792Y413125D01*
X1287522Y415325D01*
X1285725Y417122D01*
X1283525Y418392D01*
X1281071Y419050D01*
X1278530D01*
X1276075Y418392D01*
X1275935Y418312D01*
X1223384Y470862D01*
Y536184D01*
X1223113Y537550D01*
X1222339Y538708D01*
X794523Y966523D01*
X793366Y967297D01*
X792000Y967569D01*
X297000D01*
X295634Y967297D01*
X294477Y966523D01*
X289164Y961211D01*
X287152Y961750D01*
X284848D01*
X282623Y961154D01*
X280627Y960002D01*
X278998Y958373D01*
X277957Y956569D01*
X229043D01*
X228002Y958373D01*
X226373Y960002D01*
X224377Y961154D01*
X222152Y961750D01*
X219848D01*
X217623Y961154D01*
X215627Y960002D01*
X213998Y958373D01*
X213839Y958096D01*
X212569Y958436D01*
Y964522D01*
X217836Y969789D01*
X219848Y969250D01*
X222152D01*
X224377Y969846D01*
X226373Y970998D01*
X228002Y972627D01*
X229043Y974432D01*
X277957D01*
X278998Y972627D01*
X280627Y970998D01*
X282623Y969846D01*
X284848Y969250D01*
X287152D01*
X289377Y969846D01*
X291373Y970998D01*
X293002Y972627D01*
X294154Y974623D01*
X294750Y976848D01*
Y979152D01*
X294154Y981377D01*
X293002Y983373D01*
X291373Y985002D01*
X289377Y986154D01*
X287152Y986750D01*
X284848D01*
X282623Y986154D01*
X280627Y985002D01*
X278998Y983373D01*
X277957Y981569D01*
X229043D01*
X228002Y983373D01*
X226373Y985002D01*
X224377Y986154D01*
X222152Y986750D01*
X219848D01*
X217623Y986154D01*
X215627Y985002D01*
X213998Y983373D01*
X212846Y981377D01*
X212250Y979152D01*
Y976848D01*
X212789Y974836D01*
X206477Y968523D01*
X205703Y967366D01*
X205431Y966000D01*
Y947000D01*
X205703Y945634D01*
X206477Y944477D01*
X224477Y926477D01*
X225634Y925703D01*
X227000Y925431D01*
X754522D01*
X786431Y893522D01*
Y592478D01*
X721522Y527569D01*
X701913D01*
X701686Y528839D01*
X703322Y530475D01*
X704592Y532675D01*
X705250Y535130D01*
Y537671D01*
X704592Y540125D01*
X703322Y542325D01*
X701525Y544122D01*
X700540Y544691D01*
X700880Y545961D01*
X708000D01*
X708780Y546116D01*
X709442Y546558D01*
X709884Y547220D01*
X710039Y548000D01*
Y575000D01*
X709884Y575780D01*
X709442Y576442D01*
X708780Y576884D01*
X708000Y577039D01*
X700425D01*
X700242Y577271D01*
X700557Y578919D01*
X701525Y579478D01*
X703322Y581275D01*
X704592Y583475D01*
X705250Y585929D01*
Y588470D01*
X704592Y590925D01*
X703322Y593125D01*
X701525Y594922D01*
X699325Y596192D01*
X696870Y596850D01*
X694330D01*
X691875Y596192D01*
X689675Y594922D01*
X687878Y593125D01*
X686608Y590925D01*
X685950Y588470D01*
Y585929D01*
X686608Y583475D01*
X687878Y581275D01*
X689675Y579478D01*
X690643Y578919D01*
X690958Y577271D01*
X690775Y577039D01*
X675025D01*
X674842Y577271D01*
X675157Y578919D01*
X676125Y579478D01*
X677922Y581275D01*
X679192Y583475D01*
X679850Y585929D01*
Y588470D01*
X679192Y590925D01*
X677922Y593125D01*
X676125Y594922D01*
X673925Y596192D01*
X671470Y596850D01*
X668930D01*
X666475Y596192D01*
X664275Y594922D01*
X662478Y593125D01*
X661208Y590925D01*
X660550Y588470D01*
Y585929D01*
X661208Y583475D01*
X662478Y581275D01*
X664275Y579478D01*
X665243Y578919D01*
X665558Y577271D01*
X665375Y577039D01*
X654039D01*
Y676085D01*
X655309Y676252D01*
X655471Y675647D01*
X656479Y673903D01*
X657903Y672478D01*
X659647Y671471D01*
X661593Y670950D01*
X663607D01*
X665553Y671471D01*
X667297Y672478D01*
X668721Y673903D01*
X669729Y675647D01*
X670250Y677593D01*
Y679607D01*
X669729Y681553D01*
X668721Y683297D01*
X667297Y684722D01*
X665553Y685729D01*
X663607Y686250D01*
X661593D01*
X659647Y685729D01*
X657903Y684722D01*
X656479Y683297D01*
X655471Y681553D01*
X655309Y680948D01*
X654039Y681115D01*
Y701485D01*
X655309Y701652D01*
X655471Y701047D01*
X656479Y699303D01*
X657903Y697878D01*
X659647Y696871D01*
X661593Y696350D01*
X663607D01*
X665553Y696871D01*
X667297Y697878D01*
X668721Y699303D01*
X669729Y701047D01*
X670250Y702993D01*
Y705007D01*
X669729Y706953D01*
X668721Y708697D01*
X667297Y710122D01*
X665553Y711129D01*
X663607Y711650D01*
X661593D01*
X659647Y711129D01*
X657903Y710122D01*
X656479Y708697D01*
X655471Y706953D01*
X655309Y706348D01*
X654039Y706515D01*
Y726885D01*
X655309Y727052D01*
X655471Y726447D01*
X656479Y724703D01*
X657903Y723279D01*
X659647Y722271D01*
X661593Y721750D01*
X663607D01*
X665553Y722271D01*
X667297Y723279D01*
X668721Y724703D01*
X669729Y726447D01*
X670250Y728393D01*
Y730407D01*
X669729Y732353D01*
X668721Y734097D01*
X667297Y735521D01*
X665553Y736529D01*
X663607Y737050D01*
X661593D01*
X659647Y736529D01*
X657903Y735521D01*
X656479Y734097D01*
X655471Y732353D01*
X655309Y731748D01*
X654039Y731915D01*
Y752285D01*
X655309Y752452D01*
X655471Y751847D01*
X656479Y750103D01*
X657903Y748679D01*
X659647Y747671D01*
X661593Y747150D01*
X663607D01*
X665553Y747671D01*
X667297Y748679D01*
X668721Y750103D01*
X669729Y751847D01*
X670250Y753793D01*
Y755807D01*
X669729Y757753D01*
X668721Y759497D01*
X667297Y760921D01*
X665553Y761929D01*
X663607Y762450D01*
X661593D01*
X659647Y761929D01*
X657903Y760921D01*
X656479Y759497D01*
X655471Y757753D01*
X655309Y757148D01*
X654039Y757315D01*
Y777685D01*
X655309Y777852D01*
X655471Y777247D01*
X656479Y775503D01*
X657903Y774079D01*
X659647Y773071D01*
X661593Y772550D01*
X663607D01*
X665553Y773071D01*
X667297Y774079D01*
X668721Y775503D01*
X669729Y777247D01*
X670250Y779193D01*
Y781207D01*
X669729Y783153D01*
X668721Y784897D01*
X667297Y786321D01*
X665553Y787329D01*
X663607Y787850D01*
X661593D01*
X659647Y787329D01*
X657903Y786321D01*
X656479Y784897D01*
X655471Y783153D01*
X655309Y782548D01*
X654039Y782715D01*
Y803085D01*
X655309Y803252D01*
X655471Y802647D01*
X656479Y800903D01*
X657903Y799479D01*
X659647Y798471D01*
X661593Y797950D01*
X663607D01*
X665553Y798471D01*
X667297Y799479D01*
X668721Y800903D01*
X669729Y802647D01*
X670250Y804593D01*
Y806607D01*
X669729Y808553D01*
X668721Y810297D01*
X667297Y811721D01*
X665553Y812729D01*
X663607Y813250D01*
X661593D01*
X659647Y812729D01*
X657903Y811721D01*
X656479Y810297D01*
X655471Y808553D01*
X655309Y807948D01*
X654039Y808115D01*
Y828485D01*
X655309Y828652D01*
X655471Y828047D01*
X656479Y826303D01*
X657903Y824878D01*
X659647Y823871D01*
X661593Y823350D01*
X663607D01*
X665553Y823871D01*
X667297Y824878D01*
X668721Y826303D01*
X669729Y828047D01*
X670250Y829993D01*
Y832007D01*
X669729Y833953D01*
X668721Y835697D01*
X667297Y837122D01*
X665553Y838129D01*
X663607Y838650D01*
X661593D01*
X659647Y838129D01*
X657903Y837122D01*
X656479Y835697D01*
X655471Y833953D01*
X655309Y833348D01*
X654039Y833515D01*
Y853885D01*
X655309Y854052D01*
X655471Y853447D01*
X656479Y851703D01*
X657903Y850278D01*
X659647Y849271D01*
X661593Y848750D01*
X663607D01*
X665553Y849271D01*
X667297Y850278D01*
X668721Y851703D01*
X669729Y853447D01*
X670250Y855393D01*
Y857407D01*
X669729Y859353D01*
X668721Y861097D01*
X667297Y862522D01*
X665553Y863529D01*
X663607Y864050D01*
X661593D01*
X659647Y863529D01*
X657903Y862522D01*
X656479Y861097D01*
X655471Y859353D01*
X655309Y858748D01*
X654039Y858915D01*
Y879285D01*
X655309Y879452D01*
X655471Y878847D01*
X656479Y877103D01*
X657903Y875678D01*
X659647Y874671D01*
X661593Y874150D01*
X663607D01*
X665553Y874671D01*
X667297Y875678D01*
X668721Y877103D01*
X669729Y878847D01*
X670250Y880793D01*
Y882807D01*
X669729Y884753D01*
X668721Y886497D01*
X667297Y887922D01*
X665553Y888929D01*
X663607Y889450D01*
X661593D01*
X659647Y888929D01*
X657903Y887922D01*
X656479Y886497D01*
X655471Y884753D01*
X655309Y884148D01*
X654039Y884315D01*
Y890961D01*
X675000D01*
X675780Y891116D01*
X676442Y891558D01*
X676884Y892220D01*
X677039Y893000D01*
Y902612D01*
X682150D01*
X700000Y884761D01*
Y872750D01*
X713000D01*
Y891250D01*
X706489D01*
X687294Y910444D01*
X685806Y911439D01*
X684050Y911788D01*
X677039D01*
Y919000D01*
X676884Y919780D01*
X676442Y920442D01*
X675780Y920884D01*
X675000Y921039D01*
X611000D01*
X610220Y920884D01*
X609558Y920442D01*
X609116Y919780D01*
X608961Y919000D01*
Y751039D01*
X309000D01*
X308220Y750884D01*
X307558Y750442D01*
X307289Y750039D01*
X200039D01*
Y991961D01*
X494722D01*
X495116Y991041D01*
X495148Y990691D01*
X486026Y981569D01*
X434043D01*
X433002Y983373D01*
X431373Y985002D01*
X429377Y986154D01*
X427152Y986750D01*
X424848D01*
X422623Y986154D01*
X420627Y985002D01*
X418998Y983373D01*
X417957Y981569D01*
X370043D01*
X369002Y983373D01*
X367373Y985002D01*
X365377Y986154D01*
X363152Y986750D01*
X360848D01*
X358623Y986154D01*
X356627Y985002D01*
X354998Y983373D01*
X353846Y981377D01*
X353250Y979152D01*
Y976848D01*
X353846Y974623D01*
X354998Y972627D01*
X356627Y970998D01*
X358623Y969846D01*
X360848Y969250D01*
X363152D01*
X365377Y969846D01*
X367373Y970998D01*
X369002Y972627D01*
X370043Y974432D01*
X417957D01*
X418998Y972627D01*
X420627Y970998D01*
X422623Y969846D01*
X424848Y969250D01*
X427152D01*
X429377Y969846D01*
X431373Y970998D01*
X433002Y972627D01*
X434043Y974432D01*
X487504D01*
X488870Y974703D01*
X490028Y975477D01*
X492077Y977526D01*
X493250Y977040D01*
Y976848D01*
X493846Y974623D01*
X494998Y972627D01*
X496627Y970998D01*
X498623Y969846D01*
X500848Y969250D01*
X503152D01*
X505377Y969846D01*
X507373Y970998D01*
X509002Y972627D01*
X510043Y974432D01*
X557957D01*
X558998Y972627D01*
X560627Y970998D01*
X562623Y969846D01*
X564848Y969250D01*
X567152D01*
X569377Y969846D01*
X571373Y970998D01*
X573002Y972627D01*
X574043Y974432D01*
X790451D01*
X1216756Y548127D01*
X1217913Y547353D01*
X1219279Y547081D01*
X1277472D01*
X1277639Y545811D01*
X1276075Y545392D01*
X1273875Y544122D01*
X1272078Y542325D01*
X1270808Y540125D01*
X1270150Y537671D01*
Y535130D01*
X1270808Y532675D01*
X1272078Y530475D01*
X1273875Y528678D01*
X1276075Y527408D01*
X1278530Y526750D01*
X1281071D01*
X1283525Y527408D01*
X1285725Y528678D01*
X1287522Y530475D01*
X1288792Y532675D01*
X1289450Y535130D01*
Y537671D01*
X1288792Y540125D01*
X1287522Y542325D01*
X1285725Y544122D01*
X1283525Y545392D01*
X1281961Y545811D01*
X1282128Y547081D01*
X1284418D01*
X1285784Y547353D01*
X1286942Y548127D01*
X1295523Y556708D01*
X1295527Y556714D01*
X1297022Y556665D01*
X1297478Y555875D01*
X1299275Y554078D01*
X1301475Y552808D01*
X1303929Y552150D01*
X1306470D01*
X1308925Y552808D01*
X1311125Y554078D01*
X1312922Y555875D01*
X1314192Y558075D01*
X1314850Y560530D01*
Y563070D01*
X1314192Y565525D01*
X1312922Y567725D01*
X1311125Y569522D01*
X1308925Y570792D01*
X1306470Y571450D01*
X1303929D01*
X1301475Y570792D01*
X1299275Y569522D01*
X1297839Y568086D01*
X1296569Y568596D01*
Y580405D01*
X1297839Y580914D01*
X1299275Y579478D01*
X1301475Y578208D01*
X1303929Y577550D01*
X1306470D01*
X1308925Y578208D01*
X1311125Y579478D01*
X1312922Y581275D01*
X1314192Y583475D01*
X1314850Y585929D01*
Y588470D01*
X1314192Y590925D01*
X1314111Y591065D01*
X1319258Y596211D01*
X1320431Y595725D01*
Y410478D01*
X1315463Y405509D01*
X1314324Y406167D01*
X1314850Y408130D01*
Y410671D01*
X1314192Y413125D01*
X1312922Y415325D01*
X1311125Y417122D01*
X1308925Y418392D01*
X1306470Y419050D01*
X1303929D01*
X1301475Y418392D01*
X1299275Y417122D01*
X1297478Y415325D01*
X1296208Y413125D01*
X1295550Y410671D01*
Y408130D01*
X1296208Y405675D01*
X1297478Y403475D01*
X1298114Y402839D01*
X1297588Y401569D01*
X1293800D01*
X1292434Y401297D01*
X1291277Y400523D01*
X1283665Y392911D01*
X1283525Y392992D01*
X1281071Y393650D01*
X1278530D01*
X1276075Y392992D01*
X1273875Y391722D01*
X1272078Y389925D01*
X1270808Y387725D01*
X1270150Y385271D01*
Y382729D01*
X1270808Y380275D01*
X1272078Y378075D01*
X1273875Y376278D01*
X1276075Y375008D01*
X1278530Y374350D01*
X1281071D01*
X1283525Y375008D01*
X1285725Y376278D01*
X1287522Y378075D01*
X1288792Y380275D01*
X1289450Y382729D01*
Y385271D01*
X1288792Y387725D01*
X1288712Y387865D01*
X1295278Y394431D01*
X1301939D01*
X1302106Y393161D01*
X1301475Y392992D01*
X1299275Y391722D01*
X1297478Y389925D01*
X1296208Y387725D01*
X1295550Y385271D01*
Y382729D01*
X1296208Y380275D01*
X1297478Y378075D01*
X1299275Y376278D01*
X1301475Y375008D01*
X1303929Y374350D01*
X1306470D01*
X1308925Y375008D01*
X1311125Y376278D01*
X1312922Y378075D01*
X1314192Y380275D01*
X1314850Y382729D01*
Y385271D01*
X1314192Y387725D01*
X1312922Y389925D01*
X1311125Y391722D01*
X1308925Y392992D01*
X1308294Y393161D01*
X1308461Y394431D01*
X1313000D01*
X1314366Y394703D01*
X1315523Y395477D01*
X1325258Y405211D01*
X1326431Y404725D01*
Y239478D01*
X1315756Y228802D01*
X1314617Y229460D01*
X1314850Y230329D01*
Y232871D01*
X1314192Y235325D01*
X1312922Y237525D01*
X1311125Y239322D01*
X1308925Y240592D01*
X1306470Y241250D01*
X1303929D01*
X1301475Y240592D01*
X1299275Y239322D01*
X1297478Y237525D01*
X1296208Y235325D01*
X1295550Y232871D01*
Y230329D01*
X1296208Y227875D01*
X1297478Y225675D01*
X1299275Y223878D01*
X1301475Y222608D01*
X1301279Y221345D01*
X1291377D01*
X1290011Y221074D01*
X1288853Y220300D01*
X1283665Y215112D01*
X1283525Y215192D01*
X1281071Y215850D01*
X1278530D01*
X1276075Y215192D01*
X1273875Y213922D01*
X1272078Y212125D01*
X1270808Y209925D01*
X1270766Y209769D01*
X1241611D01*
X1241085Y211039D01*
X1262523Y232477D01*
X1263297Y233634D01*
X1263569Y235000D01*
Y271497D01*
X1264239Y272168D01*
X1265000Y274005D01*
Y275995D01*
X1264239Y277832D01*
X1262832Y279239D01*
X1260995Y280000D01*
X1259005D01*
X1257168Y279239D01*
X1255761Y277832D01*
X1255000Y275995D01*
Y274005D01*
X1255761Y272168D01*
X1256431Y271497D01*
Y236478D01*
X1236181Y216227D01*
X1019446D01*
X1018080Y215956D01*
X1016922Y215182D01*
X874380Y72640D01*
X739271D01*
X737905Y72368D01*
X736748Y71594D01*
X729904Y64751D01*
X729556Y64952D01*
X726949Y65650D01*
X724251D01*
X721644Y64952D01*
X719306Y63602D01*
X717398Y61694D01*
X716049Y59356D01*
X715350Y56749D01*
Y54051D01*
X716049Y51444D01*
X717398Y49106D01*
X719306Y47198D01*
X721644Y45848D01*
X724251Y45150D01*
X726949D01*
X729556Y45848D01*
X731894Y47198D01*
X733802Y49106D01*
X735152Y51444D01*
X735850Y54051D01*
Y56749D01*
X735152Y59356D01*
X734951Y59704D01*
X740749Y65503D01*
X745458D01*
X745798Y64233D01*
X744706Y63602D01*
X742798Y61694D01*
X741449Y59356D01*
X740750Y56749D01*
Y54051D01*
X741449Y51444D01*
X742798Y49106D01*
X744706Y47198D01*
X747044Y45848D01*
X749651Y45150D01*
X752349D01*
X754956Y45848D01*
X757294Y47198D01*
X759202Y49106D01*
X760552Y51444D01*
X761250Y54051D01*
Y56749D01*
X760552Y59356D01*
X759202Y61694D01*
X757294Y63602D01*
X756202Y64233D01*
X756542Y65503D01*
X770858D01*
X771198Y64233D01*
X770106Y63602D01*
X768198Y61694D01*
X766849Y59356D01*
X766150Y56749D01*
Y54051D01*
X766849Y51444D01*
X768198Y49106D01*
X768912Y48392D01*
X768426Y47219D01*
X764650D01*
X763284Y46947D01*
X762127Y46173D01*
X755304Y39351D01*
X754956Y39551D01*
X752349Y40250D01*
X749651D01*
X747044Y39551D01*
X744706Y38202D01*
X742798Y36294D01*
X741449Y33956D01*
X740750Y31349D01*
Y28651D01*
X741449Y26044D01*
X742798Y23706D01*
X744706Y21798D01*
X747044Y20449D01*
X749651Y19750D01*
X752349D01*
X754956Y20449D01*
X757294Y21798D01*
X759202Y23706D01*
X760552Y26044D01*
X761250Y28651D01*
Y31349D01*
X760552Y33956D01*
X760351Y34304D01*
X766128Y40081D01*
X770822D01*
X771162Y38811D01*
X770106Y38202D01*
X768198Y36294D01*
X766849Y33956D01*
X766150Y31349D01*
Y28651D01*
X766849Y26044D01*
X768198Y23706D01*
X770106Y21798D01*
X772444Y20449D01*
X775051Y19750D01*
X777749D01*
X780356Y20449D01*
X782694Y21798D01*
X784602Y23706D01*
X785952Y26044D01*
X786650Y28651D01*
Y31349D01*
X785952Y33956D01*
X784602Y36294D01*
X782694Y38202D01*
X781638Y38811D01*
X781978Y40081D01*
X796221D01*
X796562Y38811D01*
X795506Y38202D01*
X793598Y36294D01*
X792249Y33956D01*
X791550Y31349D01*
Y28651D01*
X792249Y26044D01*
X793598Y23706D01*
X795506Y21798D01*
X797844Y20449D01*
X800451Y19750D01*
X803149D01*
X805756Y20449D01*
X806104Y20649D01*
X808761Y17992D01*
X808275Y16819D01*
X651011D01*
X649253Y18577D01*
X649739Y19750D01*
X650749D01*
X653356Y20449D01*
X655694Y21798D01*
X657602Y23706D01*
X658951Y26044D01*
X659650Y28651D01*
Y31349D01*
X658951Y33956D01*
X657602Y36294D01*
X655694Y38202D01*
X653356Y39551D01*
X650749Y40250D01*
X648051D01*
X645444Y39551D01*
X643106Y38202D01*
X641839Y36934D01*
X640569Y37460D01*
Y42400D01*
X640297Y43766D01*
X639523Y44923D01*
X633351Y51096D01*
X633551Y51444D01*
X634250Y54051D01*
Y56749D01*
X633551Y59356D01*
X632202Y61694D01*
X630294Y63602D01*
X627956Y64952D01*
X625349Y65650D01*
X622651D01*
X620044Y64952D01*
X617706Y63602D01*
X615798Y61694D01*
X614449Y59356D01*
X613750Y56749D01*
Y54051D01*
X614449Y51444D01*
X615798Y49106D01*
X617706Y47198D01*
X620044Y45848D01*
X622651Y45150D01*
X625349D01*
X627956Y45848D01*
X628304Y46049D01*
X633431Y40922D01*
Y36618D01*
X632416Y36346D01*
X632161Y36334D01*
X630294Y38202D01*
X627956Y39551D01*
X625349Y40250D01*
X622651D01*
X620044Y39551D01*
X617706Y38202D01*
X615798Y36294D01*
X614449Y33956D01*
X613750Y31349D01*
Y28651D01*
X614449Y26044D01*
X615798Y23706D01*
X617706Y21798D01*
X620044Y20449D01*
X622651Y19750D01*
X625349D01*
X627956Y20449D01*
X630294Y21798D01*
X632202Y23706D01*
X632464Y24160D01*
X632858Y24242D01*
X633905Y24116D01*
X634477Y23260D01*
X644744Y12992D01*
X644258Y11819D01*
X621828D01*
X607951Y25696D01*
X608152Y26044D01*
X608850Y28651D01*
Y31349D01*
X608152Y33956D01*
X606802Y36294D01*
X604894Y38202D01*
X602556Y39551D01*
X599949Y40250D01*
X597251D01*
X594644Y39551D01*
X592306Y38202D01*
X590398Y36294D01*
X589049Y33956D01*
X588350Y31349D01*
Y28651D01*
X589049Y26044D01*
X590398Y23706D01*
X592306Y21798D01*
X594644Y20449D01*
X597251Y19750D01*
X599949D01*
X602556Y20449D01*
X602904Y20649D01*
X617827Y5727D01*
X618984Y4953D01*
X620350Y4681D01*
X844250D01*
X845616Y4953D01*
X846773Y5727D01*
X939478Y98431D01*
X1108654D01*
X1109140Y97258D01*
X1051451Y39569D01*
X1049043D01*
X1048002Y41373D01*
X1046373Y43002D01*
X1044377Y44154D01*
X1042152Y44750D01*
X1039848D01*
X1037623Y44154D01*
X1035627Y43002D01*
X1033998Y41373D01*
X1032846Y39377D01*
X1032250Y37152D01*
Y36960D01*
X1031077Y36474D01*
X1029773Y37778D01*
X1028616Y38551D01*
X1027250Y38823D01*
X1024302D01*
X1024154Y39377D01*
X1023002Y41373D01*
X1021373Y43002D01*
X1019377Y44154D01*
X1017152Y44750D01*
X1014848D01*
X1012623Y44154D01*
X1010627Y43002D01*
X1008998Y41373D01*
X1007846Y39377D01*
X1007250Y37152D01*
Y36593D01*
X1005980Y36067D01*
X1003523Y38523D01*
X1002366Y39297D01*
X1001000Y39569D01*
X999043D01*
X998002Y41373D01*
X996373Y43002D01*
X994377Y44154D01*
X992152Y44750D01*
X989848D01*
X987623Y44154D01*
X985627Y43002D01*
X983998Y41373D01*
X982846Y39377D01*
X982250Y37152D01*
Y36960D01*
X981077Y36474D01*
X979028Y38523D01*
X977870Y39297D01*
X976504Y39569D01*
X974043D01*
X973002Y41373D01*
X971373Y43002D01*
X969377Y44154D01*
X967152Y44750D01*
X964848D01*
X962623Y44154D01*
X960627Y43002D01*
X958998Y41373D01*
X957846Y39377D01*
X957250Y37152D01*
Y34848D01*
X957846Y32623D01*
X958998Y30627D01*
X960627Y28998D01*
X961821Y28309D01*
X961481Y27039D01*
X945519D01*
X945179Y28309D01*
X946373Y28998D01*
X948002Y30627D01*
X949154Y32623D01*
X949750Y34848D01*
Y37152D01*
X949154Y39377D01*
X948002Y41373D01*
X946373Y43002D01*
X944377Y44154D01*
X942152Y44750D01*
X939848D01*
X937623Y44154D01*
X935627Y43002D01*
X933998Y41373D01*
X932846Y39377D01*
X932250Y37152D01*
Y34848D01*
X932846Y32623D01*
X933998Y30627D01*
X935627Y28998D01*
X936821Y28309D01*
X936481Y27039D01*
X929039D01*
Y48000D01*
X928884Y48780D01*
X928442Y49442D01*
X927780Y49884D01*
X927000Y50039D01*
X907000D01*
X906220Y49884D01*
X905558Y49442D01*
X905116Y48780D01*
X904961Y48000D01*
Y6000D01*
X905116Y5220D01*
X905527Y4604D01*
X905474Y4330D01*
X905104Y3334D01*
X70000D01*
X69835Y3301D01*
X62531Y3711D01*
X55156Y4965D01*
X47968Y7035D01*
X41056Y9898D01*
X34509Y13517D01*
X28408Y17846D01*
X22830Y22830D01*
X17846Y28408D01*
X13517Y34509D01*
X9898Y41056D01*
X7035Y47968D01*
X4965Y55156D01*
X3711Y62531D01*
X3301Y69835D01*
X3334Y70000D01*
Y1080000D01*
X3301Y1080165D01*
X3711Y1087469D01*
X4965Y1094844D01*
X7035Y1102032D01*
X9898Y1108943D01*
X13517Y1115491D01*
X17846Y1121592D01*
X22830Y1127170D01*
X28408Y1132154D01*
X34509Y1136483D01*
X41056Y1140102D01*
X47968Y1142964D01*
X55156Y1145035D01*
X62531Y1146289D01*
X68742Y1146637D01*
X70000Y1146666D01*
X70000Y1146666D01*
X71257Y1146666D01*
X2030000D01*
X2030165Y1146699D01*
X2037469Y1146289D01*
D02*
G37*
G36*
X1509028Y871062D02*
X1509000Y870995D01*
Y869006D01*
X1509761Y867168D01*
X1510431Y866497D01*
Y859000D01*
X1510703Y857634D01*
X1511477Y856477D01*
X1549477Y818477D01*
X1550634Y817703D01*
X1552000Y817431D01*
X1893522D01*
X1932431Y778522D01*
Y430000D01*
X1932703Y428634D01*
X1933477Y427477D01*
X2002023Y358930D01*
X2003181Y358157D01*
X2003450Y358103D01*
Y357830D01*
X2004108Y355375D01*
X2004189Y355235D01*
X1969977Y321023D01*
X1969203Y319866D01*
X1968931Y318500D01*
Y156106D01*
X1928394Y115569D01*
X1820340D01*
X1819972Y116784D01*
X1820737Y117295D01*
X1823105Y119663D01*
X1824965Y122448D01*
X1826247Y125541D01*
X1826900Y128826D01*
Y132174D01*
X1826247Y135459D01*
X1824965Y138553D01*
X1823105Y141337D01*
X1820737Y143705D01*
X1817953Y145565D01*
X1814859Y146847D01*
X1811574Y147500D01*
X1808226D01*
X1804941Y146847D01*
X1801848Y145565D01*
X1799063Y143705D01*
X1796695Y141337D01*
X1794835Y138553D01*
X1793553Y135459D01*
X1792900Y132174D01*
Y128826D01*
X1793553Y125541D01*
X1794835Y122448D01*
X1796695Y119663D01*
X1799063Y117295D01*
X1799828Y116784D01*
X1799460Y115569D01*
X1718780D01*
X1639375Y194973D01*
X1638217Y195747D01*
X1636852Y196019D01*
X1431228D01*
X1431061Y197289D01*
X1432625Y197708D01*
X1434825Y198978D01*
X1436622Y200775D01*
X1437892Y202975D01*
X1438550Y205429D01*
Y207971D01*
X1437892Y210425D01*
X1436622Y212625D01*
X1435086Y214161D01*
X1435454Y215431D01*
X1650782D01*
X1691736Y174477D01*
X1692894Y173703D01*
X1694260Y173431D01*
X1929000D01*
X1930366Y173703D01*
X1931523Y174477D01*
X1945047Y188000D01*
X1945995D01*
X1947832Y188761D01*
X1949239Y190168D01*
X1950000Y192005D01*
Y193995D01*
X1949239Y195832D01*
X1947832Y197239D01*
X1945995Y198000D01*
X1944005D01*
X1942168Y197239D01*
X1940761Y195832D01*
X1940000Y193995D01*
Y193047D01*
X1927522Y180569D01*
X1695738D01*
X1654783Y221523D01*
X1653625Y222297D01*
X1652260Y222569D01*
X1434231D01*
X1433891Y223839D01*
X1434825Y224378D01*
X1436622Y226175D01*
X1437892Y228375D01*
X1438550Y230830D01*
Y233370D01*
X1437892Y235825D01*
X1436622Y238025D01*
X1434825Y239822D01*
X1432625Y241092D01*
X1430170Y241750D01*
X1427630D01*
X1425175Y241092D01*
X1422975Y239822D01*
X1421178Y238025D01*
X1419908Y235825D01*
X1419250Y233370D01*
Y230830D01*
X1419908Y228375D01*
X1421178Y226175D01*
X1422975Y224378D01*
X1423909Y223839D01*
X1423569Y222569D01*
X1408831D01*
X1408491Y223839D01*
X1409425Y224378D01*
X1411222Y226175D01*
X1412492Y228375D01*
X1413150Y230830D01*
Y233370D01*
X1412492Y235825D01*
X1411222Y238025D01*
X1409425Y239822D01*
X1407225Y241092D01*
X1404771Y241750D01*
X1402230D01*
X1399775Y241092D01*
X1397575Y239822D01*
X1395778Y238025D01*
X1394508Y235825D01*
X1393850Y233370D01*
Y230830D01*
X1394508Y228375D01*
X1395778Y226175D01*
X1397575Y224378D01*
X1398867Y223632D01*
X1398666Y222297D01*
X1397508Y221523D01*
X1384327Y208342D01*
X1383553Y207184D01*
X1383281Y205818D01*
Y173199D01*
X1328651Y118569D01*
X1284000D01*
X1282634Y118297D01*
X1281477Y117523D01*
X1276522Y112569D01*
X1082259D01*
X1082006Y113839D01*
X1084652Y114935D01*
X1087437Y116795D01*
X1089805Y119163D01*
X1091665Y121947D01*
X1092947Y125041D01*
X1093600Y128326D01*
Y131674D01*
X1092947Y134959D01*
X1091665Y138053D01*
X1089805Y140837D01*
X1087437Y143205D01*
X1086672Y143716D01*
X1087040Y144931D01*
X1113022D01*
X1132477Y125477D01*
X1133634Y124703D01*
X1135000Y124431D01*
X1317000D01*
X1318366Y124703D01*
X1319523Y125477D01*
X1342523Y148477D01*
X1343297Y149634D01*
X1343569Y151000D01*
Y405428D01*
X1344839Y406276D01*
X1345506Y406000D01*
X1347495D01*
X1349332Y406761D01*
X1350739Y408168D01*
X1351500Y410005D01*
Y411995D01*
X1350739Y413832D01*
X1350569Y414002D01*
Y539000D01*
X1350297Y540366D01*
X1349523Y541523D01*
X1348569Y542478D01*
Y545607D01*
X1349000Y545961D01*
X1397354D01*
X1397694Y544691D01*
X1397575Y544622D01*
X1395778Y542825D01*
X1394508Y540625D01*
X1393850Y538171D01*
Y535630D01*
X1394508Y533175D01*
X1395778Y530975D01*
X1397575Y529178D01*
X1399775Y527908D01*
X1402230Y527250D01*
X1404771D01*
X1407225Y527908D01*
X1409425Y529178D01*
X1411222Y530975D01*
X1412492Y533175D01*
X1413150Y535630D01*
Y538171D01*
X1412492Y540625D01*
X1411222Y542825D01*
X1409425Y544622D01*
X1409306Y544691D01*
X1409646Y545961D01*
X1422754D01*
X1423094Y544691D01*
X1422975Y544622D01*
X1421178Y542825D01*
X1419908Y540625D01*
X1419250Y538171D01*
Y535630D01*
X1419908Y533175D01*
X1421178Y530975D01*
X1422975Y529178D01*
X1425175Y527908D01*
X1427630Y527250D01*
X1430170D01*
X1432625Y527908D01*
X1434825Y529178D01*
X1436622Y530975D01*
X1437892Y533175D01*
X1438550Y535630D01*
Y538171D01*
X1437892Y540625D01*
X1436622Y542825D01*
X1434825Y544622D01*
X1434706Y544691D01*
X1435046Y545961D01*
X1440000D01*
X1440780Y546116D01*
X1441442Y546558D01*
X1441884Y547220D01*
X1442039Y548000D01*
Y574000D01*
X1442039Y574000D01*
X1441884Y574780D01*
X1441442Y575442D01*
X1441442Y575442D01*
X1440442Y576442D01*
X1439780Y576884D01*
X1439000Y577039D01*
X1431305D01*
X1431138Y578309D01*
X1432625Y578708D01*
X1434825Y579978D01*
X1436622Y581775D01*
X1437892Y583975D01*
X1438550Y586429D01*
Y588970D01*
X1437892Y591425D01*
X1436622Y593625D01*
X1434825Y595422D01*
X1432625Y596692D01*
X1430170Y597350D01*
X1427630D01*
X1425175Y596692D01*
X1422975Y595422D01*
X1421178Y593625D01*
X1419908Y591425D01*
X1419250Y588970D01*
Y586429D01*
X1419908Y583975D01*
X1421178Y581775D01*
X1422975Y579978D01*
X1425175Y578708D01*
X1426662Y578309D01*
X1426495Y577039D01*
X1405905D01*
X1405738Y578309D01*
X1407225Y578708D01*
X1409425Y579978D01*
X1411222Y581775D01*
X1412492Y583975D01*
X1413150Y586429D01*
Y588970D01*
X1412492Y591425D01*
X1411222Y593625D01*
X1409425Y595422D01*
X1407225Y596692D01*
X1404771Y597350D01*
X1402230D01*
X1399775Y596692D01*
X1397575Y595422D01*
X1395778Y593625D01*
X1394508Y591425D01*
X1393850Y588970D01*
Y586429D01*
X1394508Y583975D01*
X1395778Y581775D01*
X1397575Y579978D01*
X1399775Y578708D01*
X1401262Y578309D01*
X1401095Y577039D01*
X1349000D01*
X1348569Y577393D01*
Y657220D01*
X1348938Y657355D01*
X1349839Y657432D01*
X1350477Y656477D01*
X1377477Y629477D01*
X1378634Y628703D01*
X1380000Y628431D01*
X1432522D01*
X1446431Y614522D01*
Y484100D01*
X1441650D01*
Y469900D01*
X1460350D01*
Y484100D01*
X1453569D01*
Y616000D01*
X1453297Y617366D01*
X1452523Y618523D01*
X1436523Y634523D01*
X1435366Y635297D01*
X1434000Y635569D01*
X1381478D01*
X1356569Y660478D01*
Y692497D01*
X1357239Y693168D01*
X1358000Y695005D01*
Y696995D01*
X1357239Y698832D01*
X1355832Y700239D01*
X1353995Y701000D01*
X1352005D01*
X1350168Y700239D01*
X1349839Y699910D01*
X1348569Y700436D01*
Y723522D01*
X1360438Y735391D01*
X1361608Y734765D01*
X1361431Y733877D01*
Y698503D01*
X1360761Y697832D01*
X1360000Y695995D01*
Y694005D01*
X1360761Y692168D01*
X1362168Y690761D01*
X1364005Y690000D01*
X1365995D01*
X1367832Y690761D01*
X1369239Y692168D01*
X1370000Y694005D01*
Y695995D01*
X1369239Y697832D01*
X1368569Y698503D01*
Y732399D01*
X1507951Y871782D01*
X1509028Y871062D01*
D02*
G37*
G36*
X1440000Y574000D02*
Y548000D01*
X1349000D01*
Y575000D01*
X1439000D01*
X1440000Y574000D01*
D02*
G37*
G36*
X579000Y1015000D02*
X580000D01*
Y994000D01*
X198000D01*
Y748000D01*
X309000D01*
Y749000D01*
X611000D01*
Y919000D01*
X675000D01*
Y893000D01*
X652000D01*
Y575000D01*
X708000D01*
Y548000D01*
X601039D01*
Y557000D01*
X600884Y557780D01*
X600442Y558442D01*
X600000Y558737D01*
Y559000D01*
X599197D01*
X599000Y559039D01*
X502000D01*
Y641000D01*
X316000D01*
Y610000D01*
X258000D01*
Y627000D01*
X290000D01*
Y682000D01*
X309000D01*
Y714000D01*
X104000D01*
Y1017000D01*
X579000D01*
Y1015000D01*
D02*
G37*
G36*
X499000Y557000D02*
X599000D01*
Y491000D01*
X398000D01*
Y579000D01*
X359150D01*
Y580180D01*
X341250D01*
Y580180D01*
X340750D01*
Y580180D01*
X322850D01*
Y579000D01*
X259000D01*
Y592000D01*
X320000D01*
Y638000D01*
X499000D01*
Y557000D01*
D02*
G37*
G36*
X306000Y488000D02*
X259000D01*
Y576000D01*
X306000D01*
Y488000D01*
D02*
G37*
G36*
X1671461Y61508D02*
X1654164Y44211D01*
X1652152Y44750D01*
X1649848D01*
X1647623Y44154D01*
X1645627Y43002D01*
X1643998Y41373D01*
X1642846Y39377D01*
X1642250Y37152D01*
Y34848D01*
X1642846Y32623D01*
X1643998Y30627D01*
X1645627Y28998D01*
X1646821Y28309D01*
X1646481Y27039D01*
X1630519D01*
X1630179Y28309D01*
X1631373Y28998D01*
X1633002Y30627D01*
X1634154Y32623D01*
X1634750Y34848D01*
Y37152D01*
X1634154Y39377D01*
X1633002Y41373D01*
X1631373Y43002D01*
X1629377Y44154D01*
X1627152Y44750D01*
X1624848D01*
X1622623Y44154D01*
X1620627Y43002D01*
X1618998Y41373D01*
X1617846Y39377D01*
X1617250Y37152D01*
Y34848D01*
X1617846Y32623D01*
X1618998Y30627D01*
X1620627Y28998D01*
X1621821Y28309D01*
X1621481Y27039D01*
X1605519D01*
X1605179Y28309D01*
X1606373Y28998D01*
X1608002Y30627D01*
X1609154Y32623D01*
X1609750Y34848D01*
Y37152D01*
X1609154Y39377D01*
X1608002Y41373D01*
X1606373Y43002D01*
X1604377Y44154D01*
X1602152Y44750D01*
X1599848D01*
X1597623Y44154D01*
X1595627Y43002D01*
X1593998Y41373D01*
X1592846Y39377D01*
X1592250Y37152D01*
Y34848D01*
X1592846Y32623D01*
X1593998Y30627D01*
X1595627Y28998D01*
X1596821Y28309D01*
X1596481Y27039D01*
X1589039D01*
Y47000D01*
X1588884Y47780D01*
X1588442Y48442D01*
X1587780Y48884D01*
X1587000Y49039D01*
X1563000D01*
X1562220Y48884D01*
X1561558Y48442D01*
X1561116Y47780D01*
X1560961Y47000D01*
Y27039D01*
X1485520D01*
X1485179Y28309D01*
X1486373Y28998D01*
X1488002Y30627D01*
X1489154Y32623D01*
X1489750Y34848D01*
Y37152D01*
X1489154Y39377D01*
X1488002Y41373D01*
X1486373Y43002D01*
X1484377Y44154D01*
X1482152Y44750D01*
X1479848D01*
X1477623Y44154D01*
X1475627Y43002D01*
X1473998Y41373D01*
X1472846Y39377D01*
X1472250Y37152D01*
Y34848D01*
X1472846Y32623D01*
X1473998Y30627D01*
X1475627Y28998D01*
X1476821Y28309D01*
X1476481Y27039D01*
X1460520D01*
X1460179Y28309D01*
X1461373Y28998D01*
X1463002Y30627D01*
X1464154Y32623D01*
X1464750Y34848D01*
Y37152D01*
X1464154Y39377D01*
X1463002Y41373D01*
X1461373Y43002D01*
X1459377Y44154D01*
X1457152Y44750D01*
X1454848D01*
X1452623Y44154D01*
X1450627Y43002D01*
X1448998Y41373D01*
X1447846Y39377D01*
X1447250Y37152D01*
Y34848D01*
X1447846Y32623D01*
X1448998Y30627D01*
X1450627Y28998D01*
X1451821Y28309D01*
X1451481Y27039D01*
X1435520D01*
X1435179Y28309D01*
X1436373Y28998D01*
X1438002Y30627D01*
X1439154Y32623D01*
X1439750Y34848D01*
Y37152D01*
X1439154Y39377D01*
X1438002Y41373D01*
X1436373Y43002D01*
X1434377Y44154D01*
X1432152Y44750D01*
X1429848D01*
X1427623Y44154D01*
X1425627Y43002D01*
X1423998Y41373D01*
X1422846Y39377D01*
X1422250Y37152D01*
Y34848D01*
X1422846Y32623D01*
X1423998Y30627D01*
X1425627Y28998D01*
X1426821Y28309D01*
X1426481Y27039D01*
X1410520D01*
X1410179Y28309D01*
X1411373Y28998D01*
X1413002Y30627D01*
X1414154Y32623D01*
X1414750Y34848D01*
Y37152D01*
X1414154Y39377D01*
X1413002Y41373D01*
X1411373Y43002D01*
X1409377Y44154D01*
X1407152Y44750D01*
X1404848D01*
X1402623Y44154D01*
X1400627Y43002D01*
X1398998Y41373D01*
X1397846Y39377D01*
X1397250Y37152D01*
Y34848D01*
X1397846Y32623D01*
X1398998Y30627D01*
X1400627Y28998D01*
X1401821Y28309D01*
X1401481Y27039D01*
X1385520D01*
X1385179Y28309D01*
X1386373Y28998D01*
X1388002Y30627D01*
X1389154Y32623D01*
X1389750Y34848D01*
Y37152D01*
X1389154Y39377D01*
X1388002Y41373D01*
X1386373Y43002D01*
X1384377Y44154D01*
X1382152Y44750D01*
X1379848D01*
X1377623Y44154D01*
X1375627Y43002D01*
X1373998Y41373D01*
X1372846Y39377D01*
X1372250Y37152D01*
Y34848D01*
X1372846Y32623D01*
X1373998Y30627D01*
X1375627Y28998D01*
X1376821Y28309D01*
X1376481Y27039D01*
X1369039D01*
Y45000D01*
X1368884Y45780D01*
X1368442Y46442D01*
X1367780Y46884D01*
X1367000Y47039D01*
X1345000D01*
X1344220Y46884D01*
X1343558Y46442D01*
X1343116Y45780D01*
X1342961Y45000D01*
Y27039D01*
X1265519D01*
X1265179Y28309D01*
X1266373Y28998D01*
X1268002Y30627D01*
X1269154Y32623D01*
X1269750Y34848D01*
Y37152D01*
X1269154Y39377D01*
X1268002Y41373D01*
X1266373Y43002D01*
X1264377Y44154D01*
X1262152Y44750D01*
X1259848D01*
X1259499Y44657D01*
X1258842Y45795D01*
X1275728Y62681D01*
X1670975D01*
X1671461Y61508D01*
D02*
G37*
G36*
X1222282Y77258D02*
X1189220Y44196D01*
X1187152Y44750D01*
X1184848D01*
X1182623Y44154D01*
X1180627Y43002D01*
X1178998Y41373D01*
X1177846Y39377D01*
X1177250Y37152D01*
Y34848D01*
X1177846Y32623D01*
X1178998Y30627D01*
X1180627Y28998D01*
X1181821Y28309D01*
X1181480Y27039D01*
X1165519D01*
X1165179Y28309D01*
X1166373Y28998D01*
X1168002Y30627D01*
X1169154Y32623D01*
X1169750Y34848D01*
Y37152D01*
X1169154Y39377D01*
X1168002Y41373D01*
X1166373Y43002D01*
X1164377Y44154D01*
X1162152Y44750D01*
X1159848D01*
X1157623Y44154D01*
X1155627Y43002D01*
X1153998Y41373D01*
X1152846Y39377D01*
X1152250Y37152D01*
Y34848D01*
X1152846Y32623D01*
X1153998Y30627D01*
X1155627Y28998D01*
X1156821Y28309D01*
X1156480Y27039D01*
X1149039D01*
Y48000D01*
X1148884Y48780D01*
X1148442Y49442D01*
X1147780Y49884D01*
X1147000Y50039D01*
X1125000D01*
X1124220Y49884D01*
X1123558Y49442D01*
X1123116Y48780D01*
X1122961Y48000D01*
Y27039D01*
X1071887D01*
X1071401Y28212D01*
X1121620Y78431D01*
X1221796D01*
X1222282Y77258D01*
D02*
G37*
G36*
X2096666Y141738D02*
Y70000D01*
X2096699Y69835D01*
X2096288Y62531D01*
X2095035Y55156D01*
X2092964Y47968D01*
X2090102Y41056D01*
X2086483Y34509D01*
X2082154Y28408D01*
X2077170Y22830D01*
X2071592Y17846D01*
X2065491Y13517D01*
X2058943Y9898D01*
X2052032Y7035D01*
X2044844Y4965D01*
X2037469Y3711D01*
X2030165Y3301D01*
X2030000Y3334D01*
X1809896D01*
X1809526Y4330D01*
X1809473Y4604D01*
X1809884Y5220D01*
X1810039Y6000D01*
Y47000D01*
X1810598Y47681D01*
X1911480D01*
X1911966Y46508D01*
X1905977Y40519D01*
X1905396Y39650D01*
X1904904Y39542D01*
X1904421Y39553D01*
X1903991Y39659D01*
X1903002Y41373D01*
X1901373Y43002D01*
X1899377Y44154D01*
X1897152Y44750D01*
X1894848D01*
X1892623Y44154D01*
X1890627Y43002D01*
X1888998Y41373D01*
X1887846Y39377D01*
X1887250Y37152D01*
Y34848D01*
X1887846Y32623D01*
X1888998Y30627D01*
X1889134Y30492D01*
X1888648Y29319D01*
X1882728D01*
X1879211Y32836D01*
X1879750Y34848D01*
Y37152D01*
X1879154Y39377D01*
X1878002Y41373D01*
X1876373Y43002D01*
X1874377Y44154D01*
X1872152Y44750D01*
X1869848D01*
X1867623Y44154D01*
X1865627Y43002D01*
X1863998Y41373D01*
X1862846Y39377D01*
X1862250Y37152D01*
Y35434D01*
X1860980Y34908D01*
X1859374Y36514D01*
X1858216Y37288D01*
X1856850Y37559D01*
X1854641D01*
X1854154Y39377D01*
X1853002Y41373D01*
X1851373Y43002D01*
X1849377Y44154D01*
X1847152Y44750D01*
X1844848D01*
X1842623Y44154D01*
X1840627Y43002D01*
X1838998Y41373D01*
X1837846Y39377D01*
X1837250Y37152D01*
Y34848D01*
X1837846Y32623D01*
X1838998Y30627D01*
X1840627Y28998D01*
X1842623Y27846D01*
X1844848Y27250D01*
X1847152D01*
X1849377Y27846D01*
X1851373Y28998D01*
X1852797Y30422D01*
X1855372D01*
X1868318Y17477D01*
X1869476Y16703D01*
X1870841Y16431D01*
X1922724D01*
X1924090Y16703D01*
X1925248Y17477D01*
X2017202Y109431D01*
X2061355D01*
X2062721Y109703D01*
X2063878Y110477D01*
X2095135Y141734D01*
X2095396Y142123D01*
X2096666Y141738D01*
D02*
G37*
G36*
X1781961Y47000D02*
Y27039D01*
X1705519D01*
X1705179Y28309D01*
X1706373Y28998D01*
X1708002Y30627D01*
X1709043Y32431D01*
X1752550D01*
X1753916Y32703D01*
X1755074Y33477D01*
X1769278Y47681D01*
X1781402D01*
X1781961Y47000D01*
D02*
G37*
G36*
X1147000Y25000D02*
X1216953D01*
X1218727Y23227D01*
X1219884Y22453D01*
X1221250Y22181D01*
X1240246D01*
X1241611Y22453D01*
X1242769Y23227D01*
X1244542Y25000D01*
X1345000D01*
Y45000D01*
X1367000D01*
Y25000D01*
X1563000D01*
Y47000D01*
X1587000D01*
Y25000D01*
X1784000D01*
Y47000D01*
X1808000D01*
Y6000D01*
X907000D01*
Y48000D01*
X927000D01*
Y25000D01*
X982458D01*
X994981Y12477D01*
X996139Y11703D01*
X997504Y11431D01*
X1053142D01*
X1054508Y11703D01*
X1055665Y12477D01*
X1068189Y25000D01*
X1125000D01*
Y48000D01*
X1147000D01*
Y25000D01*
D02*
G37*
%LPC*%
G36*
X1653940Y1064700D02*
X1650060D01*
X1646254Y1063943D01*
X1642668Y1062458D01*
X1639442Y1060302D01*
X1636698Y1057558D01*
X1634542Y1054331D01*
X1633057Y1050746D01*
X1632300Y1046940D01*
Y1043060D01*
X1633057Y1039254D01*
X1634542Y1035668D01*
X1635058Y1034896D01*
X1629011Y1028850D01*
X1620500D01*
Y1009150D01*
X1635500D01*
Y1022361D01*
X1641477Y1028338D01*
X1642668Y1027542D01*
X1646254Y1026057D01*
X1650060Y1025300D01*
X1653940D01*
X1657746Y1026057D01*
X1661331Y1027542D01*
X1664558Y1029698D01*
X1667302Y1032442D01*
X1669458Y1035668D01*
X1670943Y1039254D01*
X1671700Y1043060D01*
Y1046940D01*
X1670943Y1050746D01*
X1669458Y1054331D01*
X1667302Y1057558D01*
X1664558Y1060302D01*
X1661331Y1062458D01*
X1657746Y1063943D01*
X1653940Y1064700D01*
D02*
G37*
G36*
X1468205Y1080150D02*
X1465795D01*
X1463468Y1079526D01*
X1461382Y1078322D01*
X1459678Y1076618D01*
X1458474Y1074532D01*
X1457850Y1072205D01*
Y1069795D01*
X1458474Y1067468D01*
X1459678Y1065382D01*
X1461382Y1063678D01*
X1463468Y1062474D01*
X1465795Y1061850D01*
X1468205D01*
X1470532Y1062474D01*
X1472618Y1063678D01*
X1474322Y1065382D01*
X1475526Y1067468D01*
X1476150Y1069795D01*
Y1072205D01*
X1475526Y1074532D01*
X1474322Y1076618D01*
X1472618Y1078322D01*
X1470532Y1079526D01*
X1468205Y1080150D01*
D02*
G37*
G36*
X1448205D02*
X1445795D01*
X1443468Y1079526D01*
X1441382Y1078322D01*
X1439678Y1076618D01*
X1438474Y1074532D01*
X1437850Y1072205D01*
Y1069795D01*
X1438474Y1067468D01*
X1439678Y1065382D01*
X1441382Y1063678D01*
X1443468Y1062474D01*
X1445795Y1061850D01*
X1448205D01*
X1450532Y1062474D01*
X1452618Y1063678D01*
X1454322Y1065382D01*
X1455526Y1067468D01*
X1456150Y1069795D01*
Y1072205D01*
X1455526Y1074532D01*
X1454322Y1076618D01*
X1452618Y1078322D01*
X1450532Y1079526D01*
X1448205Y1080150D01*
D02*
G37*
G36*
X1417000Y1103039D02*
X1195000D01*
X1194220Y1102884D01*
X1193558Y1102442D01*
X1193116Y1101780D01*
X1192961Y1101000D01*
Y995000D01*
X1193116Y994220D01*
X1193558Y993558D01*
X1193700Y993463D01*
Y992800D01*
X1208900D01*
Y994300D01*
X1209039Y995000D01*
Y1023961D01*
X1218700D01*
Y992800D01*
X1227411D01*
X1240156Y980056D01*
X1241644Y979061D01*
X1243400Y978712D01*
X1331300D01*
X1333056Y979061D01*
X1334544Y980056D01*
X1387901Y1033412D01*
X1394664D01*
X1396420Y1033761D01*
X1397908Y1034756D01*
X1405170Y1042018D01*
X1405795Y1041850D01*
X1408205D01*
X1410532Y1042474D01*
X1412618Y1043678D01*
X1414322Y1045382D01*
X1415526Y1047468D01*
X1416150Y1049795D01*
Y1052205D01*
X1415526Y1054532D01*
X1414322Y1056618D01*
X1412618Y1058322D01*
X1410532Y1059526D01*
X1409918Y1059691D01*
X1410085Y1060961D01*
X1417000D01*
X1417780Y1061116D01*
X1418442Y1061558D01*
X1418884Y1062220D01*
X1419039Y1063000D01*
Y1064225D01*
X1420309Y1064751D01*
X1421382Y1063678D01*
X1423468Y1062474D01*
X1425795Y1061850D01*
X1428205D01*
X1430532Y1062474D01*
X1432618Y1063678D01*
X1434322Y1065382D01*
X1435526Y1067468D01*
X1436150Y1069795D01*
Y1072205D01*
X1435526Y1074532D01*
X1434322Y1076618D01*
X1432618Y1078322D01*
X1430532Y1079526D01*
X1428205Y1080150D01*
X1425795D01*
X1423468Y1079526D01*
X1421382Y1078322D01*
X1420309Y1077249D01*
X1419039Y1077775D01*
Y1101000D01*
X1418884Y1101780D01*
X1418442Y1102442D01*
X1417780Y1102884D01*
X1417000Y1103039D01*
D02*
G37*
G36*
X1488205Y1060150D02*
X1485795D01*
X1483468Y1059526D01*
X1481382Y1058322D01*
X1479678Y1056618D01*
X1478474Y1054532D01*
X1477850Y1052205D01*
Y1049795D01*
X1478474Y1047468D01*
X1479678Y1045382D01*
X1481382Y1043678D01*
X1483468Y1042474D01*
X1485795Y1041850D01*
X1488205D01*
X1490532Y1042474D01*
X1492618Y1043678D01*
X1494322Y1045382D01*
X1495526Y1047468D01*
X1496150Y1049795D01*
Y1052205D01*
X1495526Y1054532D01*
X1494322Y1056618D01*
X1492618Y1058322D01*
X1490532Y1059526D01*
X1488205Y1060150D01*
D02*
G37*
G36*
X1468205D02*
X1465795D01*
X1463468Y1059526D01*
X1461382Y1058322D01*
X1459678Y1056618D01*
X1458474Y1054532D01*
X1457850Y1052205D01*
Y1049795D01*
X1458474Y1047468D01*
X1459678Y1045382D01*
X1461382Y1043678D01*
X1463468Y1042474D01*
X1465795Y1041850D01*
X1468205D01*
X1470532Y1042474D01*
X1472618Y1043678D01*
X1474322Y1045382D01*
X1475526Y1047468D01*
X1476150Y1049795D01*
Y1052205D01*
X1475526Y1054532D01*
X1474322Y1056618D01*
X1472618Y1058322D01*
X1470532Y1059526D01*
X1468205Y1060150D01*
D02*
G37*
G36*
X1428205D02*
X1425795D01*
X1423468Y1059526D01*
X1421382Y1058322D01*
X1419678Y1056618D01*
X1418474Y1054532D01*
X1417850Y1052205D01*
Y1049795D01*
X1418474Y1047468D01*
X1419678Y1045382D01*
X1421382Y1043678D01*
X1423468Y1042474D01*
X1425795Y1041850D01*
X1428205D01*
X1430532Y1042474D01*
X1432618Y1043678D01*
X1434322Y1045382D01*
X1435526Y1047468D01*
X1436150Y1049795D01*
Y1052205D01*
X1435526Y1054532D01*
X1434322Y1056618D01*
X1432618Y1058322D01*
X1430532Y1059526D01*
X1428205Y1060150D01*
D02*
G37*
G36*
X1172540Y1064700D02*
X1168660D01*
X1164854Y1063943D01*
X1161269Y1062458D01*
X1158042Y1060302D01*
X1155298Y1057558D01*
X1153142Y1054331D01*
X1151657Y1050746D01*
X1150900Y1046940D01*
Y1043060D01*
X1151657Y1039254D01*
X1153142Y1035668D01*
X1153798Y1034687D01*
X1149852Y1030740D01*
X1148857Y1029252D01*
X1148508Y1027496D01*
Y1026600D01*
X1139150D01*
Y1011600D01*
X1158850D01*
Y1026600D01*
X1158850Y1026600D01*
X1158850D01*
X1159603Y1027514D01*
X1160287Y1028198D01*
X1161269Y1027542D01*
X1164854Y1026057D01*
X1168660Y1025300D01*
X1172540D01*
X1176346Y1026057D01*
X1179931Y1027542D01*
X1183158Y1029698D01*
X1185902Y1032442D01*
X1188058Y1035668D01*
X1189543Y1039254D01*
X1190300Y1043060D01*
Y1046940D01*
X1189543Y1050746D01*
X1188058Y1054331D01*
X1185902Y1057558D01*
X1183158Y1060302D01*
X1179931Y1062458D01*
X1176346Y1063943D01*
X1172540Y1064700D01*
D02*
G37*
G36*
X1785340D02*
X1781460D01*
X1777654Y1063943D01*
X1774068Y1062458D01*
X1770842Y1060302D01*
X1768098Y1057558D01*
X1765942Y1054331D01*
X1764457Y1050746D01*
X1763700Y1046940D01*
Y1043060D01*
X1764457Y1039254D01*
X1765942Y1035668D01*
X1768098Y1032442D01*
X1770842Y1029698D01*
X1774068Y1027542D01*
X1777654Y1026057D01*
X1781460Y1025300D01*
X1785340D01*
X1789146Y1026057D01*
X1792723Y1027539D01*
X1798150Y1022111D01*
Y1013600D01*
X1817850D01*
Y1028600D01*
X1804639D01*
X1799541Y1033698D01*
X1800858Y1035668D01*
X1802343Y1039254D01*
X1803100Y1043060D01*
Y1046940D01*
X1802343Y1050746D01*
X1800858Y1054331D01*
X1798702Y1057558D01*
X1795958Y1060302D01*
X1792731Y1062458D01*
X1789146Y1063943D01*
X1785340Y1064700D01*
D02*
G37*
G36*
X749650Y914850D02*
X734350D01*
Y899550D01*
X749650D01*
Y914850D01*
D02*
G37*
G36*
X732000Y891250D02*
X719000D01*
Y872750D01*
X732000D01*
Y878231D01*
X735227D01*
X735879Y877103D01*
X737303Y875678D01*
X738431Y875027D01*
Y863173D01*
X737303Y862522D01*
X735879Y861097D01*
X735227Y859969D01*
X720400D01*
X719034Y859697D01*
X717877Y858923D01*
X686953Y828000D01*
X686005D01*
X684168Y827239D01*
X682761Y825832D01*
X682000Y823995D01*
Y822005D01*
X682761Y820168D01*
X684168Y818761D01*
X686005Y818000D01*
X687995D01*
X689832Y818761D01*
X691239Y820168D01*
X692000Y822005D01*
Y822953D01*
X721878Y852831D01*
X735227D01*
X735879Y851703D01*
X737303Y850278D01*
X739047Y849271D01*
X740993Y848750D01*
X743007D01*
X744953Y849271D01*
X746697Y850278D01*
X748121Y851703D01*
X749129Y853447D01*
X749650Y855393D01*
Y857407D01*
X749129Y859353D01*
X748121Y861097D01*
X746697Y862522D01*
X745569Y863173D01*
Y875027D01*
X746697Y875678D01*
X748121Y877103D01*
X749129Y878847D01*
X749650Y880793D01*
Y882807D01*
X749129Y884753D01*
X748121Y886497D01*
X746697Y887922D01*
X744953Y888929D01*
X743007Y889450D01*
X740993D01*
X739047Y888929D01*
X737303Y887922D01*
X735879Y886497D01*
X735227Y885369D01*
X732000D01*
Y891250D01*
D02*
G37*
G36*
X743007Y838650D02*
X740993D01*
X739047Y838129D01*
X737303Y837122D01*
X735879Y835697D01*
X734871Y833953D01*
X734350Y832007D01*
Y829993D01*
X734871Y828047D01*
X735879Y826303D01*
X737303Y824878D01*
X739047Y823871D01*
X740993Y823350D01*
X743007D01*
X744953Y823871D01*
X746697Y824878D01*
X748121Y826303D01*
X749129Y828047D01*
X749650Y829993D01*
Y832007D01*
X749129Y833953D01*
X748121Y835697D01*
X746697Y837122D01*
X744953Y838129D01*
X743007Y838650D01*
D02*
G37*
G36*
Y813250D02*
X740993D01*
X739047Y812729D01*
X737303Y811721D01*
X735879Y810297D01*
X734871Y808553D01*
X734350Y806607D01*
Y804593D01*
X734871Y802647D01*
X735879Y800903D01*
X737303Y799479D01*
X739047Y798471D01*
X740993Y797950D01*
X743007D01*
X744953Y798471D01*
X746697Y799479D01*
X748121Y800903D01*
X749129Y802647D01*
X749650Y804593D01*
Y806607D01*
X749129Y808553D01*
X748121Y810297D01*
X746697Y811721D01*
X744953Y812729D01*
X743007Y813250D01*
D02*
G37*
G36*
X581000Y836039D02*
X205000D01*
X204220Y835884D01*
X203558Y835442D01*
X203116Y834780D01*
X202961Y834000D01*
Y805000D01*
X203116Y804220D01*
X203558Y803558D01*
X204220Y803116D01*
X205000Y802961D01*
X215851D01*
X216377Y801691D01*
X215598Y800912D01*
X214545Y799088D01*
X214000Y797053D01*
Y794947D01*
X214545Y792912D01*
X215598Y791088D01*
X217088Y789598D01*
X218912Y788545D01*
X220947Y788000D01*
X223053D01*
X225088Y788545D01*
X226912Y789598D01*
X228402Y791088D01*
X229177Y792431D01*
X283823D01*
X284598Y791088D01*
X286088Y789598D01*
X287912Y788545D01*
X289947Y788000D01*
X292053D01*
X294088Y788545D01*
X295912Y789598D01*
X297402Y791088D01*
X298177Y792431D01*
X355823D01*
X356598Y791088D01*
X358088Y789598D01*
X359912Y788545D01*
X361947Y788000D01*
X364053D01*
X366088Y788545D01*
X367912Y789598D01*
X369402Y791088D01*
X370177Y792431D01*
X424823D01*
X425598Y791088D01*
X427088Y789598D01*
X428912Y788545D01*
X430947Y788000D01*
X433053D01*
X435088Y788545D01*
X436912Y789598D01*
X438402Y791088D01*
X439177Y792431D01*
X493823D01*
X494598Y791088D01*
X496088Y789598D01*
X497912Y788545D01*
X499947Y788000D01*
X502053D01*
X504088Y788545D01*
X505912Y789598D01*
X507402Y791088D01*
X508177Y792431D01*
X563823D01*
X564598Y791088D01*
X566088Y789598D01*
X567912Y788545D01*
X569947Y788000D01*
X572053D01*
X574088Y788545D01*
X575912Y789598D01*
X577402Y791088D01*
X578455Y792912D01*
X579000Y794947D01*
Y797053D01*
X578455Y799088D01*
X577402Y800912D01*
X576623Y801691D01*
X577149Y802961D01*
X581000D01*
X581780Y803116D01*
X582442Y803558D01*
X582884Y804220D01*
X583039Y805000D01*
Y834000D01*
X582884Y834780D01*
X582442Y835442D01*
X581780Y835884D01*
X581000Y836039D01*
D02*
G37*
G36*
X743007Y787850D02*
X740993D01*
X739047Y787329D01*
X737303Y786321D01*
X735879Y784897D01*
X734871Y783153D01*
X734350Y781207D01*
Y779193D01*
X734871Y777247D01*
X735879Y775503D01*
X737303Y774079D01*
X739047Y773071D01*
X740993Y772550D01*
X743007D01*
X744953Y773071D01*
X746697Y774079D01*
X748121Y775503D01*
X749129Y777247D01*
X749650Y779193D01*
Y781207D01*
X749129Y783153D01*
X748121Y784897D01*
X746697Y786321D01*
X744953Y787329D01*
X743007Y787850D01*
D02*
G37*
G36*
Y762450D02*
X740993D01*
X739047Y761929D01*
X737303Y760921D01*
X735879Y759497D01*
X734871Y757753D01*
X734350Y755807D01*
Y753793D01*
X734871Y751847D01*
X735879Y750103D01*
X737303Y748679D01*
X739047Y747671D01*
X740993Y747150D01*
X743007D01*
X744953Y747671D01*
X746697Y748679D01*
X748121Y750103D01*
X749129Y751847D01*
X749650Y753793D01*
Y755807D01*
X749129Y757753D01*
X748121Y759497D01*
X746697Y760921D01*
X744953Y761929D01*
X743007Y762450D01*
D02*
G37*
G36*
Y737050D02*
X740993D01*
X739047Y736529D01*
X737303Y735521D01*
X735879Y734097D01*
X734871Y732353D01*
X734350Y730407D01*
Y728393D01*
X734871Y726447D01*
X735879Y724703D01*
X737303Y723279D01*
X739047Y722271D01*
X740993Y721750D01*
X743007D01*
X744953Y722271D01*
X746697Y723279D01*
X748121Y724703D01*
X749129Y726447D01*
X749650Y728393D01*
Y730407D01*
X749129Y732353D01*
X748121Y734097D01*
X746697Y735521D01*
X744953Y736529D01*
X743007Y737050D01*
D02*
G37*
G36*
Y711650D02*
X740993D01*
X739047Y711129D01*
X737303Y710122D01*
X735879Y708697D01*
X734871Y706953D01*
X734350Y705007D01*
Y702993D01*
X734871Y701047D01*
X735879Y699303D01*
X737303Y697878D01*
X739047Y696871D01*
X740993Y696350D01*
X743007D01*
X744953Y696871D01*
X746697Y697878D01*
X748121Y699303D01*
X749129Y701047D01*
X749650Y702993D01*
Y705007D01*
X749129Y706953D01*
X748121Y708697D01*
X746697Y710122D01*
X744953Y711129D01*
X743007Y711650D01*
D02*
G37*
G36*
Y686250D02*
X740993D01*
X739047Y685729D01*
X737303Y684722D01*
X735879Y683297D01*
X734871Y681553D01*
X734350Y679607D01*
Y677593D01*
X734871Y675647D01*
X735879Y673903D01*
X737303Y672478D01*
X739047Y671471D01*
X740993Y670950D01*
X743007D01*
X744953Y671471D01*
X746697Y672478D01*
X748121Y673903D01*
X749129Y675647D01*
X749650Y677593D01*
Y679607D01*
X749129Y681553D01*
X748121Y683297D01*
X746697Y684722D01*
X744953Y685729D01*
X743007Y686250D01*
D02*
G37*
G36*
X748074Y667700D02*
X744726D01*
X741441Y667047D01*
X738347Y665765D01*
X735563Y663905D01*
X733195Y661537D01*
X731335Y658753D01*
X730053Y655659D01*
X729400Y652374D01*
Y649026D01*
X730053Y645741D01*
X731335Y642647D01*
X733195Y639863D01*
X735563Y637495D01*
X738347Y635635D01*
X741441Y634353D01*
X744726Y633700D01*
X748074D01*
X751359Y634353D01*
X754453Y635635D01*
X757237Y637495D01*
X759605Y639863D01*
X761465Y642647D01*
X762747Y645741D01*
X763400Y649026D01*
Y652374D01*
X762747Y655659D01*
X761465Y658753D01*
X759605Y661537D01*
X757237Y663905D01*
X754453Y665765D01*
X751359Y667047D01*
X748074Y667700D01*
D02*
G37*
G36*
X1230674Y655000D02*
X1227326D01*
X1224041Y654347D01*
X1220947Y653065D01*
X1218163Y651205D01*
X1215795Y648837D01*
X1213935Y646052D01*
X1212653Y642959D01*
X1212000Y639674D01*
Y636326D01*
X1212653Y633041D01*
X1213935Y629948D01*
X1215795Y627163D01*
X1218163Y624795D01*
X1220947Y622935D01*
X1224041Y621653D01*
X1227326Y621000D01*
X1230674D01*
X1233959Y621653D01*
X1237053Y622935D01*
X1239837Y624795D01*
X1242205Y627163D01*
X1244065Y629948D01*
X1245347Y633041D01*
X1246000Y636326D01*
Y639674D01*
X1245347Y642959D01*
X1244065Y646052D01*
X1242205Y648837D01*
X1239837Y651205D01*
X1237053Y653065D01*
X1233959Y654347D01*
X1230674Y655000D01*
D02*
G37*
G36*
X2039771Y622750D02*
X2037230D01*
X2034775Y622092D01*
X2032575Y620822D01*
X2030778Y619025D01*
X2029508Y616825D01*
X2028850Y614370D01*
Y611829D01*
X2029508Y609375D01*
X2030778Y607175D01*
X2032575Y605378D01*
X2034775Y604108D01*
X2037230Y603450D01*
X2039771D01*
X2042225Y604108D01*
X2044425Y605378D01*
X2046222Y607175D01*
X2047492Y609375D01*
X2048150Y611829D01*
Y614370D01*
X2047492Y616825D01*
X2046222Y619025D01*
X2044425Y620822D01*
X2042225Y622092D01*
X2039771Y622750D01*
D02*
G37*
G36*
X2022750D02*
X2003450D01*
Y603450D01*
X2022750D01*
Y622750D01*
D02*
G37*
G36*
X696870Y622250D02*
X694330D01*
X691875Y621592D01*
X689675Y620322D01*
X687878Y618525D01*
X686608Y616325D01*
X685950Y613871D01*
Y611329D01*
X686608Y608875D01*
X687878Y606675D01*
X689675Y604878D01*
X691875Y603608D01*
X694330Y602950D01*
X696870D01*
X699325Y603608D01*
X701525Y604878D01*
X703322Y606675D01*
X704592Y608875D01*
X705250Y611329D01*
Y613871D01*
X704592Y616325D01*
X703322Y618525D01*
X701525Y620322D01*
X699325Y621592D01*
X696870Y622250D01*
D02*
G37*
G36*
X679850D02*
X660550D01*
Y602950D01*
X679850D01*
Y622250D01*
D02*
G37*
G36*
X2014371Y571950D02*
X2011830D01*
X2009375Y571292D01*
X2007175Y570022D01*
X2005378Y568225D01*
X2004108Y566025D01*
X2003450Y563571D01*
Y561030D01*
X2004108Y558575D01*
X2005378Y556375D01*
X2007175Y554578D01*
X2009375Y553308D01*
X2011830Y552650D01*
X2014371D01*
X2016825Y553308D01*
X2019025Y554578D01*
X2020822Y556375D01*
X2022092Y558575D01*
X2022750Y561030D01*
Y563571D01*
X2022092Y566025D01*
X2020822Y568225D01*
X2019025Y570022D01*
X2016825Y571292D01*
X2014371Y571950D01*
D02*
G37*
G36*
X2039771Y546550D02*
X2037230D01*
X2034775Y545892D01*
X2032575Y544622D01*
X2030778Y542825D01*
X2029508Y540625D01*
X2028850Y538171D01*
Y535630D01*
X2029508Y533175D01*
X2030778Y530975D01*
X2032575Y529178D01*
X2034775Y527908D01*
X2037230Y527250D01*
X2039771D01*
X2042225Y527908D01*
X2044425Y529178D01*
X2046222Y530975D01*
X2047492Y533175D01*
X2048150Y535630D01*
Y538171D01*
X2047492Y540625D01*
X2046222Y542825D01*
X2044425Y544622D01*
X2042225Y545892D01*
X2039771Y546550D01*
D02*
G37*
G36*
X2014371D02*
X2011830D01*
X2009375Y545892D01*
X2007175Y544622D01*
X2005378Y542825D01*
X2004108Y540625D01*
X2003450Y538171D01*
Y535630D01*
X2004108Y533175D01*
X2005378Y530975D01*
X2007175Y529178D01*
X2009375Y527908D01*
X2011830Y527250D01*
X2014371D01*
X2016825Y527908D01*
X2019025Y529178D01*
X2020822Y530975D01*
X2022092Y533175D01*
X2022750Y535630D01*
Y538171D01*
X2022092Y540625D01*
X2020822Y542825D01*
X2019025Y544622D01*
X2016825Y545892D01*
X2014371Y546550D01*
D02*
G37*
G36*
X1306470Y546050D02*
X1303929D01*
X1301475Y545392D01*
X1299275Y544122D01*
X1297478Y542325D01*
X1296208Y540125D01*
X1295550Y537671D01*
Y535130D01*
X1296208Y532675D01*
X1297478Y530475D01*
X1299275Y528678D01*
X1301475Y527408D01*
X1303929Y526750D01*
X1306470D01*
X1308925Y527408D01*
X1311125Y528678D01*
X1312922Y530475D01*
X1314192Y532675D01*
X1314850Y535130D01*
Y537671D01*
X1314192Y540125D01*
X1312922Y542325D01*
X1311125Y544122D01*
X1308925Y545392D01*
X1306470Y546050D01*
D02*
G37*
G36*
X2039771Y521150D02*
X2037230D01*
X2034775Y520492D01*
X2032575Y519222D01*
X2030778Y517425D01*
X2029508Y515225D01*
X2028850Y512771D01*
Y510229D01*
X2029508Y507775D01*
X2030778Y505575D01*
X2032575Y503778D01*
X2034775Y502508D01*
X2037230Y501850D01*
X2039771D01*
X2042225Y502508D01*
X2044425Y503778D01*
X2046222Y505575D01*
X2047492Y507775D01*
X2048150Y510229D01*
Y512771D01*
X2047492Y515225D01*
X2046222Y517425D01*
X2044425Y519222D01*
X2042225Y520492D01*
X2039771Y521150D01*
D02*
G37*
G36*
X2014371D02*
X2011830D01*
X2009375Y520492D01*
X2007175Y519222D01*
X2005378Y517425D01*
X2004108Y515225D01*
X2003450Y512771D01*
Y510229D01*
X2004108Y507775D01*
X2005378Y505575D01*
X2007175Y503778D01*
X2009375Y502508D01*
X2011830Y501850D01*
X2014371D01*
X2016825Y502508D01*
X2019025Y503778D01*
X2020822Y505575D01*
X2022092Y507775D01*
X2022750Y510229D01*
Y512771D01*
X2022092Y515225D01*
X2020822Y517425D01*
X2019025Y519222D01*
X2016825Y520492D01*
X2014371Y521150D01*
D02*
G37*
G36*
X1306470Y520650D02*
X1303929D01*
X1301475Y519992D01*
X1299275Y518722D01*
X1297478Y516925D01*
X1296208Y514725D01*
X1295550Y512271D01*
Y509729D01*
X1296208Y507275D01*
X1297478Y505075D01*
X1299275Y503278D01*
X1301475Y502008D01*
X1303929Y501350D01*
X1306470D01*
X1308925Y502008D01*
X1311125Y503278D01*
X1312922Y505075D01*
X1314192Y507275D01*
X1314850Y509729D01*
Y512271D01*
X1314192Y514725D01*
X1312922Y516925D01*
X1311125Y518722D01*
X1308925Y519992D01*
X1306470Y520650D01*
D02*
G37*
G36*
X1281071D02*
X1278530D01*
X1276075Y519992D01*
X1273875Y518722D01*
X1272078Y516925D01*
X1270808Y514725D01*
X1270150Y512271D01*
Y509729D01*
X1270808Y507275D01*
X1272078Y505075D01*
X1273875Y503278D01*
X1276075Y502008D01*
X1278530Y501350D01*
X1281071D01*
X1283525Y502008D01*
X1285725Y503278D01*
X1287522Y505075D01*
X1288792Y507275D01*
X1289450Y509729D01*
Y512271D01*
X1288792Y514725D01*
X1287522Y516925D01*
X1285725Y518722D01*
X1283525Y519992D01*
X1281071Y520650D01*
D02*
G37*
G36*
X99000Y551039D02*
X31000D01*
X30220Y550884D01*
X29558Y550442D01*
X29116Y549780D01*
X28961Y549000D01*
Y482000D01*
X29116Y481220D01*
X29558Y480558D01*
X30220Y480116D01*
X31000Y479961D01*
X99000D01*
X99780Y480116D01*
X100442Y480558D01*
X100884Y481220D01*
X101039Y482000D01*
Y549000D01*
X100884Y549780D01*
X100442Y550442D01*
X99780Y550884D01*
X99000Y551039D01*
D02*
G37*
G36*
X1039298Y676697D02*
X1037309D01*
X1035471Y675936D01*
X1034064Y674529D01*
X1033303Y672691D01*
Y672350D01*
X840522Y479569D01*
X727350D01*
Y483100D01*
X708650D01*
Y468900D01*
X727350D01*
Y472431D01*
X842000D01*
X843366Y472703D01*
X844523Y473477D01*
X1037744Y666697D01*
X1039298D01*
X1041136Y667458D01*
X1042542Y668864D01*
X1043303Y670702D01*
Y672691D01*
X1042542Y674529D01*
X1041136Y675936D01*
X1039298Y676697D01*
D02*
G37*
G36*
X1306470Y495250D02*
X1303929D01*
X1301475Y494592D01*
X1299275Y493322D01*
X1297478Y491525D01*
X1296208Y489325D01*
X1295550Y486870D01*
Y484329D01*
X1296208Y481875D01*
X1297478Y479675D01*
X1299275Y477878D01*
X1301475Y476608D01*
X1303929Y475950D01*
X1306470D01*
X1308925Y476608D01*
X1311125Y477878D01*
X1312922Y479675D01*
X1314192Y481875D01*
X1314850Y484329D01*
Y486870D01*
X1314192Y489325D01*
X1312922Y491525D01*
X1311125Y493322D01*
X1308925Y494592D01*
X1306470Y495250D01*
D02*
G37*
G36*
X1281071D02*
X1278530D01*
X1276075Y494592D01*
X1273875Y493322D01*
X1272078Y491525D01*
X1270808Y489325D01*
X1270150Y486870D01*
Y484329D01*
X1270808Y481875D01*
X1272078Y479675D01*
X1273875Y477878D01*
X1276075Y476608D01*
X1278530Y475950D01*
X1281071D01*
X1283525Y476608D01*
X1285725Y477878D01*
X1287522Y479675D01*
X1288792Y481875D01*
X1289450Y484329D01*
Y486870D01*
X1288792Y489325D01*
X1287522Y491525D01*
X1285725Y493322D01*
X1283525Y494592D01*
X1281071Y495250D01*
D02*
G37*
G36*
X2014371Y470350D02*
X2011830D01*
X2009375Y469692D01*
X2007175Y468422D01*
X2005378Y466625D01*
X2004108Y464425D01*
X2003450Y461970D01*
Y459430D01*
X2004108Y456975D01*
X2005378Y454775D01*
X2007175Y452978D01*
X2009375Y451708D01*
X2011830Y451050D01*
X2014371D01*
X2016825Y451708D01*
X2019025Y452978D01*
X2020822Y454775D01*
X2022092Y456975D01*
X2022750Y459430D01*
Y461970D01*
X2022092Y464425D01*
X2020822Y466625D01*
X2019025Y468422D01*
X2016825Y469692D01*
X2014371Y470350D01*
D02*
G37*
G36*
X1306470Y469850D02*
X1303929D01*
X1301475Y469192D01*
X1299275Y467922D01*
X1297478Y466125D01*
X1296208Y463925D01*
X1295550Y461470D01*
Y458929D01*
X1296208Y456475D01*
X1297478Y454275D01*
X1299275Y452478D01*
X1301475Y451208D01*
X1303929Y450550D01*
X1306470D01*
X1308925Y451208D01*
X1311125Y452478D01*
X1312922Y454275D01*
X1314192Y456475D01*
X1314850Y458929D01*
Y461470D01*
X1314192Y463925D01*
X1312922Y466125D01*
X1311125Y467922D01*
X1308925Y469192D01*
X1306470Y469850D01*
D02*
G37*
G36*
X1281071D02*
X1278530D01*
X1276075Y469192D01*
X1273875Y467922D01*
X1272078Y466125D01*
X1270808Y463925D01*
X1270150Y461470D01*
Y458929D01*
X1270808Y456475D01*
X1272078Y454275D01*
X1273875Y452478D01*
X1276075Y451208D01*
X1278530Y450550D01*
X1281071D01*
X1283525Y451208D01*
X1285725Y452478D01*
X1287522Y454275D01*
X1288792Y456475D01*
X1289450Y458929D01*
Y461470D01*
X1288792Y463925D01*
X1287522Y466125D01*
X1285725Y467922D01*
X1283525Y469192D01*
X1281071Y469850D01*
D02*
G37*
G36*
X2039771Y444950D02*
X2037230D01*
X2034775Y444292D01*
X2032575Y443022D01*
X2030778Y441225D01*
X2029508Y439025D01*
X2028850Y436571D01*
Y434030D01*
X2029508Y431575D01*
X2030778Y429375D01*
X2032575Y427578D01*
X2034775Y426308D01*
X2037230Y425650D01*
X2039771D01*
X2042225Y426308D01*
X2044425Y427578D01*
X2046222Y429375D01*
X2047492Y431575D01*
X2048150Y434030D01*
Y436571D01*
X2047492Y439025D01*
X2046222Y441225D01*
X2044425Y443022D01*
X2042225Y444292D01*
X2039771Y444950D01*
D02*
G37*
G36*
X2014371D02*
X2011830D01*
X2009375Y444292D01*
X2007175Y443022D01*
X2005378Y441225D01*
X2004108Y439025D01*
X2003450Y436571D01*
Y434030D01*
X2004108Y431575D01*
X2005378Y429375D01*
X2007175Y427578D01*
X2009375Y426308D01*
X2011830Y425650D01*
X2014371D01*
X2016825Y426308D01*
X2019025Y427578D01*
X2020822Y429375D01*
X2022092Y431575D01*
X2022750Y434030D01*
Y436571D01*
X2022092Y439025D01*
X2020822Y441225D01*
X2019025Y443022D01*
X2016825Y444292D01*
X2014371Y444950D01*
D02*
G37*
G36*
X1306470Y444450D02*
X1303929D01*
X1301475Y443792D01*
X1299275Y442522D01*
X1297478Y440725D01*
X1296208Y438525D01*
X1295550Y436071D01*
Y433530D01*
X1296208Y431075D01*
X1297478Y428875D01*
X1299275Y427078D01*
X1301475Y425808D01*
X1303929Y425150D01*
X1306470D01*
X1308925Y425808D01*
X1311125Y427078D01*
X1312922Y428875D01*
X1314192Y431075D01*
X1314850Y433530D01*
Y436071D01*
X1314192Y438525D01*
X1312922Y440725D01*
X1311125Y442522D01*
X1308925Y443792D01*
X1306470Y444450D01*
D02*
G37*
G36*
X1281071D02*
X1278530D01*
X1276075Y443792D01*
X1273875Y442522D01*
X1272078Y440725D01*
X1270808Y438525D01*
X1270150Y436071D01*
Y433530D01*
X1270808Y431075D01*
X1272078Y428875D01*
X1273875Y427078D01*
X1276075Y425808D01*
X1278530Y425150D01*
X1281071D01*
X1283525Y425808D01*
X1285725Y427078D01*
X1287522Y428875D01*
X1288792Y431075D01*
X1289450Y433530D01*
Y436071D01*
X1288792Y438525D01*
X1287522Y440725D01*
X1285725Y442522D01*
X1283525Y443792D01*
X1281071Y444450D01*
D02*
G37*
G36*
X2039771Y419550D02*
X2037230D01*
X2034775Y418892D01*
X2032575Y417622D01*
X2030778Y415825D01*
X2029508Y413625D01*
X2028850Y411171D01*
Y408629D01*
X2029508Y406175D01*
X2030778Y403975D01*
X2032575Y402178D01*
X2034775Y400908D01*
X2037230Y400250D01*
X2039771D01*
X2042225Y400908D01*
X2044425Y402178D01*
X2046222Y403975D01*
X2047492Y406175D01*
X2048150Y408629D01*
Y411171D01*
X2047492Y413625D01*
X2046222Y415825D01*
X2044425Y417622D01*
X2042225Y418892D01*
X2039771Y419550D01*
D02*
G37*
G36*
X2014371D02*
X2011830D01*
X2009375Y418892D01*
X2007175Y417622D01*
X2005378Y415825D01*
X2004108Y413625D01*
X2003450Y411171D01*
Y408629D01*
X2004108Y406175D01*
X2005378Y403975D01*
X2007175Y402178D01*
X2009375Y400908D01*
X2011830Y400250D01*
X2014371D01*
X2016825Y400908D01*
X2019025Y402178D01*
X2020822Y403975D01*
X2022092Y406175D01*
X2022750Y408629D01*
Y411171D01*
X2022092Y413625D01*
X2020822Y415825D01*
X2019025Y417622D01*
X2016825Y418892D01*
X2014371Y419550D01*
D02*
G37*
G36*
X1306470Y368250D02*
X1303929D01*
X1301475Y367592D01*
X1299275Y366322D01*
X1297478Y364525D01*
X1296208Y362325D01*
X1295550Y359870D01*
Y357329D01*
X1296208Y354875D01*
X1297478Y352675D01*
X1299275Y350878D01*
X1301475Y349608D01*
X1303929Y348950D01*
X1306470D01*
X1308925Y349608D01*
X1311125Y350878D01*
X1312922Y352675D01*
X1314192Y354875D01*
X1314850Y357329D01*
Y359870D01*
X1314192Y362325D01*
X1312922Y364525D01*
X1311125Y366322D01*
X1308925Y367592D01*
X1306470Y368250D01*
D02*
G37*
G36*
X1281071D02*
X1278530D01*
X1276075Y367592D01*
X1273875Y366322D01*
X1272078Y364525D01*
X1270808Y362325D01*
X1270150Y359870D01*
Y357329D01*
X1270808Y354875D01*
X1272078Y352675D01*
X1273875Y350878D01*
X1276075Y349608D01*
X1278530Y348950D01*
X1281071D01*
X1283525Y349608D01*
X1285725Y350878D01*
X1287522Y352675D01*
X1288792Y354875D01*
X1289450Y357329D01*
Y359870D01*
X1288792Y362325D01*
X1287522Y364525D01*
X1285725Y366322D01*
X1283525Y367592D01*
X1281071Y368250D01*
D02*
G37*
G36*
X696870D02*
X694330D01*
X691875Y367592D01*
X689675Y366322D01*
X687878Y364525D01*
X686608Y362325D01*
X685950Y359870D01*
Y357329D01*
X686608Y354875D01*
X687878Y352675D01*
X689675Y350878D01*
X691875Y349608D01*
X694330Y348950D01*
X696870D01*
X699325Y349608D01*
X701525Y350878D01*
X703322Y352675D01*
X704592Y354875D01*
X705250Y357329D01*
Y359870D01*
X704592Y362325D01*
X703322Y364525D01*
X701525Y366322D01*
X699325Y367592D01*
X696870Y368250D01*
D02*
G37*
G36*
X2014371Y343350D02*
X2011830D01*
X2009375Y342692D01*
X2007175Y341422D01*
X2005378Y339625D01*
X2004108Y337425D01*
X2003450Y334971D01*
Y332430D01*
X2004108Y329975D01*
X2005378Y327775D01*
X2007175Y325978D01*
X2009375Y324708D01*
X2011830Y324050D01*
X2014371D01*
X2016825Y324708D01*
X2019025Y325978D01*
X2020822Y327775D01*
X2022092Y329975D01*
X2022750Y332430D01*
Y334971D01*
X2022092Y337425D01*
X2020822Y339625D01*
X2019025Y341422D01*
X2016825Y342692D01*
X2014371Y343350D01*
D02*
G37*
G36*
X1306470Y342850D02*
X1303929D01*
X1301475Y342192D01*
X1299275Y340922D01*
X1297478Y339125D01*
X1296208Y336925D01*
X1295550Y334470D01*
Y331930D01*
X1296208Y329475D01*
X1297478Y327275D01*
X1299275Y325478D01*
X1301475Y324208D01*
X1303929Y323550D01*
X1306470D01*
X1308925Y324208D01*
X1311125Y325478D01*
X1312922Y327275D01*
X1314192Y329475D01*
X1314850Y331930D01*
Y334470D01*
X1314192Y336925D01*
X1312922Y339125D01*
X1311125Y340922D01*
X1308925Y342192D01*
X1306470Y342850D01*
D02*
G37*
G36*
X696870D02*
X694330D01*
X691875Y342192D01*
X689675Y340922D01*
X687878Y339125D01*
X686608Y336925D01*
X685950Y334470D01*
Y331930D01*
X686608Y329475D01*
X687878Y327275D01*
X689675Y325478D01*
X691875Y324208D01*
X694330Y323550D01*
X696870D01*
X699325Y324208D01*
X701525Y325478D01*
X703322Y327275D01*
X704592Y329475D01*
X705250Y331930D01*
Y334470D01*
X704592Y336925D01*
X703322Y339125D01*
X701525Y340922D01*
X699325Y342192D01*
X696870Y342850D01*
D02*
G37*
G36*
X671470D02*
X668930D01*
X666475Y342192D01*
X664275Y340922D01*
X662478Y339125D01*
X661208Y336925D01*
X660550Y334470D01*
Y331930D01*
X661208Y329475D01*
X662478Y327275D01*
X664275Y325478D01*
X666475Y324208D01*
X668930Y323550D01*
X671470D01*
X673925Y324208D01*
X676125Y325478D01*
X677922Y327275D01*
X679192Y329475D01*
X679850Y331930D01*
Y334470D01*
X679192Y336925D01*
X677922Y339125D01*
X676125Y340922D01*
X673925Y342192D01*
X671470Y342850D01*
D02*
G37*
G36*
X2014371Y317950D02*
X2011830D01*
X2009375Y317292D01*
X2007175Y316022D01*
X2005378Y314225D01*
X2004108Y312025D01*
X2003450Y309571D01*
Y307029D01*
X2004108Y304575D01*
X2005378Y302375D01*
X2007175Y300578D01*
X2009375Y299308D01*
X2011830Y298650D01*
X2014371D01*
X2016825Y299308D01*
X2019025Y300578D01*
X2020822Y302375D01*
X2022092Y304575D01*
X2022750Y307029D01*
Y309571D01*
X2022092Y312025D01*
X2020822Y314225D01*
X2019025Y316022D01*
X2016825Y317292D01*
X2014371Y317950D01*
D02*
G37*
G36*
X1306470Y317450D02*
X1303929D01*
X1301475Y316792D01*
X1299275Y315522D01*
X1297478Y313725D01*
X1296208Y311525D01*
X1295550Y309070D01*
Y306530D01*
X1296208Y304075D01*
X1297478Y301875D01*
X1299275Y300078D01*
X1301475Y298808D01*
X1303929Y298150D01*
X1306470D01*
X1308925Y298808D01*
X1311125Y300078D01*
X1312922Y301875D01*
X1314192Y304075D01*
X1314850Y306530D01*
Y309070D01*
X1314192Y311525D01*
X1312922Y313725D01*
X1311125Y315522D01*
X1308925Y316792D01*
X1306470Y317450D01*
D02*
G37*
G36*
X696870D02*
X694330D01*
X691875Y316792D01*
X689675Y315522D01*
X687878Y313725D01*
X686608Y311525D01*
X685950Y309070D01*
Y306530D01*
X686608Y304075D01*
X687878Y301875D01*
X689675Y300078D01*
X691875Y298808D01*
X694330Y298150D01*
X696870D01*
X699325Y298808D01*
X701525Y300078D01*
X703322Y301875D01*
X704592Y304075D01*
X705250Y306530D01*
Y309070D01*
X704592Y311525D01*
X703322Y313725D01*
X701525Y315522D01*
X699325Y316792D01*
X696870Y317450D01*
D02*
G37*
G36*
X671470D02*
X668930D01*
X666475Y316792D01*
X664275Y315522D01*
X662478Y313725D01*
X661208Y311525D01*
X660550Y309070D01*
Y306530D01*
X661208Y304075D01*
X662478Y301875D01*
X664275Y300078D01*
X666475Y298808D01*
X668930Y298150D01*
X671470D01*
X673925Y298808D01*
X676125Y300078D01*
X677922Y301875D01*
X679192Y304075D01*
X679850Y306530D01*
Y309070D01*
X679192Y311525D01*
X677922Y313725D01*
X676125Y315522D01*
X673925Y316792D01*
X671470Y317450D01*
D02*
G37*
G36*
X1306470Y292050D02*
X1303929D01*
X1301475Y291392D01*
X1299275Y290122D01*
X1297478Y288325D01*
X1296208Y286125D01*
X1295550Y283671D01*
Y281129D01*
X1296208Y278675D01*
X1297478Y276475D01*
X1299275Y274678D01*
X1301475Y273408D01*
X1303929Y272750D01*
X1306470D01*
X1308925Y273408D01*
X1311125Y274678D01*
X1312922Y276475D01*
X1314192Y278675D01*
X1314850Y281129D01*
Y283671D01*
X1314192Y286125D01*
X1312922Y288325D01*
X1311125Y290122D01*
X1308925Y291392D01*
X1306470Y292050D01*
D02*
G37*
G36*
X1281071D02*
X1278530D01*
X1276075Y291392D01*
X1273875Y290122D01*
X1272078Y288325D01*
X1270808Y286125D01*
X1270150Y283671D01*
Y281129D01*
X1270808Y278675D01*
X1272078Y276475D01*
X1273875Y274678D01*
X1276075Y273408D01*
X1278530Y272750D01*
X1281071D01*
X1283525Y273408D01*
X1285725Y274678D01*
X1287522Y276475D01*
X1288792Y278675D01*
X1289450Y281129D01*
Y283671D01*
X1288792Y286125D01*
X1287522Y288325D01*
X1285725Y290122D01*
X1283525Y291392D01*
X1281071Y292050D01*
D02*
G37*
G36*
X696870D02*
X694330D01*
X691875Y291392D01*
X689675Y290122D01*
X687878Y288325D01*
X686608Y286125D01*
X685950Y283671D01*
Y281129D01*
X686608Y278675D01*
X687878Y276475D01*
X689675Y274678D01*
X691875Y273408D01*
X694330Y272750D01*
X696870D01*
X699325Y273408D01*
X701525Y274678D01*
X703322Y276475D01*
X704592Y278675D01*
X705250Y281129D01*
Y283671D01*
X704592Y286125D01*
X703322Y288325D01*
X701525Y290122D01*
X699325Y291392D01*
X696870Y292050D01*
D02*
G37*
G36*
X671470D02*
X668930D01*
X666475Y291392D01*
X664275Y290122D01*
X662478Y288325D01*
X661208Y286125D01*
X660550Y283671D01*
Y281129D01*
X661208Y278675D01*
X662478Y276475D01*
X664275Y274678D01*
X666475Y273408D01*
X668930Y272750D01*
X671470D01*
X673925Y273408D01*
X676125Y274678D01*
X677922Y276475D01*
X679192Y278675D01*
X679850Y281129D01*
Y283671D01*
X679192Y286125D01*
X677922Y288325D01*
X676125Y290122D01*
X673925Y291392D01*
X671470Y292050D01*
D02*
G37*
G36*
X1306470Y266650D02*
X1303929D01*
X1301475Y265992D01*
X1299275Y264722D01*
X1297478Y262925D01*
X1296208Y260725D01*
X1295550Y258270D01*
Y255730D01*
X1296208Y253275D01*
X1297478Y251075D01*
X1299275Y249278D01*
X1301475Y248008D01*
X1303929Y247350D01*
X1306470D01*
X1308925Y248008D01*
X1311125Y249278D01*
X1312922Y251075D01*
X1314192Y253275D01*
X1314850Y255730D01*
Y258270D01*
X1314192Y260725D01*
X1312922Y262925D01*
X1311125Y264722D01*
X1308925Y265992D01*
X1306470Y266650D01*
D02*
G37*
G36*
X1281071D02*
X1278530D01*
X1276075Y265992D01*
X1273875Y264722D01*
X1272078Y262925D01*
X1270808Y260725D01*
X1270150Y258270D01*
Y255730D01*
X1270808Y253275D01*
X1272078Y251075D01*
X1273875Y249278D01*
X1276075Y248008D01*
X1278530Y247350D01*
X1281071D01*
X1283525Y248008D01*
X1285725Y249278D01*
X1287522Y251075D01*
X1288792Y253275D01*
X1289450Y255730D01*
Y258270D01*
X1288792Y260725D01*
X1287522Y262925D01*
X1285725Y264722D01*
X1283525Y265992D01*
X1281071Y266650D01*
D02*
G37*
G36*
X696870D02*
X694330D01*
X691875Y265992D01*
X689675Y264722D01*
X687878Y262925D01*
X686608Y260725D01*
X685950Y258270D01*
Y255730D01*
X686608Y253275D01*
X687878Y251075D01*
X689675Y249278D01*
X691875Y248008D01*
X694330Y247350D01*
X696870D01*
X699325Y248008D01*
X701525Y249278D01*
X703322Y251075D01*
X704592Y253275D01*
X705250Y255730D01*
Y258270D01*
X704592Y260725D01*
X703322Y262925D01*
X701525Y264722D01*
X699325Y265992D01*
X696870Y266650D01*
D02*
G37*
G36*
X671470D02*
X668930D01*
X666475Y265992D01*
X664275Y264722D01*
X662478Y262925D01*
X661208Y260725D01*
X660550Y258270D01*
Y255730D01*
X661208Y253275D01*
X662478Y251075D01*
X664275Y249278D01*
X666475Y248008D01*
X668930Y247350D01*
X671470D01*
X673925Y248008D01*
X676125Y249278D01*
X677922Y251075D01*
X679192Y253275D01*
X679850Y255730D01*
Y258270D01*
X679192Y260725D01*
X677922Y262925D01*
X676125Y264722D01*
X673925Y265992D01*
X671470Y266650D01*
D02*
G37*
G36*
X2014371Y241750D02*
X2011830D01*
X2009375Y241092D01*
X2007175Y239822D01*
X2005378Y238025D01*
X2004108Y235825D01*
X2003450Y233370D01*
Y230830D01*
X2004108Y228375D01*
X2005378Y226175D01*
X2007175Y224378D01*
X2009375Y223108D01*
X2011830Y222450D01*
X2014371D01*
X2016825Y223108D01*
X2019025Y224378D01*
X2020822Y226175D01*
X2022092Y228375D01*
X2022750Y230830D01*
Y233370D01*
X2022092Y235825D01*
X2020822Y238025D01*
X2019025Y239822D01*
X2016825Y241092D01*
X2014371Y241750D01*
D02*
G37*
G36*
X1281071Y241250D02*
X1278530D01*
X1276075Y240592D01*
X1273875Y239322D01*
X1272078Y237525D01*
X1270808Y235325D01*
X1270150Y232871D01*
Y230329D01*
X1270808Y227875D01*
X1272078Y225675D01*
X1273875Y223878D01*
X1276075Y222608D01*
X1278530Y221950D01*
X1281071D01*
X1283525Y222608D01*
X1285725Y223878D01*
X1287522Y225675D01*
X1288792Y227875D01*
X1289450Y230329D01*
Y232871D01*
X1288792Y235325D01*
X1287522Y237525D01*
X1285725Y239322D01*
X1283525Y240592D01*
X1281071Y241250D01*
D02*
G37*
G36*
X696870D02*
X694330D01*
X691875Y240592D01*
X689675Y239322D01*
X687878Y237525D01*
X686608Y235325D01*
X685950Y232871D01*
Y230329D01*
X686608Y227875D01*
X687878Y225675D01*
X689675Y223878D01*
X691875Y222608D01*
X694330Y221950D01*
X696870D01*
X699325Y222608D01*
X701525Y223878D01*
X703322Y225675D01*
X704592Y227875D01*
X705250Y230329D01*
Y232871D01*
X704592Y235325D01*
X703322Y237525D01*
X701525Y239322D01*
X699325Y240592D01*
X696870Y241250D01*
D02*
G37*
G36*
X671470D02*
X668930D01*
X666475Y240592D01*
X664275Y239322D01*
X662478Y237525D01*
X661208Y235325D01*
X660550Y232871D01*
Y230329D01*
X661208Y227875D01*
X662478Y225675D01*
X664275Y223878D01*
X666475Y222608D01*
X668930Y221950D01*
X671470D01*
X673925Y222608D01*
X676125Y223878D01*
X677922Y225675D01*
X679192Y227875D01*
X679850Y230329D01*
Y232871D01*
X679192Y235325D01*
X677922Y237525D01*
X676125Y239322D01*
X673925Y240592D01*
X671470Y241250D01*
D02*
G37*
G36*
X696870Y215850D02*
X694330D01*
X691875Y215192D01*
X689675Y213922D01*
X687878Y212125D01*
X686608Y209925D01*
X685950Y207470D01*
Y204930D01*
X686608Y202475D01*
X687878Y200275D01*
X689675Y198478D01*
X691875Y197208D01*
X694330Y196550D01*
X696870D01*
X699325Y197208D01*
X701525Y198478D01*
X703322Y200275D01*
X704592Y202475D01*
X705250Y204930D01*
Y207470D01*
X704592Y209925D01*
X703322Y212125D01*
X701525Y213922D01*
X699325Y215192D01*
X696870Y215850D01*
D02*
G37*
G36*
X671470D02*
X668930D01*
X666475Y215192D01*
X664275Y213922D01*
X662478Y212125D01*
X661208Y209925D01*
X660550Y207470D01*
Y204930D01*
X661208Y202475D01*
X662478Y200275D01*
X664275Y198478D01*
X666475Y197208D01*
X668930Y196550D01*
X671470D01*
X673925Y197208D01*
X676125Y198478D01*
X677922Y200275D01*
X679192Y202475D01*
X679850Y204930D01*
Y207470D01*
X679192Y209925D01*
X677922Y212125D01*
X676125Y213922D01*
X673925Y215192D01*
X671470Y215850D01*
D02*
G37*
G36*
X1306470Y190450D02*
X1303929D01*
X1301475Y189792D01*
X1299275Y188522D01*
X1297478Y186725D01*
X1296208Y184525D01*
X1295550Y182071D01*
Y179529D01*
X1296208Y177075D01*
X1297478Y174875D01*
X1299275Y173078D01*
X1301475Y171808D01*
X1303929Y171150D01*
X1306470D01*
X1308925Y171808D01*
X1311125Y173078D01*
X1312922Y174875D01*
X1314192Y177075D01*
X1314850Y179529D01*
Y182071D01*
X1314192Y184525D01*
X1312922Y186725D01*
X1311125Y188522D01*
X1308925Y189792D01*
X1306470Y190450D01*
D02*
G37*
G36*
X1281071D02*
X1278530D01*
X1276075Y189792D01*
X1273875Y188522D01*
X1272078Y186725D01*
X1270808Y184525D01*
X1270150Y182071D01*
Y179529D01*
X1270808Y177075D01*
X1272078Y174875D01*
X1273875Y173078D01*
X1276075Y171808D01*
X1278530Y171150D01*
X1281071D01*
X1283525Y171808D01*
X1285725Y173078D01*
X1287522Y174875D01*
X1288792Y177075D01*
X1289450Y179529D01*
Y182071D01*
X1288792Y184525D01*
X1287522Y186725D01*
X1285725Y188522D01*
X1283525Y189792D01*
X1281071Y190450D01*
D02*
G37*
G36*
X696870D02*
X694330D01*
X691875Y189792D01*
X689675Y188522D01*
X687878Y186725D01*
X686608Y184525D01*
X685950Y182071D01*
Y179529D01*
X686608Y177075D01*
X687878Y174875D01*
X689675Y173078D01*
X691875Y171808D01*
X694330Y171150D01*
X696870D01*
X699325Y171808D01*
X701525Y173078D01*
X703322Y174875D01*
X704592Y177075D01*
X705250Y179529D01*
Y182071D01*
X704592Y184525D01*
X703322Y186725D01*
X701525Y188522D01*
X699325Y189792D01*
X696870Y190450D01*
D02*
G37*
G36*
X671470D02*
X668930D01*
X666475Y189792D01*
X664275Y188522D01*
X662478Y186725D01*
X661208Y184525D01*
X660550Y182071D01*
Y179529D01*
X661208Y177075D01*
X662478Y174875D01*
X664275Y173078D01*
X666475Y171808D01*
X668930Y171150D01*
X671470D01*
X673925Y171808D01*
X676125Y173078D01*
X677922Y174875D01*
X679192Y177075D01*
X679850Y179529D01*
Y182071D01*
X679192Y184525D01*
X677922Y186725D01*
X676125Y188522D01*
X673925Y189792D01*
X671470Y190450D01*
D02*
G37*
G36*
X1306470Y165050D02*
X1303929D01*
X1301475Y164392D01*
X1299275Y163122D01*
X1297478Y161325D01*
X1296208Y159125D01*
X1295550Y156671D01*
Y154129D01*
X1296208Y151675D01*
X1297478Y149475D01*
X1299275Y147678D01*
X1301475Y146408D01*
X1303929Y145750D01*
X1306470D01*
X1308925Y146408D01*
X1311125Y147678D01*
X1312922Y149475D01*
X1314192Y151675D01*
X1314850Y154129D01*
Y156671D01*
X1314192Y159125D01*
X1312922Y161325D01*
X1311125Y163122D01*
X1308925Y164392D01*
X1306470Y165050D01*
D02*
G37*
G36*
X1281071D02*
X1278530D01*
X1276075Y164392D01*
X1273875Y163122D01*
X1272078Y161325D01*
X1270808Y159125D01*
X1270150Y156671D01*
Y154129D01*
X1270808Y151675D01*
X1272078Y149475D01*
X1273875Y147678D01*
X1276075Y146408D01*
X1278530Y145750D01*
X1281071D01*
X1283525Y146408D01*
X1285725Y147678D01*
X1287522Y149475D01*
X1288792Y151675D01*
X1289450Y154129D01*
Y156671D01*
X1288792Y159125D01*
X1287522Y161325D01*
X1285725Y163122D01*
X1283525Y164392D01*
X1281071Y165050D01*
D02*
G37*
G36*
X696870D02*
X694330D01*
X691875Y164392D01*
X689675Y163122D01*
X687878Y161325D01*
X686608Y159125D01*
X685950Y156671D01*
Y154129D01*
X686608Y151675D01*
X687878Y149475D01*
X689675Y147678D01*
X691875Y146408D01*
X694330Y145750D01*
X696870D01*
X699325Y146408D01*
X701525Y147678D01*
X703322Y149475D01*
X704592Y151675D01*
X705250Y154129D01*
Y156671D01*
X704592Y159125D01*
X703322Y161325D01*
X701525Y163122D01*
X699325Y164392D01*
X696870Y165050D01*
D02*
G37*
G36*
X671470D02*
X668930D01*
X666475Y164392D01*
X664275Y163122D01*
X662478Y161325D01*
X661208Y159125D01*
X660550Y156671D01*
Y154129D01*
X661208Y151675D01*
X662478Y149475D01*
X664275Y147678D01*
X666475Y146408D01*
X668930Y145750D01*
X671470D01*
X673925Y146408D01*
X676125Y147678D01*
X677922Y149475D01*
X679192Y151675D01*
X679850Y154129D01*
Y156671D01*
X679192Y159125D01*
X677922Y161325D01*
X676125Y163122D01*
X673925Y164392D01*
X671470Y165050D01*
D02*
G37*
G36*
X247600Y157200D02*
X232400D01*
Y124400D01*
X247600D01*
Y157200D01*
D02*
G37*
G36*
X227600D02*
X212400D01*
Y124400D01*
X227600D01*
Y157200D01*
D02*
G37*
G36*
X297640Y124700D02*
X293760D01*
X289954Y123943D01*
X286369Y122458D01*
X283142Y120302D01*
X280398Y117558D01*
X278242Y114331D01*
X276757Y110746D01*
X276000Y106940D01*
Y103060D01*
X276757Y99254D01*
X278242Y95668D01*
X280398Y92442D01*
X283142Y89698D01*
X286369Y87542D01*
X289954Y86057D01*
X293760Y85300D01*
X297640D01*
X301446Y86057D01*
X305031Y87542D01*
X308258Y89698D01*
X311002Y92442D01*
X313158Y95668D01*
X314643Y99254D01*
X315400Y103060D01*
Y106940D01*
X314643Y110746D01*
X313158Y114331D01*
X311002Y117558D01*
X308258Y120302D01*
X305031Y122458D01*
X301446Y123943D01*
X297640Y124700D01*
D02*
G37*
G36*
X238000Y457039D02*
X16000D01*
X15220Y456884D01*
X14558Y456442D01*
X14116Y455780D01*
X13961Y455000D01*
Y373000D01*
Y294000D01*
X14116Y293220D01*
X14558Y292558D01*
Y291442D01*
X14116Y290780D01*
X13961Y290000D01*
Y124000D01*
X14116Y123220D01*
X14558Y122558D01*
X15220Y122116D01*
X16000Y121961D01*
X152037D01*
X152406Y120745D01*
X151742Y120302D01*
X148998Y117558D01*
X146842Y114331D01*
X145357Y110746D01*
X144600Y106940D01*
Y103060D01*
X145357Y99254D01*
X146842Y95668D01*
X148998Y92442D01*
X151742Y89698D01*
X154969Y87542D01*
X158554Y86057D01*
X162360Y85300D01*
X166240D01*
X170046Y86057D01*
X173631Y87542D01*
X176858Y89698D01*
X179602Y92442D01*
X181758Y95668D01*
X183243Y99254D01*
X184000Y103060D01*
Y106940D01*
X183243Y110746D01*
X181758Y114331D01*
X179602Y117558D01*
X176858Y120302D01*
X176194Y120745D01*
X176563Y121961D01*
X204000D01*
X204780Y122116D01*
X205442Y122558D01*
X205884Y123220D01*
X206039Y124000D01*
Y166961D01*
X355000D01*
X355780Y167116D01*
X356442Y167558D01*
X356884Y168220D01*
X357039Y169000D01*
Y228500D01*
X356884Y229280D01*
X356442Y229942D01*
X355780Y230384D01*
X355000Y230539D01*
X343789D01*
Y251461D01*
X355000D01*
X355780Y251616D01*
X356442Y252058D01*
X356884Y252720D01*
X357039Y253500D01*
Y303961D01*
X391000Y303961D01*
X391780Y304116D01*
X392442Y304558D01*
X392884Y305220D01*
X393039Y306000D01*
Y323000D01*
X392884Y323780D01*
X392442Y324442D01*
X391780Y324884D01*
X391000Y325039D01*
X330000D01*
X329309Y324902D01*
X329181Y324908D01*
X328039Y325623D01*
Y338961D01*
X391000D01*
X391780Y339116D01*
X392442Y339558D01*
X392884Y340220D01*
X393039Y341000D01*
Y354961D01*
X392884Y355741D01*
X392724Y355980D01*
X392884Y356220D01*
X393039Y357000D01*
Y454000D01*
X392884Y454780D01*
X392442Y455442D01*
X391780Y455884D01*
X391000Y456039D01*
X339000D01*
X338220Y455884D01*
X337558Y455442D01*
X337116Y454780D01*
X336961Y454000D01*
Y357039D01*
X240039D01*
Y455000D01*
X239884Y455780D01*
X239442Y456442D01*
X238780Y456884D01*
X238000Y457039D01*
D02*
G37*
G36*
X701549Y65650D02*
X698851D01*
X696244Y64952D01*
X693906Y63602D01*
X691998Y61694D01*
X690648Y59356D01*
X689950Y56749D01*
Y54051D01*
X690648Y51444D01*
X691998Y49106D01*
X693906Y47198D01*
X696244Y45848D01*
X698851Y45150D01*
X701549D01*
X704156Y45848D01*
X706494Y47198D01*
X708402Y49106D01*
X709752Y51444D01*
X710450Y54051D01*
Y56749D01*
X709752Y59356D01*
X708402Y61694D01*
X706494Y63602D01*
X704156Y64952D01*
X701549Y65650D01*
D02*
G37*
G36*
X676149D02*
X673451D01*
X670844Y64952D01*
X668506Y63602D01*
X666598Y61694D01*
X665248Y59356D01*
X664550Y56749D01*
Y54051D01*
X665248Y51444D01*
X666598Y49106D01*
X668506Y47198D01*
X670844Y45848D01*
X673451Y45150D01*
X676149D01*
X678756Y45848D01*
X681094Y47198D01*
X683002Y49106D01*
X684352Y51444D01*
X685050Y54051D01*
Y56749D01*
X684352Y59356D01*
X683002Y61694D01*
X681094Y63602D01*
X678756Y64952D01*
X676149Y65650D01*
D02*
G37*
G36*
X650749D02*
X648051D01*
X645444Y64952D01*
X643106Y63602D01*
X641198Y61694D01*
X639849Y59356D01*
X639150Y56749D01*
Y54051D01*
X639849Y51444D01*
X641198Y49106D01*
X643106Y47198D01*
X645444Y45848D01*
X648051Y45150D01*
X650749D01*
X653356Y45848D01*
X655694Y47198D01*
X657602Y49106D01*
X658951Y51444D01*
X659650Y54051D01*
Y56749D01*
X658951Y59356D01*
X657602Y61694D01*
X655694Y63602D01*
X653356Y64952D01*
X650749Y65650D01*
D02*
G37*
G36*
X599949D02*
X597251D01*
X594644Y64952D01*
X592306Y63602D01*
X590398Y61694D01*
X589049Y59356D01*
X588350Y56749D01*
Y54051D01*
X589049Y51444D01*
X590398Y49106D01*
X592306Y47198D01*
X594644Y45848D01*
X597251Y45150D01*
X599949D01*
X602556Y45848D01*
X604894Y47198D01*
X606802Y49106D01*
X608152Y51444D01*
X608850Y54051D01*
Y56749D01*
X608152Y59356D01*
X606802Y61694D01*
X604894Y63602D01*
X602556Y64952D01*
X599949Y65650D01*
D02*
G37*
G36*
X574549D02*
X571851D01*
X569244Y64952D01*
X566906Y63602D01*
X564998Y61694D01*
X563648Y59356D01*
X562950Y56749D01*
Y54051D01*
X563648Y51444D01*
X564998Y49106D01*
X566906Y47198D01*
X569244Y45848D01*
X571851Y45150D01*
X574549D01*
X577156Y45848D01*
X579494Y47198D01*
X581402Y49106D01*
X582752Y51444D01*
X583450Y54051D01*
Y56749D01*
X582752Y59356D01*
X581402Y61694D01*
X579494Y63602D01*
X577156Y64952D01*
X574549Y65650D01*
D02*
G37*
G36*
X549149D02*
X546451D01*
X543844Y64952D01*
X541506Y63602D01*
X539598Y61694D01*
X538248Y59356D01*
X537550Y56749D01*
Y54051D01*
X538248Y51444D01*
X539598Y49106D01*
X541506Y47198D01*
X543844Y45848D01*
X546451Y45150D01*
X549149D01*
X551756Y45848D01*
X554094Y47198D01*
X556002Y49106D01*
X557351Y51444D01*
X558050Y54051D01*
Y56749D01*
X557351Y59356D01*
X556002Y61694D01*
X554094Y63602D01*
X551756Y64952D01*
X549149Y65650D01*
D02*
G37*
G36*
X523749D02*
X521051D01*
X518444Y64952D01*
X516106Y63602D01*
X514198Y61694D01*
X512849Y59356D01*
X512150Y56749D01*
Y54051D01*
X512849Y51444D01*
X514198Y49106D01*
X516106Y47198D01*
X518444Y45848D01*
X521051Y45150D01*
X523749D01*
X526356Y45848D01*
X528694Y47198D01*
X530602Y49106D01*
X531951Y51444D01*
X532650Y54051D01*
Y56749D01*
X531951Y59356D01*
X530602Y61694D01*
X528694Y63602D01*
X526356Y64952D01*
X523749Y65650D01*
D02*
G37*
G36*
X498349D02*
X495651D01*
X493044Y64952D01*
X490706Y63602D01*
X488798Y61694D01*
X487449Y59356D01*
X486750Y56749D01*
Y54051D01*
X487449Y51444D01*
X488798Y49106D01*
X490706Y47198D01*
X493044Y45848D01*
X495651Y45150D01*
X498349D01*
X500956Y45848D01*
X503294Y47198D01*
X505202Y49106D01*
X506552Y51444D01*
X507250Y54051D01*
Y56749D01*
X506552Y59356D01*
X505202Y61694D01*
X503294Y63602D01*
X500956Y64952D01*
X498349Y65650D01*
D02*
G37*
G36*
X472949D02*
X470251D01*
X467644Y64952D01*
X465306Y63602D01*
X463398Y61694D01*
X462048Y59356D01*
X461350Y56749D01*
Y54051D01*
X462048Y51444D01*
X463398Y49106D01*
X465306Y47198D01*
X467644Y45848D01*
X470251Y45150D01*
X472949D01*
X475556Y45848D01*
X477894Y47198D01*
X479802Y49106D01*
X481152Y51444D01*
X481850Y54051D01*
Y56749D01*
X481152Y59356D01*
X479802Y61694D01*
X477894Y63602D01*
X475556Y64952D01*
X472949Y65650D01*
D02*
G37*
G36*
X447549D02*
X444851D01*
X442244Y64952D01*
X439906Y63602D01*
X437998Y61694D01*
X436648Y59356D01*
X435950Y56749D01*
Y54051D01*
X436648Y51444D01*
X437998Y49106D01*
X439906Y47198D01*
X442244Y45848D01*
X444851Y45150D01*
X447549D01*
X450156Y45848D01*
X452494Y47198D01*
X454402Y49106D01*
X455751Y51444D01*
X456450Y54051D01*
Y56749D01*
X455751Y59356D01*
X454402Y61694D01*
X452494Y63602D01*
X450156Y64952D01*
X447549Y65650D01*
D02*
G37*
G36*
X422149D02*
X419451D01*
X416844Y64952D01*
X414506Y63602D01*
X412598Y61694D01*
X411249Y59356D01*
X410550Y56749D01*
Y54051D01*
X411249Y51444D01*
X412598Y49106D01*
X414506Y47198D01*
X416844Y45848D01*
X419451Y45150D01*
X422149D01*
X424756Y45848D01*
X427094Y47198D01*
X429002Y49106D01*
X430351Y51444D01*
X431050Y54051D01*
Y56749D01*
X430351Y59356D01*
X429002Y61694D01*
X427094Y63602D01*
X424756Y64952D01*
X422149Y65650D01*
D02*
G37*
G36*
X371349D02*
X368651D01*
X366044Y64952D01*
X363706Y63602D01*
X361798Y61694D01*
X360448Y59356D01*
X359750Y56749D01*
Y54051D01*
X360448Y51444D01*
X361798Y49106D01*
X363706Y47198D01*
X366044Y45848D01*
X368651Y45150D01*
X371349D01*
X373956Y45848D01*
X376294Y47198D01*
X378202Y49106D01*
X379552Y51444D01*
X380250Y54051D01*
Y56749D01*
X379552Y59356D01*
X378202Y61694D01*
X376294Y63602D01*
X373956Y64952D01*
X371349Y65650D01*
D02*
G37*
G36*
X345949D02*
X343251D01*
X340644Y64952D01*
X338306Y63602D01*
X336398Y61694D01*
X335048Y59356D01*
X334350Y56749D01*
Y54051D01*
X335048Y51444D01*
X336398Y49106D01*
X338306Y47198D01*
X340644Y45848D01*
X343251Y45150D01*
X345949D01*
X348556Y45848D01*
X350894Y47198D01*
X352802Y49106D01*
X354151Y51444D01*
X354850Y54051D01*
Y56749D01*
X354151Y59356D01*
X352802Y61694D01*
X350894Y63602D01*
X348556Y64952D01*
X345949Y65650D01*
D02*
G37*
G36*
X726949Y40250D02*
X724251D01*
X721644Y39551D01*
X719306Y38202D01*
X717398Y36294D01*
X716049Y33956D01*
X715350Y31349D01*
Y28651D01*
X716049Y26044D01*
X717398Y23706D01*
X719306Y21798D01*
X721644Y20449D01*
X724251Y19750D01*
X726949D01*
X729556Y20449D01*
X731894Y21798D01*
X733802Y23706D01*
X735152Y26044D01*
X735850Y28651D01*
Y31349D01*
X735152Y33956D01*
X733802Y36294D01*
X731894Y38202D01*
X729556Y39551D01*
X726949Y40250D01*
D02*
G37*
G36*
X701549D02*
X698851D01*
X696244Y39551D01*
X693906Y38202D01*
X691998Y36294D01*
X690648Y33956D01*
X689950Y31349D01*
Y28651D01*
X690648Y26044D01*
X691998Y23706D01*
X693906Y21798D01*
X696244Y20449D01*
X698851Y19750D01*
X701549D01*
X704156Y20449D01*
X706494Y21798D01*
X708402Y23706D01*
X709752Y26044D01*
X710450Y28651D01*
Y31349D01*
X709752Y33956D01*
X708402Y36294D01*
X706494Y38202D01*
X704156Y39551D01*
X701549Y40250D01*
D02*
G37*
G36*
X676149D02*
X673451D01*
X670844Y39551D01*
X668506Y38202D01*
X666598Y36294D01*
X665248Y33956D01*
X664550Y31349D01*
Y28651D01*
X665248Y26044D01*
X666598Y23706D01*
X668506Y21798D01*
X670844Y20449D01*
X673451Y19750D01*
X676149D01*
X678756Y20449D01*
X681094Y21798D01*
X683002Y23706D01*
X684352Y26044D01*
X685050Y28651D01*
Y31349D01*
X684352Y33956D01*
X683002Y36294D01*
X681094Y38202D01*
X678756Y39551D01*
X676149Y40250D01*
D02*
G37*
G36*
X574549D02*
X571851D01*
X569244Y39551D01*
X566906Y38202D01*
X564998Y36294D01*
X563648Y33956D01*
X562950Y31349D01*
Y28651D01*
X563648Y26044D01*
X564998Y23706D01*
X566906Y21798D01*
X569244Y20449D01*
X571851Y19750D01*
X574549D01*
X577156Y20449D01*
X579494Y21798D01*
X581402Y23706D01*
X582752Y26044D01*
X583450Y28651D01*
Y31349D01*
X582752Y33956D01*
X581402Y36294D01*
X579494Y38202D01*
X577156Y39551D01*
X574549Y40250D01*
D02*
G37*
G36*
X549149D02*
X546451D01*
X543844Y39551D01*
X541506Y38202D01*
X539598Y36294D01*
X538248Y33956D01*
X537550Y31349D01*
Y28651D01*
X538248Y26044D01*
X539598Y23706D01*
X541506Y21798D01*
X543844Y20449D01*
X546451Y19750D01*
X549149D01*
X551756Y20449D01*
X554094Y21798D01*
X556002Y23706D01*
X557351Y26044D01*
X558050Y28651D01*
Y31349D01*
X557351Y33956D01*
X556002Y36294D01*
X554094Y38202D01*
X551756Y39551D01*
X549149Y40250D01*
D02*
G37*
G36*
X523749D02*
X521051D01*
X518444Y39551D01*
X516106Y38202D01*
X514198Y36294D01*
X512849Y33956D01*
X512150Y31349D01*
Y28651D01*
X512849Y26044D01*
X514198Y23706D01*
X516106Y21798D01*
X518444Y20449D01*
X521051Y19750D01*
X523749D01*
X526356Y20449D01*
X528694Y21798D01*
X530602Y23706D01*
X531951Y26044D01*
X532650Y28651D01*
Y31349D01*
X531951Y33956D01*
X530602Y36294D01*
X528694Y38202D01*
X526356Y39551D01*
X523749Y40250D01*
D02*
G37*
G36*
X498349D02*
X495651D01*
X493044Y39551D01*
X490706Y38202D01*
X488798Y36294D01*
X487449Y33956D01*
X486750Y31349D01*
Y28651D01*
X487449Y26044D01*
X488798Y23706D01*
X490706Y21798D01*
X493044Y20449D01*
X495651Y19750D01*
X498349D01*
X500956Y20449D01*
X503294Y21798D01*
X505202Y23706D01*
X506552Y26044D01*
X507250Y28651D01*
Y31349D01*
X506552Y33956D01*
X505202Y36294D01*
X503294Y38202D01*
X500956Y39551D01*
X498349Y40250D01*
D02*
G37*
G36*
X472949D02*
X470251D01*
X467644Y39551D01*
X465306Y38202D01*
X463398Y36294D01*
X462048Y33956D01*
X461350Y31349D01*
Y28651D01*
X462048Y26044D01*
X463398Y23706D01*
X465306Y21798D01*
X467644Y20449D01*
X470251Y19750D01*
X472949D01*
X475556Y20449D01*
X477894Y21798D01*
X479802Y23706D01*
X481152Y26044D01*
X481850Y28651D01*
Y31349D01*
X481152Y33956D01*
X479802Y36294D01*
X477894Y38202D01*
X475556Y39551D01*
X472949Y40250D01*
D02*
G37*
G36*
X447549D02*
X444851D01*
X442244Y39551D01*
X439906Y38202D01*
X437998Y36294D01*
X436648Y33956D01*
X435950Y31349D01*
Y28651D01*
X436648Y26044D01*
X437998Y23706D01*
X439906Y21798D01*
X442244Y20449D01*
X444851Y19750D01*
X447549D01*
X450156Y20449D01*
X452494Y21798D01*
X454402Y23706D01*
X455751Y26044D01*
X456450Y28651D01*
Y31349D01*
X455751Y33956D01*
X454402Y36294D01*
X452494Y38202D01*
X450156Y39551D01*
X447549Y40250D01*
D02*
G37*
G36*
X422149D02*
X419451D01*
X416844Y39551D01*
X414506Y38202D01*
X412598Y36294D01*
X411249Y33956D01*
X410550Y31349D01*
Y28651D01*
X411249Y26044D01*
X412598Y23706D01*
X414506Y21798D01*
X416844Y20449D01*
X419451Y19750D01*
X422149D01*
X424756Y20449D01*
X427094Y21798D01*
X429002Y23706D01*
X430351Y26044D01*
X431050Y28651D01*
Y31349D01*
X430351Y33956D01*
X429002Y36294D01*
X427094Y38202D01*
X424756Y39551D01*
X422149Y40250D01*
D02*
G37*
G36*
X396749D02*
X394051D01*
X391444Y39551D01*
X389106Y38202D01*
X387198Y36294D01*
X385849Y33956D01*
X385150Y31349D01*
Y28651D01*
X385849Y26044D01*
X387198Y23706D01*
X389106Y21798D01*
X391444Y20449D01*
X394051Y19750D01*
X396749D01*
X399356Y20449D01*
X401694Y21798D01*
X403602Y23706D01*
X404952Y26044D01*
X405650Y28651D01*
Y31349D01*
X404952Y33956D01*
X403602Y36294D01*
X401694Y38202D01*
X399356Y39551D01*
X396749Y40250D01*
D02*
G37*
G36*
X371349D02*
X368651D01*
X366044Y39551D01*
X363706Y38202D01*
X361798Y36294D01*
X360448Y33956D01*
X359750Y31349D01*
Y28651D01*
X360448Y26044D01*
X361798Y23706D01*
X363706Y21798D01*
X366044Y20449D01*
X368651Y19750D01*
X371349D01*
X373956Y20449D01*
X376294Y21798D01*
X378202Y23706D01*
X379552Y26044D01*
X380250Y28651D01*
Y31349D01*
X379552Y33956D01*
X378202Y36294D01*
X376294Y38202D01*
X373956Y39551D01*
X371349Y40250D01*
D02*
G37*
G36*
X354850D02*
X334350D01*
Y19750D01*
X354850D01*
Y40250D01*
D02*
G37*
%LPD*%
G36*
X1417000Y1063000D02*
X1399039D01*
Y1082000D01*
X1399000Y1082197D01*
Y1085000D01*
X1264000D01*
Y1082197D01*
X1263961Y1082000D01*
Y1026000D01*
X1207000D01*
Y995000D01*
X1195000D01*
Y1101000D01*
X1417000D01*
Y1063000D01*
D02*
G37*
G36*
X1397000D02*
X1327000D01*
Y1082000D01*
X1397000D01*
Y1063000D01*
D02*
G37*
G36*
X1322000Y1066000D02*
X1277000D01*
Y995000D01*
X1266000D01*
Y1082000D01*
X1322000D01*
Y1066000D01*
D02*
G37*
G36*
X581000Y805000D02*
X205000D01*
Y834000D01*
X581000D01*
Y805000D01*
D02*
G37*
G36*
X99000Y482000D02*
X31000D01*
Y549000D01*
X99000D01*
Y482000D01*
D02*
G37*
G36*
X391000Y357000D02*
X339000D01*
Y454000D01*
X391000D01*
Y357000D01*
D02*
G37*
G36*
X238000Y355000D02*
X338803D01*
X339000Y354961D01*
X391000D01*
Y341000D01*
X326000D01*
Y294000D01*
X16000D01*
Y373000D01*
Y455000D01*
X238000D01*
Y355000D01*
D02*
G37*
G36*
X391000Y306000D02*
X355000Y306000D01*
Y253500D01*
X341750D01*
Y228500D01*
X355000D01*
Y169000D01*
X204000D01*
Y124000D01*
X169759D01*
X166240Y124700D01*
X162360D01*
X158841Y124000D01*
X16000D01*
Y290000D01*
X330000D01*
Y323000D01*
X391000D01*
Y306000D01*
D02*
G37*
%LPC*%
G36*
X1481374Y668200D02*
X1478026D01*
X1474741Y667547D01*
X1471647Y666265D01*
X1468863Y664405D01*
X1466495Y662037D01*
X1464635Y659252D01*
X1463353Y656159D01*
X1462700Y652874D01*
Y649526D01*
X1463353Y646241D01*
X1464635Y643148D01*
X1466495Y640363D01*
X1468863Y637995D01*
X1471647Y636135D01*
X1474741Y634853D01*
X1478026Y634200D01*
X1481374D01*
X1484659Y634853D01*
X1487753Y636135D01*
X1490537Y637995D01*
X1492905Y640363D01*
X1494765Y643148D01*
X1496047Y646241D01*
X1496700Y649526D01*
Y652874D01*
X1496047Y656159D01*
X1494765Y659252D01*
X1492905Y662037D01*
X1490537Y664405D01*
X1487753Y666265D01*
X1484659Y667547D01*
X1481374Y668200D01*
D02*
G37*
G36*
X1430170Y622750D02*
X1427630D01*
X1425175Y622092D01*
X1422975Y620822D01*
X1421178Y619025D01*
X1419908Y616825D01*
X1419250Y614370D01*
Y611829D01*
X1419908Y609375D01*
X1421178Y607175D01*
X1422975Y605378D01*
X1425175Y604108D01*
X1427630Y603450D01*
X1430170D01*
X1432625Y604108D01*
X1434825Y605378D01*
X1436622Y607175D01*
X1437892Y609375D01*
X1438550Y611829D01*
Y614370D01*
X1437892Y616825D01*
X1436622Y619025D01*
X1434825Y620822D01*
X1432625Y622092D01*
X1430170Y622750D01*
D02*
G37*
G36*
X1413150D02*
X1393850D01*
Y603450D01*
X1413150D01*
Y622750D01*
D02*
G37*
G36*
X1430170Y521150D02*
X1427630D01*
X1425175Y520492D01*
X1422975Y519222D01*
X1421178Y517425D01*
X1419908Y515225D01*
X1419250Y512771D01*
Y510229D01*
X1419908Y507775D01*
X1421178Y505575D01*
X1422975Y503778D01*
X1425175Y502508D01*
X1427630Y501850D01*
X1430170D01*
X1432625Y502508D01*
X1434825Y503778D01*
X1436622Y505575D01*
X1437892Y507775D01*
X1438550Y510229D01*
Y512771D01*
X1437892Y515225D01*
X1436622Y517425D01*
X1434825Y519222D01*
X1432625Y520492D01*
X1430170Y521150D01*
D02*
G37*
G36*
X1404771D02*
X1402230D01*
X1399775Y520492D01*
X1397575Y519222D01*
X1395778Y517425D01*
X1394508Y515225D01*
X1393850Y512771D01*
Y510229D01*
X1394508Y507775D01*
X1395778Y505575D01*
X1397575Y503778D01*
X1399775Y502508D01*
X1402230Y501850D01*
X1404771D01*
X1407225Y502508D01*
X1409425Y503778D01*
X1411222Y505575D01*
X1412492Y507775D01*
X1413150Y510229D01*
Y512771D01*
X1412492Y515225D01*
X1411222Y517425D01*
X1409425Y519222D01*
X1407225Y520492D01*
X1404771Y521150D01*
D02*
G37*
G36*
X1430170Y495750D02*
X1427630D01*
X1425175Y495092D01*
X1422975Y493822D01*
X1421178Y492025D01*
X1419908Y489825D01*
X1419250Y487370D01*
Y484829D01*
X1419908Y482375D01*
X1421178Y480175D01*
X1422975Y478378D01*
X1425175Y477108D01*
X1427630Y476450D01*
X1430170D01*
X1432625Y477108D01*
X1434825Y478378D01*
X1436622Y480175D01*
X1437892Y482375D01*
X1438550Y484829D01*
Y487370D01*
X1437892Y489825D01*
X1436622Y492025D01*
X1434825Y493822D01*
X1432625Y495092D01*
X1430170Y495750D01*
D02*
G37*
G36*
X1404771D02*
X1402230D01*
X1399775Y495092D01*
X1397575Y493822D01*
X1395778Y492025D01*
X1394508Y489825D01*
X1393850Y487370D01*
Y484829D01*
X1394508Y482375D01*
X1395778Y480175D01*
X1397575Y478378D01*
X1399775Y477108D01*
X1402230Y476450D01*
X1404771D01*
X1407225Y477108D01*
X1409425Y478378D01*
X1411222Y480175D01*
X1412492Y482375D01*
X1413150Y484829D01*
Y487370D01*
X1412492Y489825D01*
X1411222Y492025D01*
X1409425Y493822D01*
X1407225Y495092D01*
X1404771Y495750D01*
D02*
G37*
G36*
X1430170Y470350D02*
X1427630D01*
X1425175Y469692D01*
X1422975Y468422D01*
X1421178Y466625D01*
X1419908Y464425D01*
X1419250Y461970D01*
Y459430D01*
X1419908Y456975D01*
X1421178Y454775D01*
X1422975Y452978D01*
X1425175Y451708D01*
X1426662Y451309D01*
X1426495Y450039D01*
X1405905D01*
X1405738Y451309D01*
X1407225Y451708D01*
X1409425Y452978D01*
X1411222Y454775D01*
X1412492Y456975D01*
X1413150Y459430D01*
Y461970D01*
X1412492Y464425D01*
X1411222Y466625D01*
X1409425Y468422D01*
X1407225Y469692D01*
X1404771Y470350D01*
X1402230D01*
X1399775Y469692D01*
X1397575Y468422D01*
X1395778Y466625D01*
X1394508Y464425D01*
X1393850Y461970D01*
Y459430D01*
X1394508Y456975D01*
X1395778Y454775D01*
X1397575Y452978D01*
X1399775Y451708D01*
X1401262Y451309D01*
X1401095Y450039D01*
X1368000D01*
X1367220Y449884D01*
X1366558Y449442D01*
X1366116Y448780D01*
X1365961Y448000D01*
Y424039D01*
X1358000D01*
X1357220Y423884D01*
X1356558Y423442D01*
X1356116Y422780D01*
X1355961Y422000D01*
X1355961Y396000D01*
X1356116Y395219D01*
X1356558Y394558D01*
X1357220Y394116D01*
X1358000Y393961D01*
X1398047Y393961D01*
X1398387Y392691D01*
X1397575Y392222D01*
X1395778Y390425D01*
X1394508Y388225D01*
X1393850Y385770D01*
Y383229D01*
X1394508Y380775D01*
X1395778Y378575D01*
X1397575Y376778D01*
X1399775Y375508D01*
X1402230Y374850D01*
X1404771D01*
X1407225Y375508D01*
X1409425Y376778D01*
X1411222Y378575D01*
X1412492Y380775D01*
X1413150Y383229D01*
Y385770D01*
X1412492Y388225D01*
X1411222Y390425D01*
X1409425Y392222D01*
X1408613Y392691D01*
X1408954Y393961D01*
X1423447D01*
X1423787Y392691D01*
X1422975Y392222D01*
X1421178Y390425D01*
X1419908Y388225D01*
X1419250Y385770D01*
Y383229D01*
X1419908Y380775D01*
X1421178Y378575D01*
X1422975Y376778D01*
X1425175Y375508D01*
X1427630Y374850D01*
X1430170D01*
X1432625Y375508D01*
X1434825Y376778D01*
X1436622Y378575D01*
X1437892Y380775D01*
X1438550Y383229D01*
Y385770D01*
X1437892Y388225D01*
X1436622Y390425D01*
X1434825Y392222D01*
X1434013Y392691D01*
X1434353Y393961D01*
X1440000D01*
X1440780Y394116D01*
X1441442Y394558D01*
X1441884Y395220D01*
X1442039Y396000D01*
X1442039Y421961D01*
X1441884Y422741D01*
X1441724Y422980D01*
X1441884Y423220D01*
X1442039Y424000D01*
Y448000D01*
X1441884Y448780D01*
X1441442Y449442D01*
X1440780Y449884D01*
X1440000Y450039D01*
X1431305D01*
X1431138Y451309D01*
X1432625Y451708D01*
X1434825Y452978D01*
X1436622Y454775D01*
X1437892Y456975D01*
X1437934Y457131D01*
X1441650D01*
Y453900D01*
X1460350D01*
Y468100D01*
X1441650D01*
Y464269D01*
X1437934D01*
X1437892Y464425D01*
X1436622Y466625D01*
X1434825Y468422D01*
X1432625Y469692D01*
X1430170Y470350D01*
D02*
G37*
G36*
X1404771Y368750D02*
X1402230D01*
X1399775Y368092D01*
X1397575Y366822D01*
X1395778Y365025D01*
X1394508Y362825D01*
X1393850Y360370D01*
Y357830D01*
X1394508Y355375D01*
X1395778Y353175D01*
X1397575Y351378D01*
X1399775Y350108D01*
X1402230Y349450D01*
X1404771D01*
X1407225Y350108D01*
X1409425Y351378D01*
X1411222Y353175D01*
X1412492Y355375D01*
X1413150Y357830D01*
Y360370D01*
X1412492Y362825D01*
X1411222Y365025D01*
X1409425Y366822D01*
X1407225Y368092D01*
X1404771Y368750D01*
D02*
G37*
G36*
X1430170Y343350D02*
X1427630D01*
X1425175Y342692D01*
X1422975Y341422D01*
X1421178Y339625D01*
X1419908Y337425D01*
X1419250Y334971D01*
Y332430D01*
X1419908Y329975D01*
X1421178Y327775D01*
X1422975Y325978D01*
X1425175Y324708D01*
X1427630Y324050D01*
X1430170D01*
X1432625Y324708D01*
X1434825Y325978D01*
X1436622Y327775D01*
X1437892Y329975D01*
X1438550Y332430D01*
Y334971D01*
X1437892Y337425D01*
X1436622Y339625D01*
X1434825Y341422D01*
X1432625Y342692D01*
X1430170Y343350D01*
D02*
G37*
G36*
X1404771D02*
X1402230D01*
X1399775Y342692D01*
X1397575Y341422D01*
X1395778Y339625D01*
X1394508Y337425D01*
X1393850Y334971D01*
Y332430D01*
X1394508Y329975D01*
X1395778Y327775D01*
X1397575Y325978D01*
X1399775Y324708D01*
X1402230Y324050D01*
X1404771D01*
X1407225Y324708D01*
X1409425Y325978D01*
X1411222Y327775D01*
X1412492Y329975D01*
X1413150Y332430D01*
Y334971D01*
X1412492Y337425D01*
X1411222Y339625D01*
X1409425Y341422D01*
X1407225Y342692D01*
X1404771Y343350D01*
D02*
G37*
G36*
X1430170Y317950D02*
X1427630D01*
X1425175Y317292D01*
X1422975Y316022D01*
X1421178Y314225D01*
X1419908Y312025D01*
X1419250Y309571D01*
Y307029D01*
X1419908Y304575D01*
X1421178Y302375D01*
X1422975Y300578D01*
X1425175Y299308D01*
X1427630Y298650D01*
X1430170D01*
X1432625Y299308D01*
X1434825Y300578D01*
X1436622Y302375D01*
X1437892Y304575D01*
X1438550Y307029D01*
Y309571D01*
X1437892Y312025D01*
X1436622Y314225D01*
X1434825Y316022D01*
X1432625Y317292D01*
X1430170Y317950D01*
D02*
G37*
G36*
X1404771D02*
X1402230D01*
X1399775Y317292D01*
X1397575Y316022D01*
X1395778Y314225D01*
X1394508Y312025D01*
X1393850Y309571D01*
Y307029D01*
X1394508Y304575D01*
X1395778Y302375D01*
X1397575Y300578D01*
X1399775Y299308D01*
X1402230Y298650D01*
X1404771D01*
X1407225Y299308D01*
X1409425Y300578D01*
X1411222Y302375D01*
X1412492Y304575D01*
X1413150Y307029D01*
Y309571D01*
X1412492Y312025D01*
X1411222Y314225D01*
X1409425Y316022D01*
X1407225Y317292D01*
X1404771Y317950D01*
D02*
G37*
G36*
X1430170Y292550D02*
X1427630D01*
X1425175Y291892D01*
X1422975Y290622D01*
X1421178Y288825D01*
X1419908Y286625D01*
X1419250Y284170D01*
Y281630D01*
X1419908Y279175D01*
X1421178Y276975D01*
X1422975Y275178D01*
X1425175Y273908D01*
X1427630Y273250D01*
X1430170D01*
X1432625Y273908D01*
X1434825Y275178D01*
X1436622Y276975D01*
X1437892Y279175D01*
X1438550Y281630D01*
Y284170D01*
X1437892Y286625D01*
X1436622Y288825D01*
X1434825Y290622D01*
X1432625Y291892D01*
X1430170Y292550D01*
D02*
G37*
G36*
X1404771D02*
X1402230D01*
X1399775Y291892D01*
X1397575Y290622D01*
X1395778Y288825D01*
X1394508Y286625D01*
X1393850Y284170D01*
Y281630D01*
X1394508Y279175D01*
X1395778Y276975D01*
X1397575Y275178D01*
X1399775Y273908D01*
X1402230Y273250D01*
X1404771D01*
X1407225Y273908D01*
X1409425Y275178D01*
X1411222Y276975D01*
X1412492Y279175D01*
X1413150Y281630D01*
Y284170D01*
X1412492Y286625D01*
X1411222Y288825D01*
X1409425Y290622D01*
X1407225Y291892D01*
X1404771Y292550D01*
D02*
G37*
G36*
X1430170Y267150D02*
X1427630D01*
X1425175Y266492D01*
X1422975Y265222D01*
X1421178Y263425D01*
X1419908Y261225D01*
X1419250Y258771D01*
Y256229D01*
X1419908Y253775D01*
X1421178Y251575D01*
X1422975Y249778D01*
X1425175Y248508D01*
X1427630Y247850D01*
X1430170D01*
X1432625Y248508D01*
X1434825Y249778D01*
X1436622Y251575D01*
X1437892Y253775D01*
X1438550Y256229D01*
Y258771D01*
X1437892Y261225D01*
X1436622Y263425D01*
X1434825Y265222D01*
X1432625Y266492D01*
X1430170Y267150D01*
D02*
G37*
G36*
X1404771D02*
X1402230D01*
X1399775Y266492D01*
X1397575Y265222D01*
X1395778Y263425D01*
X1394508Y261225D01*
X1393850Y258771D01*
Y256229D01*
X1394508Y253775D01*
X1395778Y251575D01*
X1397575Y249778D01*
X1399775Y248508D01*
X1402230Y247850D01*
X1404771D01*
X1407225Y248508D01*
X1409425Y249778D01*
X1411222Y251575D01*
X1412492Y253775D01*
X1413150Y256229D01*
Y258771D01*
X1412492Y261225D01*
X1411222Y263425D01*
X1409425Y265222D01*
X1407225Y266492D01*
X1404771Y267150D01*
D02*
G37*
%LPD*%
G36*
X1440000Y424000D02*
X1368000D01*
Y448000D01*
X1440000D01*
Y424000D01*
D02*
G37*
G36*
X1368000Y421961D02*
X1440000D01*
X1440000Y396000D01*
X1358000Y396000D01*
X1358000Y422000D01*
X1367803D01*
X1368000Y421961D01*
D02*
G37*
%LPC*%
G36*
X1404771Y444950D02*
X1402230D01*
X1399775Y444292D01*
X1397575Y443022D01*
X1395778Y441225D01*
X1394508Y439025D01*
X1393850Y436571D01*
Y434030D01*
X1394508Y431575D01*
X1395778Y429375D01*
X1397575Y427578D01*
X1399775Y426308D01*
X1402230Y425650D01*
X1404771D01*
X1407225Y426308D01*
X1409425Y427578D01*
X1411222Y429375D01*
X1412492Y431575D01*
X1413150Y434030D01*
Y436571D01*
X1412492Y439025D01*
X1411222Y441225D01*
X1409425Y443022D01*
X1407225Y444292D01*
X1404771Y444950D01*
D02*
G37*
G36*
Y419550D02*
X1402230D01*
X1399775Y418892D01*
X1397575Y417622D01*
X1395778Y415825D01*
X1394508Y413625D01*
X1393850Y411171D01*
Y408629D01*
X1394508Y406175D01*
X1395778Y403975D01*
X1397575Y402178D01*
X1399775Y400908D01*
X1402230Y400250D01*
X1404771D01*
X1407225Y400908D01*
X1409425Y402178D01*
X1411222Y403975D01*
X1412492Y406175D01*
X1413150Y408629D01*
Y411171D01*
X1412492Y413625D01*
X1411222Y415825D01*
X1409425Y417622D01*
X1407225Y418892D01*
X1404771Y419550D01*
D02*
G37*
G36*
Y571950D02*
X1402230D01*
X1399775Y571292D01*
X1397575Y570022D01*
X1395778Y568225D01*
X1394508Y566025D01*
X1393850Y563571D01*
Y561030D01*
X1394508Y558575D01*
X1395778Y556375D01*
X1397575Y554578D01*
X1399775Y553308D01*
X1402230Y552650D01*
X1404771D01*
X1407225Y553308D01*
X1409425Y554578D01*
X1411222Y556375D01*
X1412492Y558575D01*
X1413150Y561030D01*
Y563571D01*
X1412492Y566025D01*
X1411222Y568225D01*
X1409425Y570022D01*
X1407225Y571292D01*
X1404771Y571950D01*
D02*
G37*
G36*
X671470Y571450D02*
X668930D01*
X666475Y570792D01*
X664275Y569522D01*
X662478Y567725D01*
X661208Y565525D01*
X660550Y563070D01*
Y560530D01*
X661208Y558075D01*
X662478Y555875D01*
X664275Y554078D01*
X666475Y552808D01*
X668930Y552150D01*
X671470D01*
X673925Y552808D01*
X676125Y554078D01*
X677922Y555875D01*
X679192Y558075D01*
X679850Y560530D01*
Y563070D01*
X679192Y565525D01*
X677922Y567725D01*
X676125Y569522D01*
X673925Y570792D01*
X671470Y571450D01*
D02*
G37*
G36*
X1822152Y44750D02*
X1819848D01*
X1817623Y44154D01*
X1815627Y43002D01*
X1813998Y41373D01*
X1812846Y39377D01*
X1812250Y37152D01*
Y34848D01*
X1812846Y32623D01*
X1813998Y30627D01*
X1815627Y28998D01*
X1817623Y27846D01*
X1819848Y27250D01*
X1822152D01*
X1824377Y27846D01*
X1826373Y28998D01*
X1828002Y30627D01*
X1829154Y32623D01*
X1829750Y34848D01*
Y37152D01*
X1829154Y39377D01*
X1828002Y41373D01*
X1826373Y43002D01*
X1824377Y44154D01*
X1822152Y44750D01*
D02*
G37*
%LPD*%
D14*
X2030000Y0D02*
G03*
X2100000Y70000I-0J70000D01*
G01*
Y1080000D02*
G03*
X2030000Y1150000I-70000J0D01*
G01*
X70000Y1150000D02*
G03*
X0Y1080000I0J-70000D01*
G01*
Y70000D02*
G03*
X70000Y0I70000J0D01*
G01*
X2100000Y70000D02*
X2100000Y1080000D01*
X70000Y0D02*
X2030000D01*
X0Y70000D02*
Y1080000D01*
X70000Y1150000D02*
X2030000D01*
D15*
X2010900Y486100D02*
X2013100D01*
X1620786Y990300D02*
X1697600D01*
X1568779Y1042307D02*
X1620786Y990300D01*
X1567000Y1051000D02*
X1568779Y1049221D01*
Y1042307D02*
Y1049221D01*
X1302000Y1045000D02*
X1302250D01*
X684050Y907200D02*
X706500Y884750D01*
Y882000D02*
Y884750D01*
X662600Y907200D02*
X684050D01*
X478500Y733000D02*
X499000Y712500D01*
X166000Y226500D02*
X195000Y197500D01*
X130000Y226500D02*
X166000D01*
X130000D02*
X144500Y241000D01*
X303750D02*
X311750Y249000D01*
X295000Y241000D02*
X303750D01*
X365550Y315000D02*
X371250D01*
X130000Y413500D02*
X159000Y384500D01*
X292000Y317000D02*
Y324500D01*
X322500Y585000D02*
X341000Y603500D01*
Y611000D01*
X470000Y554500D02*
X499000Y525500D01*
X484500Y698000D02*
X499000Y712500D01*
X336250Y690000D02*
X344250Y698000D01*
X353000D01*
X273750Y568000D02*
X279450D01*
X363000Y368600D02*
X365600Y366000D01*
X371250D01*
X354500Y415000D02*
X363000D01*
X347750Y421750D02*
X354500Y415000D01*
X279000Y515000D02*
X285000Y521000D01*
X1547000Y1051000D02*
X1614700Y983300D01*
X1710600D01*
X1727700Y1000400D01*
Y1009200D01*
X1697600Y990300D02*
X1707700Y1000400D01*
Y1009200D01*
X1394664Y1038000D02*
X1407000Y1050336D01*
Y1051000D01*
X1331300Y983300D02*
X1386000Y1038000D01*
X1394664D01*
X1243400Y983300D02*
X1331300D01*
X1256400Y990300D02*
X1326300D01*
X1387000Y1051000D01*
X1246300Y1000400D02*
Y1009200D01*
Y1000400D02*
X1256400Y990300D01*
X1226300Y1000400D02*
X1243400Y983300D01*
X1226300Y1000400D02*
Y1009200D01*
X1386336Y1071000D02*
X1387000D01*
X1783400Y1043350D02*
Y1045000D01*
Y1043350D02*
X1805650Y1021100D01*
X1808000D01*
X1628000Y1019000D02*
Y1021350D01*
X1651650Y1045000D02*
X1652000D01*
X1628000Y1021350D02*
X1651650Y1045000D01*
X1153096Y1022100D02*
Y1027496D01*
X1150096Y1019100D02*
X1153096Y1022100D01*
X1170600Y1045000D02*
Y1045000D01*
X1153096Y1027496D02*
X1170600Y1045000D01*
X1149000Y1019100D02*
X1150096D01*
X499000Y712500D02*
X563500D01*
X592500Y741500D01*
X563500Y712500D02*
X592500Y683500D01*
X222000Y821000D02*
X291000D01*
X222000Y821000D02*
X222000Y821000D01*
X291000D02*
X363000D01*
X432000D01*
X501000D01*
X571000D01*
D16*
X273750Y568000D02*
D03*
Y585000D02*
D03*
Y602000D02*
D03*
Y619000D02*
D03*
Y636000D02*
D03*
X371250Y298000D02*
D03*
Y315000D02*
D03*
Y332000D02*
D03*
Y349000D02*
D03*
Y366000D02*
D03*
D17*
X167000Y602000D02*
D03*
X478000Y332000D02*
D03*
D18*
X141600Y649825D02*
D03*
Y554175D02*
D03*
X503400Y379825D02*
D03*
Y284175D02*
D03*
D19*
X1271300Y1009200D02*
D03*
X1246300D02*
D03*
X1226300D02*
D03*
X1201300D02*
D03*
X1682700D02*
D03*
X1707700D02*
D03*
X1727700D02*
D03*
X1752700D02*
D03*
X195000Y140800D02*
D03*
X220000D02*
D03*
X240000D02*
D03*
X265000D02*
D03*
D20*
X1332200Y1074000D02*
D03*
X1316000D02*
D03*
X1617900Y1113000D02*
D03*
X1634100D02*
D03*
X1628000Y1019000D02*
D03*
X1611800D02*
D03*
D21*
X718000Y460000D02*
D03*
Y476000D02*
D03*
X1451000Y461000D02*
D03*
Y477000D02*
D03*
D22*
X706500Y882000D02*
D03*
X725500D02*
D03*
D23*
X1808000Y1004900D02*
D03*
Y1021100D02*
D03*
X1149000Y1002900D02*
D03*
Y1019100D02*
D03*
D24*
X130000Y413500D02*
D03*
Y226500D02*
D03*
X499000Y712500D02*
D03*
Y525500D02*
D03*
D25*
X302800Y327180D02*
D03*
X341000Y611000D02*
D03*
D26*
X293600Y367000D02*
D03*
X312000D02*
D03*
X331800Y571180D02*
D03*
X350200D02*
D03*
D27*
X363000Y241000D02*
D03*
X295000D02*
D03*
X353000Y698000D02*
D03*
X285000D02*
D03*
D28*
X309000Y415000D02*
D03*
X363000D02*
D03*
X339000Y521000D02*
D03*
X285000D02*
D03*
D61*
X2038500Y206100D02*
Y206700D01*
X844250Y8250D02*
X938000Y102000D01*
X1333832D01*
X937000Y109000D02*
X1278000D01*
X934929Y114000D02*
X987215D01*
X739271Y69071D02*
X875858D01*
X764650Y43650D02*
X857508D01*
X841250Y13250D02*
X937000Y109000D01*
X857508Y43650D02*
X1020058Y206200D01*
X839179Y18250D02*
X934929Y114000D01*
X875858Y69071D02*
X1019446Y212659D01*
X1020058Y206200D02*
X1279800D01*
X649533Y13250D02*
X841250D01*
X1019446Y212659D02*
X1237659D01*
X813550Y18250D02*
X839179D01*
X991000Y36000D02*
X1001000D01*
X1017000Y20000D02*
X1051071D01*
X1001000Y36000D02*
X1017000Y20000D01*
X966000Y36000D02*
X976504D01*
X997504Y15000D02*
X1053142D01*
X976504Y36000D02*
X997504Y15000D01*
X1051071Y20000D02*
X1118071Y87000D01*
X1036754Y25750D02*
X1049750D01*
X1027250Y35254D02*
X1036754Y25750D01*
X1049750D02*
X1116000Y92000D01*
X1016000Y36000D02*
X1016746Y35254D01*
X1027250D01*
X1346500Y411000D02*
X1347000Y411500D01*
Y539000D01*
X1345000Y541000D02*
Y725000D01*
Y541000D02*
X1347000Y539000D01*
X291000Y796000D02*
X363000D01*
X224000D02*
X291000D01*
X363000D02*
X432000D01*
X681768Y370168D02*
Y512936D01*
X692832Y524000D01*
X670200Y358600D02*
Y358600D01*
Y358600D02*
X681768Y370168D01*
X692832Y524000D02*
X723000D01*
X790000Y591000D01*
Y895000D01*
X718000Y476000D02*
X842000D01*
X1037697Y671697D01*
X381426Y428426D02*
X382000Y429000D01*
X381426Y424926D02*
Y428426D01*
X371500Y415000D02*
X381426Y424926D01*
X363000Y415000D02*
X371500D01*
X742000Y856400D02*
Y881800D01*
X720400Y856400D02*
X742000D01*
X687000Y823000D02*
X720400Y856400D01*
X1111000Y833000D02*
X1319000Y625000D01*
X1008000Y833000D02*
X1111000D01*
X1008000Y843000D02*
X1108071D01*
X1324000Y627071D01*
X725700Y881800D02*
X742000D01*
X725500Y882000D02*
X725700Y881800D01*
X209000Y966000D02*
X221000Y978000D01*
X209000Y947000D02*
Y966000D01*
Y947000D02*
X227000Y929000D01*
X756000D01*
X790000Y895000D01*
X297000Y964000D02*
X792000D01*
X221000Y953000D02*
X286000D01*
X286754Y953754D02*
X297000Y964000D01*
X286000Y953754D02*
X286754D01*
X1752550Y36000D02*
X1767800Y51250D01*
X1932761D01*
X1765729Y56250D02*
X1930690D01*
X1755729Y46250D02*
X1765729Y56250D01*
X1227071Y77000D02*
X1923156D01*
X1676250Y61250D02*
X1928619D01*
X1274250Y66250D02*
X1926548D01*
X1249000Y41000D02*
X1274250Y66250D01*
X1925227Y72000D02*
X2001950Y148723D01*
X1923156Y77000D02*
X1996950Y150794D01*
X1651000Y36000D02*
X1676250Y61250D01*
X1186071Y36000D02*
X1227071Y77000D01*
X1236000Y36000D02*
X1272000Y72000D01*
X1925227D01*
X1908500Y34004D02*
Y37996D01*
X1900246Y25750D02*
X1908500Y34004D01*
Y37996D02*
X1916754Y46250D01*
X1934832D01*
X2011582Y123000D01*
X1932761Y51250D02*
X2009511Y128000D01*
X1560000Y863000D02*
X1905000D01*
X1538000Y885000D02*
X1560000Y863000D01*
X1538000Y885000D02*
Y1040000D01*
X1552000Y821000D02*
X1895000D01*
X1936000Y780000D01*
X1514000Y859000D02*
X1552000Y821000D01*
X1345000Y725000D02*
X1507000Y887000D01*
X1317000Y128000D02*
X1340000Y151000D01*
Y874000D01*
X1447000Y981000D01*
X1936000Y430000D02*
X2004547Y361454D01*
X2010746D01*
X2013100Y359100D01*
X1936000Y430000D02*
Y780000D01*
X1905000Y863000D02*
X1983000Y785000D01*
Y514000D02*
X2010900Y486100D01*
X1983000Y514000D02*
Y785000D01*
X1514000Y859000D02*
Y870000D01*
X1428900Y460700D02*
X1450700D01*
X1451000Y461000D01*
X1353000Y659000D02*
X1380000Y632000D01*
X1450000Y478000D02*
Y616000D01*
Y478000D02*
X1451000Y477000D01*
X1380000Y632000D02*
X1434000D01*
X1450000Y616000D01*
X1365000Y695000D02*
Y733877D01*
X1514000Y882877D01*
X1353000Y659000D02*
Y696000D01*
X1089000Y870000D02*
Y1067000D01*
X1330000Y238000D02*
Y629000D01*
X1319000Y601000D02*
Y625000D01*
X1089000Y870000D02*
X1330000Y629000D01*
X1324000Y409000D02*
Y627071D01*
X1447000Y981000D02*
Y1051000D01*
X1037697Y671697D02*
X1038303D01*
X1972500Y154628D02*
Y318500D01*
X2013100Y359100D01*
X1514000Y882877D02*
Y1038000D01*
X1527000Y1051000D02*
X1538000Y1040000D01*
X1507000Y887000D02*
Y1051000D01*
X1309777Y217777D02*
X1330000Y238000D01*
X1211000Y402000D02*
X1279800Y333200D01*
X1211000Y402000D02*
Y533000D01*
X1514000Y1038000D02*
X1527000Y1051000D01*
X1694260Y177000D02*
X1929000D01*
X1945000Y193000D01*
X1135000Y128000D02*
X1317000D01*
X1432000Y1126000D02*
X1487000Y1071000D01*
X1148000Y1126000D02*
X1432000D01*
X1089000Y1067000D02*
X1148000Y1126000D01*
X1313000Y398000D02*
X1324000Y409000D01*
X717800Y460200D02*
X718000Y460000D01*
X695600Y460200D02*
X717800D01*
X1279800Y206200D02*
X1291377Y217777D01*
X1309777D01*
X1305200Y587200D02*
X1319000Y601000D01*
X1279800Y384000D02*
X1293800Y398000D01*
X1313000D01*
X1293000Y559231D02*
Y599400D01*
X1284418Y550650D02*
X1293000Y559231D01*
X1279800Y612600D02*
X1293000Y599400D01*
X497754Y988250D02*
X795750D01*
X791929Y978000D02*
X1219279Y550650D01*
X795750Y988250D02*
X1223000Y561000D01*
X566000Y978000D02*
X791929D01*
X1219279Y550650D02*
X1284418D01*
X1223000Y561000D02*
X1279000D01*
X791000Y941000D02*
X1205000Y527000D01*
Y382600D02*
Y527000D01*
X438000Y941000D02*
X791000D01*
X566000Y953000D02*
X791000D01*
X1211000Y533000D01*
X1114500Y148500D02*
X1135000Y128000D01*
X1021714Y148500D02*
X1114500D01*
X987215Y114000D02*
X1021714Y148500D01*
X1278000Y109000D02*
X1284000Y115000D01*
X1118071Y87000D02*
X1919014D01*
X1052929Y36000D02*
X1113929Y97000D01*
X1116000Y92000D02*
X1916943D01*
X1053142Y15000D02*
X1120142Y82000D01*
X1113929Y97000D02*
X1382000D01*
X1120142Y82000D02*
X1921085D01*
X1284000Y115000D02*
X1330129D01*
X637000Y25783D02*
X649533Y13250D01*
X801800Y30000D02*
X813550Y18250D01*
X598600Y30000D02*
X620350Y8250D01*
X844250D01*
X725600Y55400D02*
X739271Y69071D01*
X751000Y30000D02*
X764650Y43650D01*
X1400032Y219000D02*
X1652260D01*
X1386850Y205818D02*
X1400032Y219000D01*
X1652260D02*
X1694260Y177000D01*
X1386850Y171721D02*
Y205818D01*
X1330129Y115000D02*
X1386850Y171721D01*
X1330200Y108000D02*
X1403500Y181300D01*
X1333832Y102000D02*
X1398882Y167050D01*
X1409050D01*
X1307000Y108000D02*
X1330200D01*
X1306500Y108500D02*
X1307000Y108000D01*
X1249000Y34504D02*
Y41000D01*
X1240246Y25750D02*
X1249000Y34504D01*
X1211000Y36000D02*
X1221250Y25750D01*
X1240246D01*
X1219816Y469384D02*
X1279800Y409400D01*
X792000Y964000D02*
X1219816Y536184D01*
Y469384D02*
Y536184D01*
X1260000Y235000D02*
Y275000D01*
X1279000Y561000D02*
X1279800Y561800D01*
X426000Y953000D02*
X438000Y941000D01*
X362000Y953000D02*
X426000D01*
X1205000Y382600D02*
X1279800Y307800D01*
X487504Y978000D02*
X497754Y988250D01*
X502000Y978000D02*
X566000D01*
X502000Y953000D02*
X566000D01*
X426000Y978000D02*
X487504D01*
X362000D02*
X426000D01*
X1424282Y192450D02*
X1636852D01*
X1409050Y167050D02*
X1414650Y172650D01*
X1636852Y192450D02*
X1717302Y112000D01*
X1414650Y172650D02*
Y182818D01*
X1237659Y212659D02*
X1260000Y235000D01*
X221000Y978000D02*
X286000D01*
X501000Y796000D02*
X571000D01*
X432000D02*
X501000D01*
X624000Y55400D02*
X637000Y42400D01*
Y25783D02*
Y42400D01*
X1382000Y97000D02*
X1416000Y131000D01*
X1414650Y182818D02*
X1424282Y192450D01*
X1991000Y235400D02*
X2013100Y257500D01*
X2001950Y160518D02*
X2011432Y170000D01*
X2001950Y148723D02*
Y160518D01*
X1991000Y151915D02*
Y235400D01*
X1996950Y150794D02*
Y184950D01*
X1985500Y153486D02*
Y255300D01*
X1996950Y184950D02*
X2004541Y192541D01*
X1929872Y112000D02*
X1972500Y154628D01*
X1985500Y255300D02*
X2013100Y282900D01*
X1979000Y154057D02*
Y199000D01*
X1717302Y112000D02*
X1929872D01*
X1426546Y169315D02*
Y178946D01*
X1416000Y158768D02*
X1426546Y169315D01*
Y178946D02*
X1428900Y181300D01*
X1416000Y131000D02*
Y158768D01*
X1916943Y92000D02*
X1979000Y154057D01*
X1041000Y36000D02*
X1052929D01*
X1796000Y35479D02*
Y36000D01*
X1919014Y87000D02*
X1985500Y153486D01*
X1921085Y82000D02*
X1991000Y151915D01*
X2004541Y192541D02*
X2040109D01*
X2061355Y113000D02*
X2092612Y144257D01*
X1922724Y20000D02*
X2015724Y113000D01*
X2061355D01*
X1870841Y20000D02*
X1922724D01*
X2092612Y144257D02*
Y523956D01*
X1856850Y33991D02*
X1870841Y20000D01*
X2082612Y148399D02*
Y441988D01*
X2005369Y138000D02*
X2051000D01*
X2055142Y128000D02*
X2071500Y144358D01*
X2007440Y133000D02*
X2053071D01*
X2071500Y144358D02*
Y156166D01*
X2087612Y146328D02*
Y513188D01*
X2011582Y123000D02*
X2057213D01*
X1930690Y56250D02*
X2007440Y133000D01*
X2009511Y128000D02*
X2055142D01*
X1928619Y61250D02*
X2005369Y138000D01*
X2057213Y123000D02*
X2082612Y148399D01*
X1921597Y36597D02*
X1932250D01*
X1926548Y66250D02*
X2003298Y143000D01*
X2013653Y118000D02*
X2059284D01*
X2053071Y133000D02*
X2065000Y144929D01*
Y158858D01*
X2059284Y118000D02*
X2087612Y146328D01*
X1932250Y36597D02*
X2013653Y118000D01*
X1921000Y36000D02*
X1921597Y36597D01*
X2003298Y143000D02*
X2048929D01*
X2055000Y149071D01*
Y163000D01*
X2051000Y138000D02*
X2060000Y147000D01*
Y160929D01*
X2042968Y170000D02*
X2054650Y181681D01*
X2011432Y170000D02*
X2042968D01*
X2054650Y181681D02*
Y289590D01*
X2071500Y156166D02*
X2071964Y156630D01*
X2065000Y158858D02*
X2076112Y169970D01*
Y226000D01*
X2060000Y160929D02*
X2069612Y170541D01*
X2055000Y163000D02*
X2063000Y171000D01*
X2038500Y562300D02*
X2087612Y513188D01*
X2040436Y576133D02*
X2092612Y523956D01*
X2038500Y486100D02*
X2082612Y441988D01*
X2026600Y371000D02*
X2045000D01*
X2069612Y170541D02*
Y429588D01*
X2050000Y294240D02*
X2054650Y289590D01*
X2045000Y371000D02*
X2050000Y366000D01*
Y294240D02*
Y366000D01*
X2040109Y192541D02*
X2049650Y202082D01*
Y287518D01*
X1871000Y36000D02*
X1881250Y25750D01*
X1900246D01*
X2063000Y171000D02*
Y236025D01*
X1701000Y36000D02*
X1752550D01*
X2063000Y236025D02*
X2063112Y236137D01*
Y250080D01*
X1136000Y35479D02*
Y36000D01*
X2040853Y296315D02*
X2049650Y287518D01*
X2038500Y308300D02*
X2040853Y305947D01*
Y296315D02*
Y305947D01*
X1696754Y46250D02*
X1755729D01*
X1687250Y36746D02*
X1696754Y46250D01*
X1186000Y36000D02*
X1186071D01*
X1676000D02*
X1676746Y36746D01*
X1687250D01*
X2038500Y460700D02*
X2069612Y429588D01*
X2013100Y384500D02*
X2026600Y371000D01*
X1848009Y33991D02*
X1856850D01*
X1846000Y36000D02*
X1848009Y33991D01*
X2024668Y576133D02*
X2040436D01*
X2013100Y587700D02*
X2024668Y576133D01*
X1431000Y36000D02*
X1432426D01*
X1356000Y35479D02*
Y36000D01*
D62*
X742000Y907200D02*
D03*
D63*
Y881800D02*
D03*
Y856400D02*
D03*
Y831000D02*
D03*
Y805600D02*
D03*
Y780200D02*
D03*
Y754800D02*
D03*
Y729400D02*
D03*
Y704000D02*
D03*
Y678600D02*
D03*
X662600D02*
D03*
Y704000D02*
D03*
Y729400D02*
D03*
Y754800D02*
D03*
Y780200D02*
D03*
Y805600D02*
D03*
Y831000D02*
D03*
Y856400D02*
D03*
Y881800D02*
D03*
Y907200D02*
D03*
D64*
X1403500Y613100D02*
D03*
X2013100D02*
D03*
X1279800Y612600D02*
D03*
X670200D02*
D03*
D65*
X1403500Y155900D02*
D03*
X1428900Y613100D02*
D03*
X1403500Y587700D02*
D03*
X1428900D02*
D03*
X1403500Y562300D02*
D03*
X1428900D02*
D03*
X1403500Y536900D02*
D03*
X1428900D02*
D03*
X1403500Y511500D02*
D03*
X1428900D02*
D03*
X1403500Y486100D02*
D03*
X1428900D02*
D03*
X1403500Y460700D02*
D03*
X1428900D02*
D03*
X1403500Y435300D02*
D03*
X1428900D02*
D03*
X1403500Y409900D02*
D03*
X1428900D02*
D03*
X1403500Y384500D02*
D03*
X1428900D02*
D03*
X1403500Y359100D02*
D03*
X1428900D02*
D03*
X1403500Y333700D02*
D03*
X1428900D02*
D03*
X1403500Y308300D02*
D03*
X1428900D02*
D03*
X1403500Y282900D02*
D03*
X1428900D02*
D03*
X1403500Y257500D02*
D03*
X1428900D02*
D03*
X1403500Y232100D02*
D03*
X1428900D02*
D03*
X1403500Y206700D02*
D03*
X1428900D02*
D03*
X1403500Y181300D02*
D03*
X1428900D02*
D03*
Y155900D02*
D03*
X2013100D02*
D03*
X2038500Y613100D02*
D03*
X2013100Y587700D02*
D03*
X2038500D02*
D03*
X2013100Y562300D02*
D03*
X2038500D02*
D03*
X2013100Y536900D02*
D03*
X2038500D02*
D03*
X2013100Y511500D02*
D03*
X2038500D02*
D03*
X2013100Y486100D02*
D03*
X2038500D02*
D03*
X2013100Y460700D02*
D03*
X2038500D02*
D03*
X2013100Y435300D02*
D03*
X2038500D02*
D03*
X2013100Y409900D02*
D03*
X2038500D02*
D03*
X2013100Y384500D02*
D03*
X2038500D02*
D03*
X2013100Y359100D02*
D03*
X2038500D02*
D03*
X2013100Y333700D02*
D03*
X2038500D02*
D03*
X2013100Y308300D02*
D03*
X2038500D02*
D03*
X2013100Y282900D02*
D03*
X2038500D02*
D03*
X2013100Y257500D02*
D03*
X2038500D02*
D03*
X2013100Y232100D02*
D03*
X2038500D02*
D03*
X2013100Y206700D02*
D03*
X2038500D02*
D03*
X2013100Y181300D02*
D03*
X2038500D02*
D03*
Y155900D02*
D03*
X1305200Y155400D02*
D03*
Y180800D02*
D03*
X1279800D02*
D03*
X1305200Y206200D02*
D03*
X1279800D02*
D03*
X1305200Y231600D02*
D03*
X1279800D02*
D03*
X1305200Y257000D02*
D03*
X1279800D02*
D03*
X1305200Y282400D02*
D03*
X1279800D02*
D03*
X1305200Y307800D02*
D03*
X1279800D02*
D03*
X1305200Y333200D02*
D03*
X1279800D02*
D03*
X1305200Y358600D02*
D03*
X1279800D02*
D03*
X1305200Y384000D02*
D03*
X1279800D02*
D03*
X1305200Y409400D02*
D03*
X1279800D02*
D03*
X1305200Y434800D02*
D03*
X1279800D02*
D03*
X1305200Y460200D02*
D03*
X1279800D02*
D03*
X1305200Y485600D02*
D03*
X1279800D02*
D03*
X1305200Y511000D02*
D03*
X1279800D02*
D03*
X1305200Y536400D02*
D03*
X1279800D02*
D03*
X1305200Y561800D02*
D03*
X1279800D02*
D03*
X1305200Y587200D02*
D03*
X1279800D02*
D03*
X1305200Y612600D02*
D03*
X1279800Y155400D02*
D03*
X695600D02*
D03*
Y180800D02*
D03*
X670200D02*
D03*
X695600Y206200D02*
D03*
X670200D02*
D03*
X695600Y231600D02*
D03*
X670200D02*
D03*
X695600Y257000D02*
D03*
X670200D02*
D03*
X695600Y282400D02*
D03*
X670200D02*
D03*
X695600Y307800D02*
D03*
X670200D02*
D03*
X695600Y333200D02*
D03*
X670200D02*
D03*
X695600Y358600D02*
D03*
X670200D02*
D03*
X695600Y384000D02*
D03*
X670200D02*
D03*
X695600Y409400D02*
D03*
X670200D02*
D03*
X695600Y434800D02*
D03*
X670200D02*
D03*
X695600Y460200D02*
D03*
X670200D02*
D03*
X695600Y485600D02*
D03*
X670200D02*
D03*
X695600Y511000D02*
D03*
X670200D02*
D03*
X695600Y536400D02*
D03*
X670200D02*
D03*
X695600Y561800D02*
D03*
X670200D02*
D03*
X695600Y587200D02*
D03*
X670200D02*
D03*
X695600Y612600D02*
D03*
X670200Y155400D02*
D03*
D66*
X1809900Y130500D02*
D03*
X1962300Y638500D02*
D03*
X1479700Y651200D02*
D03*
X746400Y650700D02*
D03*
X1229000Y638000D02*
D03*
X1076600Y130000D02*
D03*
D67*
X65000Y515000D02*
D03*
D68*
X61950Y587000D02*
D03*
D69*
X1302000Y1045000D02*
D03*
X1170600D02*
D03*
X1652000D02*
D03*
X1783400D02*
D03*
X164300Y105000D02*
D03*
X295700D02*
D03*
D70*
X1567000Y1071000D02*
D03*
Y1051000D02*
D03*
X1547000Y1071000D02*
D03*
Y1051000D02*
D03*
X1527000Y1071000D02*
D03*
Y1051000D02*
D03*
X1507000Y1071000D02*
D03*
Y1051000D02*
D03*
X1487000Y1071000D02*
D03*
Y1051000D02*
D03*
X1467000Y1071000D02*
D03*
Y1051000D02*
D03*
X1447000Y1071000D02*
D03*
Y1051000D02*
D03*
X1427000Y1071000D02*
D03*
Y1051000D02*
D03*
X1407000Y1071000D02*
D03*
Y1051000D02*
D03*
X1387000Y1071000D02*
D03*
D71*
Y1051000D02*
D03*
D72*
X1481000Y36000D02*
D03*
X1456000D02*
D03*
X1431000D02*
D03*
X1406000D02*
D03*
X1381000D02*
D03*
X1356000D02*
D03*
X916000D02*
D03*
X941000D02*
D03*
X966000D02*
D03*
X991000D02*
D03*
X1016000D02*
D03*
X1041000D02*
D03*
X1796000D02*
D03*
X1821000D02*
D03*
X1846000D02*
D03*
X1871000D02*
D03*
X1896000D02*
D03*
X1921000D02*
D03*
X1576000D02*
D03*
X1601000D02*
D03*
X1626000D02*
D03*
X1651000D02*
D03*
X1676000D02*
D03*
X1701000D02*
D03*
X1136000D02*
D03*
X1161000D02*
D03*
X1186000D02*
D03*
X1211000D02*
D03*
X1236000D02*
D03*
X1261000D02*
D03*
X566000Y1003000D02*
D03*
Y978000D02*
D03*
Y953000D02*
D03*
X221000Y1003000D02*
D03*
Y978000D02*
D03*
Y953000D02*
D03*
X286000Y1003000D02*
D03*
Y978000D02*
D03*
Y953000D02*
D03*
X362000Y1003000D02*
D03*
Y978000D02*
D03*
Y953000D02*
D03*
X426000Y1003000D02*
D03*
Y978000D02*
D03*
Y953000D02*
D03*
X502000Y1003000D02*
D03*
Y978000D02*
D03*
Y953000D02*
D03*
D73*
X1331000Y36000D02*
D03*
X891000D02*
D03*
X1771000D02*
D03*
X1551000D02*
D03*
X1111000D02*
D03*
D74*
X566000Y1028000D02*
D03*
X221000D02*
D03*
X286000D02*
D03*
X362000D02*
D03*
X426000D02*
D03*
X502000D02*
D03*
D75*
X344600Y30000D02*
D03*
D76*
Y55400D02*
D03*
X370000Y30000D02*
D03*
Y55400D02*
D03*
X395400Y30000D02*
D03*
Y55400D02*
D03*
X420800Y30000D02*
D03*
Y55400D02*
D03*
X446200Y30000D02*
D03*
Y55400D02*
D03*
X471600Y30000D02*
D03*
Y55400D02*
D03*
X497000Y30000D02*
D03*
Y55400D02*
D03*
X522400Y30000D02*
D03*
Y55400D02*
D03*
X547800Y30000D02*
D03*
Y55400D02*
D03*
X573200Y30000D02*
D03*
Y55400D02*
D03*
X598600Y30000D02*
D03*
Y55400D02*
D03*
X624000Y30000D02*
D03*
Y55400D02*
D03*
X649400Y30000D02*
D03*
Y55400D02*
D03*
X674800Y30000D02*
D03*
Y55400D02*
D03*
X700200Y30000D02*
D03*
Y55400D02*
D03*
X725600Y30000D02*
D03*
Y55400D02*
D03*
X751000Y30000D02*
D03*
Y55400D02*
D03*
X776400Y30000D02*
D03*
Y55400D02*
D03*
X801800Y30000D02*
D03*
Y55400D02*
D03*
X827200Y30000D02*
D03*
Y55400D02*
D03*
D77*
X222000Y846000D02*
D03*
X291000Y846000D02*
D03*
X363000D02*
D03*
X432000D02*
D03*
X501000D02*
D03*
X571000D02*
D03*
D78*
X222000Y821000D02*
D03*
Y796000D02*
D03*
X291000Y821000D02*
D03*
Y796000D02*
D03*
X363000Y821000D02*
D03*
Y796000D02*
D03*
X432000Y821000D02*
D03*
Y796000D02*
D03*
X501000Y821000D02*
D03*
Y796000D02*
D03*
X571000D02*
D03*
Y821000D02*
D03*
D79*
X70000Y1080000D02*
D03*
Y70000D02*
D03*
X2030000D02*
D03*
Y1080000D02*
D03*
D80*
X253238Y406856D02*
D03*
X267970D02*
D03*
X268224Y422096D02*
D03*
X253492D02*
D03*
X380746Y514140D02*
D03*
X366746D02*
D03*
X365222Y418084D02*
D03*
X379222D02*
D03*
X351222D02*
D03*
Y433704D02*
D03*
X365222D02*
D03*
X379222D02*
D03*
X351222Y448436D02*
D03*
X365222D02*
D03*
X379222D02*
D03*
X295910Y524382D02*
D03*
X281910D02*
D03*
X267910D02*
D03*
X253238Y392490D02*
D03*
Y378490D02*
D03*
Y364490D02*
D03*
X367000Y529380D02*
D03*
X381000D02*
D03*
X295910Y509650D02*
D03*
X281910D02*
D03*
X267910D02*
D03*
X212600Y642620D02*
D03*
X1617000Y1033000D02*
D03*
X1610000D02*
D03*
X432816Y372618D02*
D03*
X416816Y356618D02*
D03*
X432816D02*
D03*
X416816Y372618D02*
D03*
Y340618D02*
D03*
X432816D02*
D03*
Y292618D02*
D03*
X416816D02*
D03*
Y324618D02*
D03*
X432816Y308618D02*
D03*
X416816D02*
D03*
X432816Y324618D02*
D03*
X228600Y594620D02*
D03*
X212600Y578620D02*
D03*
X228600D02*
D03*
X212600Y594620D02*
D03*
Y562620D02*
D03*
X228600D02*
D03*
Y610620D02*
D03*
X212600D02*
D03*
X228600Y626620D02*
D03*
X381000Y544000D02*
D03*
X367000D02*
D03*
Y558000D02*
D03*
X381000D02*
D03*
Y572000D02*
D03*
X367000D02*
D03*
X212600Y626620D02*
D03*
X267970Y392490D02*
D03*
Y378490D02*
D03*
Y364490D02*
D03*
X228600Y642620D02*
D03*
X1373000Y429000D02*
D03*
X1362000Y401000D02*
D03*
Y410000D02*
D03*
Y418000D02*
D03*
X1373000Y444000D02*
D03*
Y437000D02*
D03*
X1346500Y411000D02*
D03*
X1354000Y554000D02*
D03*
Y562000D02*
D03*
Y570000D02*
D03*
X351000Y173000D02*
D03*
X267910Y494030D02*
D03*
X295910D02*
D03*
X281910D02*
D03*
X687000Y823000D02*
D03*
X1008000Y833000D02*
D03*
Y843000D02*
D03*
X1365000Y695000D02*
D03*
X1353000Y696000D02*
D03*
X1038303Y671697D02*
D03*
X1514000Y870000D02*
D03*
X1945000Y193000D02*
D03*
X1306500Y108500D02*
D03*
X1260000Y275000D02*
D03*
X1979000Y199000D02*
D03*
X2071964Y156630D02*
D03*
X2076112Y226000D02*
D03*
X2063112Y250080D02*
D03*
M02*
