G04*
G04 #@! TF.GenerationSoftware,Altium Limited,Altium Designer,21.2.0 (30)*
G04*
G04 Layer_Color=32896*
%FSLAX44Y44*%
%MOMM*%
G71*
G04*
G04 #@! TF.SameCoordinates,3F68380A-C471-43A9-BBDE-A44CCE961C07*
G04*
G04*
G04 #@! TF.FilePolarity,Positive*
G04*
G01*
G75*
%ADD10C,0.2000*%
%ADD14C,0.2540*%
%ADD15C,0.5000*%
G36*
X1768891Y561109D02*
X1769504D01*
Y560497D01*
X1771341D01*
Y559884D01*
X1771953D01*
Y560497D01*
X1772566D01*
Y559884D01*
X1773178D01*
Y559272D01*
X1775015D01*
Y558660D01*
X1775628D01*
Y558047D01*
X1776240D01*
Y557435D01*
X1776853D01*
Y556822D01*
X1777465D01*
Y556210D01*
X1778077D01*
Y555597D01*
X1778690D01*
Y554985D01*
X1779302D01*
Y554373D01*
X1779915D01*
Y553760D01*
X1780527D01*
Y553148D01*
X1781140D01*
Y552535D01*
X1781752D01*
Y551923D01*
X1782364D01*
Y551311D01*
X1782977D01*
Y550698D01*
X1783589D01*
Y550086D01*
Y549473D01*
X1784202D01*
Y548861D01*
Y548249D01*
X1784814D01*
Y547636D01*
X1785426D01*
Y547024D01*
X1786039D01*
Y546411D01*
X1786651D01*
Y545799D01*
Y545187D01*
Y544574D01*
X1787263D01*
Y543962D01*
X1787876D01*
Y543349D01*
X1788488D01*
Y542737D01*
X1787876D01*
Y542125D01*
X1788488D01*
Y541512D01*
X1789101D01*
Y540900D01*
X1789713D01*
Y540287D01*
X1789101D01*
Y539675D01*
X1789713D01*
Y539062D01*
X1790326D01*
Y538450D01*
X1790938D01*
Y537838D01*
X1790326D01*
Y537225D01*
X1790938D01*
Y536613D01*
X1791550D01*
Y536001D01*
X1792163D01*
Y535388D01*
X1791550D01*
Y534776D01*
X1792163D01*
Y534163D01*
X1792775D01*
Y533551D01*
Y532938D01*
Y532326D01*
X1793388D01*
Y531714D01*
Y531101D01*
Y530489D01*
X1794000D01*
Y529877D01*
X1794612D01*
Y529264D01*
X1794000D01*
Y528652D01*
X1794612D01*
Y528039D01*
X1795225D01*
Y527427D01*
Y526814D01*
Y526202D01*
X1795837D01*
Y525590D01*
X1795225D01*
Y524977D01*
X1795837D01*
Y524365D01*
X1796450D01*
Y523752D01*
Y523140D01*
Y522528D01*
X1797062D01*
Y521915D01*
X1796450D01*
Y521303D01*
X1797062D01*
Y520690D01*
X1797674D01*
Y520078D01*
Y519466D01*
Y518853D01*
X1798287D01*
Y518241D01*
X1797674D01*
Y517628D01*
X1798287D01*
Y517016D01*
X1798899D01*
Y516404D01*
X1798287D01*
Y515791D01*
X1798899D01*
Y515179D01*
X1799512D01*
Y514566D01*
X1798899D01*
Y513954D01*
X1799512D01*
Y513341D01*
Y512729D01*
Y512117D01*
X1800124D01*
Y511504D01*
Y510892D01*
Y510280D01*
X1800736D01*
Y509667D01*
X1800124D01*
Y509055D01*
X1800736D01*
Y508442D01*
X1800124D01*
Y507830D01*
X1800736D01*
Y507217D01*
X1801349D01*
Y506605D01*
Y505993D01*
Y505380D01*
X1801961D01*
Y504768D01*
X1801349D01*
Y504156D01*
X1801961D01*
Y503543D01*
Y502931D01*
Y502318D01*
X1802574D01*
Y501706D01*
Y501093D01*
Y500481D01*
X1803186D01*
Y499869D01*
X1802574D01*
Y499256D01*
X1803186D01*
Y498644D01*
X1802574D01*
Y498031D01*
X1803186D01*
Y497419D01*
Y496807D01*
Y496194D01*
X1803798D01*
Y495582D01*
Y494969D01*
Y494357D01*
X1804411D01*
Y493745D01*
X1803798D01*
Y493132D01*
X1804411D01*
Y492520D01*
X1803798D01*
Y491907D01*
X1804411D01*
Y491295D01*
Y490683D01*
Y490070D01*
X1805023D01*
Y489458D01*
Y488845D01*
Y488233D01*
X1805636D01*
Y487621D01*
X1805023D01*
Y487008D01*
X1805636D01*
Y486396D01*
X1805023D01*
Y485783D01*
X1805636D01*
Y485171D01*
Y484558D01*
Y483946D01*
Y483334D01*
Y482721D01*
X1806248D01*
Y482109D01*
Y481497D01*
Y480884D01*
Y480272D01*
Y479659D01*
X1806861D01*
Y479047D01*
X1806248D01*
Y478434D01*
X1806861D01*
Y477822D01*
X1806248D01*
Y477210D01*
X1806861D01*
Y476597D01*
Y475985D01*
Y475373D01*
Y474760D01*
Y474148D01*
X1807473D01*
Y473535D01*
Y472923D01*
Y472310D01*
Y471698D01*
Y471086D01*
X1808085D01*
Y470473D01*
X1807473D01*
Y469861D01*
X1808085D01*
Y469248D01*
X1807473D01*
Y468636D01*
X1808085D01*
Y468024D01*
Y467411D01*
Y466799D01*
Y466186D01*
Y465574D01*
X1808698D01*
Y464962D01*
X1808085D01*
Y464349D01*
X1808698D01*
Y463737D01*
Y463124D01*
Y462512D01*
Y461900D01*
Y461287D01*
X1809310D01*
Y460675D01*
X1808698D01*
Y460062D01*
X1809310D01*
Y459450D01*
X1808698D01*
Y458838D01*
X1809310D01*
Y458225D01*
X1808698D01*
Y457613D01*
X1809310D01*
Y457000D01*
X1808698D01*
Y456388D01*
X1809310D01*
Y455775D01*
Y455163D01*
Y454551D01*
Y453938D01*
Y453326D01*
Y452714D01*
Y452101D01*
X1809922D01*
Y451489D01*
X1809310D01*
Y450876D01*
X1809922D01*
Y450264D01*
Y449651D01*
Y449039D01*
X1810535D01*
Y448427D01*
X1809922D01*
Y447814D01*
Y447202D01*
Y446590D01*
X1810535D01*
Y445977D01*
X1809922D01*
Y445365D01*
X1810535D01*
Y444752D01*
X1809922D01*
Y444140D01*
X1810535D01*
Y443527D01*
X1809922D01*
Y442915D01*
X1810535D01*
Y442303D01*
X1809922D01*
Y441690D01*
X1810535D01*
Y441078D01*
X1809922D01*
Y440465D01*
X1810535D01*
Y439853D01*
X1809922D01*
Y439241D01*
X1810535D01*
Y438628D01*
Y438016D01*
Y437403D01*
Y436791D01*
Y436179D01*
Y435566D01*
Y434954D01*
Y434341D01*
Y433729D01*
X1811147D01*
Y433117D01*
X1810535D01*
Y432504D01*
Y431892D01*
Y431279D01*
X1811147D01*
Y430667D01*
X1810535D01*
Y430055D01*
Y429442D01*
X1811147D01*
Y428830D01*
Y428217D01*
X1810535D01*
Y427605D01*
X1811147D01*
Y426992D01*
Y426380D01*
Y425768D01*
X1810535D01*
Y425155D01*
X1811147D01*
Y424543D01*
Y423931D01*
Y423318D01*
Y422706D01*
Y422093D01*
Y421481D01*
Y420868D01*
Y420256D01*
Y419644D01*
Y419031D01*
Y418419D01*
Y417807D01*
Y417194D01*
Y416582D01*
Y415969D01*
Y415357D01*
Y414744D01*
Y414132D01*
Y413520D01*
Y412907D01*
Y412295D01*
Y411682D01*
Y411070D01*
Y410458D01*
Y409845D01*
Y409233D01*
Y408620D01*
Y408008D01*
Y407396D01*
Y406783D01*
Y406171D01*
Y405558D01*
Y404946D01*
Y404334D01*
Y403721D01*
Y403109D01*
Y402496D01*
Y401884D01*
Y401272D01*
X1810535D01*
Y400659D01*
X1811147D01*
Y400047D01*
Y399434D01*
Y398822D01*
X1810535D01*
Y398209D01*
X1811147D01*
Y397597D01*
X1810535D01*
Y396985D01*
X1811147D01*
Y396372D01*
X1810535D01*
Y395760D01*
Y395148D01*
Y394535D01*
X1811147D01*
Y393923D01*
X1810535D01*
Y393310D01*
Y392698D01*
Y392085D01*
Y391473D01*
Y390861D01*
Y390248D01*
Y389636D01*
Y389024D01*
Y388411D01*
X1809922D01*
Y387799D01*
X1810535D01*
Y387186D01*
X1809922D01*
Y386574D01*
X1810535D01*
Y385961D01*
X1809922D01*
Y385349D01*
X1810535D01*
Y384737D01*
X1809922D01*
Y384124D01*
X1810535D01*
Y383512D01*
X1809922D01*
Y382899D01*
X1810535D01*
Y382287D01*
X1809922D01*
Y381675D01*
X1810535D01*
Y381062D01*
X1809922D01*
Y380450D01*
X1810535D01*
Y379837D01*
X1809922D01*
Y379225D01*
Y378613D01*
Y378000D01*
Y377388D01*
Y376775D01*
Y376163D01*
Y375551D01*
X1809310D01*
Y374938D01*
X1809922D01*
Y374326D01*
X1809310D01*
Y373713D01*
Y373101D01*
Y372489D01*
Y371876D01*
Y371264D01*
Y370651D01*
Y370039D01*
X1808698D01*
Y369426D01*
X1809310D01*
Y368814D01*
X1808698D01*
Y368202D01*
X1809310D01*
Y367589D01*
X1808698D01*
Y366977D01*
X1809310D01*
Y366365D01*
X1808698D01*
Y365752D01*
Y365140D01*
Y364527D01*
Y363915D01*
Y363302D01*
Y362690D01*
Y362078D01*
X1808085D01*
Y361465D01*
Y360853D01*
Y360241D01*
Y359628D01*
Y359016D01*
X1807473D01*
Y358403D01*
X1808085D01*
Y357791D01*
X1807473D01*
Y357178D01*
X1808085D01*
Y356566D01*
X1807473D01*
Y355954D01*
X1808085D01*
Y355341D01*
X1807473D01*
Y354729D01*
Y354116D01*
Y353504D01*
X1806861D01*
Y352892D01*
X1807473D01*
Y352279D01*
X1806861D01*
Y351667D01*
Y351054D01*
Y350442D01*
Y349830D01*
Y349217D01*
X1806248D01*
Y348605D01*
X1806861D01*
Y347992D01*
X1806248D01*
Y347380D01*
X1806861D01*
Y346768D01*
X1806248D01*
Y346155D01*
Y345543D01*
Y344930D01*
X1805636D01*
Y344318D01*
Y343705D01*
Y343093D01*
Y342481D01*
Y341868D01*
X1805023D01*
Y341256D01*
X1805636D01*
Y340644D01*
X1805023D01*
Y340031D01*
X1805636D01*
Y339419D01*
X1805023D01*
Y338806D01*
Y338194D01*
Y337581D01*
X1804411D01*
Y336969D01*
X1805023D01*
Y336357D01*
X1804411D01*
Y335744D01*
X1803798D01*
Y335132D01*
X1804411D01*
Y334520D01*
X1803798D01*
Y333907D01*
X1804411D01*
Y333295D01*
X1803798D01*
Y332682D01*
Y332070D01*
Y331457D01*
Y330845D01*
Y330233D01*
X1803186D01*
Y329620D01*
X1802574D01*
Y329008D01*
X1803186D01*
Y328395D01*
X1802574D01*
Y327783D01*
X1803186D01*
Y327171D01*
X1802574D01*
Y326558D01*
Y325946D01*
Y325333D01*
X1801961D01*
Y324721D01*
Y324109D01*
Y323496D01*
X1801349D01*
Y322884D01*
X1801961D01*
Y322271D01*
X1801349D01*
Y321659D01*
Y321047D01*
Y320434D01*
X1800736D01*
Y319822D01*
Y319209D01*
Y318597D01*
X1800124D01*
Y317985D01*
X1800736D01*
Y317372D01*
X1800124D01*
Y316760D01*
X1800736D01*
Y316147D01*
X1800124D01*
Y315535D01*
X1799512D01*
Y314923D01*
Y314310D01*
Y313698D01*
X1798899D01*
Y313085D01*
X1799512D01*
Y312473D01*
X1798899D01*
Y311861D01*
Y311248D01*
Y310636D01*
X1798287D01*
Y310023D01*
X1797674D01*
Y309411D01*
X1798287D01*
Y308799D01*
X1797674D01*
Y308186D01*
Y307574D01*
Y306961D01*
X1797062D01*
Y306349D01*
Y305736D01*
Y305124D01*
X1796450D01*
Y304512D01*
Y303899D01*
Y303287D01*
X1795837D01*
Y302675D01*
X1795225D01*
Y302062D01*
X1795837D01*
Y301450D01*
X1795225D01*
Y300837D01*
Y300225D01*
Y299612D01*
X1794612D01*
Y299000D01*
X1794000D01*
Y298388D01*
X1794612D01*
Y297775D01*
X1794000D01*
Y297163D01*
Y296550D01*
Y295938D01*
X1793388D01*
Y295326D01*
X1792775D01*
Y294713D01*
X1793388D01*
Y294101D01*
X1792775D01*
Y293488D01*
X1792163D01*
Y292876D01*
X1791550D01*
Y292264D01*
X1792163D01*
Y291651D01*
X1791550D01*
Y291039D01*
X1790938D01*
Y290426D01*
Y289814D01*
Y289202D01*
X1790326D01*
Y288589D01*
Y287977D01*
X1789713D01*
Y287364D01*
Y286752D01*
X1789101D01*
Y286140D01*
X1788488D01*
Y285527D01*
Y284915D01*
Y284302D01*
X1787876D01*
Y283690D01*
X1787263D01*
Y283078D01*
Y282465D01*
Y281853D01*
X1786651D01*
Y281240D01*
X1786039D01*
Y280628D01*
X1785426D01*
Y280016D01*
Y279403D01*
X1784814D01*
Y278791D01*
Y278178D01*
X1784202D01*
Y277566D01*
X1783589D01*
Y276953D01*
X1782977D01*
Y276341D01*
Y275729D01*
X1781752D01*
Y275116D01*
Y274504D01*
X1781140D01*
Y273891D01*
Y273279D01*
X1780527D01*
Y272667D01*
X1779915D01*
Y272054D01*
X1779302D01*
Y271442D01*
X1778690D01*
Y270829D01*
X1777465D01*
Y270217D01*
X1776853D01*
Y269605D01*
X1775628D01*
Y268992D01*
X1775015D01*
Y268380D01*
X1774403D01*
Y267767D01*
X1773791D01*
Y268380D01*
X1773178D01*
Y267767D01*
X1773791D01*
Y267155D01*
X1773178D01*
Y267767D01*
X1772566D01*
Y267155D01*
X1771953D01*
Y266543D01*
X1771341D01*
Y267155D01*
X1770729D01*
Y266543D01*
X1770116D01*
Y265930D01*
X1769504D01*
Y266543D01*
X1768891D01*
Y265930D01*
X1763380D01*
Y266543D01*
X1762767D01*
Y265930D01*
X1762155D01*
Y266543D01*
X1761543D01*
Y267155D01*
X1759705D01*
Y267767D01*
X1759093D01*
Y268380D01*
X1757256D01*
Y268992D01*
X1756643D01*
Y269605D01*
X1756031D01*
Y270217D01*
X1755419D01*
Y270829D01*
X1754806D01*
Y271442D01*
X1754194D01*
Y272054D01*
X1752969D01*
Y272667D01*
Y273279D01*
X1752357D01*
Y273891D01*
X1751744D01*
Y274504D01*
X1751132D01*
Y275116D01*
X1750519D01*
Y275729D01*
X1749907D01*
Y276341D01*
X1749294D01*
Y276953D01*
X1748682D01*
Y277566D01*
Y278178D01*
X1748070D01*
Y278791D01*
Y279403D01*
X1747457D01*
Y280016D01*
X1746845D01*
Y280628D01*
X1746232D01*
Y281240D01*
Y281853D01*
X1745620D01*
Y282465D01*
Y283078D01*
X1745008D01*
Y283690D01*
X1744395D01*
Y284302D01*
X1743783D01*
Y284915D01*
X1744395D01*
Y285527D01*
X1743783D01*
Y286140D01*
X1743170D01*
Y286752D01*
Y287364D01*
Y287977D01*
X1742558D01*
Y288589D01*
X1741946D01*
Y289202D01*
X1741333D01*
Y289814D01*
X1741946D01*
Y290426D01*
X1741333D01*
Y291039D01*
Y291651D01*
X1740721D01*
Y292264D01*
Y292876D01*
X1740108D01*
Y293488D01*
Y294101D01*
X1739496D01*
Y294713D01*
Y295326D01*
X1738884D01*
Y295938D01*
X1739496D01*
Y296550D01*
X1738884D01*
Y297163D01*
X1738271D01*
Y297775D01*
Y298388D01*
Y299000D01*
X1737659D01*
Y299612D01*
Y300225D01*
Y300837D01*
X1737046D01*
Y301450D01*
X1736434D01*
Y302062D01*
X1737046D01*
Y302675D01*
X1736434D01*
Y303287D01*
Y303899D01*
Y304512D01*
X1735822D01*
Y305124D01*
X1735209D01*
Y305736D01*
X1735822D01*
Y306349D01*
X1735209D01*
Y306961D01*
Y307574D01*
Y308186D01*
X1734597D01*
Y308799D01*
X1733984D01*
Y309411D01*
X1734597D01*
Y310023D01*
X1733984D01*
Y310636D01*
Y311248D01*
Y311861D01*
X1733372D01*
Y312473D01*
Y313085D01*
Y313698D01*
X1732760D01*
Y314310D01*
X1733372D01*
Y314923D01*
X1732760D01*
Y315535D01*
Y316147D01*
Y316760D01*
X1732147D01*
Y317372D01*
Y317985D01*
Y318597D01*
X1731535D01*
Y319209D01*
X1732147D01*
Y319822D01*
X1731535D01*
Y320434D01*
Y321047D01*
Y321659D01*
X1730922D01*
Y322271D01*
Y322884D01*
Y323496D01*
X1730310D01*
Y324109D01*
X1730922D01*
Y324721D01*
X1730310D01*
Y325333D01*
Y325946D01*
Y326558D01*
X1729698D01*
Y327171D01*
X1730310D01*
Y327783D01*
X1729698D01*
Y328395D01*
X1729085D01*
Y329008D01*
X1729698D01*
Y329620D01*
X1729085D01*
Y330233D01*
X1729698D01*
Y330845D01*
X1729085D01*
Y331457D01*
Y332070D01*
Y332682D01*
X1728473D01*
Y333295D01*
Y333907D01*
Y334520D01*
X1727860D01*
Y335132D01*
X1728473D01*
Y335744D01*
X1727860D01*
Y336357D01*
X1728473D01*
Y336969D01*
X1727860D01*
Y337581D01*
Y338194D01*
Y338806D01*
X1727248D01*
Y339419D01*
X1727860D01*
Y340031D01*
X1727248D01*
Y340644D01*
X1726635D01*
Y341256D01*
X1727248D01*
Y341868D01*
X1726635D01*
Y342481D01*
X1727248D01*
Y343093D01*
X1726635D01*
Y343705D01*
X1727248D01*
Y344318D01*
X1726635D01*
Y344930D01*
Y345543D01*
Y346155D01*
X1726023D01*
Y346768D01*
X1725411D01*
Y346155D01*
X1724798D01*
Y345543D01*
X1722961D01*
Y344930D01*
X1722349D01*
Y345543D01*
X1721736D01*
Y344930D01*
X1721124D01*
Y344318D01*
X1720511D01*
Y344930D01*
X1719899D01*
Y344318D01*
X1716837D01*
Y343705D01*
X1715000D01*
Y343093D01*
X1714387D01*
Y343705D01*
X1713775D01*
Y343093D01*
X1710713D01*
Y342481D01*
X1710101D01*
Y343093D01*
X1709488D01*
Y342481D01*
X1708876D01*
Y343093D01*
X1708263D01*
Y342481D01*
X1707651D01*
Y341868D01*
X1707039D01*
Y342481D01*
X1706426D01*
Y341868D01*
X1705814D01*
Y342481D01*
X1705201D01*
Y341868D01*
X1697240D01*
Y341256D01*
X1696628D01*
Y341868D01*
X1696015D01*
Y341256D01*
X1695403D01*
Y341868D01*
X1694790D01*
Y341256D01*
X1694178D01*
Y341868D01*
X1692341D01*
Y341256D01*
X1691728D01*
Y341868D01*
X1683767D01*
Y342481D01*
X1683155D01*
Y341868D01*
X1682542D01*
Y342481D01*
X1681930D01*
Y341868D01*
X1681318D01*
Y342481D01*
X1680705D01*
Y343093D01*
X1680093D01*
Y342481D01*
X1679480D01*
Y343093D01*
X1678868D01*
Y342481D01*
X1678255D01*
Y343093D01*
X1675193D01*
Y343705D01*
X1673356D01*
Y344318D01*
X1670294D01*
Y344930D01*
X1669682D01*
Y344318D01*
X1669070D01*
Y344930D01*
X1668457D01*
Y345543D01*
X1665395D01*
Y346155D01*
X1664783D01*
Y345543D01*
X1664170D01*
Y344930D01*
X1664783D01*
Y344318D01*
X1664170D01*
Y343705D01*
Y343093D01*
Y342481D01*
X1663558D01*
Y341868D01*
Y341256D01*
Y340644D01*
Y340031D01*
Y339419D01*
X1662945D01*
Y338806D01*
X1663558D01*
Y338194D01*
X1662945D01*
Y337581D01*
Y336969D01*
Y336357D01*
Y335744D01*
Y335132D01*
X1662333D01*
Y334520D01*
Y333907D01*
Y333295D01*
X1661721D01*
Y332682D01*
X1662333D01*
Y332070D01*
X1661721D01*
Y331457D01*
X1662333D01*
Y330845D01*
X1661721D01*
Y330233D01*
X1661108D01*
Y329620D01*
X1661721D01*
Y329008D01*
X1661108D01*
Y328395D01*
Y327783D01*
Y327171D01*
X1660496D01*
Y326558D01*
X1661108D01*
Y325946D01*
X1660496D01*
Y325333D01*
Y324721D01*
Y324109D01*
X1659883D01*
Y323496D01*
Y322884D01*
Y322271D01*
X1659271D01*
Y321659D01*
X1659883D01*
Y321047D01*
X1659271D01*
Y320434D01*
X1659883D01*
Y319822D01*
X1659271D01*
Y319209D01*
X1658659D01*
Y318597D01*
Y317985D01*
Y317372D01*
X1658046D01*
Y316760D01*
X1658659D01*
Y316147D01*
X1658046D01*
Y315535D01*
Y314923D01*
Y314310D01*
X1657434D01*
Y313698D01*
Y313085D01*
Y312473D01*
X1656821D01*
Y311861D01*
X1657434D01*
Y311248D01*
X1656821D01*
Y310636D01*
X1656209D01*
Y310023D01*
Y309411D01*
Y308799D01*
X1655597D01*
Y308186D01*
X1656209D01*
Y307574D01*
X1655597D01*
Y306961D01*
Y306349D01*
Y305736D01*
X1654984D01*
Y305124D01*
X1654372D01*
Y304512D01*
X1654984D01*
Y303899D01*
X1654372D01*
Y303287D01*
Y302675D01*
X1653759D01*
Y302062D01*
Y301450D01*
X1653147D01*
Y300837D01*
X1653759D01*
Y300225D01*
X1653147D01*
Y299612D01*
X1652534D01*
Y299000D01*
Y298388D01*
Y297775D01*
X1651922D01*
Y297163D01*
Y296550D01*
Y295938D01*
X1651310D01*
Y295326D01*
X1650697D01*
Y294713D01*
X1651310D01*
Y294101D01*
X1650697D01*
Y293488D01*
Y292876D01*
X1650085D01*
Y292264D01*
Y291651D01*
X1649473D01*
Y291039D01*
Y290426D01*
X1648860D01*
Y289814D01*
Y289202D01*
X1648248D01*
Y288589D01*
Y287977D01*
Y287364D01*
X1647635D01*
Y286752D01*
X1647023D01*
Y286140D01*
Y285527D01*
X1646411D01*
Y284915D01*
Y284302D01*
X1645798D01*
Y283690D01*
Y283078D01*
X1645186D01*
Y282465D01*
Y281853D01*
X1644573D01*
Y281240D01*
X1643961D01*
Y280628D01*
X1643349D01*
Y280016D01*
X1643961D01*
Y279403D01*
X1642736D01*
Y278791D01*
Y278178D01*
X1642124D01*
Y277566D01*
X1641511D01*
Y276953D01*
X1640899D01*
Y276341D01*
Y275729D01*
X1639674D01*
Y275116D01*
Y274504D01*
X1639062D01*
Y273891D01*
X1638449D01*
Y273279D01*
X1637837D01*
Y272667D01*
Y272054D01*
X1636612D01*
Y271442D01*
X1636000D01*
Y270829D01*
X1634775D01*
Y270217D01*
X1634162D01*
Y269605D01*
X1633550D01*
Y268992D01*
X1632938D01*
Y268380D01*
X1631100D01*
Y267767D01*
X1630488D01*
Y267155D01*
X1627426D01*
Y266543D01*
X1625589D01*
Y265930D01*
X1624976D01*
Y266543D01*
X1623139D01*
Y267155D01*
X1622527D01*
Y266543D01*
X1621914D01*
Y267155D01*
X1621302D01*
Y266543D01*
X1620690D01*
Y267155D01*
X1618852D01*
Y267767D01*
X1618240D01*
Y268380D01*
X1616403D01*
Y268992D01*
X1615790D01*
Y269605D01*
X1615178D01*
Y270217D01*
X1614565D01*
Y270829D01*
X1612728D01*
Y271442D01*
X1612116D01*
Y272054D01*
X1611503D01*
Y272667D01*
X1610891D01*
Y273279D01*
X1610279D01*
Y273891D01*
Y274504D01*
X1609054D01*
Y275116D01*
X1609666D01*
Y275729D01*
X1608441D01*
Y276341D01*
Y276953D01*
X1607829D01*
Y277566D01*
X1607217D01*
Y278178D01*
X1606604D01*
Y278791D01*
X1605992D01*
Y279403D01*
X1605379D01*
Y280016D01*
X1605992D01*
Y280628D01*
X1605379D01*
Y281240D01*
X1604767D01*
Y281853D01*
X1604155D01*
Y282465D01*
Y283078D01*
X1603542D01*
Y283690D01*
Y284302D01*
X1602930D01*
Y284915D01*
X1602317D01*
Y285527D01*
Y286140D01*
Y286752D01*
X1601705D01*
Y287364D01*
X1601093D01*
Y287977D01*
X1600480D01*
Y288589D01*
X1601093D01*
Y289202D01*
X1600480D01*
Y289814D01*
X1599868D01*
Y290426D01*
Y291039D01*
Y291651D01*
X1599255D01*
Y292264D01*
X1598643D01*
Y292876D01*
Y293488D01*
Y294101D01*
X1598031D01*
Y294713D01*
Y295326D01*
Y295938D01*
X1597418D01*
Y296550D01*
X1596806D01*
Y297163D01*
X1597418D01*
Y297775D01*
X1596806D01*
Y298388D01*
X1596193D01*
Y299000D01*
Y299612D01*
Y300225D01*
X1595581D01*
Y300837D01*
Y301450D01*
Y302062D01*
X1594969D01*
Y302675D01*
Y303287D01*
Y303899D01*
X1594356D01*
Y304512D01*
Y305124D01*
Y305736D01*
X1593744D01*
Y306349D01*
Y306961D01*
Y307574D01*
X1593131D01*
Y308186D01*
Y308799D01*
Y309411D01*
X1592519D01*
Y310023D01*
Y310636D01*
Y311248D01*
X1591906D01*
Y311861D01*
X1592519D01*
Y312473D01*
X1591906D01*
Y313085D01*
Y313698D01*
Y314310D01*
X1591294D01*
Y314923D01*
X1590682D01*
Y315535D01*
X1591294D01*
Y316147D01*
X1590682D01*
Y316760D01*
Y317372D01*
Y317985D01*
X1590069D01*
Y318597D01*
Y319209D01*
Y319822D01*
X1589457D01*
Y320434D01*
X1590069D01*
Y321047D01*
X1589457D01*
Y321659D01*
X1590069D01*
Y322271D01*
X1589457D01*
Y322884D01*
X1588844D01*
Y323496D01*
Y324109D01*
Y324721D01*
X1588232D01*
Y325333D01*
X1588844D01*
Y325946D01*
X1588232D01*
Y326558D01*
Y327171D01*
Y327783D01*
X1587620D01*
Y328395D01*
X1588232D01*
Y329008D01*
X1587620D01*
Y329620D01*
Y330233D01*
Y330845D01*
X1587007D01*
Y331457D01*
X1587620D01*
Y332070D01*
X1587007D01*
Y332682D01*
Y333295D01*
Y333907D01*
X1586395D01*
Y334520D01*
X1587007D01*
Y335132D01*
X1586395D01*
Y335744D01*
Y336357D01*
Y336969D01*
X1585782D01*
Y337581D01*
X1586395D01*
Y338194D01*
X1585782D01*
Y338806D01*
Y339419D01*
Y340031D01*
Y340644D01*
Y341256D01*
X1585170D01*
Y341868D01*
X1585782D01*
Y342481D01*
X1585170D01*
Y343093D01*
X1584558D01*
Y343705D01*
X1585170D01*
Y344318D01*
X1584558D01*
Y344930D01*
X1585170D01*
Y345543D01*
X1584558D01*
Y346155D01*
X1585170D01*
Y346768D01*
X1584558D01*
Y347380D01*
Y347992D01*
Y348605D01*
X1583945D01*
Y349217D01*
Y349830D01*
Y350442D01*
Y351054D01*
Y351667D01*
X1583333D01*
Y352279D01*
X1583945D01*
Y352892D01*
X1583333D01*
Y353504D01*
X1583945D01*
Y354116D01*
X1583333D01*
Y354729D01*
X1583945D01*
Y355341D01*
X1583333D01*
Y355954D01*
Y356566D01*
Y357178D01*
X1582720D01*
Y357791D01*
Y358403D01*
Y359016D01*
Y359628D01*
Y360241D01*
X1582108D01*
Y360853D01*
X1582720D01*
Y361465D01*
X1582108D01*
Y362078D01*
X1582720D01*
Y362690D01*
X1582108D01*
Y363302D01*
X1582720D01*
Y363915D01*
X1582108D01*
Y364527D01*
X1582720D01*
Y365140D01*
X1582108D01*
Y365752D01*
X1582720D01*
Y366365D01*
X1582108D01*
Y366977D01*
Y367589D01*
Y368202D01*
X1581496D01*
Y368814D01*
X1582108D01*
Y369426D01*
X1581496D01*
Y370039D01*
Y370651D01*
Y371264D01*
Y371876D01*
Y372489D01*
Y373101D01*
Y373713D01*
X1580883D01*
Y374326D01*
X1581496D01*
Y374938D01*
X1580883D01*
Y375551D01*
X1581496D01*
Y376163D01*
X1580883D01*
Y376775D01*
X1581496D01*
Y377388D01*
X1580883D01*
Y378000D01*
X1581496D01*
Y378613D01*
X1580883D01*
Y379225D01*
Y379837D01*
Y380450D01*
Y381062D01*
Y381675D01*
Y382287D01*
Y382899D01*
Y383512D01*
Y384124D01*
X1580271D01*
Y384737D01*
Y385349D01*
Y385961D01*
X1580883D01*
Y386574D01*
X1580271D01*
Y387186D01*
Y387799D01*
Y388411D01*
Y389024D01*
Y389636D01*
X1579658D01*
Y390248D01*
X1580271D01*
Y390861D01*
Y391473D01*
Y392085D01*
X1579658D01*
Y392698D01*
X1580271D01*
Y393310D01*
X1579658D01*
Y393923D01*
X1580271D01*
Y394535D01*
X1579658D01*
Y395148D01*
X1580271D01*
Y395760D01*
X1579658D01*
Y396372D01*
X1580271D01*
Y396985D01*
X1579658D01*
Y397597D01*
X1580271D01*
Y398209D01*
X1579658D01*
Y398822D01*
X1580271D01*
Y399434D01*
X1579658D01*
Y400047D01*
X1580271D01*
Y400659D01*
X1579658D01*
Y401272D01*
X1580271D01*
Y401884D01*
X1579658D01*
Y402496D01*
X1580271D01*
Y403109D01*
X1579658D01*
Y403721D01*
Y404334D01*
Y404946D01*
X1580271D01*
Y405558D01*
X1579658D01*
Y406171D01*
Y406783D01*
Y407396D01*
X1580271D01*
Y408008D01*
X1579658D01*
Y408620D01*
Y409233D01*
Y409845D01*
X1580271D01*
Y410458D01*
X1579658D01*
Y411070D01*
Y411682D01*
Y412295D01*
Y412907D01*
Y413520D01*
Y414132D01*
Y414744D01*
X1580271D01*
Y415357D01*
X1579658D01*
Y415969D01*
Y416582D01*
Y417194D01*
X1580271D01*
Y417807D01*
X1579658D01*
Y418419D01*
Y419031D01*
Y419644D01*
X1580271D01*
Y420256D01*
X1579658D01*
Y420868D01*
Y421481D01*
Y422093D01*
X1580271D01*
Y422706D01*
X1579658D01*
Y423318D01*
Y423931D01*
Y424543D01*
X1580271D01*
Y425155D01*
X1579658D01*
Y425768D01*
X1580271D01*
Y426380D01*
X1579658D01*
Y426992D01*
X1580271D01*
Y427605D01*
X1579658D01*
Y428217D01*
X1580271D01*
Y428830D01*
X1579658D01*
Y429442D01*
X1580271D01*
Y430055D01*
X1579658D01*
Y430667D01*
X1580271D01*
Y431279D01*
X1579658D01*
Y431892D01*
X1580271D01*
Y432504D01*
X1579658D01*
Y433117D01*
X1580271D01*
Y433729D01*
X1579658D01*
Y434341D01*
X1580271D01*
Y434954D01*
Y435566D01*
Y436179D01*
X1579658D01*
Y436791D01*
X1580271D01*
Y437403D01*
Y438016D01*
Y438628D01*
Y439241D01*
Y439853D01*
Y440465D01*
Y441078D01*
Y441690D01*
Y442303D01*
X1580883D01*
Y442915D01*
X1580271D01*
Y443527D01*
X1580883D01*
Y444140D01*
Y444752D01*
Y445365D01*
Y445977D01*
Y446590D01*
Y447202D01*
Y447814D01*
Y448427D01*
Y449039D01*
X1581496D01*
Y449651D01*
X1580883D01*
Y450264D01*
X1581496D01*
Y450876D01*
X1580883D01*
Y451489D01*
X1581496D01*
Y452101D01*
X1580883D01*
Y452714D01*
X1581496D01*
Y453326D01*
X1580883D01*
Y453938D01*
X1581496D01*
Y454551D01*
X1580883D01*
Y455163D01*
X1581496D01*
Y455775D01*
Y456388D01*
Y457000D01*
Y457613D01*
Y458225D01*
X1582108D01*
Y458838D01*
X1581496D01*
Y459450D01*
X1582108D01*
Y460062D01*
Y460675D01*
Y461287D01*
X1582720D01*
Y461900D01*
X1582108D01*
Y462512D01*
Y463124D01*
Y463737D01*
X1582720D01*
Y464349D01*
X1582108D01*
Y464962D01*
X1582720D01*
Y465574D01*
X1582108D01*
Y466186D01*
X1582720D01*
Y466799D01*
Y467411D01*
Y468024D01*
Y468636D01*
Y469248D01*
X1583333D01*
Y469861D01*
X1582720D01*
Y470473D01*
X1583333D01*
Y471086D01*
Y471698D01*
Y472310D01*
Y472923D01*
Y473535D01*
X1583945D01*
Y474148D01*
X1583333D01*
Y474760D01*
X1583945D01*
Y475373D01*
X1583333D01*
Y475985D01*
X1583945D01*
Y476597D01*
Y477210D01*
Y477822D01*
Y478434D01*
Y479047D01*
X1584558D01*
Y479659D01*
Y480272D01*
Y480884D01*
X1585170D01*
Y481497D01*
X1584558D01*
Y482109D01*
X1585170D01*
Y482721D01*
X1584558D01*
Y483334D01*
X1585170D01*
Y483946D01*
Y484558D01*
Y485171D01*
Y485783D01*
Y486396D01*
X1585782D01*
Y487008D01*
X1585170D01*
Y487621D01*
X1585782D01*
Y488233D01*
Y488845D01*
Y489458D01*
X1586395D01*
Y490070D01*
X1585782D01*
Y490683D01*
X1586395D01*
Y491295D01*
X1585782D01*
Y491907D01*
X1586395D01*
Y492520D01*
Y493132D01*
Y493745D01*
X1587007D01*
Y494357D01*
Y494969D01*
Y495582D01*
X1587620D01*
Y496194D01*
X1587007D01*
Y496807D01*
X1587620D01*
Y497419D01*
X1587007D01*
Y498031D01*
X1587620D01*
Y498644D01*
X1588232D01*
Y499256D01*
X1587620D01*
Y499869D01*
X1588232D01*
Y500481D01*
Y501093D01*
Y501706D01*
X1588844D01*
Y502318D01*
X1588232D01*
Y502931D01*
X1588844D01*
Y503543D01*
Y504156D01*
Y504768D01*
X1589457D01*
Y505380D01*
Y505993D01*
Y506605D01*
X1590069D01*
Y507217D01*
X1589457D01*
Y507830D01*
X1590069D01*
Y508442D01*
Y509055D01*
Y509667D01*
X1590682D01*
Y510280D01*
Y510892D01*
Y511504D01*
X1591294D01*
Y512117D01*
X1590682D01*
Y512729D01*
X1591294D01*
Y513341D01*
Y513954D01*
Y514566D01*
X1591906D01*
Y515179D01*
X1592519D01*
Y515791D01*
X1591906D01*
Y516404D01*
X1592519D01*
Y517016D01*
X1591906D01*
Y517628D01*
X1592519D01*
Y518241D01*
X1593131D01*
Y518853D01*
Y519466D01*
Y520078D01*
X1593744D01*
Y520690D01*
X1593131D01*
Y521303D01*
X1593744D01*
Y521915D01*
X1594356D01*
Y522528D01*
Y523140D01*
Y523752D01*
X1594969D01*
Y524365D01*
X1594356D01*
Y524977D01*
X1594969D01*
Y525590D01*
X1595581D01*
Y526202D01*
Y526814D01*
Y527427D01*
X1596193D01*
Y528039D01*
X1595581D01*
Y528652D01*
X1596193D01*
Y529264D01*
X1596806D01*
Y529877D01*
X1597418D01*
Y530489D01*
X1596806D01*
Y531101D01*
X1597418D01*
Y531714D01*
Y532326D01*
X1598031D01*
Y532938D01*
Y533551D01*
X1598643D01*
Y534163D01*
X1598031D01*
Y534776D01*
X1598643D01*
Y535388D01*
X1599255D01*
Y536001D01*
Y536613D01*
Y537225D01*
X1599868D01*
Y537838D01*
X1600480D01*
Y538450D01*
Y539062D01*
Y539675D01*
X1601093D01*
Y540287D01*
X1601705D01*
Y540900D01*
Y541512D01*
Y542125D01*
X1602317D01*
Y542737D01*
X1602930D01*
Y543349D01*
X1603542D01*
Y543962D01*
X1602930D01*
Y544574D01*
X1603542D01*
Y545187D01*
X1604155D01*
Y545799D01*
X1604767D01*
Y546411D01*
X1604155D01*
Y547024D01*
X1605379D01*
Y547636D01*
Y548249D01*
X1605992D01*
Y548861D01*
X1606604D01*
Y549473D01*
X1607217D01*
Y550086D01*
Y550698D01*
X1607829D01*
Y551311D01*
Y551923D01*
X1608441D01*
Y552535D01*
X1609054D01*
Y553148D01*
X1609666D01*
Y553760D01*
X1610279D01*
Y554373D01*
X1610891D01*
Y554985D01*
X1611503D01*
Y555597D01*
X1612116D01*
Y556210D01*
X1612728D01*
Y556822D01*
X1613341D01*
Y557435D01*
X1613953D01*
Y558047D01*
X1614565D01*
Y558660D01*
X1615178D01*
Y558047D01*
X1615790D01*
Y558660D01*
X1616403D01*
Y559272D01*
X1617015D01*
Y559884D01*
X1617628D01*
Y560497D01*
X1619465D01*
Y561109D01*
X1620077D01*
Y560497D01*
X1620690D01*
Y561109D01*
X1621302D01*
Y561721D01*
X1626814D01*
Y561109D01*
X1627426D01*
Y561721D01*
X1628038D01*
Y561109D01*
X1629876D01*
Y560497D01*
X1631713D01*
Y559884D01*
X1632325D01*
Y559272D01*
X1632938D01*
Y558660D01*
X1634162D01*
Y558047D01*
X1635387D01*
Y557435D01*
X1636000D01*
Y556822D01*
X1636612D01*
Y556210D01*
X1637224D01*
Y555597D01*
X1637837D01*
Y554985D01*
X1638449D01*
Y554373D01*
X1639062D01*
Y553760D01*
X1639674D01*
Y553148D01*
X1640287D01*
Y552535D01*
X1640899D01*
Y551923D01*
X1641511D01*
Y551311D01*
Y550698D01*
Y550086D01*
X1642124D01*
Y549473D01*
X1642736D01*
Y548861D01*
X1643349D01*
Y548249D01*
X1643961D01*
Y547636D01*
X1643349D01*
Y547024D01*
X1644573D01*
Y546411D01*
Y545799D01*
X1645186D01*
Y545187D01*
X1645798D01*
Y544574D01*
X1646411D01*
Y543962D01*
X1645798D01*
Y543349D01*
X1646411D01*
Y542737D01*
X1647023D01*
Y542125D01*
X1647635D01*
Y541512D01*
X1647023D01*
Y540900D01*
X1647635D01*
Y540287D01*
X1648248D01*
Y540900D01*
X1648860D01*
Y540287D01*
X1649473D01*
Y540900D01*
X1651310D01*
Y541512D01*
X1651922D01*
Y540900D01*
X1652534D01*
Y541512D01*
X1653147D01*
Y542125D01*
X1653759D01*
Y541512D01*
X1654372D01*
Y542125D01*
X1657434D01*
Y542737D01*
X1658046D01*
Y542125D01*
X1658659D01*
Y542737D01*
X1659271D01*
Y543349D01*
X1659883D01*
Y542737D01*
X1660496D01*
Y543349D01*
X1661108D01*
Y542737D01*
X1661721D01*
Y543349D01*
X1664783D01*
Y543962D01*
X1665395D01*
Y543349D01*
X1666007D01*
Y543962D01*
X1666620D01*
Y543349D01*
X1667232D01*
Y543962D01*
X1667845D01*
Y544574D01*
X1668457D01*
Y543962D01*
X1669070D01*
Y544574D01*
X1669682D01*
Y543962D01*
X1670294D01*
Y544574D01*
X1677031D01*
Y545187D01*
X1677643D01*
Y544574D01*
X1678255D01*
Y545187D01*
X1678868D01*
Y544574D01*
X1679480D01*
Y545187D01*
X1680093D01*
Y544574D01*
X1680705D01*
Y545187D01*
X1681318D01*
Y545799D01*
X1681930D01*
Y545187D01*
X1682542D01*
Y545799D01*
X1683155D01*
Y545187D01*
X1683767D01*
Y545799D01*
X1684380D01*
Y545187D01*
X1684992D01*
Y545799D01*
X1685604D01*
Y545187D01*
X1686217D01*
Y545799D01*
X1686829D01*
Y545187D01*
X1687442D01*
Y545799D01*
X1688054D01*
Y545187D01*
X1688666D01*
Y545799D01*
X1690504D01*
Y545187D01*
X1691116D01*
Y545799D01*
X1700302D01*
Y545187D01*
X1700914D01*
Y545799D01*
X1701527D01*
Y545187D01*
X1702139D01*
Y545799D01*
X1702752D01*
Y545187D01*
X1703364D01*
Y545799D01*
X1703976D01*
Y545187D01*
X1704589D01*
Y545799D01*
X1705201D01*
Y545187D01*
X1705814D01*
Y545799D01*
X1706426D01*
Y545187D01*
X1707039D01*
Y545799D01*
X1707651D01*
Y545187D01*
X1708263D01*
Y545799D01*
X1708876D01*
Y545187D01*
X1709488D01*
Y544574D01*
X1710101D01*
Y545187D01*
X1710713D01*
Y544574D01*
X1711325D01*
Y545187D01*
X1711938D01*
Y544574D01*
X1712550D01*
Y545187D01*
X1713163D01*
Y544574D01*
X1713775D01*
Y545187D01*
X1714387D01*
Y544574D01*
X1718674D01*
Y543962D01*
X1719287D01*
Y544574D01*
X1719899D01*
Y543962D01*
X1720511D01*
Y544574D01*
X1721124D01*
Y543962D01*
X1721736D01*
Y544574D01*
X1722349D01*
Y543962D01*
X1722961D01*
Y543349D01*
X1723573D01*
Y543962D01*
X1724186D01*
Y543349D01*
X1724798D01*
Y543962D01*
X1725411D01*
Y543349D01*
X1728473D01*
Y542737D01*
X1729085D01*
Y543349D01*
X1729698D01*
Y542737D01*
X1730310D01*
Y543349D01*
X1730922D01*
Y542737D01*
X1731535D01*
Y542125D01*
X1732147D01*
Y542737D01*
X1732760D01*
Y542125D01*
X1735822D01*
Y541512D01*
X1736434D01*
Y542125D01*
X1737046D01*
Y541512D01*
X1737659D01*
Y540900D01*
X1738271D01*
Y541512D01*
X1738884D01*
Y540900D01*
X1741946D01*
Y540287D01*
X1742558D01*
Y540900D01*
X1743783D01*
Y541512D01*
Y542125D01*
X1744395D01*
Y542737D01*
X1745008D01*
Y543349D01*
Y543962D01*
Y544574D01*
X1745620D01*
Y545187D01*
X1746232D01*
Y545799D01*
X1746845D01*
Y546411D01*
X1746232D01*
Y547024D01*
X1747457D01*
Y547636D01*
Y548249D01*
X1748070D01*
Y548861D01*
X1748682D01*
Y549473D01*
X1749294D01*
Y550086D01*
Y550698D01*
X1749907D01*
Y551311D01*
Y551923D01*
X1750519D01*
Y552535D01*
X1751132D01*
Y553148D01*
X1751744D01*
Y553760D01*
X1752357D01*
Y554373D01*
X1752969D01*
Y554985D01*
X1753581D01*
Y555597D01*
X1754194D01*
Y556210D01*
X1754806D01*
Y556822D01*
X1755419D01*
Y557435D01*
X1756031D01*
Y558047D01*
X1757868D01*
Y558660D01*
X1758481D01*
Y559272D01*
X1759093D01*
Y559884D01*
X1760930D01*
Y560497D01*
X1762767D01*
Y561109D01*
X1764604D01*
Y561721D01*
X1765217D01*
Y561109D01*
X1765829D01*
Y561721D01*
X1766442D01*
Y561109D01*
X1767054D01*
Y561721D01*
X1767667D01*
Y561109D01*
X1768279D01*
Y561721D01*
X1768891D01*
Y561109D01*
D02*
G37*
%LPC*%
G36*
X1705201Y539675D02*
X1684992D01*
Y539062D01*
X1680093D01*
Y538450D01*
X1677031D01*
Y537838D01*
X1673969D01*
Y537225D01*
X1670907D01*
Y536613D01*
X1669070D01*
Y536001D01*
X1666620D01*
Y535388D01*
X1664783D01*
Y534776D01*
X1662945D01*
Y534163D01*
X1661108D01*
Y533551D01*
X1659883D01*
Y532938D01*
X1658046D01*
Y532326D01*
X1656821D01*
Y531714D01*
X1655597D01*
Y531101D01*
X1654372D01*
Y530489D01*
X1653147D01*
Y529877D01*
X1651922D01*
Y529264D01*
X1650697D01*
Y528652D01*
X1649473D01*
Y528039D01*
X1648248D01*
Y527427D01*
X1647023D01*
Y526814D01*
X1645798D01*
Y526202D01*
X1645186D01*
Y525590D01*
X1643961D01*
Y524977D01*
X1643349D01*
Y524365D01*
X1642124D01*
Y523752D01*
X1640899D01*
Y523140D01*
X1640287D01*
Y522528D01*
X1639674D01*
Y521915D01*
X1638449D01*
Y521303D01*
X1637837D01*
Y520690D01*
X1636612D01*
Y520078D01*
X1636000D01*
Y519466D01*
X1635387D01*
Y518853D01*
X1634775D01*
Y518241D01*
X1633550D01*
Y517628D01*
X1632938D01*
Y517016D01*
X1632325D01*
Y516404D01*
X1631713D01*
Y515791D01*
X1631100D01*
Y515179D01*
X1630488D01*
Y514566D01*
X1629263D01*
Y513954D01*
X1628651D01*
Y513341D01*
X1628038D01*
Y512729D01*
X1627426D01*
Y512117D01*
X1626814D01*
Y511504D01*
X1626201D01*
Y510892D01*
X1625589D01*
Y510280D01*
X1624976D01*
Y509667D01*
X1624364D01*
Y509055D01*
X1623752D01*
Y508442D01*
X1623139D01*
Y507830D01*
Y507217D01*
X1622527D01*
Y506605D01*
X1621914D01*
Y505993D01*
X1621302D01*
Y505380D01*
X1620690D01*
Y504768D01*
X1620077D01*
Y504156D01*
Y503543D01*
X1619465D01*
Y502931D01*
X1618852D01*
Y502318D01*
X1618240D01*
Y501706D01*
X1617628D01*
Y501093D01*
Y500481D01*
X1617015D01*
Y499869D01*
X1616403D01*
Y499256D01*
X1615790D01*
Y498644D01*
Y498031D01*
X1615178D01*
Y497419D01*
X1614565D01*
Y496807D01*
Y496194D01*
X1613953D01*
Y495582D01*
X1613341D01*
Y494969D01*
Y494357D01*
X1612728D01*
Y493745D01*
Y493132D01*
X1612116D01*
Y492520D01*
X1611503D01*
Y491907D01*
Y491295D01*
X1610891D01*
Y490683D01*
Y490070D01*
X1610279D01*
Y489458D01*
X1609666D01*
Y488845D01*
Y488233D01*
X1609054D01*
Y487621D01*
Y487008D01*
X1608441D01*
Y486396D01*
Y485783D01*
X1607829D01*
Y485171D01*
Y484558D01*
X1607217D01*
Y483946D01*
Y483334D01*
Y482721D01*
X1606604D01*
Y482109D01*
Y481497D01*
X1605992D01*
Y480884D01*
Y480272D01*
X1605379D01*
Y479659D01*
Y479047D01*
Y478434D01*
X1604767D01*
Y477822D01*
Y477210D01*
X1604155D01*
Y476597D01*
Y475985D01*
Y475373D01*
X1603542D01*
Y474760D01*
Y474148D01*
Y473535D01*
X1602930D01*
Y472923D01*
Y472310D01*
Y471698D01*
X1602317D01*
Y471086D01*
Y470473D01*
Y469861D01*
X1601705D01*
Y469248D01*
Y468636D01*
Y468024D01*
Y467411D01*
X1601093D01*
Y466799D01*
Y466186D01*
Y465574D01*
Y464962D01*
X1600480D01*
Y464349D01*
Y463737D01*
Y463124D01*
Y462512D01*
X1599868D01*
Y461900D01*
Y461287D01*
Y460675D01*
Y460062D01*
Y459450D01*
Y458838D01*
X1599255D01*
Y458225D01*
Y457613D01*
Y457000D01*
Y456388D01*
Y455775D01*
Y455163D01*
Y454551D01*
X1598643D01*
Y453938D01*
Y453326D01*
Y452714D01*
Y452101D01*
Y451489D01*
Y450876D01*
Y450264D01*
Y449651D01*
Y449039D01*
Y448427D01*
Y447814D01*
Y447202D01*
X1598031D01*
Y446590D01*
Y445977D01*
Y445365D01*
Y444752D01*
Y444140D01*
Y443527D01*
Y442915D01*
Y442303D01*
Y441690D01*
Y441078D01*
Y440465D01*
Y439853D01*
Y439241D01*
Y438628D01*
X1598643D01*
Y438016D01*
Y437403D01*
Y436791D01*
Y436179D01*
Y435566D01*
Y434954D01*
Y434341D01*
Y433729D01*
Y433117D01*
Y432504D01*
Y431892D01*
Y431279D01*
X1599255D01*
Y430667D01*
Y430055D01*
Y429442D01*
Y428830D01*
Y428217D01*
Y427605D01*
Y426992D01*
X1599868D01*
Y426380D01*
Y425768D01*
Y425155D01*
Y424543D01*
Y423931D01*
Y423318D01*
X1600480D01*
Y422706D01*
Y422093D01*
Y421481D01*
Y420868D01*
X1601093D01*
Y420256D01*
Y419644D01*
Y419031D01*
Y418419D01*
X1601705D01*
Y417807D01*
Y417194D01*
Y416582D01*
Y415969D01*
X1602317D01*
Y415357D01*
Y414744D01*
Y414132D01*
X1602930D01*
Y413520D01*
Y412907D01*
Y412295D01*
X1603542D01*
Y411682D01*
Y411070D01*
Y410458D01*
X1604155D01*
Y409845D01*
Y409233D01*
Y408620D01*
X1604767D01*
Y408008D01*
Y407396D01*
X1605379D01*
Y406783D01*
Y406171D01*
Y405558D01*
X1605992D01*
Y404946D01*
Y404334D01*
X1606604D01*
Y403721D01*
Y403109D01*
X1607217D01*
Y402496D01*
Y401884D01*
Y401272D01*
X1607829D01*
Y400659D01*
Y400047D01*
X1608441D01*
Y399434D01*
Y398822D01*
X1609054D01*
Y398209D01*
Y397597D01*
X1609666D01*
Y396985D01*
Y396372D01*
X1610279D01*
Y395760D01*
X1610891D01*
Y395148D01*
Y394535D01*
X1611503D01*
Y393923D01*
Y393310D01*
X1612116D01*
Y392698D01*
X1612728D01*
Y392085D01*
Y391473D01*
X1613341D01*
Y390861D01*
Y390248D01*
X1613953D01*
Y389636D01*
X1614565D01*
Y389024D01*
Y388411D01*
X1615178D01*
Y387799D01*
X1615790D01*
Y387186D01*
X1616403D01*
Y386574D01*
Y385961D01*
X1617015D01*
Y385349D01*
X1617628D01*
Y384737D01*
Y384124D01*
X1618240D01*
Y383512D01*
X1618852D01*
Y382899D01*
X1619465D01*
Y382287D01*
X1620077D01*
Y381675D01*
Y381062D01*
X1620690D01*
Y380450D01*
X1621302D01*
Y379837D01*
X1621914D01*
Y379225D01*
X1622527D01*
Y378613D01*
X1623139D01*
Y378000D01*
X1623752D01*
Y377388D01*
Y376775D01*
X1624364D01*
Y376163D01*
X1624976D01*
Y375551D01*
X1625589D01*
Y374938D01*
X1626201D01*
Y374326D01*
X1626814D01*
Y373713D01*
X1627426D01*
Y373101D01*
X1628038D01*
Y372489D01*
X1628651D01*
Y371876D01*
X1629876D01*
Y371264D01*
X1630488D01*
Y370651D01*
X1631100D01*
Y370039D01*
X1631713D01*
Y369426D01*
X1632325D01*
Y368814D01*
X1632938D01*
Y368202D01*
X1633550D01*
Y367589D01*
X1634775D01*
Y366977D01*
X1635387D01*
Y366365D01*
X1636000D01*
Y365752D01*
X1636612D01*
Y365140D01*
X1637837D01*
Y364527D01*
X1638449D01*
Y363915D01*
X1639674D01*
Y363302D01*
X1640287D01*
Y362690D01*
X1640899D01*
Y362078D01*
X1642124D01*
Y361465D01*
X1643349D01*
Y360853D01*
X1643961D01*
Y360241D01*
X1645186D01*
Y359628D01*
X1645798D01*
Y359016D01*
X1647023D01*
Y358403D01*
X1648248D01*
Y357791D01*
X1649473D01*
Y357178D01*
X1650697D01*
Y356566D01*
X1651922D01*
Y355954D01*
X1653147D01*
Y355341D01*
X1654372D01*
Y354729D01*
X1655597D01*
Y354116D01*
X1656821D01*
Y353504D01*
X1658659D01*
Y352892D01*
X1659883D01*
Y352279D01*
X1661721D01*
Y351667D01*
X1662945D01*
Y351054D01*
X1664783D01*
Y350442D01*
X1667232D01*
Y349830D01*
X1669070D01*
Y349217D01*
X1671519D01*
Y348605D01*
X1673969D01*
Y347992D01*
X1677031D01*
Y347380D01*
X1680093D01*
Y346768D01*
X1684992D01*
Y346155D01*
X1704589D01*
Y346768D01*
X1709488D01*
Y347380D01*
X1713163D01*
Y347992D01*
X1716225D01*
Y348605D01*
X1718674D01*
Y349217D01*
X1721124D01*
Y349830D01*
X1722961D01*
Y350442D01*
X1724798D01*
Y351054D01*
X1726635D01*
Y351667D01*
X1728473D01*
Y352279D01*
X1730310D01*
Y352892D01*
X1731535D01*
Y353504D01*
X1733372D01*
Y354116D01*
X1734597D01*
Y354729D01*
X1735822D01*
Y355341D01*
X1737046D01*
Y355954D01*
X1738271D01*
Y356566D01*
X1739496D01*
Y357178D01*
X1740721D01*
Y357791D01*
X1741946D01*
Y358403D01*
X1743170D01*
Y359016D01*
X1743783D01*
Y359628D01*
X1745008D01*
Y360241D01*
X1746232D01*
Y360853D01*
X1746845D01*
Y361465D01*
X1748070D01*
Y362078D01*
X1748682D01*
Y362690D01*
X1749907D01*
Y363302D01*
X1750519D01*
Y363915D01*
X1751744D01*
Y364527D01*
X1752357D01*
Y365140D01*
X1752969D01*
Y365752D01*
X1754194D01*
Y366365D01*
X1754806D01*
Y366977D01*
X1755419D01*
Y367589D01*
X1756643D01*
Y368202D01*
X1757256D01*
Y368814D01*
X1757868D01*
Y369426D01*
X1758481D01*
Y370039D01*
X1759093D01*
Y370651D01*
X1759705D01*
Y371264D01*
X1760318D01*
Y371876D01*
X1760930D01*
Y372489D01*
X1761543D01*
Y373101D01*
X1762767D01*
Y373713D01*
X1763380D01*
Y374326D01*
X1763992D01*
Y374938D01*
X1764604D01*
Y375551D01*
Y376163D01*
X1765217D01*
Y376775D01*
X1765829D01*
Y377388D01*
X1766442D01*
Y378000D01*
X1767054D01*
Y378613D01*
X1767667D01*
Y379225D01*
X1768279D01*
Y379837D01*
X1768891D01*
Y380450D01*
X1769504D01*
Y381062D01*
X1770116D01*
Y381675D01*
Y382287D01*
X1770729D01*
Y382899D01*
X1771341D01*
Y383512D01*
X1771953D01*
Y384124D01*
Y384737D01*
X1772566D01*
Y385349D01*
X1773178D01*
Y385961D01*
X1773791D01*
Y386574D01*
Y387186D01*
X1774403D01*
Y387799D01*
X1775015D01*
Y388411D01*
X1775628D01*
Y389024D01*
Y389636D01*
X1776240D01*
Y390248D01*
Y390861D01*
X1776853D01*
Y391473D01*
X1777465D01*
Y392085D01*
Y392698D01*
X1778077D01*
Y393310D01*
X1778690D01*
Y393923D01*
Y394535D01*
X1779302D01*
Y395148D01*
Y395760D01*
X1779915D01*
Y396372D01*
Y396985D01*
X1780527D01*
Y397597D01*
Y398209D01*
X1781140D01*
Y398822D01*
Y399434D01*
X1781752D01*
Y400047D01*
Y400659D01*
X1782364D01*
Y401272D01*
Y401884D01*
X1782977D01*
Y402496D01*
Y403109D01*
X1783589D01*
Y403721D01*
Y404334D01*
X1784202D01*
Y404946D01*
Y405558D01*
X1784814D01*
Y406171D01*
Y406783D01*
Y407396D01*
X1785426D01*
Y408008D01*
Y408620D01*
X1786039D01*
Y409233D01*
Y409845D01*
Y410458D01*
X1786651D01*
Y411070D01*
Y411682D01*
Y412295D01*
X1787263D01*
Y412907D01*
Y413520D01*
Y414132D01*
X1787876D01*
Y414744D01*
Y415357D01*
Y415969D01*
Y416582D01*
X1788488D01*
Y417194D01*
Y417807D01*
Y418419D01*
X1789101D01*
Y419031D01*
Y419644D01*
Y420256D01*
Y420868D01*
X1789713D01*
Y421481D01*
Y422093D01*
Y422706D01*
Y423318D01*
Y423931D01*
X1790326D01*
Y424543D01*
Y425155D01*
Y425768D01*
Y426380D01*
Y426992D01*
X1790938D01*
Y427605D01*
Y428217D01*
Y428830D01*
Y429442D01*
Y430055D01*
Y430667D01*
Y431279D01*
Y431892D01*
X1791550D01*
Y432504D01*
Y433117D01*
Y433729D01*
Y434341D01*
Y434954D01*
Y435566D01*
Y436179D01*
Y436791D01*
Y437403D01*
Y438016D01*
Y438628D01*
Y439241D01*
Y439853D01*
Y440465D01*
Y441078D01*
X1792163D01*
Y441690D01*
Y442303D01*
Y442915D01*
Y443527D01*
Y444140D01*
Y444752D01*
X1791550D01*
Y445365D01*
Y445977D01*
Y446590D01*
Y447202D01*
Y447814D01*
Y448427D01*
Y449039D01*
Y449651D01*
Y450264D01*
Y450876D01*
Y451489D01*
Y452101D01*
Y452714D01*
Y453326D01*
Y453938D01*
X1790938D01*
Y454551D01*
Y455163D01*
Y455775D01*
Y456388D01*
Y457000D01*
Y457613D01*
Y458225D01*
Y458838D01*
X1790326D01*
Y459450D01*
Y460062D01*
Y460675D01*
Y461287D01*
Y461900D01*
X1789713D01*
Y462512D01*
Y463124D01*
Y463737D01*
Y464349D01*
Y464962D01*
X1789101D01*
Y465574D01*
Y466186D01*
Y466799D01*
Y467411D01*
X1788488D01*
Y468024D01*
Y468636D01*
Y469248D01*
X1787876D01*
Y469861D01*
Y470473D01*
Y471086D01*
Y471698D01*
X1787263D01*
Y472310D01*
Y472923D01*
Y473535D01*
X1786651D01*
Y474148D01*
Y474760D01*
Y475373D01*
X1786039D01*
Y475985D01*
Y476597D01*
Y477210D01*
X1785426D01*
Y477822D01*
Y478434D01*
X1784814D01*
Y479047D01*
Y479659D01*
Y480272D01*
X1784202D01*
Y480884D01*
Y481497D01*
X1783589D01*
Y482109D01*
Y482721D01*
X1782977D01*
Y483334D01*
Y483946D01*
X1782364D01*
Y484558D01*
Y485171D01*
X1781752D01*
Y485783D01*
Y486396D01*
X1781140D01*
Y487008D01*
Y487621D01*
X1780527D01*
Y488233D01*
Y488845D01*
X1779915D01*
Y489458D01*
Y490070D01*
X1779302D01*
Y490683D01*
Y491295D01*
X1778690D01*
Y491907D01*
Y492520D01*
X1778077D01*
Y493132D01*
X1777465D01*
Y493745D01*
Y494357D01*
X1776853D01*
Y494969D01*
X1776240D01*
Y495582D01*
Y496194D01*
X1775628D01*
Y496807D01*
Y497419D01*
X1775015D01*
Y498031D01*
X1774403D01*
Y498644D01*
X1773791D01*
Y499256D01*
Y499869D01*
X1773178D01*
Y500481D01*
X1772566D01*
Y501093D01*
Y501706D01*
X1771953D01*
Y502318D01*
X1771341D01*
Y502931D01*
X1770729D01*
Y503543D01*
X1770116D01*
Y504156D01*
Y504768D01*
X1769504D01*
Y505380D01*
X1768891D01*
Y505993D01*
X1768279D01*
Y506605D01*
X1767667D01*
Y507217D01*
X1767054D01*
Y507830D01*
X1766442D01*
Y508442D01*
X1765829D01*
Y509055D01*
X1765217D01*
Y509667D01*
Y510280D01*
X1764604D01*
Y510892D01*
X1763992D01*
Y511504D01*
X1763380D01*
Y512117D01*
X1762767D01*
Y512729D01*
X1762155D01*
Y513341D01*
X1760930D01*
Y513954D01*
X1760318D01*
Y514566D01*
X1759705D01*
Y515179D01*
X1759093D01*
Y515791D01*
X1758481D01*
Y516404D01*
X1757868D01*
Y517016D01*
X1757256D01*
Y517628D01*
X1756643D01*
Y518241D01*
X1755419D01*
Y518853D01*
X1754806D01*
Y519466D01*
X1754194D01*
Y520078D01*
X1752969D01*
Y520690D01*
X1752357D01*
Y521303D01*
X1751744D01*
Y521915D01*
X1750519D01*
Y522528D01*
X1749907D01*
Y523140D01*
X1749294D01*
Y523752D01*
X1748070D01*
Y524365D01*
X1746845D01*
Y524977D01*
X1746232D01*
Y525590D01*
X1745008D01*
Y526202D01*
X1744395D01*
Y526814D01*
X1743170D01*
Y527427D01*
X1741946D01*
Y528039D01*
X1740721D01*
Y528652D01*
X1739496D01*
Y529264D01*
X1738271D01*
Y529877D01*
X1737046D01*
Y530489D01*
X1735822D01*
Y531101D01*
X1734597D01*
Y531714D01*
X1733372D01*
Y532326D01*
X1731535D01*
Y532938D01*
X1730310D01*
Y533551D01*
X1728473D01*
Y534163D01*
X1727248D01*
Y534776D01*
X1725411D01*
Y535388D01*
X1722961D01*
Y536001D01*
X1721124D01*
Y536613D01*
X1718674D01*
Y537225D01*
X1716225D01*
Y537838D01*
X1713163D01*
Y538450D01*
X1710101D01*
Y539062D01*
X1705201D01*
Y539675D01*
D02*
G37*
%LPD*%
G36*
Y527427D02*
X1709488D01*
Y526814D01*
X1712550D01*
Y526202D01*
X1715612D01*
Y525590D01*
X1717449D01*
Y524977D01*
X1719899D01*
Y524365D01*
X1721736D01*
Y523752D01*
X1723573D01*
Y523140D01*
X1725411D01*
Y522528D01*
X1726635D01*
Y521915D01*
X1728473D01*
Y521303D01*
X1729698D01*
Y520690D01*
X1730922D01*
Y520078D01*
X1732760D01*
Y519466D01*
X1733984D01*
Y518853D01*
X1735209D01*
Y518241D01*
X1736434D01*
Y517628D01*
X1737046D01*
Y517016D01*
X1738271D01*
Y516404D01*
X1739496D01*
Y515791D01*
X1740108D01*
Y515179D01*
X1741333D01*
Y514566D01*
X1742558D01*
Y513954D01*
X1743170D01*
Y513341D01*
X1744395D01*
Y512729D01*
X1745008D01*
Y512117D01*
X1745620D01*
Y511504D01*
X1746845D01*
Y510892D01*
X1747457D01*
Y510280D01*
X1748070D01*
Y509667D01*
X1749294D01*
Y509055D01*
X1749907D01*
Y508442D01*
X1750519D01*
Y507830D01*
X1751132D01*
Y507217D01*
X1751744D01*
Y506605D01*
X1752969D01*
Y505993D01*
X1753581D01*
Y505380D01*
X1754194D01*
Y504768D01*
X1754806D01*
Y504156D01*
X1755419D01*
Y503543D01*
X1756031D01*
Y502931D01*
X1756643D01*
Y502318D01*
X1757256D01*
Y501706D01*
X1757868D01*
Y501093D01*
X1758481D01*
Y500481D01*
X1759093D01*
Y499869D01*
X1759705D01*
Y499256D01*
Y498644D01*
X1760318D01*
Y498031D01*
X1760930D01*
Y497419D01*
X1761543D01*
Y496807D01*
X1762155D01*
Y496194D01*
X1762767D01*
Y495582D01*
Y494969D01*
X1763380D01*
Y494357D01*
X1763992D01*
Y493745D01*
X1764604D01*
Y493132D01*
X1765217D01*
Y492520D01*
Y491907D01*
X1765829D01*
Y491295D01*
X1766442D01*
Y490683D01*
Y490070D01*
X1767054D01*
Y489458D01*
X1767667D01*
Y488845D01*
Y488233D01*
X1768279D01*
Y487621D01*
X1768891D01*
Y487008D01*
Y486396D01*
X1769504D01*
Y485783D01*
Y485171D01*
X1770116D01*
Y484558D01*
X1770729D01*
Y483946D01*
Y483334D01*
X1771341D01*
Y482721D01*
Y482109D01*
X1771953D01*
Y481497D01*
Y480884D01*
X1772566D01*
Y480272D01*
Y479659D01*
X1773178D01*
Y479047D01*
Y478434D01*
X1773791D01*
Y477822D01*
Y477210D01*
X1774403D01*
Y476597D01*
Y475985D01*
X1775015D01*
Y475373D01*
Y474760D01*
Y474148D01*
X1775628D01*
Y473535D01*
Y472923D01*
X1776240D01*
Y472310D01*
Y471698D01*
Y471086D01*
X1776853D01*
Y470473D01*
Y469861D01*
Y469248D01*
X1777465D01*
Y468636D01*
Y468024D01*
Y467411D01*
X1778077D01*
Y466799D01*
Y466186D01*
Y465574D01*
X1778690D01*
Y464962D01*
Y464349D01*
Y463737D01*
Y463124D01*
X1779302D01*
Y462512D01*
Y461900D01*
Y461287D01*
Y460675D01*
X1779915D01*
Y460062D01*
Y459450D01*
Y458838D01*
Y458225D01*
Y457613D01*
X1780527D01*
Y457000D01*
Y456388D01*
Y455775D01*
Y455163D01*
Y454551D01*
Y453938D01*
X1781140D01*
Y453326D01*
Y452714D01*
Y452101D01*
Y451489D01*
Y450876D01*
Y450264D01*
Y449651D01*
Y449039D01*
Y448427D01*
X1781752D01*
Y447814D01*
Y447202D01*
Y446590D01*
Y445977D01*
Y445365D01*
Y444752D01*
Y444140D01*
Y443527D01*
Y442915D01*
Y442303D01*
Y441690D01*
Y441078D01*
Y440465D01*
Y439853D01*
Y439241D01*
Y438628D01*
Y438016D01*
Y437403D01*
Y436791D01*
Y436179D01*
Y435566D01*
Y434954D01*
Y434341D01*
X1781140D01*
Y433729D01*
Y433117D01*
Y432504D01*
Y431892D01*
Y431279D01*
Y430667D01*
Y430055D01*
Y429442D01*
Y428830D01*
X1780527D01*
Y428217D01*
Y427605D01*
Y426992D01*
Y426380D01*
Y425768D01*
Y425155D01*
X1779915D01*
Y424543D01*
Y423931D01*
Y423318D01*
Y422706D01*
Y422093D01*
X1779302D01*
Y421481D01*
Y420868D01*
Y420256D01*
Y419644D01*
X1778690D01*
Y419031D01*
Y418419D01*
Y417807D01*
Y417194D01*
X1778077D01*
Y416582D01*
Y415969D01*
Y415357D01*
X1777465D01*
Y414744D01*
Y414132D01*
Y413520D01*
X1776853D01*
Y412907D01*
Y412295D01*
Y411682D01*
X1776240D01*
Y411070D01*
Y410458D01*
Y409845D01*
X1775628D01*
Y409233D01*
Y408620D01*
X1775015D01*
Y408008D01*
Y407396D01*
Y406783D01*
X1774403D01*
Y406171D01*
Y405558D01*
X1773791D01*
Y404946D01*
Y404334D01*
X1773178D01*
Y403721D01*
Y403109D01*
X1772566D01*
Y402496D01*
Y401884D01*
X1771953D01*
Y401272D01*
Y400659D01*
X1771341D01*
Y400047D01*
Y399434D01*
X1770729D01*
Y398822D01*
Y398209D01*
X1770116D01*
Y397597D01*
Y396985D01*
X1769504D01*
Y396372D01*
X1768891D01*
Y395760D01*
Y395148D01*
X1768279D01*
Y394535D01*
X1767667D01*
Y393923D01*
Y393310D01*
X1767054D01*
Y392698D01*
Y392085D01*
X1766442D01*
Y391473D01*
X1765829D01*
Y390861D01*
X1765217D01*
Y390248D01*
Y389636D01*
X1764604D01*
Y389024D01*
X1763992D01*
Y388411D01*
X1763380D01*
Y387799D01*
Y387186D01*
X1762767D01*
Y386574D01*
X1762155D01*
Y385961D01*
X1761543D01*
Y385349D01*
X1760930D01*
Y384737D01*
Y384124D01*
X1760318D01*
Y383512D01*
X1759705D01*
Y382899D01*
X1759093D01*
Y382287D01*
X1758481D01*
Y381675D01*
X1757868D01*
Y381062D01*
X1757256D01*
Y380450D01*
X1756643D01*
Y379837D01*
X1756031D01*
Y379225D01*
X1755419D01*
Y378613D01*
X1754806D01*
Y378000D01*
X1754194D01*
Y377388D01*
X1753581D01*
Y376775D01*
X1752969D01*
Y376163D01*
X1752357D01*
Y375551D01*
X1751132D01*
Y374938D01*
X1750519D01*
Y374326D01*
X1749907D01*
Y373713D01*
X1749294D01*
Y373101D01*
X1748682D01*
Y372489D01*
X1747457D01*
Y371876D01*
X1746845D01*
Y371264D01*
X1746232D01*
Y370651D01*
X1745008D01*
Y370039D01*
X1744395D01*
Y369426D01*
X1743170D01*
Y368814D01*
X1742558D01*
Y368202D01*
X1741333D01*
Y367589D01*
X1740721D01*
Y366977D01*
X1739496D01*
Y366365D01*
X1738271D01*
Y365752D01*
X1737659D01*
Y365140D01*
X1736434D01*
Y364527D01*
X1735209D01*
Y363915D01*
X1733984D01*
Y363302D01*
X1732760D01*
Y362690D01*
X1731535D01*
Y362078D01*
X1730310D01*
Y361465D01*
X1728473D01*
Y360853D01*
X1727248D01*
Y360241D01*
X1725411D01*
Y359628D01*
X1724186D01*
Y359016D01*
X1722349D01*
Y358403D01*
X1720511D01*
Y357791D01*
X1718062D01*
Y357178D01*
X1715612D01*
Y356566D01*
X1713163D01*
Y355954D01*
X1710101D01*
Y355341D01*
X1705814D01*
Y354729D01*
X1698465D01*
Y354116D01*
X1691116D01*
Y354729D01*
X1683767D01*
Y355341D01*
X1680093D01*
Y355954D01*
X1676418D01*
Y356566D01*
X1673969D01*
Y357178D01*
X1671519D01*
Y357791D01*
X1669682D01*
Y358403D01*
X1667845D01*
Y359016D01*
X1666007D01*
Y359628D01*
X1664170D01*
Y360241D01*
X1662333D01*
Y360853D01*
X1661108D01*
Y361465D01*
X1659883D01*
Y362078D01*
X1658046D01*
Y362690D01*
X1656821D01*
Y363302D01*
X1655597D01*
Y363915D01*
X1654372D01*
Y364527D01*
X1653147D01*
Y365140D01*
X1652534D01*
Y365752D01*
X1651310D01*
Y366365D01*
X1650085D01*
Y366977D01*
X1649473D01*
Y367589D01*
X1648248D01*
Y368202D01*
X1647023D01*
Y368814D01*
X1646411D01*
Y369426D01*
X1645186D01*
Y370039D01*
X1644573D01*
Y370651D01*
X1643961D01*
Y371264D01*
X1642736D01*
Y371876D01*
X1642124D01*
Y372489D01*
X1641511D01*
Y373101D01*
X1640287D01*
Y373713D01*
X1639674D01*
Y374326D01*
X1639062D01*
Y374938D01*
X1638449D01*
Y375551D01*
X1637837D01*
Y376163D01*
X1637224D01*
Y376775D01*
X1636000D01*
Y377388D01*
X1635387D01*
Y378000D01*
X1634775D01*
Y378613D01*
X1634162D01*
Y379225D01*
X1633550D01*
Y379837D01*
X1632938D01*
Y380450D01*
X1632325D01*
Y381062D01*
X1631713D01*
Y381675D01*
X1631100D01*
Y382287D01*
X1630488D01*
Y382899D01*
Y383512D01*
X1629876D01*
Y384124D01*
X1629263D01*
Y384737D01*
X1628651D01*
Y385349D01*
X1628038D01*
Y385961D01*
X1627426D01*
Y386574D01*
X1626814D01*
Y387186D01*
Y387799D01*
X1626201D01*
Y388411D01*
X1625589D01*
Y389024D01*
X1624976D01*
Y389636D01*
Y390248D01*
X1624364D01*
Y390861D01*
X1623752D01*
Y391473D01*
X1623139D01*
Y392085D01*
Y392698D01*
X1622527D01*
Y393310D01*
X1621914D01*
Y393923D01*
Y394535D01*
X1621302D01*
Y395148D01*
Y395760D01*
X1620690D01*
Y396372D01*
X1620077D01*
Y396985D01*
Y397597D01*
X1619465D01*
Y398209D01*
Y398822D01*
X1618852D01*
Y399434D01*
X1618240D01*
Y400047D01*
Y400659D01*
X1617628D01*
Y401272D01*
Y401884D01*
X1617015D01*
Y402496D01*
Y403109D01*
X1616403D01*
Y403721D01*
Y404334D01*
Y404946D01*
X1615790D01*
Y405558D01*
Y406171D01*
X1615178D01*
Y406783D01*
Y407396D01*
X1614565D01*
Y408008D01*
Y408620D01*
Y409233D01*
X1613953D01*
Y409845D01*
Y410458D01*
X1613341D01*
Y411070D01*
Y411682D01*
Y412295D01*
X1612728D01*
Y412907D01*
Y413520D01*
Y414132D01*
X1612116D01*
Y414744D01*
Y415357D01*
Y415969D01*
X1611503D01*
Y416582D01*
Y417194D01*
Y417807D01*
X1610891D01*
Y418419D01*
Y419031D01*
Y419644D01*
Y420256D01*
X1610279D01*
Y420868D01*
Y421481D01*
Y422093D01*
Y422706D01*
X1609666D01*
Y423318D01*
Y423931D01*
Y424543D01*
Y425155D01*
Y425768D01*
Y426380D01*
X1609054D01*
Y426992D01*
Y427605D01*
Y428217D01*
Y428830D01*
Y429442D01*
Y430055D01*
X1608441D01*
Y430667D01*
Y431279D01*
Y431892D01*
Y432504D01*
Y433117D01*
Y433729D01*
Y434341D01*
Y434954D01*
Y435566D01*
Y436179D01*
Y436791D01*
X1607829D01*
Y437403D01*
Y438016D01*
Y438628D01*
Y439241D01*
Y439853D01*
Y440465D01*
Y441078D01*
Y441690D01*
Y442303D01*
Y442915D01*
Y443527D01*
Y444140D01*
Y444752D01*
Y445365D01*
Y445977D01*
X1608441D01*
Y446590D01*
Y447202D01*
Y447814D01*
Y448427D01*
Y449039D01*
Y449651D01*
Y450264D01*
Y450876D01*
Y451489D01*
Y452101D01*
Y452714D01*
X1609054D01*
Y453326D01*
Y453938D01*
Y454551D01*
Y455163D01*
Y455775D01*
Y456388D01*
X1609666D01*
Y457000D01*
Y457613D01*
Y458225D01*
Y458838D01*
Y459450D01*
X1610279D01*
Y460062D01*
Y460675D01*
Y461287D01*
Y461900D01*
Y462512D01*
X1610891D01*
Y463124D01*
Y463737D01*
Y464349D01*
Y464962D01*
X1611503D01*
Y465574D01*
Y466186D01*
Y466799D01*
X1612116D01*
Y467411D01*
Y468024D01*
Y468636D01*
X1612728D01*
Y469248D01*
Y469861D01*
Y470473D01*
X1613341D01*
Y471086D01*
Y471698D01*
Y472310D01*
X1613953D01*
Y472923D01*
Y473535D01*
X1614565D01*
Y474148D01*
Y474760D01*
Y475373D01*
X1615178D01*
Y475985D01*
Y476597D01*
X1615790D01*
Y477210D01*
Y477822D01*
X1616403D01*
Y478434D01*
Y479047D01*
Y479659D01*
X1617015D01*
Y480272D01*
X1617628D01*
Y480884D01*
Y481497D01*
X1618240D01*
Y482109D01*
Y482721D01*
X1618852D01*
Y483334D01*
Y483946D01*
X1619465D01*
Y484558D01*
Y485171D01*
X1620077D01*
Y485783D01*
Y486396D01*
X1620690D01*
Y487008D01*
X1621302D01*
Y487621D01*
Y488233D01*
X1621914D01*
Y488845D01*
X1622527D01*
Y489458D01*
Y490070D01*
X1623139D01*
Y490683D01*
X1623752D01*
Y491295D01*
Y491907D01*
X1624364D01*
Y492520D01*
X1624976D01*
Y493132D01*
Y493745D01*
X1625589D01*
Y494357D01*
X1626201D01*
Y494969D01*
X1626814D01*
Y495582D01*
X1627426D01*
Y496194D01*
Y496807D01*
X1628038D01*
Y497419D01*
X1628651D01*
Y498031D01*
X1629263D01*
Y498644D01*
X1629876D01*
Y499256D01*
X1630488D01*
Y499869D01*
X1631100D01*
Y500481D01*
X1631713D01*
Y501093D01*
Y501706D01*
X1632325D01*
Y502318D01*
X1632938D01*
Y502931D01*
X1633550D01*
Y503543D01*
X1634162D01*
Y504156D01*
X1634775D01*
Y504768D01*
X1636000D01*
Y505380D01*
X1636612D01*
Y505993D01*
X1637224D01*
Y506605D01*
X1637837D01*
Y507217D01*
X1638449D01*
Y507830D01*
X1639062D01*
Y508442D01*
X1639674D01*
Y509055D01*
X1640899D01*
Y509667D01*
X1641511D01*
Y510280D01*
X1642124D01*
Y510892D01*
X1643349D01*
Y511504D01*
X1643961D01*
Y512117D01*
X1644573D01*
Y512729D01*
X1645798D01*
Y513341D01*
X1646411D01*
Y513954D01*
X1647635D01*
Y514566D01*
X1648248D01*
Y515179D01*
X1649473D01*
Y515791D01*
X1650697D01*
Y516404D01*
X1651310D01*
Y517016D01*
X1652534D01*
Y517628D01*
X1653759D01*
Y518241D01*
X1654984D01*
Y518853D01*
X1656209D01*
Y519466D01*
X1657434D01*
Y520078D01*
X1658659D01*
Y520690D01*
X1659883D01*
Y521303D01*
X1661108D01*
Y521915D01*
X1662945D01*
Y522528D01*
X1664170D01*
Y523140D01*
X1666007D01*
Y523752D01*
X1667845D01*
Y524365D01*
X1669682D01*
Y524977D01*
X1672132D01*
Y525590D01*
X1674581D01*
Y526202D01*
X1677031D01*
Y526814D01*
X1680093D01*
Y527427D01*
X1684992D01*
Y528039D01*
X1705201D01*
Y527427D01*
D02*
G37*
%LPC*%
G36*
X1697240Y507830D02*
X1692341D01*
Y507217D01*
X1691116D01*
Y506605D01*
X1690504D01*
Y505993D01*
X1689279D01*
Y505380D01*
Y504768D01*
X1688666D01*
Y504156D01*
X1688054D01*
Y503543D01*
Y502931D01*
X1687442D01*
Y502318D01*
Y501706D01*
Y501093D01*
Y500481D01*
Y499869D01*
Y499256D01*
Y498644D01*
X1688054D01*
Y498031D01*
Y497419D01*
X1688666D01*
Y496807D01*
Y496194D01*
X1689279D01*
Y495582D01*
X1689891D01*
Y494969D01*
X1690504D01*
Y494357D01*
X1691728D01*
Y493745D01*
X1694178D01*
Y493132D01*
X1695403D01*
Y493745D01*
X1697852D01*
Y494357D01*
X1698465D01*
Y494969D01*
X1699690D01*
Y495582D01*
X1700302D01*
Y496194D01*
Y496807D01*
X1700914D01*
Y497419D01*
X1701527D01*
Y498031D01*
Y498644D01*
Y499256D01*
X1702139D01*
Y499869D01*
Y500481D01*
Y501093D01*
Y501706D01*
Y502318D01*
X1701527D01*
Y502931D01*
Y503543D01*
X1700914D01*
Y504156D01*
Y504768D01*
X1700302D01*
Y505380D01*
X1699690D01*
Y505993D01*
X1699077D01*
Y506605D01*
X1698465D01*
Y507217D01*
X1697240D01*
Y507830D01*
D02*
G37*
G36*
X1748682Y471698D02*
X1641511D01*
Y471086D01*
X1637837D01*
Y470473D01*
X1636612D01*
Y469861D01*
X1635387D01*
Y469248D01*
X1634775D01*
Y468636D01*
X1634162D01*
Y468024D01*
X1633550D01*
Y467411D01*
X1632938D01*
Y466799D01*
Y466186D01*
X1632325D01*
Y465574D01*
Y464962D01*
X1631713D01*
Y464349D01*
Y463737D01*
Y463124D01*
X1631100D01*
Y462512D01*
Y461900D01*
Y461287D01*
Y460675D01*
Y460062D01*
Y459450D01*
Y458838D01*
Y458225D01*
Y457613D01*
Y457000D01*
Y456388D01*
Y455775D01*
Y455163D01*
Y454551D01*
Y453938D01*
Y453326D01*
Y452714D01*
Y452101D01*
Y451489D01*
Y450876D01*
Y450264D01*
Y449651D01*
Y449039D01*
Y448427D01*
Y447814D01*
Y447202D01*
Y446590D01*
Y445977D01*
Y445365D01*
Y444752D01*
Y444140D01*
Y443527D01*
Y442915D01*
Y442303D01*
Y441690D01*
Y441078D01*
Y440465D01*
Y439853D01*
Y439241D01*
Y438628D01*
Y438016D01*
Y437403D01*
Y436791D01*
Y436179D01*
Y435566D01*
Y434954D01*
Y434341D01*
Y433729D01*
Y433117D01*
Y432504D01*
Y431892D01*
Y431279D01*
Y430667D01*
Y430055D01*
Y429442D01*
Y428830D01*
Y428217D01*
Y427605D01*
Y426992D01*
Y426380D01*
Y425768D01*
Y425155D01*
Y424543D01*
Y423931D01*
Y423318D01*
Y422706D01*
Y422093D01*
Y421481D01*
Y420868D01*
Y420256D01*
Y419644D01*
Y419031D01*
Y418419D01*
X1631713D01*
Y417807D01*
Y417194D01*
Y416582D01*
X1632325D01*
Y415969D01*
Y415357D01*
X1632938D01*
Y414744D01*
Y414132D01*
X1633550D01*
Y413520D01*
X1634162D01*
Y412907D01*
X1634775D01*
Y412295D01*
X1636000D01*
Y411682D01*
X1636612D01*
Y411070D01*
X1637837D01*
Y410458D01*
X1751744D01*
Y411070D01*
X1753581D01*
Y411682D01*
X1754194D01*
Y412295D01*
X1755419D01*
Y412907D01*
X1756031D01*
Y413520D01*
X1756643D01*
Y414132D01*
X1757256D01*
Y414744D01*
Y415357D01*
X1757868D01*
Y415969D01*
Y416582D01*
X1758481D01*
Y417194D01*
Y417807D01*
Y418419D01*
Y419031D01*
X1759093D01*
Y419644D01*
Y420256D01*
Y420868D01*
Y421481D01*
Y422093D01*
Y422706D01*
Y423318D01*
Y423931D01*
Y424543D01*
Y425155D01*
Y425768D01*
Y426380D01*
Y426992D01*
Y427605D01*
Y428217D01*
Y428830D01*
Y429442D01*
Y430055D01*
Y430667D01*
Y431279D01*
Y431892D01*
Y432504D01*
Y433117D01*
Y433729D01*
Y434341D01*
Y434954D01*
Y435566D01*
Y436179D01*
Y436791D01*
Y437403D01*
Y438016D01*
Y438628D01*
Y439241D01*
Y439853D01*
Y440465D01*
Y441078D01*
Y441690D01*
Y442303D01*
Y442915D01*
Y443527D01*
Y444140D01*
Y444752D01*
Y445365D01*
Y445977D01*
Y446590D01*
Y447202D01*
Y447814D01*
Y448427D01*
Y449039D01*
Y449651D01*
Y450264D01*
Y450876D01*
Y451489D01*
Y452101D01*
Y452714D01*
Y453326D01*
Y453938D01*
Y454551D01*
Y455163D01*
Y455775D01*
Y456388D01*
Y457000D01*
Y457613D01*
Y458225D01*
Y458838D01*
Y459450D01*
Y460062D01*
Y460675D01*
Y461287D01*
Y461900D01*
Y462512D01*
X1758481D01*
Y463124D01*
Y463737D01*
Y464349D01*
Y464962D01*
X1757868D01*
Y465574D01*
Y466186D01*
X1757256D01*
Y466799D01*
Y467411D01*
X1756643D01*
Y468024D01*
X1756031D01*
Y468636D01*
X1755419D01*
Y469248D01*
X1754194D01*
Y469861D01*
X1753581D01*
Y470473D01*
X1752357D01*
Y471086D01*
X1748682D01*
Y471698D01*
D02*
G37*
%LPD*%
G36*
X1695403Y502931D02*
X1696628D01*
Y502318D01*
X1697240D01*
Y501706D01*
Y501093D01*
Y500481D01*
Y499869D01*
Y499256D01*
Y498644D01*
X1696628D01*
Y498031D01*
X1695403D01*
Y497419D01*
X1693566D01*
Y498031D01*
X1692341D01*
Y498644D01*
X1691728D01*
Y499256D01*
Y499869D01*
Y500481D01*
Y501093D01*
Y501706D01*
Y502318D01*
X1692341D01*
Y502931D01*
X1693566D01*
Y503543D01*
X1695403D01*
Y502931D01*
D02*
G37*
G36*
X1662945Y450264D02*
X1664783D01*
Y449651D01*
X1665395D01*
Y449039D01*
X1666620D01*
Y448427D01*
X1667232D01*
Y447814D01*
X1667845D01*
Y447202D01*
X1668457D01*
Y446590D01*
Y445977D01*
X1669070D01*
Y445365D01*
Y444752D01*
X1669682D01*
Y444140D01*
Y443527D01*
Y442915D01*
X1670294D01*
Y442303D01*
Y441690D01*
Y441078D01*
Y440465D01*
Y439853D01*
Y439241D01*
Y438628D01*
X1669682D01*
Y438016D01*
Y437403D01*
Y436791D01*
X1669070D01*
Y436179D01*
Y435566D01*
X1668457D01*
Y434954D01*
X1667845D01*
Y434341D01*
Y433729D01*
X1667232D01*
Y433117D01*
X1666007D01*
Y432504D01*
X1665395D01*
Y431892D01*
X1664170D01*
Y431279D01*
X1662333D01*
Y430667D01*
X1658046D01*
Y431279D01*
X1656209D01*
Y431892D01*
X1654984D01*
Y432504D01*
X1653759D01*
Y433117D01*
X1653147D01*
Y433729D01*
X1652534D01*
Y434341D01*
X1651922D01*
Y434954D01*
X1651310D01*
Y435566D01*
Y436179D01*
X1650697D01*
Y436791D01*
Y437403D01*
X1650085D01*
Y438016D01*
Y438628D01*
Y439241D01*
Y439853D01*
Y440465D01*
Y441078D01*
Y441690D01*
Y442303D01*
Y442915D01*
Y443527D01*
Y444140D01*
X1650697D01*
Y444752D01*
Y445365D01*
Y445977D01*
X1651310D01*
Y446590D01*
X1651922D01*
Y447202D01*
X1652534D01*
Y447814D01*
X1653147D01*
Y448427D01*
X1653759D01*
Y449039D01*
X1654372D01*
Y449651D01*
X1655597D01*
Y450264D01*
X1656821D01*
Y450876D01*
X1662945D01*
Y450264D01*
D02*
G37*
G36*
X1729698D02*
X1732147D01*
Y449651D01*
X1733984D01*
Y449039D01*
X1734597D01*
Y448427D01*
X1735209D01*
Y447814D01*
X1736434D01*
Y447202D01*
Y446590D01*
X1737046D01*
Y445977D01*
X1737659D01*
Y445365D01*
Y444752D01*
X1738271D01*
Y444140D01*
Y443527D01*
Y442915D01*
X1738884D01*
Y442303D01*
Y441690D01*
Y441078D01*
Y440465D01*
Y439853D01*
Y439241D01*
Y438628D01*
Y438016D01*
X1738271D01*
Y437403D01*
Y436791D01*
Y436179D01*
X1737659D01*
Y435566D01*
Y434954D01*
X1737046D01*
Y434341D01*
X1736434D01*
Y433729D01*
Y433117D01*
X1735822D01*
Y432504D01*
X1734597D01*
Y431892D01*
X1733984D01*
Y431279D01*
X1732760D01*
Y430667D01*
X1730310D01*
Y430055D01*
X1727248D01*
Y430667D01*
X1724798D01*
Y431279D01*
X1723573D01*
Y431892D01*
X1722961D01*
Y432504D01*
X1721736D01*
Y433117D01*
X1721124D01*
Y433729D01*
Y434341D01*
X1720511D01*
Y434954D01*
X1719899D01*
Y435566D01*
Y436179D01*
X1719287D01*
Y436791D01*
Y437403D01*
Y438016D01*
X1718674D01*
Y438628D01*
Y439241D01*
Y439853D01*
Y440465D01*
Y441078D01*
Y441690D01*
Y442303D01*
Y442915D01*
X1719287D01*
Y443527D01*
Y444140D01*
Y444752D01*
X1719899D01*
Y445365D01*
Y445977D01*
X1720511D01*
Y446590D01*
X1721124D01*
Y447202D01*
X1721736D01*
Y447814D01*
X1722349D01*
Y448427D01*
X1722961D01*
Y449039D01*
X1723573D01*
Y449651D01*
X1725411D01*
Y450264D01*
X1727860D01*
Y450876D01*
X1729698D01*
Y450264D01*
D02*
G37*
D10*
X669300Y927500D02*
X747650D01*
X669300Y658300D02*
X735300D01*
D14*
X774923Y907354D02*
X762227D01*
X759688Y909893D01*
Y914971D01*
X762227Y917511D01*
X774923D01*
X759688Y922589D02*
Y927667D01*
Y925128D01*
X774923D01*
X772384Y922589D01*
D15*
X1856598Y554848D02*
X1829607D01*
X1838604Y545851D01*
X1829607Y536854D01*
X1856598D01*
X1829607Y514361D02*
Y523358D01*
X1834105Y527857D01*
X1852099D01*
X1856598Y523358D01*
Y514361D01*
X1852099Y509863D01*
X1834105D01*
X1829607Y514361D01*
X1856598Y500866D02*
X1829607D01*
X1838604Y491868D01*
X1829607Y482871D01*
X1856598D01*
X1829607Y473874D02*
Y464877D01*
Y469376D01*
X1856598D01*
Y473874D01*
Y464877D01*
X1829607Y451381D02*
X1852099D01*
X1856598Y446883D01*
Y437886D01*
X1852099Y433387D01*
X1829607D01*
X1856598Y397399D02*
X1829607D01*
Y383903D01*
X1834105Y379405D01*
X1843102D01*
X1847601Y383903D01*
Y397399D01*
Y388402D02*
X1856598Y379405D01*
X1829607Y356912D02*
Y365909D01*
X1834105Y370408D01*
X1852099D01*
X1856598Y365909D01*
Y356912D01*
X1852099Y352414D01*
X1834105D01*
X1829607Y356912D01*
Y343416D02*
X1856598D01*
Y329921D01*
X1852099Y325422D01*
X1847601D01*
X1843102Y329921D01*
Y343416D01*
Y329921D01*
X1838604Y325422D01*
X1834105D01*
X1829607Y329921D01*
Y343416D01*
Y302930D02*
Y311927D01*
X1834105Y316425D01*
X1852099D01*
X1856598Y311927D01*
Y302930D01*
X1852099Y298431D01*
X1834105D01*
X1829607Y302930D01*
Y289434D02*
Y271440D01*
Y280437D01*
X1856598D01*
M02*
